<svg xml:space="preserve" enable-background="new 0 0 322 392" viewBox="0 0 322 392" height="392px" width="322px" y="0px" x="0px" xmlns:xlink="http://www.w3.org/1999/xlink" xmlns="http://www.w3.org/2000/svg" id="svg-layer" version="1.1"> 
<linearGradient gradientTransform="matrix(0.9964 -0.0852 0.0852 0.9964 -52.8605 51.5599)" y2="370.1443" x2="222.065" y1="131.9702" x1="190.0713" gradientUnits="userSpaceOnUse" id="SVGID_1_">
<stop style="stop-color:#D09451" offset="0"/>
<stop style="stop-color:#FFCD67" offset="1"/>
</linearGradient>
<polygon points="213.055,95.366 192.691,144.594 68.829,219.42 38.063,317.327 121.14,300.587 182.5,305.835 
178.942,275.382 211.207,316.358 234.689,330.21 222.75,260.472 268.496,185.15 284.9,139.703 " fill="url(#SVGID_1_)"/>
<linearGradient gradientTransform="matrix(0.9982 -0.0594 0.0594 0.9982 -34.3766 16.7626)" y2="364.2057" x2="231.6572" y1="255.7822" x1="217.0928" gradientUnits="userSpaceOnUse" id="SVGID_2_">
<stop style="stop-color:#B96C43" offset="0"/>
<stop style="stop-color:#000000" offset="1"/>
</linearGradient>
<polygon points="207.707,325.667 234.025,334.769 207.438,231.462 178.942,275.382 " fill="url(#SVGID_2_)"/>
<linearGradient gradientTransform="matrix(0.9982 -0.0594 0.0594 0.9982 -34.3766 16.7626)" y2="204.3005" x2="285.6408" y1="165.5713" x1="284.2813" gradientUnits="userSpaceOnUse" id="SVGID_3_">
<stop style="stop-color:#A3743E" offset="0"/>
<stop style="stop-color:#FEFBDA" offset="1"/>
</linearGradient>
<polygon points="235.584,196.353 268.496,185.15 283.74,143.129 245.795,165.612 " fill="url(#SVGID_3_)"/>
<linearGradient gradientTransform="matrix(0.9982 -0.0594 0.0594 0.9982 -34.3766 16.7626)" y2="184.5535" x2="234.932" y1="128.6528" x1="257.1152" gradientUnits="userSpaceOnUse" id="SVGID_4_">
<stop style="stop-color:#C98C46" offset="0"/>
<stop style="stop-color:#FEFBDA" offset="1"/>
</linearGradient>
<polygon points="192.691,144.594 235.584,196.353 248.332,172.309 206.697,116.062 " fill="url(#SVGID_4_)"/>
<g>
	<g id="fox-nose-tip">
		<linearGradient gradientTransform="matrix(1 -0.0082 0.0082 1 -29.1484 5.8137)" y2="163.063" x2="271.9888" y1="155.1592" x1="272.4863" gradientUnits="userSpaceOnUse" id="SVGID_6_">
			<stop style="stop-color:#544741" offset="0"/>
			<stop style="stop-color:#000000" offset="1"/>
		</linearGradient>
		<polygon points="249.488,156.608 237.707,156.823 234.486,163.126 254.244,163.294 		" fill="url(#SVGID_6_)"/>
		<linearGradient gradientTransform="matrix(1 -0.0082 0.0082 1 -29.1484 5.8137)" y2="160.3212" x2="272.052" y1="170.9922" x1="269.9063" gradientUnits="userSpaceOnUse" id="SVGID_7_">
			<stop style="stop-color:#544741" offset="0"/>
			<stop style="stop-color:#000000" offset="1"/>
		</linearGradient>
		<polygon points="234.486,163.126 234.445,163.202 244.055,172.489 254.244,163.294 		" fill="url(#SVGID_7_)"/>
	</g>
<linearGradient gradientTransform="matrix(1 -0.0082 0.0082 1 -29.1484 5.8137)" y2="41.664" x2="241.7096" y1="77.3921" x1="205.9814" gradientUnits="userSpaceOnUse" id="SVGID_8_">
<stop style="stop-color:#96634D" offset="0"/>
<stop style="stop-color:#BF9353" offset="1"/>
</linearGradient>
<polygon points="192.801,72.872 194.285,13.855 236.393,72.186 212.201,80.583 195.98,100.708 	" fill="url(#SVGID_8_)"/>
<linearGradient gradientTransform="matrix(1 -0.0082 0.0082 1 -29.1484 5.8137)" y2="95.5026" x2="287.5763" y1="128.0513" x1="325.5498" gradientUnits="userSpaceOnUse" id="SVGID_13_">
<stop style="stop-color:#96634D" offset="0"/>
<stop style="stop-color:#BF9353" offset="1"/>
</linearGradient>
<polygon points="296.285,100.544 302.094,129.341 272.018,139.424 260.039,117.562 	" fill="url(#SVGID_13_)" id="eye-sock-right"/>
<linearGradient gradientTransform="matrix(1 -0.0082 0.0082 1 -29.1484 5.8137)" y2="117.4516" x2="236.8237" y1="125.0078" x1="259.4922" gradientUnits="userSpaceOnUse" id="SVGID_10_">
<stop style="stop-color:#D09451" offset="0"/>
<stop style="stop-color:#FEFBDA" offset="1"/>
</linearGradient>
<polygon points="195.98,100.708 201.498,134.427 224.842,143.088 231.178,116.158 	" fill="url(#SVGID_10_)" id="eye-socket-left"/>
<linearGradient gradientTransform="matrix(1 -0.0082 0.0082 1 -29.1484 5.8137)" y2="116.7753" x2="294.4836" y1="107.5366" x1="307.6133" gradientUnits="userSpaceOnUse" id="SVGID_16_">
<stop style="stop-color:#414042" offset="0"/>
<stop style="stop-color:#402312" offset="1"/>
</linearGradient>
<polygon points="271.461,112.781 260.039,117.562 265.619,127.75 284.412,111.785 	" fill="url(#SVGID_16_)" id="eye-right"/>
<linearGradient gradientTransform="matrix(-1 0.0082 0.0082 1 741.0635 -0.2004)" y2="115.6597" x2="515.4787" y1="106.6738" x1="528.249" gradientUnits="userSpaceOnUse" id="SVGID_17_">
<stop style="stop-color:#414042" offset="0"/>
<stop style="stop-color:#402312" offset="1"/>
</linearGradient>
<polygon points="220.498,111.468 231.178,116.158 227.342,126.984 209.5,110.761 	" fill="url(#SVGID_17_)" id="eye-left"/>
<polygon points="231.178,116.158 221.076,121.285 220.498,111.468 	" id="pupil-left"/>
<polygon points="270.566,123.544 262.512,116.525 271.461,112.781 	" id="pupil-right"/>
<g id="right-eyebrow">
	<animateTransform repeatCount="indefinite" calcMode="spline" keyTimes="
	            0;0.05;0.1;1" keySplines="
	            0.6 0.1 0.8 0.1;
	            0.1 0.8 0.1 1;
	            0.1 0.8 0.1 1" values="-4,-14;0,0;-4,-14;-4,-14" dur="6s" begin="0s" to="0,0" from="-4,-14" type="translate" attributeName="transform" attributeType="XML"/>
	<linearGradient gradientTransform="matrix(1 -0.0082 0.0082 1 -29.1484 5.8137)" y2="116.7753" x2="294.4836" y1="107.5366" x1="307.6133" gradientUnits="userSpaceOnUse" id="SVGID_16_">
		<stop style="stop-color:#414042" offset="0"/>
		<stop style="stop-color:#402312" offset="1"/>
	</linearGradient>
	<polygon points="271.461,112.781 260.039,117.562 265.619,127.75 284.412,111.785 	" fill="url(#SVGID_15_)" id="eye-right"/>
</g>
<g id="left-eyebrow">
	<animateTransform repeatCount="indefinite" calcMode="spline" keyTimes="
	            0;0.05;0.1;1" keySplines="
	            0.6 0.1 0.8 0.1;
	            0.1 0.8 0.1 1;
	            0.1 0.8 0.1 1" values="4,-14;0,0;4,-14;-4,-14" dur="6s" begin="0s" to="0,0" from="4,-14" type="translate" attributeName="transform" attributeType="XML"/>
	<linearGradient gradientTransform="matrix(-1 0.0082 0.0082 1 741.0635 -0.2004)" y2="115.6597" x2="515.4787" y1="106.6738" x1="528.249" gradientUnits="userSpaceOnUse" id="SVGID_17_">
		<stop style="stop-color:#414042" offset="0"/>
		<stop style="stop-color:#402312" offset="1"/>
	</linearGradient>
	<polygon points="220.498,111.468 231.178,116.158 227.342,126.984 209.5,110.761 	" fill="url(#SVGID_14_)" id="eye-left"/>
</g>
<linearGradient gradientTransform="matrix(1 -0.0082 0.0082 1 -29.1484 5.8137)" y2="135.7585" x2="260.2412" y1="139.377" x1="271.0967" gradientUnits="userSpaceOnUse" id="SVGID_11_">
<stop style="stop-color:#D09451" offset="0"/>
<stop style="stop-color:#FEFBDA" offset="1"/>
</linearGradient>
<polygon points="223.121,138.893 234.486,163.126 237.707,156.823 231.178,116.158 	" fill="url(#SVGID_11_)" id="nose-side-left"/>
<linearGradient gradientTransform="matrix(1 -0.0082 0.0082 1 -29.1484 5.8137)" y2="123.626" x2="269.6187" y1="144.1367" x1="293.5479" gradientUnits="userSpaceOnUse" id="SVGID_12_">
<stop style="stop-color:#96634D" offset="0"/>
<stop style="stop-color:#BF9353" offset="1"/>
</linearGradient>
<polygon points="260.039,117.562 272.018,139.424 254.244,163.294 249.488,156.608 	" fill="url(#SVGID_12_)" id="nose-side-right"/>
<linearGradient gradientTransform="matrix(1 -0.0082 0.0082 1 -29.1484 5.8137)" y2="106.2851" x2="266.7884" y1="124.0659" x1="320.1309" gradientUnits="userSpaceOnUse" id="SVGID_9_">
<stop style="stop-color:#D09451" offset="0"/>
<stop style="stop-color:#FFCD67" offset="1"/>
</linearGradient>
<polygon points="249.488,156.608 260.994,117.951 296.285,100.544 268.85,72.577 236.393,72.186 
212.201,80.583 195.98,100.708 231.178,116.158 237.707,156.823 	" fill="url(#SVGID_9_)"/>
<linearGradient gradientTransform="matrix(1 -0.0082 0.0082 1 -29.1484 5.8137)" y2="104.1558" x2="236.4911" y1="93.5879" x1="251.5098" gradientUnits="userSpaceOnUse" id="SVGID_14_">
<stop style="stop-color:#D09451" offset="0"/>
<stop style="stop-color:#FFCD67" offset="1"/>
</linearGradient>
<polygon points="212.201,80.583 237.309,110.144 231.178,116.158 195.98,100.708 	" fill="url(#SVGID_14_)" id="brow-left"/>
<linearGradient gradientTransform="matrix(1 -0.0082 0.0082 1 -29.1484 5.8137)" y2="116.377" x2="317.3458" y1="100.5654" x1="302.1787" gradientUnits="userSpaceOnUse" id="SVGID_15_">
<stop style="stop-color:#D09451" offset="0"/>
<stop style="stop-color:#FFCD67" offset="1"/>
</linearGradient>
<polygon points="254.252,109.414 260.039,117.562 296.285,100.544 284.701,87.198 	" fill="url(#SVGID_15_)" id="brow-right"/>
<linearGradient gradientTransform="matrix(1 -0.0082 0.0082 1 -29.1484 5.8137)" y2="28.677" x2="391.2287" y1="79.4849" x1="330.2598" gradientUnits="userSpaceOnUse" id="SVGID_18_">
<stop style="stop-color:#96634D" offset="0"/>
<stop style="stop-color:#BF9353" offset="1"/>
</linearGradient>
<polygon points="268.85,72.577 315.006,24.339 313,100.075 302.094,129.341 296.529,100.538 	" fill="url(#SVGID_18_)"/>
<linearGradient gradientTransform="matrix(1 -0.0082 0.0082 1 -29.1484 5.8137)" y2="119.5399" x2="251.9419" y1="155.5156" x1="233.1357" gradientUnits="userSpaceOnUse" id="SVGID_19_">
<stop style="stop-color:#D09451" offset="0"/>
<stop style="stop-color:#FEFBDA" offset="1"/>
</linearGradient>
<polygon points="201.498,134.427 223.639,155.884 223.121,138.893 	" fill="url(#SVGID_19_)"/>
<linearGradient gradientTransform="matrix(1 -0.0082 0.0082 1 -29.1484 5.8137)" y2="172.7966" x2="266.161" y1="164.1138" x1="261.0615" gradientUnits="userSpaceOnUse" id="SVGID_20_">
<stop style="stop-color:#D09451" offset="0"/>
<stop style="stop-color:#FEFBDA" offset="1"/>
</linearGradient>
<polygon points="234.445,163.202 229.695,175.172 244.055,172.489 	" fill="url(#SVGID_20_)"/>
<linearGradient gradientTransform="matrix(-1 0.0082 0.0082 1 736.3818 -0.1624)" y2="167.2038" x2="486.2115" y1="156.936" x1="493.9121" gradientUnits="userSpaceOnUse" id="SVGID_21_">
<stop style="stop-color:#D09451" offset="0"/>
<stop style="stop-color:#FEFBDA" offset="1"/>
</linearGradient>
<polygon points="254.244,163.294 259.844,173.946 244.055,172.489 	" fill="url(#SVGID_21_)"/>
<linearGradient gradientTransform="matrix(1 -0.0082 0.0082 1 -29.1484 5.8137)" y2="150.8674" x2="256.1255" y1="128.9731" x1="272.5459" gradientUnits="userSpaceOnUse" id="SVGID_22_">
<stop style="stop-color:#D09451" offset="0"/>
<stop style="stop-color:#FEFBDA" offset="1"/>
</linearGradient>
<polygon points="223.639,155.884 229.695,175.172 234.445,163.202 223.121,138.893 	" fill="url(#SVGID_22_)"/>
<linearGradient gradientTransform="matrix(1 -0.0082 0.0082 1 -29.1484 5.8137)" y2="146.1488" x2="315.6733" y1="128.1196" x1="315.0186" gradientUnits="userSpaceOnUse" id="SVGID_23_">
<stop style="stop-color:#6B4634" offset="0"/>
<stop style="stop-color:#BD6B4A" offset="1"/>
</linearGradient>
<polygon points="302.094,129.341 275.43,155.458 272.018,139.424 	" fill="url(#SVGID_23_)"/>
<linearGradient gradientTransform="matrix(1 -0.0082 0.0082 1 -29.1484 5.8137)" y2="175.4632" x2="291.6667" y1="150.8779" x1="292.9775" gradientUnits="userSpaceOnUse" id="SVGID_24_">
<stop style="stop-color:#6B4634" offset="0"/>
<stop style="stop-color:#864B31" offset="1"/>
</linearGradient>
<polygon points="275.43,155.458 259.844,173.946 254.244,163.294 272.018,139.424 	" fill="url(#SVGID_24_)"/>
<linearGradient gradientTransform="matrix(1 -0.0082 0.0082 1 -29.1484 5.8137)" y2="57.1847" x2="303.7775" y1="31.9888" x1="339.585" gradientUnits="userSpaceOnUse" id="SVGID_25_">
<stop style="stop-color:#D09451" offset="0"/>
<stop style="stop-color:#FFCD67" offset="1"/>
</linearGradient>
<polygon points="264.561,69.006 315.006,24.339 268.85,72.577 	" fill="url(#SVGID_25_)"/>
<linearGradient gradientTransform="matrix(1 -0.0082 0.0082 1 -29.1484 5.8137)" y2="38.8181" x2="244.7213" y1="37.2979" x1="246.8818" gradientUnits="userSpaceOnUse" id="SVGID_26_">
<stop style="stop-color:#D09451" offset="0"/>
<stop style="stop-color:#FFCD67" offset="1"/>
</linearGradient>
<polygon points="197.238,14.483 238.662,68.889 236.393,72.186 194.285,13.855 	" fill="url(#SVGID_26_)"/>
<linearGradient gradientTransform="matrix(1 -0.0082 0.0082 1 -29.1484 5.8137)" y2="71.4317" x2="280.8506" y1="60.3281" x1="282.3926" gradientUnits="userSpaceOnUse" id="SVGID_27_">
<stop style="stop-color:#D09451" offset="0"/>
<stop style="stop-color:#FEFBDA" offset="1"/>
</linearGradient>
<polygon points="238.662,68.889 264.561,69.006 268.85,72.577 236.393,72.186 	" fill="url(#SVGID_27_)"/>
<linearGradient gradientTransform="matrix(1 -0.0082 0.0082 1 -29.1484 5.8137)" y2="178.3849" x2="273.2563" y1="171.3882" x1="272.5566" gradientUnits="userSpaceOnUse" id="SVGID_28_">
<stop style="stop-color:#D09451" offset="0"/>
<stop style="stop-color:#FEFBDA" offset="1"/>
</linearGradient>
<polygon points="229.695,175.172 243.736,181.393 259.844,173.946 243.148,172.375 	" fill="url(#SVGID_28_)" id="chin"/>
<linearGradient gradientTransform="matrix(1 -0.0082 0.0082 1 -29.1484 5.8137)" y2="33.6413" x2="246.5296" y1="69.7012" x1="233.418" gradientUnits="userSpaceOnUse" id="SVGID_29_">
<stop style="stop-color:#96634D" offset="0"/>
<stop style="stop-color:#BF9353" offset="1"/>
</linearGradient>
<polygon points="194.619,14.831 212.201,80.583 236.393,72.186 	" fill="url(#SVGID_29_)"/>
<linearGradient gradientTransform="matrix(1 -0.0082 0.0082 1 -29.1484 5.8137)" y2="32.6841" x2="325.282" y1="77.8418" x1="308.8623" gradientUnits="userSpaceOnUse" id="SVGID_30_">
<stop style="stop-color:#6B4634" offset="0"/>
<stop style="stop-color:#864B31" offset="1"/>
</linearGradient>
<polygon points="284.014,87.897 315.006,24.339 268.85,72.577 	" fill="url(#SVGID_30_)"/>
<linearGradient gradientTransform="matrix(1 -0.0082 0.0082 1 -29.1484 5.8137)" y2="91.8231" x2="351.4082" y1="109.6284" x1="330.042" gradientUnits="userSpaceOnUse" id="SVGID_31_">
<stop style="stop-color:#96634D" offset="0"/>
<stop style="stop-color:#BF9353" offset="1"/>
</linearGradient>
<polygon points="296.285,100.544 313,100.075 302.094,129.341 	" fill="url(#SVGID_31_)"/>
</g>
<linearGradient gradientTransform="matrix(0.9982 -0.0594 0.0594 0.9982 -34.3766 16.7626)" y2="217.1429" x2="172.3215" y1="269.0752" x1="178.6548" gradientUnits="userSpaceOnUse" id="SVGID_34_">
<stop style="stop-color:#B96C43" offset="0"/>
<stop style="stop-color:#FFCD67" offset="1"/>
</linearGradient>
<polygon points="207.438,231.462 106.731,286.782 178.942,275.382 " fill="url(#SVGID_34_)"/>
<linearGradient gradientTransform="matrix(0.9982 -0.0594 0.0594 0.9982 -34.3766 16.7626)" y2="105.3187" x2="163.1311" y1="225.4688" x1="177.7837" gradientUnits="userSpaceOnUse" id="SVGID_36_">
<stop style="stop-color:#D09451" offset="0"/>
<stop style="stop-color:#FFCD67" offset="1"/>
</linearGradient>
<polygon points="207.438,231.462 235.584,196.353 192.691,144.594 68.829,219.42 " fill="url(#SVGID_36_)"/>
<linearGradient gradientTransform="matrix(0.9982 -0.0594 0.0594 0.9982 -34.3766 16.7626)" y2="272.5031" x2="262.9952" y1="215.2759" x1="260.9863" gradientUnits="userSpaceOnUse" id="SVGID_37_">
<stop style="stop-color:#9D5B37" offset="0"/>
<stop style="stop-color:#FFCD67" offset="1"/>
</linearGradient>
<polygon points="207.438,231.462 222.75,260.472 268.84,184.205 235.584,196.353 " fill="url(#SVGID_37_)"/>

<linearGradient gradientTransform="matrix(0.9991 -0.043 0.043 0.9991 -22.2784 -4.4059)" y2="208.2801" x2="163.5332" y1="181.54" x1="131.2744" gradientUnits="userSpaceOnUse" id="SVGID_39_">
<stop style="stop-color:#D09451" offset="0"/>
<stop style="stop-color:#FFCD67" offset="1"/>
</linearGradient>
<polygon points="192.691,144.594 122.151,224.053 68.829,219.42 " fill="url(#SVGID_39_)"/>
<linearGradient gradientTransform="matrix(0.9982 -0.0594 0.0594 0.9982 -34.3766 16.7626)" y2="169.7541" x2="215.1056" y1="253.9043" x1="183.0483" gradientUnits="userSpaceOnUse" id="SVGID_40_">
<stop style="stop-color:#D09451" offset="0"/>
<stop style="stop-color:#FFCD67" offset="1"/>
</linearGradient>
<polygon points="106.731,286.782 122.151,224.053 235.584,196.353 207.438,231.462 " fill="url(#SVGID_40_)"/>
<linearGradient gradientTransform="matrix(0.9982 -0.0594 0.0594 0.9982 -34.3766 16.7626)" y2="269.3019" x2="88.6485" y1="299.4717" x1="98.4092" gradientUnits="userSpaceOnUse" id="SVGID_41_">
<stop style="stop-color:#D09451" offset="0"/>
<stop style="stop-color:#FFCD67" offset="1"/>
</linearGradient>
<polygon points="38.063,317.327 106.731,286.782 175.922,330.45 " fill="url(#SVGID_41_)"/>
<g id="tail-start">
	<animateTransform repeatCount="indefinite" calcMode="spline" keyTimes="
	            0;0.06;0.1;1" keySplines="
	            0.6 0.1 0.6 0.1;
	            0.1 0.6 0.1 1;
	            0.1 0.8 0.1 1" values="0 12.721,339.345; 2 12.721,339.345; 0 12.721,339.345; 0 12.721,339.345" dur="14s" begin="0s" to="2 12.721,339.345" from="0 12.721,339.345" type="rotate" attributeName="transform" attributeType="XML"/>
<linearGradient gradientTransform="matrix(0.9964 -0.0852 0.0852 0.9964 -52.8605 51.5604)" y2="400.3419" x2="197.1347" y1="284.1621" x1="181.5283" gradientUnits="userSpaceOnUse" id="SVGID_5_">
<stop style="stop-color:#D09451" offset="0"/>
<stop style="stop-color:#FFCD67" offset="1"/>
</linearGradient>
<polygon points="12.721,339.345 38.063,317.327 123.454,297.837 120.669,330.548 110.677,366.423 22.109,362.929" fill="url(#SVGID_5_)" id="tail-start-base"/>
<linearGradient gradientTransform="matrix(0.9982 -0.0594 0.0594 0.9982 -34.3766 16.7626)" y2="313.8127" x2="83.6728" y1="340.4316" x1="65.0396" gradientUnits="userSpaceOnUse" id="SVGID_38_">
<stop style="stop-color:#D09451" offset="0"/>
<stop style="stop-color:#FFCD67" offset="1"/>
</linearGradient>
<polygon points="12.721,339.345 38.063,317.327 123.454,297.837 120.669,330.548 " fill="url(#SVGID_38_)" id="tail-start-top"/>
<linearGradient gradientTransform="matrix(0.9982 -0.0594 0.0594 0.9982 -34.3766 16.7626)" y2="298.6635" x2="73.9945" y1="356.5566" x1="81.0547" gradientUnits="userSpaceOnUse" id="SVGID_35_">
<stop style="stop-color:#B96C43" offset="0"/>
<stop style="stop-color:#FFCD67" offset="1"/>
</linearGradient>
<polygon points="12.721,339.345 120.669,330.548 110.677,366.423 22.109,362.929 " fill="url(#SVGID_35_)" id="tail-start-bottom"/>
</g>
<g id="tail-end-main">    
	<animateTransform repeatCount="indefinite" calcMode="spline" keyTimes="
	            0;0.06;0.1;1" keySplines="
	            0.6 0.1 0.6 0.1;
	            0.1 0.6 0.1 1;
	            0.1 0.8 0.1 1" values="0,0;-6,6;0,0;0,0" dur="14s" begin="0s" to="-6,6" from="0,0" type="translate" attributeName="transform" attributeType="XML"/>    
  <g id="tail-end">
	<animateTransform repeatCount="indefinite" calcMode="spline" keyTimes="
	            0;0.06;0.1;1" keySplines="
	            0.6 0.1 0.6 0.1;
	            0.1 0.6 0.1 1;
	            0.1 0.8 0.1 1" values="0 100.669,330.548; -10 100.669,330.548; 0 100.669,330.548; 0 100.669,330.548" dur="14s" begin="0s" to="-10 100.669,330.548" from="0 100.669,330.548" type="rotate" attributeName="transform" attributeType="XML"/>
<linearGradient gradientTransform="matrix(0.9964 -0.0852 0.0852 0.9964 -52.8605 51.5604)" y2="400.3419" x2="197.1347" y1="284.1621" x1="181.5283" gradientUnits="userSpaceOnUse" id="SVGID_5_">
<stop style="stop-color:#D09451" offset="0"/>
<stop style="stop-color:#FFCD67" offset="1"/>
</linearGradient>
<polygon points="100.669,330.548 123.454,297.837 201.082,308.386 303.502,370.8 222.908,384.755 110.677,366.423 " fill="url(#SVGID_5_)" id="tail-mid-base"/>
<linearGradient gradientTransform="matrix(0.9964 -0.0852 0.0852 0.9964 -52.8605 51.5604)" y2="400.3419" x2="197.1347" y1="284.1621" x1="181.5283" gradientUnits="userSpaceOnUse" id="SVGID_5_">
<stop style="stop-color:#D09451" offset="0"/>
<stop style="stop-color:#FFCD67" offset="1"/>
</linearGradient>
<polygon points="100.669,330.548 123.454,297.837 201.082,308.386 145.922,340.45 100.669,330.548 " fill="url(#SVGID_5_)" id="tail-mid-top"/>
<linearGradient gradientTransform="matrix(0.9991 -0.043 0.043 0.9991 -22.2784 -4.4059)" y2="400.1381" x2="175.5883" y1="348.6758" x1="142.7588" gradientUnits="userSpaceOnUse" id="SVGID_42_">
<stop style="stop-color:#C98C46" offset="0"/>
<stop style="stop-color:#FEFBDA" offset="1"/>
</linearGradient>
<polygon points="100.669,330.548 145.922,340.45 222.908,384.755 110.677,366.423 " fill="url(#SVGID_42_)" id="tail-mid-bottom"/>
<linearGradient gradientTransform="matrix(0.9982 -0.0594 0.0594 0.9982 -34.3766 16.7626)" y2="304.8718" x2="228.9045" y1="360.8945" x1="239.9336" gradientUnits="userSpaceOnUse" id="SVGID_32_">
<stop style="stop-color:#B96C43" offset="0"/>
<stop style="stop-color:#000000" offset="1"/>
</linearGradient>
<polygon points="201.082,308.386 145.922,340.45 303.502,370.8 	" fill="url(#SVGID_32_)" id="tail-end-top"/>
<linearGradient gradientTransform="matrix(0.9982 -0.0594 0.0594 0.9982 -34.3766 16.7626)" y2="370.9463" x2="216.9801" y1="329.6885" x1="279.5322" gradientUnits="userSpaceOnUse" id="SVGID_33_">
<stop style="stop-color:#B96C43" offset="0"/>
<stop style="stop-color:#000000" offset="1"/>
</linearGradient>
<polygon points="145.922,340.45 222.908,384.755 308.299,373.632 303.502,370.8 	" fill="url(#SVGID_33_)" id="tail-end-bottom"/>
</g>
</g>
</svg>