<?xml version="1.0" encoding="UTF-8" standalone="no"?><svg xmlns:xlink="http://www.w3.org/1999/xlink" xmlns:dc="http://purl.org/dc/elements/1.1/" xmlns:cc="http://creativecommons.org/ns#" xmlns:rdf="http://www.w3.org/1999/02/22-rdf-syntax-ns#" xmlns:svg="http://www.w3.org/2000/svg" xmlns="http://www.w3.org/2000/svg" xmlns:sodipodi="http://sodipodi.sourceforge.net/DTD/sodipodi-0.dtd" xmlns:inkscape="http://www.inkscape.org/namespaces/inkscape" version="1.1" width="100%" height="100%" viewBox="0 0 600 900" id="svg3125" xml:space="preserve" inkscape:version="0.48.5 r10040" sodipodi:docname="baby-animated.svg"><sodipodi:namedview pagecolor="#ffffff" bordercolor="#666666" borderopacity="1" objecttolerance="10" gridtolerance="10" guidetolerance="10" inkscape:pageopacity="0" inkscape:pageshadow="2" inkscape:window-width="1446" inkscape:window-height="860" id="namedview53" showgrid="false" inkscape:zoom="0.74167645" inkscape:cx="575.15984" inkscape:cy="439.82941" inkscape:window-x="0" inkscape:window-y="0" inkscape:window-maximized="0" inkscape:current-layer="svg3125"/><metadata id="metadata3225"><rdf:RDF><cc:Work rdf:about=""><dc:format>image/svg+xml</dc:format><dc:type rdf:resource="http://purl.org/dc/dcmitype/StillImage"/><dc:title/></cc:Work></rdf:RDF></metadata><defs id="defs3223"/><g id="Layer_1"/><g id="foot"><g id="left-feet"><path inkscape:connector-curvature="0" style="fill:#f7e3d9" id="left-thigh" d="m 174.6,613.4 c 0,0 -32.4,137.4 23.9,163 56.3,25.6 55.5,-69.1 55.5,-69.1 l -79.4,-93.9 z"><animateTransform id="leftThighAnim1" attributeName="transform" type="rotate" calcMode="spline" keySplines="0.3 0.8 0.3 1; 0.3 0.8 0.3 1" begin="0s; leftThighAnim4.end" from="0 200 600" to="0 200 600" dur="2.75s" keyTimes="0; 0.5; 1" values="0 200 600; -3 200 600; 0 200 600" /><animateTransform id="leftThighAnim2" attributeName="transform" type="rotate" begin="leftThighAnim1.end" from="0 200 600" to="0 200 600" dur="125ms" keyTimes="0; 0.5; 1" values="0 200 600; -3 200 600; 0 200 600" /><animateTransform id="leftThighAnim2" attributeName="transform" type="rotate" begin="leftThighAnim2.end" from="0 200 600" to="0 200 600" dur="125ms" keyTimes="0; 0.5; 1" values="0 200 600; -1.5 200 600; 0 200 600" /><animateTransform id="leftThighAnim2" attributeName="transform" type="rotate" calcMode="spline" keySplines="0.3 0.8 0.3 1; 0.3 0.8 0.3 1" begin="leftThighAnim3.end" from="0 200 600" to="0 200 600" dur="2s" keyTimes="0; 0.5; 1" values="0 200 600; -3 200 600; 0 200 600" /></path><g><path inkscape:connector-curvature="0" style="fill:#f7e3d9" id="left-leg" d="m 174.6,750.8 c 0,0 11.9,50.4 83.6,76.8 71.7,26.5 -17.1,-93 -33.3,-105.8 -16.1,-12.8 -50.3,29 -50.3,29 z"/><path d="m 282.2,806.5 c 7.5,17 5.9,34.3 -3.7,38.5 -9.6,4.2 -23.4,-6.2 -30.9,-23.2 -7.5,-17.1 -5.9,-34.3 3.7,-38.5 9.6,-4.3 23.4,6.1 30.9,23.2 z" id="left-sole" style="fill:#f7e3d9" inkscape:connector-curvature="0"><animateTransform id="leftSoleAnim1" attributeName="transform" type="rotate" calcMode="spline" keySplines="0.3 0.8 0.3 1; 0.3 0.8 0.3 1" begin="0s; leftSoleAnim4.end" from="0 275 825" to="0 275 825" dur="2.75s" keyTimes="0; 0.5; 1" values="0 275 825; 10 275 825; 0 275 825" additive="sum" /><animateTransform id="leftSoleAnim2" attributeName="transform" type="rotate" begin="leftSoleAnim1.end" from="0 275 825" to="0 275 825" dur="125ms" keyTimes="0; 0.5; 1" values="0 275 825; 10 275 825; 0 275 825" additive="sum" /><animateTransform id="leftSoleAnim3" attributeName="transform" type="rotate" begin="leftSoleAnim2.end" from="0 275 825" to="0 275 825" dur="125ms" keyTimes="0; 0.5; 1" values="0 275 825; 5 275 825; 0 275 825" additive="sum" /><animateTransform id="leftSoleAnim4" attributeName="transform" type="rotate" calcMode="spline" keySplines="0.3 0.8 0.3 1; 0.3 0.8 0.3 1" begin="leftSoleAnim3.end" from="0 275 825" to="0 275 825" dur="2s" keyTimes="0; 0.5; 1" values="0 275 825; 10 275 825; 0 275 825" additive="sum" /></path><animateTransform id="leftLegAnim1" attributeName="transform" type="rotate" calcMode="spline" keySplines="0.3 0.8 0.3 1; 0.3 0.8 0.3 1" begin="0s; leftLegAnim4.end" from="0 200 600" to="0 200 600" dur="2.75s" keyTimes="0; 0.5; 1" values="0 200 600; -2.5 200 600; 0 200 600" /><animateTransform id="leftLegAnim2" attributeName="transform" type="rotate" begin="leftSoleAnim1.end" from="0 200 600" to="0 200 600" dur="125ms" keyTimes="0; 0.5; 1" values="0 200 600; -2.5 200 600; 0 200 600" /><animateTransform id="leftLegAnim3" attributeName="transform" type="rotate" begin="leftSoleAnim2.end" from="0 200 600" to="0 200 600" dur="125ms" keyTimes="0; 0.5; 1" values="0 200 600; -1.25 200 600; 0 200 600" /><animateTransform id="leftLegAnim4" attributeName="transform" type="rotate" calcMode="spline" keySplines="0.3 0.8 0.3 1; 0.3 0.8 0.3 1" begin="leftSoleAnim3.end" from="0 200 600" to="0 200 600" dur="2s" keyTimes="0; 0.5; 1" values="0 200 600; -2.5 200 600; 0 200 600" /></g></g><g id="right-feet"><path inkscape:connector-curvature="0" style="fill:#f7e3d9" id="right-thigh" d="m 425.4,613.4 c 0,0 32.4,137.4 -23.9,163 C 345.1,802 346,707.3 346,707.3 l 79.4,-93.9 z"><animateTransform id="rightFeetAnim1" attributeName="transform" type="rotate" calcMode="spline" keySplines="0.3 0.8 0.3 1; 0.3 0.8 0.3 1" begin="0s; rightFeetAnim4.end" from="0 410 600" to="0 410 600" dur="2.75s" keyTimes="0; 0.5; 1" values="0 410 600; 3 410 600; 0 410 600" /><animateTransform id="rightFeetAnim1" attributeName="transform" type="rotate" begin="rightFeetAnim1.end" from="0 410 600" to="0 410 600" dur="125ms" keyTimes="0; 0.5; 1" values="0 410 600; 3 410 600; 0 410 600" /><animateTransform id="rightFeetAnim1" attributeName="transform" type="rotate" begin="rightFeetAnim2.end" from="0 410 600" to="0 410 600" dur="125ms" keyTimes="0; 0.5; 1" values="0 410 600; 1.5 410 600; 0 410 600" /><animateTransform id="rightFeetAnim1" attributeName="transform" type="rotate" calcMode="spline" keySplines="0.3 0.8 0.3 1; 0.3 0.8 0.3 1" begin="rightFeetAnim3.end" from="0 410 600" to="0 410 600" dur="2s" keyTimes="0; 0.5; 1" values="0 410 600; 3 410 600; 0 410 600" /></path><g><path inkscape:connector-curvature="0" style="fill:#f7e3d9" id="right-leg" d="m 425.4,750.8 c 0,0 -11.9,50.4 -83.6,76.8 -71.7,26.5 17.1,-93 33.3,-105.8 16.1,-12.8 50.3,29 50.3,29 z"/><path d="m 317.8,806.5 c -7.5,17 -5.9,34.3 3.7,38.5 9.6,4.2 23.4,-6.2 30.9,-23.2 7.5,-17.1 5.9,-34.3 -3.7,-38.5 -9.6,-4.3 -23.4,6.1 -30.9,23.2 z" id="right-sole" style="fill:#f7e3d9" inkscape:connector-curvature="0"><animateTransform id="rightSoleAnim1" attributeName="transform" type="rotate" calcMode="spline" keySplines="0.3 0.8 0.3 1; 0.3 0.8 0.3 1" begin="0s; rightSoleAnim4.end" from="0 335 825" to="0 335 825" dur="2.75s" keyTimes="0; 0.5; 1" values="0 335 825; -10 335 825; 0 335 825" additive="sum" /><animateTransform id="rightSoleAnim2" attributeName="transform" type="rotate" begin="rightSoleAnim1.end" from="0 335 825" to="0 335 825" dur="125ms" keyTimes="0; 0.5; 1" values="0 335 825; -10 335 825; 0 335 825" additive="sum" /><animateTransform id="rightSoleAnim3" attributeName="transform" type="rotate" begin="rightSoleAnim2.end" from="0 335 825" to="0 335 825" dur="125ms" keyTimes="0; 0.5; 1" values="0 335 825; -5 335 825; 0 335 825" additive="sum" /><animateTransform id="rightSoleAnim4" attributeName="transform" type="rotate" calcMode="spline" keySplines="0.3 0.8 0.3 1; 0.3 0.8 0.3 1" begin="rightSoleAnim3.end" from="0 335 825" to="0 335 825" dur="2s" keyTimes="0; 0.5; 1" values="0 335 825; -10 335 825; 0 335 825" additive="sum" /></path><animateTransform id="rightLegAnim1" attributeName="transform" type="rotate" calcMode="spline" keySplines="0.3 0.8 0.3 1; 0.3 0.8 0.3 1" begin="0s; rightLegAnim4.end" from="0 410 600" to="0 410 600" dur="2.75s" keyTimes="0; 0.5; 1" values="0 410 600; 2.5 410 600; 0 410 600" /><animateTransform id="rightLegAnim2" attributeName="transform" type="rotate" begin="rightLegAnim1.end" from="0 410 600" to="0 410 600" dur="125ms" keyTimes="0; 0.5; 1" values="0 410 600; 2.5 410 600; 0 410 600" /><animateTransform id="rightLegAnim3" attributeName="transform" type="rotate" begin="rightLegAnim2.end" from="0 410 600" to="0 410 600" dur="125ms" keyTimes="0; 0.5; 1" values="0 410 600; 1.25 410 600; 0 410 600" /><animateTransform id="rightLegAnim4" attributeName="transform" type="rotate" calcMode="spline" keySplines="0.3 0.8 0.3 1; 0.3 0.8 0.3 1" begin="rightLegAnim3.end" from="0 410 600" to="0 410 600" dur="2s" keyTimes="0; 0.5; 1" values="0 410 600; 2.5 410 600; 0 410 600" /></g></g></g><path d="M 439.3,581 C 443,686 379.7,723.4 300,723.4 220.3,723.4 157,686.1 160.7,581 164.2,481.3 227.1,377.3 300,377.3 c 73,0 135.8,104 139.3,203.7 z" id="body" style="fill:#f9a74b" inkscape:connector-curvature="0"/><g id="tummy"><path inkscape:connector-curvature="0" style="fill:#f7e3d9" id="belly" d="M 433.2,530.3 C 436.1,616.2 375.8,648.6 300,648.6 224.2,648.6 163.9,616.1 166.8,530.3 169.6,448.1 229.7,358 300,358 c 70.3,0 130.3,90 133.2,172.3 z"/><g id="belly-button"><path inkscape:connector-curvature="0" style="fill:#e7b8ae" id="path3197" d="m 310.8,608.6 c 1.1,1.1 -2.8,6.9 -8.8,12.8 -6,6 -11.7,9.9 -12.8,8.8 -1.1,-1.1 2.9,-6.9 8.8,-12.8 6,-6 11.7,-9.9 12.8,-8.8 z"/><path inkscape:connector-curvature="0" style="fill:#e7b8ae" id="path3199" d="m 289.2,608.6 c -1.1,1.1 2.9,6.9 8.8,12.8 6,6 11.7,9.9 12.8,8.8 1.1,-1.1 -2.9,-6.9 -8.8,-12.8 -6,-6 -11.7,-9.9 -12.8,-8.8 z"/></g></g><g id="hands"><path d="m 204.8,404.1 c 0,0 -140.3,82 -148.2,145.3 -7.9,63.3 104.8,-23.7 113.6,-28.7 l 60,-82.7 -25.4,-33.9 z" id="left-hand" style="fill:#f7e3d9" inkscape:connector-curvature="0"><animateTransform id="leftHandAnim1" attributeName="transform" type="rotate" calcMode="spline" keySplines="0.3 0.8 0.3 1; 0.3 0.8 0.3 1" begin="0s; leftHandAnim4.end" from="0 200 400" to="0 200 400" dur="2.75s" keyTimes="0; 0.5; 1" values="0 200 400; -20 200 400; 0 200 400"/><animateTransform id="leftHandAnim2" attributeName="transform" type="rotate" begin="leftHandAnim1.end" from="0 200 400" to="0 200 400" dur="125ms" keyTimes="0; 0.5; 1" values="0 200 400; -20 200 400; 0 200 400"/><animateTransform id="leftHandAnim3" attributeName="transform" type="rotate" begin="leftHandAnim2.end" from="0 200 400" to="0 200 400" dur="125ms" keyTimes="0; 0.5; 1" values="0 200 400; -10 200 400; 0 200 400"/><animateTransform id="leftHandAnim4" attributeName="transform" type="rotate" calcMode="spline" keySplines="0.3 0.8 0.3 1; 0.3 0.8 0.3 1" begin="leftHandAnim3.end" from="0 200 400" to="0 200 400" dur="2s" keyTimes="0; 0.5; 1" values="0 200 400; -20 200 400; 0 200 400"/></path><path d="m 395.2,404.1 c 0,0 140.3,82 148.2,145.3 7.9,63.2 -104.8,-23.7 -113.6,-28.7 l -62.4,-83.4 27.8,-33.2 z" id="right-hand" style="fill:#f7e3d9" inkscape:connector-curvature="0"><animateTransform id="rightHandAnim1" attributeName="transform" type="rotate" calcMode="spline" keySplines="0.3 0.8 0.3 1; 0.3 0.8 0.3 1" begin="0s; rightHandAnim4.end" from="0 400 400" to="0 400 400" dur="2.75s" keyTimes="0; 0.5; 1" values="0 400 400; 20 400 400; 0 400 400" /><animateTransform id="rightHandAnim2" attributeName="transform" type="rotate" begin="rightHandAnim1.end" from="0 400 400" to="0 400 400" dur="125ms" keyTimes="0; 0.5; 1" values="0 400 400; 20 400 400; 0 400 400" /><animateTransform id="rightHandAnim3" attributeName="transform" type="rotate" begin="rightHandAnim2.end" from="0 400 400" to="0 400 400" dur="125ms" keyTimes="0; 0.5; 1" values="0 400 400; 10 400 400; 0 400 400" /><animateTransform id="rightHandAnim4" attributeName="transform" type="rotate" calcMode="spline" keySplines="0.3 0.8 0.3 1; 0.3 0.8 0.3 1" begin="rightHandAnim3.end" from="0 400 400" to="0 400 400" dur="2s" keyTimes="0; 0.5; 1" values="0 400 400; 20 400 400; 0 400 400" /></path></g><path d="m 360.1,702.2 c 0,26.2 -26.9,47.5 -60.1,47.5 -33.2,0 -60.1,-21.3 -60.1,-47.5 0,-26.2 26.9,-47.5 60.1,-47.5 33.2,0 60.1,21.3 60.1,47.5 z" id="underwear" style="fill:#f9a74b" inkscape:connector-curvature="0"/><g id="head"><g id="ears"><path inkscape:connector-curvature="0" style="fill:#f7e3d9" id="left-ear" d="m 219.9,277.3 c 0,29.7 -24.1,53.9 -53.9,53.9 -29.7,0 -53.9,-24.1 -53.9,-53.9 0,-29.7 24.1,-53.9 53.9,-53.9 29.8,0 53.9,24.1 53.9,53.9 z"/><path inkscape:connector-curvature="0" style="fill:#f7e3d9" id="right-ear" d="m 487.8,277.3 c 0,29.7 -24.1,53.9 -53.9,53.9 -29.7,0 -53.9,-24.1 -53.9,-53.9 0,-29.7 24.1,-53.9 53.9,-53.9 29.8,0 53.9,24.1 53.9,53.9 z"/></g><path inkscape:connector-curvature="0" style="fill:#f7e3d9" id="face" d="m 455.8,270.3 c 0,91.1 -69.8,164.9 -155.8,164.9 -86,0 -155.8,-73.8 -155.8,-164.9 0,-91.1 69.7,-165 155.8,-165 86,0 155.8,73.9 155.8,165 z"/><g id="cheeks"><path inkscape:connector-curvature="0" style="fill:#f7e3d9" id="left-cheek" d="m 293.4,335 c 0,41.8 -36.6,75.6 -81.7,75.6 -45.1,0 -81.7,-33.9 -81.7,-75.6 0,-41.8 36.6,-75.6 81.7,-75.6 45.1,0 81.7,33.9 81.7,75.6 z"/><path inkscape:connector-curvature="0" style="fill:#f7e3d9" id="right-cheek" d="m 470.1,335 c 0,41.8 -36.6,75.6 -81.8,75.6 -45.1,0 -81.7,-33.9 -81.7,-75.6 0,-41.8 36.6,-75.6 81.7,-75.6 45.2,0 81.8,33.9 81.8,75.6 z"/></g><g id="mouth"><path inkscape:connector-curvature="0" style="fill:#e7b8ae" id="path3173" d="m 300,375.7 c -35.5,0 -68.3,-12.5 -94.8,-28.2 h -3.7 c 25,22.3 58.4,38.9 98.6,38.9 40.3,0 73.3,-16.7 98.3,-38.9 h -3.6 c -26.5,15.7 -59.3,28.2 -94.8,28.2 z"/><g id="g3175"><path inkscape:connector-curvature="0" style="fill:#e7b8ae" id="path3177" d="m 200.1,348.2 c -5.8,8.8 -13.8,15.1 -22.5,18.8 l -1.1,1.6 c 10.4,-2 21,-7.9 27.6,-17.9 6.6,-9.9 7.7,-22 5.5,-32.3 l -1.1,1.6 c 0.1,9.6 -2.6,19.4 -8.4,28.2 z"/><path inkscape:connector-curvature="0" style="fill:#e7b8ae" id="path3179" d="m 422.4,367 c -8.8,-3.6 -16.7,-10 -22.5,-18.8 -5.8,-8.8 -8.5,-18.6 -8.4,-28.1 l -1.1,-1.6 c -2.2,10.3 -1.1,22.4 5.5,32.3 6.6,10 17.2,15.8 27.6,17.9 l -1.1,-1.7 z"/></g></g><g id="dummy"><path inkscape:connector-curvature="0" style="fill:#f9a74b" id="path3183" d="m 351.6,385.1 c 0,28.5 -23.1,51.6 -51.6,51.6 -28.5,0 -51.6,-23.1 -51.6,-51.6 0,-28.5 23.1,-51.6 51.6,-51.6 28.5,0 51.6,23.1 51.6,51.6 z"/><path inkscape:connector-curvature="0" style="fill:#90420f" id="path3185" d="m 300,358.7 c -18.4,0 -33.3,14.9 -33.3,33.3 0,18.4 14.9,33.3 33.3,33.3 18.4,0 33.3,-14.9 33.3,-33.3 0,-18.4 -14.9,-33.3 -33.3,-33.3 z m 0,52 c -12,0 -21.6,-9.7 -21.6,-21.6 0,-11.9 9.7,-21.6 21.6,-21.6 12,0 21.6,9.7 21.6,21.6 0,12 -9.6,21.6 -21.6,21.6 z"/><path inkscape:connector-curvature="0" style="fill:#9a3c0a" id="path3187" d="m 336.4,425 c 0,20.1 -16.3,36.4 -36.4,36.4 -20.1,0 -36.4,-16.3 -36.4,-36.4 0,-20.1 16.3,-36.4 36.4,-36.4 20.1,0 36.4,16.3 36.4,36.4 z"/></g><path inkscape:connector-curvature="0" style="fill:#404041" id="hair" d="m 276.2,159.8 c 0,0 -23.7,-19.9 22.3,-43.1 34.3,-17.3 17.5,-16.3 2.2,-27.6 -8.4,-6.2 -15.8,-16.4 -15.5,-35 0,0 1.5,21.4 18,30.6 13.5,7.5 49.4,13.9 24.2,35 -27.1,22.8 -24.8,33.6 -23.1,36.8 0.4,0.7 1.5,3.1 -0.6,5.2 -6.1,6.3 -15.3,9.1 -27.5,-1.9 z"/><g id="eyes" height="27.001px" width="173.8px"><g id="g3209"><path inkscape:connector-curvature="0" style="fill:#231f20" id="path3211" d="m 248.5,264.4 c 0,7.5 -6.1,13.5 -13.6,13.5 -7.5,0 -13.5,-6.1 -13.5,-13.5 0,-7.5 6.1,-13.5 13.5,-13.5 7.5,-0.1 13.6,6 13.6,13.5 z"/><polygon style="fill:#231f20" id="polygon3213" points="227.8,260.7 228.5,253.5 213.1,253.7"/></g><g id="g3215"><path inkscape:connector-curvature="0" style="fill:#231f20" id="path3217" d="m 351.5,264.4 c 0,7.5 6.1,13.5 13.6,13.5 7.5,0 13.5,-6.1 13.5,-13.5 0,-7.5 -6.1,-13.5 -13.5,-13.5 -7.5,-0.1 -13.6,6 -13.6,13.5 z"/><polygon style="fill:#231f20" id="polygon3219" points="372.2,260.7 371.5,253.5 386.9,253.7"/></g></g></g></svg> 