<?xml version="1.0" encoding="utf-8"?><svg version="1.1" id="boy" xmlns="http://www.w3.org/2000/svg" xmlns:xlink="http://www.w3.org/1999/xlink" x="0px" y="0px" viewBox="0 0 2048 1536" enable-background="new 0 0 2048 1536" xml:space="preserve"><g id="lower-body"><g id="left-shoe"><path fill="#231F20" d="M910,1303h99.2v33.7l4.3,44.9H849.8c0,0-4.5-44.5,55.6-58.9L910,1303z"/><path fill="#6D6E70" d="M916.4,1323.9c0,0,68.3-12.2,94.9,44.6C1011.3,1368.5,983.7,1328.3,916.4,1323.9z"/></g><g id="right-shoe"><path fill="#231F20" d="M1127.5,1303h-99.2v33.7l-4.3,44.9h163.7c0,0,4.5-44.5-55.6-58.9L1127.5,1303z"/><path fill="#6D6E70" d="M1121.1,1323.9c0,0-68.4-12.2-94.9,44.6C1026.3,1368.5,1053.8,1328.3,1121.1,1323.9z"/></g><g id="pants"><polygon id="hip" fill="#9A3C0A" points="1103.8,980.6 1095.1,905.5 942.5,905.5 933.7,980.6"/><polygon id="left-trouser" fill="#9A3C0A" points="931.3,896 902.1,1310.7 1009.8,1310.7 1009.8,893.5"/><polygon id="right-trouser" fill="#9A3C0A" points="1106.2,896 1135.4,1310.7 1027.7,1310.7 1027.7,893.5"/><animateTransform id="pantsTrasnlateAnim1" attributeName="transform" type="translate" calcMode="spline" keySplines="0.2 0.4 0.2 0.1; 0.3 0.6 0.9 1; 0 1 1 0" begin="0s" repeatCount="indefinite" from="0 0" to="0 0" dur="3.3s" keyTimes="0; 0.30; 0.60; 1" values="0 0; 0 2; 0 0; 0 0"/></g></g><g id="upper-body"><g id="right-hand"><path id="right-arm" fill="#F7E3D9" d="M1181.3,885.8l40.4-0.1c-0.2-169-60.5-243.3-63.1-246.4l-15.5,13l-15.6,12.8 c0.1,0.2,13.5,16.8,26.8,52.1C1166.6,750,1181.2,805.7,1181.3,885.8z"/><path id="right-hand" fill="#F7E3D9" d="M1221.5,874.1c0,0,2.4,62.3-8.3,78.7c-10,15.1-27.9,38.1-43.4,30.3 c-6.2-3.1,3.6-20.5,12.5-30.5c8.4-9.3,8.9-19.4,8.6-29.2c-0.2-7.4-2.1-2.8-5.4,10.8c-3.4,13.8-21.8,15.6-19.4-5.9 c2.6-22.8-0.3-30.5,14-41.5c8.2-6.3,2.9-6.8,2-14.2L1221.5,874.1z"/><animateTransform id="right-handRotateAnim1" attributeName="transform" type="rotate" calcMode="spline" keySplines="0.2 0.4 0.2 0.1; 0.3 0.6 0.9 1; 0 1 1 0; 0.2 0.4 0.2 0.1; 0.3 0.6 0.9 1; 0 1 1 0" begin="0s" repeatCount="indefinite" from="0 1123 575" to="0 1123 575" dur="6.6s" keyTimes="0; 0.15; 0.30; 0.5; 0.65; 0.80; 1" values="0 1123 575; 7 1123 575; 3.5 1123 575; 3.5 1123 575; 7 1123 575; 0 1123 575; 0 1123 575"/></g><g id="left-hand"><path id="left-arm" fill="#F7E3D9" d="M866.7,885.8l-40.4-0.1c0.2-169,60.5-243.3,63.1-246.4l15.5,13l15.6,12.8 c-0.1,0.2-13.5,16.8-26.8,52.1C881.4,750,866.8,805.7,866.7,885.8z"/><path id="left-hand" fill="#F7E3D9" d="M826.5,874.1c0,0-2.4,62.3,8.3,78.7c10,15.1,27.9,38.1,43.4,30.3 c6.2-3.1-3.6-20.5-12.5-30.5c-8.4-9.3-8.9-19.4-8.6-29.2c0.2-7.4,2.1-2.8,5.4,10.8c3.4,13.8,21.8,15.6,19.4-5.9 c-2.6-22.8,0.3-30.5-14-41.5c-8.2-6.3-2.9-6.8-2-14.2L826.5,874.1z"/><animateTransform id="left-handRotateAnim1" attributeName="transform" type="rotate" calcMode="spline" keySplines="0.2 0.4 0.2 0.1; 0.3 0.6 0.9 1; 0 1 1 0; 0.2 0.4 0.2 0.1; 0.3 0.6 0.9 1; 0 1 1 0" begin="0s" repeatCount="indefinite" from="0 925 575" to="0 925 575" dur="6.6s" keyTimes="0; 0.15; 0.30; 0.5; 0.65; 0.80; 1" values="0 925 575; -7 925 575; -3.5 925 575; -3.5 925 575; -7 925 575; 0 925 575; 0 925 575"/></g><rect id="neck" x="977" y="502.5" fill="#F7E3D9" width="83.6" height="63.9"/><polygon id="tummy" fill="#CE7C2C" points="1112.1,926 1102.5,827.2 935.1,827.2 925.5,926"/><path id="vest" fill="#CE7C2C" d="M1089.6,538.7h-8.4c0,0.1,0.1,0.3,0.1,0.5c0,17.5-28,31.7-62.5,31.7c-34.5,0-62.5-14.2-62.5-31.7 c0-0.2,0-0.3,0-0.5h-8.4c-14.7,0.1-25.7,4.3-33.7,9.3l20.9,303.6h167.4l20.9-303.6C1115.3,543,1104.2,538.8,1089.6,538.7z"/><path id="under" fill="#CE7C2C" d="M1112,926c0,11.5-41.8,20.8-93.3,20.8c-51.5,0-93.3-9.3-93.3-20.8c0-11.5,41.8-20.8,93.3-20.8 C1070.3,905.2,1112,914.5,1112,926z"/><path id="left-sleeve" fill="#CE7C2C" d="M898.6,562.4L831,668.8l106.2,45.5l-22.4-166.7C906.3,552.7,901.1,558.8,898.6,562.4z"/><path id="right-sleeve" fill="#CE7C2C" d="M1139,562.5c-2.6-3.6-7.8-9.7-16.3-14.8l-22.4,166.7l106.2-45.5L1139,562.5z"/><path id="shoulder" fill="#F7E3D9" d="M956.3,539.2c0,18.3,28,33.2,62.5,33.2c34.5,0,62.5-14.9,62.5-33.2c0-0.3-0.1-0.5-0.1-0.8 H956.4C956.3,538.7,956.3,538.9,956.3,539.2z"/><animateTransform id="uppperBodyTrasnlateAnim1" attributeName="transform" type="translate" calcMode="spline" keySplines="0.2 0.4 0.2 0.1; 0.3 0.6 0.9 1; 0 1 1 0" begin="0s" repeatCount="indefinite" from="0 0" to="0 0" dur="3.3s" keyTimes="0; 0.30; 0.60; 1" values="0 0; 0 30; 0 0; 0 0"/></g><g id="head"><g id="ears"><path id="left-ear" fill="#F7E3D9" d="M974.3,381.7c0,31.9-25.8,57.7-57.7,57.7c-31.9,0-57.7-25.8-57.7-57.7 c0-31.9,25.8-57.7,57.7-57.7C948.5,324,974.3,349.8,974.3,381.7z"/><path id="right-ear" fill="#F7E3D9" d="M1179.7,381.7c0,31.9-25.8,57.7-57.7,57.7c-31.9,0-57.7-25.8-57.7-57.7 c0-31.9,25.8-57.7,57.7-57.7C1153.8,324,1179.7,349.8,1179.7,381.7z"/></g><path id="face" fill="#F7E3D9" d="M1155.5,441.8l-12.3-196c-1.7-26.5-22.7-47.5-46.9-47.5H942.3c-24.3,0-45.3,21-46.9,47.5 l-12.3,196c-0.8,12.5,1.8,24.2,6.7,33.6c12,26.8,65.5,46.9,129.4,46.9c63.9,0,117.5-20.1,129.4-46.9 C1153.7,466,1156.2,454.3,1155.5,441.8z"/><g id="eyes"><path id="left-eye" fill="#231F20" d="M969,372c0,6-4.9,10.9-10.9,10.9c-6,0-10.9-4.9-10.9-10.9c0-6,4.9-10.9,10.9-10.9 C964.1,361.1,969,365.9,969,372z"/><path id="right-eye" fill="#231F20" d="M1091.4,372c0,6-4.9,10.9-10.9,10.9c-6,0-10.9-4.9-10.9-10.9c0-6,4.9-10.9,10.9-10.9 C1086.5,361.1,1091.4,365.9,1091.4,372z"/></g><path id="mouth" fill="#FFFFFF" d="M956.7,427.4c8.7,32.1,40,53.6,73.9,49.2c33.9-4.4,58.6-33.2,58.8-66.5L956.7,427.4z"/><path id="hair" d="M1193.3,228.1l-35.5-21l11.4-18.4c0,0-78.3-49.5-177.2-29.8c-42.3,8.4-78.3,26.9-78.3,26.9l-2.6-14.4l-17.4,33.6 l-40,22.1l19.5,2.4l-23.5,41.9l32.5,87.2v51.4l18.3-38.2v-45.8h68.1l-18.2-14.6l41.9,13.6l8.6-45.8l16.6,35.1l55.3-39l-20.4,43.9 l36.5-7.8l-18.3,14.6h68.3v45.8l18.3,38.2v-41.2l41.2-92.5l-21.7-19.5L1193.3,228.1z"/><animateTransform id="headTrasnlateAnim1" attributeName="transform" type="translate" calcMode="spline" keySplines="0.2 0.4 0.2 0.1; 0.3 0.6 0.9 1; 0 1 1 0" begin="0s" repeatCount="indefinite" from="0 0" to="0 0" dur="3.3s" keyTimes="0; 0.30; 0.60; 1" values="0 0; 0 30; 0 0; 0 0"/></g></svg> 