<?xml version="1.0" encoding="utf-8"?><svg version="1.1" id="girl" xmlns="http://www.w3.org/2000/svg" xmlns:xlink="http://www.w3.org/1999/xlink" x="0px" y="0px" viewBox="0 0 2048 1536" enable-background="new 0 0 2048 1536" xml:space="preserve"><g id="lower-body"><g id="left-leg"><polygon fill="#F7E3D9" points="941.4,937.4 964.9,1343.7 1011.9,1343.7 1011.9,922.5"/><path fill="#811518" d="M1018.4,1382.7c-3.3-27.1-23.9-47.9-48.8-47.9c-24.9,0-45.5,20.9-48.8,47.9H1018.4z"/><polygon fill="#811518" points="962,1376.6 956,1291.2 1017,1291.2 1018.4,1382.7"/></g><g id="right-leg"><polygon fill="#F7E3D9" points="1106.6,937.4 1083.1,1343.7 1036.1,1343.7 1036.1,922.5"/><path fill="#811518" d="M1029.6,1382.7c3.3-27.1,23.9-47.9,48.8-47.9s45.5,20.9,48.8,47.9H1029.6z"/><polygon fill="#811518" points="1086,1376.6 1092,1291.2 1031,1291.2 1029.6,1382.7"/></g></g><g id="upper-boby"><g id="hair"><rect x="851.2" y="337.7" fill="#9A3C0A" width="345.5" height="332.9"/><path fill="#9A3C0A" d="M1196.8,337c0,101.4-77.3,183.6-172.8,183.6S851.2,438.4,851.2,337c0-101.4,77.4-183.6,172.8-183.6 S1196.8,235.5,1196.8,337z"/><path fill="#9A3C0A" d="M977.5,366.2c0,32.9-26.7,59.6-59.6,59.6c-32.9,0-59.6-26.7-59.6-59.6c0-32.9,26.7-59.6,59.6-59.6 C950.8,306.7,977.5,333.3,977.5,366.2z"/><path fill="#9A3C0A" d="M1189.7,366.2c0,32.9-26.7,59.6-59.6,59.6c-32.9,0-59.6-26.7-59.6-59.6c0-32.9,26.7-59.6,59.6-59.6 C1163,306.7,1189.7,333.3,1189.7,366.2z"/></g><rect id="neck" x="980.8" y="493.8" fill="#F7E3D9" width="86.4" height="66"/><path id="underwear" fill="#FCBB6D" d="M1164.2,1004c0,13.2-62.8,24-140.2,24c-77.4,0-140.2-10.7-140.2-24c0-13.2,62.8-24,140.2-24 C1101.4,980.1,1164.2,990.8,1164.2,1004z"/><path id="shoulder" fill="#F7E3D9" d="M959.5,531.6c0,18.9,28.9,34.3,64.5,34.3s64.5-15.3,64.5-34.3c0-0.3-0.1-0.6-0.1-0.8H959.5 C959.5,531.1,959.5,531.3,959.5,531.6z"/><polygon id="dress" fill="#FCBB6D" points="1164.2,1004 1110.4,704.1 937.6,704.1 883.8,1004"/><g id="left-hand"><path id="left-arm" fill="#F7E3D9" d="M857.4,870.6l-41.8-0.1c0.2-172.1,82.2-315.6,85.6-322.5l3.5-7l25.9-10.4l15.6,38.7 l-11.2,4.5C920,606.1,857.6,727.8,857.4,870.6z"/><path id="left-hand" fill="#F7E3D9" d="M816,858.5c0,0-2.5,64.4,8.6,81.3c10.3,15.6,28.8,39.4,44.8,31.3 c6.4-3.2-3.7-21.2-12.9-31.5c-8.6-9.6-9.2-20-8.9-30.2c0.2-7.6,2.1-2.9,5.6,11.2c3.5,14.2,22.5,16.1,20-6.1 c-2.7-23.6,0.4-31.5-14.4-42.9c-8.5-6.5-3-7-2.1-14.6L816,858.5z"/><animateTransform id="left-handRotateAnim1" attributeName="transform" type="rotate" calcMode="spline" keySplines="0.2 0.4 0.2 0.1; 0.3 0.6 0.9 1; 0 1 1 0; 0.2 0.4 0.2 0.1; 0.3 0.6 0.9 1; 0 1 1 0" begin="0s" repeatCount="indefinite" from="0 925 567" to="0 925 567" dur="6.6s" keyTimes="0; 0.15; 0.30; 0.5; 0.65; 0.80; 1" values="0 925 567; -7 925 567; -3.5 925 567; -3.5 925 567; -7 925 567; 0 925 567; 0 925 567"/></g><g id="right-hand"><path id="right-arm" fill="#F7E3D9" d="M1190.6,870.6l41.8-0.1c-0.2-172.1-82.2-315.6-85.6-322.5l-3.5-7l-25.9-10.4l-15.6,38.7 l11.2,4.5C1128.1,606.1,1190.4,727.8,1190.6,870.6z"/><path id="right-hand" fill="#F7E3D9" d="M1232,858.5c0,0,2.5,64.4-8.6,81.3c-10.3,15.6-28.8,39.4-44.8,31.3 c-6.4-3.2,3.7-21.2,12.9-31.5c8.6-9.6,9.2-20,8.9-30.2c-0.2-7.6-2.1-2.9-5.6,11.2c-3.5,14.2-22.5,16.1-20-6.1 c2.7-23.6-0.4-31.5,14.4-42.9c8.5-6.5,3-7,2.1-14.6L1232,858.5z"/><animateTransform id="right-handRotateAnim1" attributeName="transform" type="rotate" calcMode="spline" keySplines="0.2 0.4 0.2 0.1; 0.3 0.6 0.9 1; 0 1 1 0; 0.2 0.4 0.2 0.1; 0.3 0.6 0.9 1; 0 1 1 0" begin="0s" repeatCount="indefinite" from="0 1123 567" to="0 1123 567" dur="6.6s" keyTimes="0; 0.15; 0.30; 0.5; 0.65; 0.80; 1" values="0 1123 567; 7 1123 567; 3.5 1123 567; 3.5 1123 567; 7 1123 567; 0 1123 567; 0 1123 567"/></g><path id="vest" fill="#FCBB6D" d="M1088.5,531.1c0,0.2,0.1,0.3,0.1,0.5c0,18.1-28.9,32.7-64.5,32.7s-64.5-14.7-64.5-32.7 c0-0.2,0-0.3,0-0.5h-44.1l22.2,198.1h172.9l22.2-198.1H1088.5z"/><animateTransform id="upperbodyTrasnlateAnim1" attributeName="transform" type="translate" calcMode="spline" keySplines="0.2 0.4 0.2 0.1; 0.3 0.6 0.9 1; 0 1 1 0" begin="0s" repeatCount="indefinite" from="0 0" to="0 0" dur="3.3s" keyTimes="0; 0.30; 0.60; 1" values="0 0; 0 30; 0 0; 0 0"/></g><g id="head"><path id="face" fill="#F7E3D9" d="M1153.4,249H894.6l-11.2,179.4c-0.8,12.9,1.8,25,7,34.6c12.4,27.7,67.7,48.5,133.7,48.5 c66,0,121.3-20.8,133.7-48.5c5.1-9.7,7.8-21.7,7-34.6L1153.4,249z"/><path id="mouth" fill="#FFFFFF" d="M967.4,413.3c3.8,27.8,27.7,49.3,56.6,49.3c28.9,0,52.8-21.5,56.6-49.3H967.4z"/><g id="eyes"><g id="right-eye"><path fill="#231F20" d="M1098.5,368c0,6.2-5.1,11.3-11.3,11.3c-6.2,0-11.3-5.1-11.3-11.3c0-6.2,5.1-11.3,11.3-11.3 C1093.4,356.7,1098.5,361.8,1098.5,368z"/><polygon id="right-eyelashes" fill="#231F20" points="1090.5,358.6 1102.4,354.1 1093.2,364"/></g><path fill="#231F20" d="M972.1,368c0,6.2-5.1,11.3-11.3,11.3c-6.2,0-11.3-5.1-11.3-11.3c0-6.2,5-11.3,11.3-11.3 C967,356.7,972.1,361.8,972.1,368z"/><polygon id="left-eyelashes" fill="#231F20" points="957.5,358.6 945.6,354.1 954.8,364"/></g><g id="bangs"><path fill="#9A3C0A" d="M896,217.1l-29.7,111.5h162c29.3,0,53.1-23.8,53.1-53.1v-58.4H896z"/><path fill="#9A3C0A" d="M1077.6,260.1c0,29.3,23.8,53.1,53.1,53.1h52.8l-23.9-86.2h-82V260.1z"/></g><g id="before-hair"><path fill="#9A3C0A" d="M895.5,558.9c0,0,12.6-27.8,53.8-27.8l-11.7-13.2l-37-1.4c0,0-14.3,14.3-13.9,15.9 C887,534,895.5,558.9,895.5,558.9z"/><path fill="#9A3C0A" d="M1152.5,558.9c0,0-12.6-27.8-53.8-27.8l11.7-13.2l37-1.4c0,0,14.3,14.3,13.9,15.9 C1161,534,1152.5,558.9,1152.5,558.9z"/></g><animateTransform id="headTrasnlateAnim1" attributeName="transform" type="translate" calcMode="spline" keySplines="0.2 0.4 0.2 0.1; 0.3 0.6 0.9 1; 0 1 1 0" begin="0s" repeatCount="indefinite" from="0 0" to="0 0" dur="3.3s" keyTimes="0; 0.30; 0.60; 1" values="0 0; 0 30; 0 0; 0 0"/></g></svg>