<?xml version="1.0" encoding="UTF-8" standalone="no"?><svg xmlns:xlink="http://www.w3.org/1999/xlink" xmlns:dc="http://purl.org/dc/elements/1.1/" xmlns:cc="http://creativecommons.org/ns#" xmlns:rdf="http://www.w3.org/1999/02/22-rdf-syntax-ns#" xmlns:svg="http://www.w3.org/2000/svg" xmlns="http://www.w3.org/2000/svg" xmlns:sodipodi="http://sodipodi.sourceforge.net/DTD/sodipodi-0.dtd" xmlns:inkscape="http://www.inkscape.org/namespaces/inkscape" version="1.1" id="grandpa" x="0px" y="0px" viewBox="0 0 898.5 1410.5" xml:space="preserve" inkscape:version="0.48.5 r10040" width="100%" height="100%" sodipodi:docname="grandpa-animated.svg"><metadata id="metadata3334"><rdf:RDF><cc:Work rdf:about=""><dc:format>image/svg+xml</dc:format><dc:type rdf:resource="http://purl.org/dc/dcmitype/StillImage" /><dc:title></dc:title></cc:Work></rdf:RDF></metadata><defs id="defs3332" /><sodipodi:namedview pagecolor="#ffffff" bordercolor="#666666" borderopacity="1" objecttolerance="10" gridtolerance="10" guidetolerance="10" inkscape:pageopacity="0" inkscape:pageshadow="2" inkscape:window-width="1444" inkscape:window-height="858" id="namedview3330" showgrid="false" inkscape:zoom="0.4665165" inkscape:cx="858.07791" inkscape:cy="706.42638" inkscape:window-x="0" inkscape:window-y="0" inkscape:window-maximized="0" inkscape:current-layer="grandpa" /><rect x="321.29999" y="725.79999" width="257.89999" height="134.7" id="hip"><animateTransform id="hipTrasnlateAnim1" attributeName="transform" type="translate" calcMode="spline" keySplines="0.2 0.4 0.2 0.1; 0.3 0.6 0.9 1; 0 1 1 0" begin="0s" repeatCount="indefinite" from="0 0" to="0 0" dur="3.3s" keyTimes="0; 0.45; 0.9; 1" values="0 0; 0 28; 0 0; 0 0"/></rect><path d="M 579.2,726.3 V 456.7 c 0,-56.9 -57.7,-103 -128.9,-103 -71.2,0 -128.9,46.1 -128.9,103 v 269.5 h 257.8 z" id="body" inkscape:connector-curvature="0" style="fill:#90420f"><animateTransform id="bodyTrasnlateAnim1" attributeName="transform" type="translate" calcMode="spline" keySplines="0.2 0.4 0.2 0.1; 0.3 0.6 0.9 1; 0 1 1 0" begin="0s" repeatCount="indefinite" from="0 0" to="0 0" dur="3.3s" keyTimes="0; 0.45; 0.9; 1" values="0 0; 0 28; 0 0; 0 0"/></path><path d="m 579.2,728.6 c 0,20.5 -57.7,37.2 -128.9,37.2 -71.2,0 -128.9,-16.7 -128.9,-37.2 0,-20.5 57.7,-37.2 128.9,-37.2 71.1,0.1 128.9,16.7 128.9,37.2 z" id="tummy" inkscape:connector-curvature="0" style="fill:#90420f"><animateTransform id="tummyTrasnlateAnim1" attributeName="transform" type="translate" calcMode="spline" keySplines="0.2 0.4 0.2 0.1; 0.3 0.6 0.9 1; 0 1 1 0" begin="0s" repeatCount="indefinite" from="0 0" to="0 0" dur="3.3s" keyTimes="0; 0.45; 0.9; 1" values="0 0; 0 28; 0 0; 0 0"/></path><g id="foot"><g id="soles"><g id="left-sole"><path d="m 305.8,1267.5 h 113 v 33.8 l 4.9,45 H 237.3 c 0,0 -5.2,-44.6 63.4,-59.1 l 5.1,-19.7 z" id="path3300" inkscape:connector-curvature="0" style="fill:#231f20" /><path d="m 313.1,1288.4 c 0,0 77.9,-12.3 108.1,44.7 0,0.1 -31.4,-40.3 -108.1,-44.7 z" id="path3302" inkscape:connector-curvature="0" style="fill:#6d6e70" /></g><g id="right-sole"><path d="m 594.6,1267.5 h -113 v 33.8 l -4.9,45 h 186.5 c 0,0 5.2,-44.6 -63.4,-59.1 l -5.2,-19.7 z" id="path3306" inkscape:connector-curvature="0" style="fill:#231f20" /><path d="m 587.3,1288.4 c 0,0 -77.9,-12.3 -108.1,44.7 0,0.1 31.4,-40.3 108.1,-44.7 z" id="path3308" inkscape:connector-curvature="0" style="fill:#6d6e70" /></g></g><g id="left-feet"><polygon points="435.4,786.8 323.1,769.9 308.2,1024.9 420.5,1070.3" id="left-thigh"><animateTransform id="leftThighTrasnlateAnim1" attributeName="transform" type="translate" calcMode="spline" keySplines="0.2 0.4 0.2 0.1; 0.3 0.6 0.9 1; 0 1 1 0" begin="0s" repeatCount="indefinite" from="0 0" to="0 0" dur="3.3s" keyTimes="0; 0.45; 0.9; 1" values="0 0; 0 28; 0 0; 0 0"/><animateTransform id="leftThighRotateAnim1" attributeName="transform" type="rotate" calcMode="spline" keySplines="0.2 0.4 0.2 0.1; 0.3 0.6 0.9 1; 0 1 1 0" begin="0s" repeatCount="indefinite" from="0 375 775" to="0 375 775" dur="3.3s" keyTimes="0; 0.45; 0.9; 1" values="0 375 775; 2 375 775; 0 375 775; 0 375 775" additive="sum"/></polygon><polygon points="286.8,1241.5 311.5,993 423.1,991.2 429.2,1193.7 418.8,1283.3 290.8,1283.3 295,1264.1" id="left-leg"><animateTransform id="leftlegRotateAnim1" attributeName="transform" type="rotate" calcMode="spline" keySplines="0.2 0.4 0.2 0.1; 0.3 0.6 0.9 1; 0 1 1 0" begin="0s" repeatCount="indefinite" from="0 360 1225" to="0 360 1225" dur="3.3s" keyTimes="0; 0.45; 0.9; 1" values="0 360 1225; -2 360 1225; 0 360 1225; 0 360 1225"/></polygon></g><g id="right-feet"><polygon points="465,786.8 577.4,769.9 592.2,1024.9 479.9,1070.3" id="right-thigh"><animateTransform id="rightThighTrasnlateAnim1" attributeName="transform" type="translate" calcMode="spline" keySplines="0.2 0.4 0.2 0.1; 0.3 0.6 0.9 1; 0 1 1 0" begin="0s" repeatCount="indefinite" from="0 0" to="0 0" dur="3.3s" keyTimes="0; 0.45; 0.9; 1" values="0 0; 0 28; 0 0; 0 0"/><animateTransform id="rightThighRotateAnim1" attributeName="transform" type="rotate" calcMode="spline" keySplines="0.2 0.4 0.2 0.1; 0.3 0.6 0.9 1; 0 1 1 0" begin="0s" repeatCount="indefinite" from="0 525 775" to="0 525 775" dur="3.3s" keyTimes="0; 0.45; 0.9; 1" values="0 525 775; -2 525 775; 0 525 775; 0 525 775" additive="sum"/></polygon><polygon points="613.7,1241.5 589,993 477.3,991.2 471.2,1193.7 481.7,1283.3 609.6,1283.3 605.4,1264.1" id="right-leg"><animateTransform id="rightlegRotateAnim1" attributeName="transform" type="rotate" calcMode="spline" keySplines="0.2 0.4 0.2 0.1; 0.3 0.6 0.9 1; 0 1 1 0" begin="0s" repeatCount="indefinite" from="0 540 1225" to="0 540 1225" dur="3.3s" keyTimes="0; 0.45; 0.9; 1" values="0 540 1225; 2 540 1225; 0 540 1225; 0 540 1225"/></polygon></g></g><g id="body-shadows"><path style="fill:#783018" inkscape:connector-curvature="0" id="left-shadow" d="m 321.2,431 c 0,0 14.7,92.3 14.7,286.8 0,0 14.1,-147.8 -14.7,-286.8 z" /><path style="fill:#783018" inkscape:connector-curvature="0" id="right-shadow" d="m 579.3,431 c 0,0 -14.7,92.3 -14.7,286.8 -0.1,0 -14.1,-147.8 14.7,-286.8 z" /><animateTransform id="bodyShadowsTrasnlateAnim1" attributeName="transform" type="translate" calcMode="spline" keySplines="0.2 0.4 0.2 0.1; 0.3 0.6 0.9 1; 0 1 1 0" begin="0s" repeatCount="indefinite" from="0 0" to="0 0" dur="3.3s" keyTimes="0; 0.45; 0.9; 1" values="0 0; 0 28; 0 0; 0 0"/></g><g id="hands"><g id="left-hand"><path style="fill:#f7e3d9" inkscape:connector-curvature="0" id="left-palm" d="m 272.8,758.7 c 0,0 -2.8,71.9 9.6,90.8 11.5,17.5 32.2,44 50.1,35 7.2,-3.6 -4.1,-23.7 -14.4,-35.2 -9.7,-10.7 -10.2,-22.4 -9.9,-33.7 0.2,-8.5 2.4,-3.2 6.2,12.5 3.9,15.9 25.2,18 22.3,-6.9 -3,-26.3 1.1,-31.7 -15.4,-44.4 -9.5,-7.3 -10.4,-11.6 -9.3,-20.1 l -39.2,2 z" /><path style="fill:#90420f" inkscape:connector-curvature="0" id="left-arm" d="m 351.1,391.1 c 0,0 -96.5,79.9 -86.6,365.1 0,0 30,17.8 66.6,14.4 l 24.4,-283 -4.4,-96.5 z" /><animateTransform id="leftHandRotateAnim1" attributeName="transform" type="rotate" calcMode="spline" keySplines="0.2 0.4 0.2 0.1; 0.3 0.6 0.9 1; 0 1 1 0" begin="0s" repeatCount="indefinite" from="0 375 425" to="0 375 425" dur="3.3s" keyTimes="0; 0.45; 0.9; 1" values="0 375 425; 7 375 425; 0 375 425; 0 375 425"/></g><g id="right-hand"><path style="fill:#f7e3d9" inkscape:connector-curvature="0" id="right-palm" d="m 627.6,758.7 c 0,0 2.8,71.9 -9.6,90.8 -11.5,17.5 -32.2,44 -50.1,35 -7.2,-3.6 4.1,-23.7 14.4,-35.2 9.7,-10.7 10.3,-22.4 10,-33.7 -0.2,-8.5 -2.4,-3.2 -6.2,12.5 -3.9,15.9 -25.2,18 -22.3,-6.9 3,-26.3 -1.1,-31.7 15.4,-44.4 9.5,-7.3 10.4,-11.6 9.3,-20.1 l 39.1,2 z" /><path style="fill:#90420f" inkscape:connector-curvature="0" id="right-arm" d="m 549.4,391.1 c 0,0 96.5,79.9 86.6,365.1 0,0 -30,17.8 -66.6,14.4 l -24.4,-283 4.4,-96.5 z" /><animateTransform id="rightHandRotateAnim1" attributeName="transform" type="rotate" calcMode="spline" keySplines="0.2 0.4 0.2 0.1; 0.3 0.6 0.9 1; 0 1 1 0" begin="0s" repeatCount="indefinite" from="0 525 425" to="0 525 425" dur="3.3s" keyTimes="0; 0.45; 0.9; 1" values="0 525 425; -7 525 425; 0 525 425; 0 525 425"/></g><animateTransform id="handsTrasnlateAnim1" attributeName="transform" type="translate" calcMode="spline" keySplines="0.2 0.4 0.2 0.1; 0.3 0.6 0.9 1; 0 1 1 0" begin="0s" repeatCount="indefinite" from="0 0" to="0 0" dur="3.3s" keyTimes="0; 0.45; 0.9; 1" values="0 0; 0 28; 0 0; 0 0"/></g><g id="slings"><path d="m 359.3,777.5 h 20.2 V 370.6 c -7.3,3.8 -14,8.2 -20.2,13.1 v 393.8 z" id="left-sling" inkscape:connector-curvature="0" /><path d="m 520.9,777.5 h 20.2 V 383.7 c -6.1,-4.9 -12.9,-9.3 -20.2,-13.1 v 406.9 z" id="right-sling" inkscape:connector-curvature="0" /><animateTransform id="slingsTrasnlateAnim1" attributeName="transform" type="translate" calcMode="spline" keySplines="0.2 0.4 0.2 0.1; 0.3 0.6 0.9 1; 0 1 1 0" begin="0s" repeatCount="indefinite" from="0 0" to="0 0" dur="3.3s" keyTimes="0; 0.45; 0.9; 1" values="0 0; 0 28; 0 0; 0 0"/></g><g id="head"><circle d="m 573.60001,201.2 c 0,68.15194 -55.24806,123.4 -123.4,123.4 -68.15194,0 -123.4,-55.24806 -123.4,-123.4 0,-68.15194 55.24806,-123.400005 123.4,-123.400005 68.15194,0 123.4,55.248065 123.4,123.400005 z" style="fill:#f7e3d9" sodipodi:ry="123.4" sodipodi:rx="123.4" sodipodi:cy="201.2" sodipodi:cx="450.20001" id="forehead" r="123.4" cy="201.2" cx="450.20001" /><g id="ears"><path style="fill:#f7e3d9" inkscape:connector-curvature="0" id="path3206" d="m 409.1,253.3 c 0,29.1 -23.6,52.7 -52.7,52.7 -29.1,0 -52.7,-23.6 -52.7,-52.7 0,-29.1 23.6,-52.7 52.7,-52.7 29.1,0 52.7,23.6 52.7,52.7 z" /><path style="fill:#f7e3d9" inkscape:connector-curvature="0" id="path3208" d="m 596.8,253.3 c 0,29.1 -23.6,52.7 -52.7,52.7 -29.1,0 -52.7,-23.6 -52.7,-52.7 0,-29.1 23.6,-52.7 52.7,-52.7 29.1,0 52.7,23.6 52.7,52.7 z" /></g><path style="fill:#f7e3d9" inkscape:connector-curvature="0" id="face" d="M 574.7,303.9 563.5,194.1 C 562,169.9 542.8,150.7 520.6,150.7 H 379.9 c -22.2,0 -41.4,19.2 -42.9,43.4 l -11.2,109.8 c -0.7,11.4 1.6,22.1 6.2,30.7 10.9,24.5 59.9,42.9 118.3,42.9 58.4,0 107.4,-18.4 118.3,-42.9 4.5,-8.6 6.8,-19.2 6.1,-30.7 z" /><g id="mouth"><path style="fill:#e7b8ae" inkscape:connector-curvature="0" id="path3214" d="m 450.2,310 c -19.4,0 -37.3,-2.9 -51.8,-7.9 h -3.6 c 13.7,7 33.6,12.3 55.6,12.3 22,0 41.7,-5.2 55.4,-12.3 h -3.6 c -14.7,5 -32.6,7.9 -52,7.9 z" /><g id="g3216"><path style="fill:#fccea7" inkscape:connector-curvature="0" id="path3218" d="m 413.4,276.2 c 0,0 -5.9,32 -34.4,32.9 l -1,35 -4.2,-41 c -0.1,0.1 24.1,5.3 39.6,-26.9 z" /><g id="g3220"><path style="fill:#fccea7" inkscape:connector-curvature="0" id="path3222" d="m 487,276.2 c 0,0 5.9,32 34.4,32.9 l 1,35 4.2,-41 c 0.1,0.1 -24,5.3 -39.6,-26.9 z" /></g></g></g><ellipse d="m 470.80001,273.39999 c 0,5.08102 -9.22293,9.2 -20.6,9.2 -11.37706,0 -20.6,-4.11898 -20.6,-9.2 0,-5.08102 9.22294,-9.2 20.6,-9.2 11.37707,0 20.6,4.11898 20.6,9.2 z" style="fill:#fccea7" sodipodi:ry="9.1999998" sodipodi:rx="20.6" sodipodi:cy="273.39999" sodipodi:cx="450.20001" id="nose" ry="9.1999998" rx="20.6" cy="273.39999" cx="450.20001" /><g id="wrinkle"><path style="fill:#fccea7" inkscape:connector-curvature="0" id="path3228" d="m 450.2,151.9 c -24,0 -46.2,-1.2 -64.2,-3.3 h -4.5 c 16.9,2.9 41.5,5.1 68.8,5.1 27.2,0 51.6,-2.2 68.5,-5.1 h -4.5 c -17.9,2.1 -40.1,3.3 -64.1,3.3 z" /><path style="fill:#fccea7" inkscape:connector-curvature="0" id="path3230" d="m 450.2,165.1 c -24,0 -46.2,-1.2 -64.2,-3.3 h -4.5 c 16.9,2.9 41.5,5.1 68.8,5.1 27.2,0 51.6,-2.2 68.5,-5.1 h -4.5 c -17.9,2.1 -40.1,3.3 -64.1,3.3 z" /><path style="fill:#fccea7" inkscape:connector-curvature="0" id="path3232" d="m 450.2,178.3 c -24,0 -46.2,-1.2 -64.2,-3.3 h -4.5 c 16.9,2.9 41.5,5.1 68.8,5.1 27.2,0 51.6,-2.2 68.5,-5.1 h -4.5 c -17.9,2.1 -40.1,3.3 -64.1,3.3 z" /></g><g id="hair"><ellipse d="m 519.00002,93.199997 c 0,16.016253 -30.80282,29.000003 -68.80001,29.000003 -37.99719,0 -68.8,-12.98375 -68.8,-29.000003 0,-16.016258 30.80281,-29 68.8,-29 37.99719,0 68.80001,12.983742 68.80001,29 z" style="fill:#cfc6cc" sodipodi:ry="29" sodipodi:rx="68.800003" sodipodi:cy="93.199997" sodipodi:cx="450.20001" id="ellipse3236" ry="29" rx="68.800003" cy="93.199997" cx="450.20001" /><path style="fill:#cfc6cc" inkscape:connector-curvature="0" id="path3238" d="m 343.6,194.4 c -4,-5.2 -7.2,-9.1 -7.2,-9.1 -4.2,-50.8 48,-87.1 48,-87.1 C 446.6,80.1 457.5,69.6 446.8,68.7 359.3,62 327,143.8 327,143.8 c -35.5,36.3 -10.4,74.7 -10.4,74.7 6.7,-10 19,-1.7 27,2.9 v -27 z" /><path style="fill:#cfc6cc" inkscape:connector-curvature="0" id="path3240" d="m 573.4,143.8 c 0,0 -32.3,-81.9 -119.8,-75.1 -10.6,0.8 0.2,11.3 62.4,29.5 0,0 52.1,36.3 48,87.1 0,0 -3.3,3.8 -7.2,9.1 v 27 c 8,-4.6 20.4,-12.9 27,-2.9 0.1,0 25.1,-38.4 -10.4,-74.7 z" /></g><g id="glasses"><g style="opacity:0.8" id="g3244"><path style="fill:#ffffff" inkscape:connector-curvature="0" id="path3246" d="m 438.2,247 c 0,21.2 -21.4,38.4 -47.9,38.4 -26.5,0 -47.9,-17.2 -47.9,-38.4 0,-21.2 21.4,-38.4 47.9,-38.4 26.5,0 47.9,17.2 47.9,38.4 z" /><path style="fill:#ffffff" inkscape:connector-curvature="0" id="path3248" d="m 558,247 c 0,21.2 -21.4,38.4 -47.9,38.4 -26.4,0 -47.9,-17.2 -47.9,-38.4 0,-21.2 21.4,-38.4 47.9,-38.4 26.5,0 47.9,17.2 47.9,38.4 z" /></g><g id="g3250"><g id="g3252"><g id="g3254"><path style="fill:#231f20" inkscape:connector-curvature="0" id="path3256" d="m 390.3,207.9 c -26.9,0 -48.8,17.5 -48.8,39.2 0,21.6 21.8,39.1 48.8,39.1 27,0 48.8,-17.5 48.8,-39.1 0,-21.7 -21.9,-39.2 -48.8,-39.2 z m 1.9,74.6 c -24.5,0 -44.3,-15.9 -44.3,-35.5 0,-19.6 19.8,-35.5 44.3,-35.5 24.5,0 44.3,15.9 44.3,35.5 0,19.6 -19.8,35.5 -44.3,35.5 z" /><path style="fill:#231f20" inkscape:connector-curvature="0" id="path3258" d="m 379.6,208.9 c 0,0 -34.3,3.3 -36.8,7.1 -2.5,3.8 -2.2,33 -0.8,36.6 l 3.7,-6.5 2.4,-16.6 8.1,-7.5 18.3,-10 5.1,-3.1 z" /></g><g id="g3260"><path style="fill:#231f20" inkscape:connector-curvature="0" id="path3262" d="m 510.2,207.9 c 26.9,0 48.8,17.5 48.8,39.2 0,21.6 -21.8,39.1 -48.8,39.1 -27,0 -48.8,-17.5 -48.8,-39.1 0,-21.7 21.8,-39.2 48.8,-39.2 z m -2,74.6 c 24.5,0 44.3,-15.9 44.3,-35.5 0,-19.6 -19.8,-35.5 -44.3,-35.5 -24.5,0 -44.3,15.9 -44.3,35.5 0.1,19.6 19.9,35.5 44.3,35.5 z" /><path style="fill:#231f20" inkscape:connector-curvature="0" id="path3264" d="m 520.9,208.9 c 0,0 34.3,3.3 36.8,7.1 2.5,3.8 2.2,33 0.8,36.6 l -3.7,-6.5 -2.4,-16.6 -8.1,-7.5 -18.3,-10 -5.1,-3.1 z" /></g></g><path style="fill:#231f20" inkscape:connector-curvature="0" id="path3266" d="m 465.2,236.4 c -4.4,-2.6 -9.5,-4.2 -15,-4.2 -5.3,0 -10.2,1.4 -14.5,3.9 l 1.1,6.7 c 4,-2.1 8.6,-3.3 13.4,-3.3 4.9,0 9.5,1.2 13.6,3.4 l 1.4,-6.5 z" /></g></g><g id="eyes"><path style="fill:#231f20" inkscape:connector-curvature="0" id="left-eye" d="m 418.8,234.8 c 0,3.8 -4.6,6.9 -10.2,6.9 -5.6,0 -10.2,-3.1 -10.2,-6.9 0,-3.8 4.5,-6.9 10.2,-6.9 5.7,0 10.2,3.1 10.2,6.9 z" /><path style="fill:#231f20" inkscape:connector-curvature="0" id="right-eye" d="m 502,234.8 c 0,3.8 -4.6,6.9 -10.2,6.9 -5.6,0 -10.2,-3.1 -10.2,-6.9 0,-3.8 4.5,-6.9 10.2,-6.9 5.6,0 10.2,3.1 10.2,6.9 z" /></g><g id="throat"><rect x="412" y="345.10001" width="76.400002" height="43" id="rect3202" style="fill:#f7e3d9" /><ellipse cx="450.20001" cy="380.10001" rx="51.799999" ry="35.200001" id="ellipse3842" sodipodi:cx="450.20001" sodipodi:cy="380.10001" sodipodi:rx="51.799999" sodipodi:ry="35.200001" style="fill:#f7e3d9" d="m 502.00001,380.10001 c 0,19.44042 -23.19165,35.2 -51.8,35.2 -28.60835,0 -51.8,-15.75958 -51.8,-35.2 0,-19.44043 23.19165,-35.2 51.8,-35.2 28.60835,0 51.8,15.75957 51.8,35.2 z" /></g><animateTransform id="headTrasnlateAnim1" attributeName="transform" type="translate" calcMode="spline" keySplines="0.2 0.4 0.2 0.1; 0.3 0.6 0.9 1; 0 1 1 0" begin="0s" repeatCount="indefinite" from="0 0" to="0 0" dur="3.3s" keyTimes="0; 0.45; 0.9; 1" values="0 0; 0 28; 0 0; 0 0"/></g></svg>