<?xml version="1.0" encoding="utf-8"?><svg version="1.1" id="grandma" xmlns="http://www.w3.org/2000/svg" xmlns:xlink="http://www.w3.org/1999/xlink" x="0px" y="0px" viewBox="0 0 2048 1536" enable-background="new 0 0 2048 1536" xml:space="preserve"><g id="lower-body"><g id="foot"><g id="left-feet"><path id="left-ankle" fill="#F7E3D9" d="M958.5,1262.6c0,0,4.1,42.1,3.3,49.2c-0.8,7.1-12.8,39-12.8,39l14.4,39.5l33.8,4.8 l16.9-51l-7-78.8L958.5,1262.6z"/><path id="left-leg" fill="#F7E3D9" d="M915.2,796.8c-37.6,114.2,32.4,228.4,26.5,270.2c-5.9,41.9-18.9,80.8-15.8,111.4 c1.2,11.4,42.6,147.4,44.9,155.4l0,0c0.2,0.6,0.3,0.9,0.3,0.9l1.6-1.1l0,0l35.8-2.2V853.4C1008.5,853.4,920.2,781.7,915.2,796.8z"/><path id="left-shoe" d="M978.7,1382.8c-18.5-9.1-25.6-33.9-27.5-42c-3.8,12.1-10.7,25.1-12.6,41.5c-0.5,4.6,3.9,23.9,7.2,27.2 h62.2c9.9-4.4,13.2-21.3,13.2-21.3l-8.2-62.5C1010.9,1342.3,1007.7,1369.9,978.7,1382.8z"/></g><g id="right-feet"><path id="right-ankle" fill="#F7E3D9" d="M1089.5,1262.6c0,0-4.1,42.1-3.3,49.2c0.8,7.1,12.8,39,12.8,39l-14.4,39.5l-33.8,4.8 l-16.9-51l7-78.8L1089.5,1262.6z"/><path id="right-leg" fill="#F7E3D9" d="M1132.8,796.8c37.6,114.2-32.4,228.4-26.5,270.2c5.9,41.9,18.9,80.8,15.8,111.4 c-1.2,11.4-42.6,147.4-44.9,155.4l0,0c-0.2,0.6-0.3,0.9-0.3,0.9l-1.6-1.1l0,0l-35.8-2.2V853.4 C1039.5,853.4,1127.8,781.7,1132.8,796.8z"/><path id="right-shoe" d="M1069.3,1382.8c18.5-9.1,25.6-33.9,27.5-42c3.8,12.1,10.7,25.1,12.6,41.5c0.5,4.6-3.9,23.9-7.2,27.2 H1040c-9.9-4.4-13.2-21.3-13.2-21.3l8.2-62.5C1037.1,1342.3,1040.3,1369.9,1069.3,1382.8z"/></g></g><g id="skirt"><path fill="#CE451D" d="M1123.6,1097.3c25.7-54.8,41.9-145.8,43.2-230.9c0.5-33.6-1-52.3-5.1-83.3H886.3 c-4,30.9-5.6,49.7-5.1,83.3c1.2,85.1,17.4,176.1,43.1,230.9H1123.6z"/><path fill="#CE451D" d="M1124.3,1094.5c0.3,12.8-44.6,23.3-100.3,23.3c-55.7,0-100.6-10.4-100.3-23.3c0.3-12.8,45.2-23,100.3-23 C1079.2,1071.4,1124.1,1081.7,1124.3,1094.5z"/><animateTransform id="skirtTrasnlateAnim1" attributeName="transform" type="translate" calcMode="spline" keySplines="0.2 0.4 0.2 0.1; 0.3 0.6 0.9 1; 0 1 1 0" begin="0s" repeatCount="indefinite" from="0 0" to="0 0" dur="3.3s" keyTimes="0; 0.45; 0.9; 1" values="0 0; 0 20; 0 0; 0 0"/></g></g><g id="upper-body"><path id="body" fill="#4D1112" d="M1152,794V526.5c0-56.4-57.3-102.2-128-102.2c-70.7,0-128,45.8-128,102.2V794H1152z"/><path id="tummy" fill="#4D1112" d="M1168.6,783.4c0,20.4-64.8,36.9-144.6,36.9s-144.6-16.5-144.6-36.9c0-20.4,64.8-36.9,144.6-36.9 S1168.6,763,1168.6,783.4z"/><g id="hands"><g id="left-hand"><path id="left-palm" fill="#F7E3D9" d="M847.9,826.2c0,0-2.8,71.4,9.5,90.1c11.4,17.3,32,43.6,49.7,34.7c7.1-3.6-4.1-23.5-14.3-34.9 c-9.6-10.6-10.2-22.2-9.9-33.5c0.2-8.4,2.4-3.2,6.2,12.4c3.9,15.8,25,17.9,22.2-6.8c-3-26.1,1.1-31.5-15.3-44.1 c-9.4-7.2-10.3-11.5-9.3-20L847.9,826.2z"/><path id="left-arm" fill="#4D1112" d="M925.6,461.3c0,0-95.8,79.3-85.9,362.4c0,0,29.7,17.6,66.1,14.3L930,557.2L925.6,461.3z"/><animateTransform id="leftHandRotateAnim1" attributeName="transform" type="rotate" calcMode="spline" keySplines="0.2 0.4 0.2 0.1; 0.3 0.6 0.9 1; 0 1 1 0; 0.2 0.4 0.2 0.1; 0.3 0.6 0.9 1; 0 1 1 0" begin="0s" repeatCount="indefinite" from="0 925 500" to="0 925 500" dur="6.6s" keyTimes="0; 0.225; 0.45; 0.5; 0.725; 0.9; 1" values="0 925 500; 7 925 500; 3.5 925 500; 3.5 925 500; 7 925 500; 0 925 500; 0 925 500"/></g><g id="right-hand"><path id="right-palm" fill="#F7E3D9" d="M1200.1,826.2c0,0,2.8,71.4-9.5,90.1c-11.4,17.3-32,43.6-49.7,34.7c-7.1-3.6,4.1-23.5,14.3-34.9 c9.6-10.6,10.2-22.2,9.9-33.5c-0.2-8.4-2.4-3.2-6.2,12.4c-3.9,15.8-25,17.9-22.2-6.8c3-26.1-1.1-31.5,15.3-44.1 c9.4-7.2,10.3-11.5,9.3-20L1200.1,826.2z"/><path id="right-arm" fill="#4D1112" d="M1122.4,461.3c0,0,95.8,79.3,85.9,362.4c0,0-29.7,17.6-66.1,14.3L1118,557.2L1122.4,461.3z"/><animateTransform id="leftHandRotateAnim1" attributeName="transform" type="rotate" calcMode="spline" keySplines="0.2 0.4 0.2 0.1; 0.3 0.6 0.9 1; 0 1 1 0; 0.2 0.4 0.2 0.1; 0.3 0.6 0.9 1; 0 1 1 0" begin="0s" repeatCount="indefinite" from="0 1123 500" to="0 1123 500" dur="6.6s" keyTimes="0; 0.225; 0.45; 0.5; 0.725; 0.9; 1" values="0 1123 500; -7 1123 500; -3.5 1123 500; -3.5 1123 500; -7 1123 500; 0 1123 500; 0 1123 500"/></g></g><g id="jacket"><g><path fill="#FCBB6D" d="M988.1,468.9v369.9c0,0-48.3-1.8-80.9-16.6L923,568.7c0,0,32.7-57.9,21.8-122.6c0,0,12.2-7.9,21.6-10.8 c3.1-0.9,25.9,16.5,25.9,16.5L988.1,468.9z"/></g><g><path fill="#FCBB6D" d="M1059.9,468.9v369.9c0,0,48.3-1.8,80.9-16.6L1125,568.7c0,0-32.7-57.9-21.8-122.6c0,0-12.2-7.9-21.6-10.8 c-3.1-0.9-25.9,16.5-25.9,16.5L1059.9,468.9z"/></g></g><animateTransform id="uppperBodyTrasnlateAnim1" attributeName="transform" type="translate" calcMode="spline" keySplines="0.2 0.4 0.2 0.1; 0.3 0.6 0.9 1; 0 1 1 0" begin="0s" repeatCount="indefinite" from="0 0" to="0 0" dur="3.3s" keyTimes="0; 0.45; 0.9; 1" values="0 0; 0 20; 0 0; 0 0"/></g><g id="head"><g id="hair"><g><g><path fill="#808184" d="M952.3,352.8c0,31.7-25.1,57.5-56.1,57.5c-31,0-56.1-25.7-56.1-57.5c0-31.7,25.1-57.5,56.1-57.5 C927.2,295.3,952.3,321.1,952.3,352.8z"/><path fill="#808184" d="M975.1,289.2c0,31.7-25.1,57.5-56.1,57.5c-31,0-56.1-25.7-56.1-57.5c0-31.7,25.1-57.5,56.1-57.5 C950,231.7,975.1,257.4,975.1,289.2z"/><path fill="#808184" d="M1095.8,352.8c0,31.7,25.1,57.5,56.1,57.5c31,0,56.1-25.7,56.1-57.5c0-31.7-25.1-57.5-56.1-57.5 C1120.8,295.3,1095.8,321.1,1095.8,352.8z"/><path fill="#808184" d="M1072.9,289.2c0,31.7,25.1,57.5,56.1,57.5c31,0,56.1-25.7,56.1-57.5c0-31.7-25.1-57.5-56.1-57.5 C1098,231.7,1072.9,257.4,1072.9,289.2z"/><ellipse fill="#808184" cx="964.1" cy="235" rx="81.2" ry="83.8"/></g><g><ellipse fill="#808184" cx="1083.9" cy="235" rx="81.2" ry="83.8"/></g></g><path fill="#808184" d="M1103.3,183.9c0,31.7-35.5,57.5-79.3,57.5c-43.8,0-79.3-25.7-79.3-57.5c0-31.7,35.5-57.5,79.3-57.5 C1067.8,126.5,1103.3,152.2,1103.3,183.9z"/></g><circle id="forehead" fill="#F7E3D9" cx="1024" cy="272.9" r="122.5"/><g id="ears"><path fill="#F7E3D9" d="M983.2,324.6c0,28.9-23.4,52.3-52.3,52.3c-28.9,0-52.3-23.4-52.3-52.3c0-28.9,23.4-52.3,52.3-52.3 C959.7,272.2,983.2,295.7,983.2,324.6z"/><path fill="#F7E3D9" d="M1169.5,324.6c0,28.9-23.4,52.3-52.3,52.3c-28.9,0-52.3-23.4-52.3-52.3c0-28.9,23.4-52.3,52.3-52.3 C1146.1,272.2,1169.5,295.7,1169.5,324.6z"/></g><path id="face" fill="#F7E3D9" d="M1147.6,374.8l-11.1-109c-1.5-24-20.6-43.1-42.6-43.1H954.2c-22,0-41.1,19-42.6,43.1l-11.1,109 c-0.7,11.3,1.6,21.9,6.1,30.4c10.8,24.3,59.4,42.6,117.4,42.6c58,0,106.6-18.3,117.4-42.6C1146,396.8,1148.3,386.2,1147.6,374.8z" /><ellipse id="nose" fill="#FCCEA7" cx="1024" cy="347.6" rx="13.3" ry="6.6"/><g id="wrinkles"><path fill="#FCCEA7" d="M1024,246.5c-23.8,0-45.9-1.2-63.7-3.2h-4.5c16.8,2.9,41.2,5,68.3,5c27,0,51.2-2.2,68-5h-4.5 C1069.9,245.2,1047.9,246.5,1024,246.5z"/><path fill="#FCCEA7" d="M1024,259.6c-23.8,0-45.9-1.2-63.7-3.2h-4.5c16.8,2.9,41.2,5,68.3,5c27,0,51.2-2.2,68-5h-4.5 C1069.9,258.4,1047.9,259.6,1024,259.6z"/><path fill="#FCCEA7" d="M1024,272.7c-23.8,0-45.9-1.2-63.7-3.2h-4.5c16.8,2.9,41.2,5,68.3,5c27,0,51.2-2.2,68-5h-4.5 C1069.9,271.4,1047.9,272.7,1024,272.7z"/></g><ellipse id="neck" fill="#F7E3D9" cx="1024" cy="450.4" rx="51.4" ry="35"/><g id="eye-whites" opacity="0.8"><path fill="#FFFFFF" d="M998.4,331.6h-59.2c-5.5,0-10-6.6-10-14.9c0-8.2,4.5-14.9,10-14.9h59.2c5.5,0,10,6.6,10,14.9 C1008.4,324.9,1003.9,331.6,998.4,331.6z"/><path fill="#FFFFFF" d="M1108.8,331.6h-59.2c-5.5,0-10-6.6-10-14.9c0-8.2,4.5-14.9,10-14.9h59.2c5.5,0,10,6.6,10,14.9 C1118.8,324.9,1114.3,331.6,1108.8,331.6z"/></g><g id="eyes"><path fill="#231F20" d="M992.8,308.1c0,3.8-4.5,6.8-10.1,6.8c-5.6,0-10.1-3-10.1-6.8c0-3.8,4.5-6.8,10.1-6.8 C988.3,301.3,992.8,304.4,992.8,308.1z"/><path fill="#231F20" d="M1075.4,308.1c0,3.8-4.5,6.8-10.1,6.8c-5.6,0-10.1-3-10.1-6.8c0-3.8,4.5-6.8,10.1-6.8 C1070.9,301.3,1075.4,304.4,1075.4,308.1z"/></g><g id="glasses"><g><path fill="#9A3C0A" d="M999.2,300.3h-65.9c-6.2,0-11.2,7.3-11.2,16.4s5,16.4,11.2,16.4h65.9c6.2,0,11.2-7.3,11.2-16.4 S1005.4,300.3,999.2,300.3z M997.2,330.8h-56.8c-5.3,0-9.6-6.3-9.6-14.1c0-7.8,4.3-14.1,9.6-14.1h56.8c5.3,0,9.6,6.3,9.6,14.1 C1006.8,324.5,1002.5,330.8,997.2,330.8z"/><path fill="#9A3C0A" d="M1048.8,300.3h65.9c6.2,0,11.2,7.3,11.2,16.4s-5,16.4-11.2,16.4h-65.9c-6.2,0-11.2-7.3-11.2-16.4 S1042.6,300.3,1048.8,300.3z M1050.8,330.8h56.8c5.3,0,9.6-6.3,9.6-14.1c0-7.8-4.3-14.1-9.6-14.1h-56.8c-5.3,0-9.6,6.3-9.6,14.1 C1041.2,324.5,1045.5,330.8,1050.8,330.8z"/></g><path fill="#9A3C0A" d="M1040.6,310.5c-4.9-2.2-10.7-3.5-16.8-3.5c-5.9,0-11.5,1.2-16.3,3.3l1.2,5.6c4.5-1.8,9.6-2.8,15.1-2.8 c5.5,0,10.7,1,15.3,2.8L1040.6,310.5z"/></g><g id="mouth"><path fill="#E7B8AE" d="M1024,383.3c-17.6,0-33.9-2.9-47.1-7.8H976c12.5,7,28.1,12.2,48.1,12.2c20,0,35.5-5.2,48-12.2h-0.9 C1057.9,380.4,1041.7,383.3,1024,383.3z"/><g><path fill="#FCCEA7" d="M973.6,385.4c4.1-10,9.6-18.3,15.5-24.3l0.8-1.9c-6.9,4.9-14.2,13.6-18.8,24.9 c-4.7,11.3-5.8,23.1-4.7,32.2l0.8-1.9C967.4,405.5,969.5,395.4,973.6,385.4z"/><path fill="#FCCEA7" d="M1077,384.1c-4.7-11.3-11.9-20-18.8-24.9l0.8,1.9c5.9,6,11.4,14.3,15.5,24.3c4.1,10,6.2,20.1,6.5,29.1 l0.8,1.9C1082.8,407.2,1081.6,395.5,1077,384.1z"/></g></g><g id="bangs"><path fill="#808184" d="M1066.4,164.6c8.1,23.6-22.6,55.5-68.6,71.2c-46,15.8-89.8,9.5-97.9-14.1c-8.1-23.6,22.6-55.5,68.6-71.2 C1014.5,134.7,1058.3,141,1066.4,164.6z"/><path fill="#808184" d="M1149.7,226.2c-8.8,17.8-40.9,19.8-71.7,4.6c-30.8-15.2-48.7-42-39.9-59.7c8.8-17.8,40.9-19.8,71.7-4.6 C1140.6,181.7,1158.4,208.5,1149.7,226.2z"/></g><g id="earrings"><circle id="right-earring" fill="#CE451D" cx="889.2" cy="364" r="12.2"/><circle id="left-earring" fill="#CE451D" cx="1158.8" cy="364" r="12.2"/></g><animateTransform id="headTrasnlateAnim1" attributeName="transform" type="translate" calcMode="spline" keySplines="0.2 0.4 0.2 0.1; 0.3 0.6 0.9 1; 0 1 1 0" begin="0s" repeatCount="indefinite" from="0 0" to="0 0" dur="3.3s" keyTimes="0; 0.45; 0.9; 1" values="0 0; 0 20; 0 0; 0 0"/></g></svg>
