<?xml version="1.0" encoding="utf-8"?><svg version="1.1" id="man" xmlns="http://www.w3.org/2000/svg" xmlns:xlink="http://www.w3.org/1999/xlink" x="0px" y="0px" viewBox="0 0 2048 1536" enable-background="new 0 0 2048 1536" xml:space="preserve"><g id="lower-body"><g id="underclothes"><rect x="966.4" y="354.7" fill="#FBBA84" width="115.3" height="417.7"/><rect x="1024" y="354.7" fill="#E69D7C" width="57.6" height="417.7"/></g><g id="shoes"><g id="left-shoe_1_"><path id="left-shoe" d="M864.8,1422.4h94.8l-2.3,32.2l1,42.9H801.9c0,0-1.3-42.6,57.3-56.3L864.8,1422.4z"/><path id="left-shoeline" fill="#6D6E70" d="M869.5,1442.3c0,0,66.2-11.7,87.6,42.6C957.1,1485,933.6,1446.5,869.5,1442.3z"/></g><g id="right-shoe_1_"><path id="right-shoe" d="M1183.2,1422.4h-94.8l2.3,32.2l-1,42.9h156.5c0,0,1.3-42.6-57.2-56.3L1183.2,1422.4z"/><path id="right-shoeline" fill="#6D6E70" d="M1178.5,1442.3c0,0-66.2-11.7-87.6,42.6C1090.9,1485,1114.4,1446.5,1178.5,1442.3z" /></g></g><g id="pants"><g id="left-leg"><polygon id="left-trouser" fill="#4E2508" points="1016.3,848.6 1016.3,848.6 927.4,825.5 894.9,1117.9 895,1117.9 858.7,1380.8   863.3,1408.3 858.2,1431.7 961.5,1431.7 977.8,1322.9 989.4,1100.1 "/><path id="left-legline" fill="#0F0000" d="M1000.3,854.9l-25.9,246.8L959,1327.3l-14.4,91.2c0,0-34.2,8-51.4,13.1h68.3l16.3-108.8  l11.6-222.7l26.9-250.9h9l0-0.1l-90.4-21.9L1000.3,854.9z"/></g><g id="right-leg"><polygon id="right-trouser" fill="#4E2508" points="1031.7,848.6 1031.7,848.6 1120.6,824.7 1153.1,1117.9 1153,1117.9   1189.3,1380.8 1184.7,1408.3 1189.8,1431.7 1086.5,1431.7 1070.2,1322.9 1058.6,1100.1 "/><polygon id="right-legline" fill="#0F0000" points="1169.3,1419.5 1143.7,1431.7 1189.8,1431.7 1184.7,1408.3 1189.3,1380.8   1153,1117.9 1153.1,1117.9 1120.6,825.3 1120.6,764.3 1103.1,755 1089.6,789.6 1105,807.8 1139.6,1125.7 1173.2,1368.6   1169.3,1404.2 "/><polygon id="under-line" fill="#0F0000" points="1043.4,860 1096.7,831.1 1031.7,848.6 1031.7,848.6 1058.6,1100.1"/></g><g id="hip_1_"><rect id="hip" x="927.4" y="749.7" fill="#4E2508" width="193.3" height="99.5"/><g id="hip-line"><polygon fill="#0F0000" points="1012.6,769.9 1008.2,849 1035.9,849 1015.8,844.6"/><polygon fill="#0F0000" points="1033.5,751.4 1031.3,831.6 1029.3,751.3"/></g></g><g id="belt_1_"><rect id="belt" x="976.9" y="749.2" fill="#0F0000" width="90.3" height="11.5"/><rect x="1011.1" y="749.2" fill="#0F0000" width="25.9" height="16.1"/><rect x="1015.5" y="752" fill="#7F2F30" width="17" height="10.6"/></g><animateTransform id="pantsTrasnlateAnim1" attributeName="transform" type="translate" calcMode="spline" keySplines="0.2 0.4 0.2 0.1; 0.3 0.6 0.9 1; 0 1 1 0" begin="0s" repeatCount="indefinite" from="0 0" to="0 0" dur="3.3s" keyTimes="0; 0.30; 0.60; 1" values="0 0; 0 12; 0 0; 0 0"/></g></g><g id="upper-body"><linearGradient id="neck_1_" gradientUnits="userSpaceOnUse" x1="991.1611" y1="322.2769" x2="1056.8564" y2="322.2769"><stop offset="0" style="stop-color:#FCE7F0"/><stop offset="0.835" style="stop-color:#F7E3D9"/></linearGradient><rect id="neck" x="991.2" y="287.7" fill="url(#neck_1_)" width="65.7" height="69.1"/><path id="neck-shadow" fill="#F5CABD" d="M1056.9,342.6v-26.3l-20.6,7.8c0,0,18.3-0.3,15.8,16.9C1052,341,1054.3,342,1056.9,342.6z  "/><g id="underclothes-collar"><polygon fill="#CE451D" points="980.9,327.9 1017.2,353.8 1002.9,387 968.1,343.7"/><polygon fill="#CE451D" points="1067.1,327.9 1030.9,353.8 1045.1,387 1079.9,343.7"/><g><polygon fill="#CE451D" points="1017.2,353.8 1024,400.9 1011.4,361.8"/><polygon fill="#CE451D" points="1030.8,353.8 1024,400.9 1036.6,361.8"/></g></g><g id="left-hand_1_"><path id="left-arm" fill="#8A4524" d="M889.1,639c0.4-26.9,12.6-129.1,24.3-174.1c0,0-24.5-86.1-27.4-86.7c-3.8,4.2-7,10.6-7,10.6  c-27.3,59.9-48,205.2-47.7,250c0,0-0.1,11.8,2.2,18c1.7,4.5,8.4,14,8.4,14L889.1,639z"/><rect id="left-shirt-sleeve" x="925.2" y="768.3" transform="matrix(0.754 -0.6569 0.6569 0.754 -276.6343 814.7304)" fill="#F5BBBD" width="48.6" height="16.8"/><path id="left-hand" fill="#8A4524" d="M840.1,668.2c18.3,28,75,108.1,89.3,127l43.6-30.9c-14.3-21.1-79.4-120.1-84.1-127.1  L840.1,668.2z"/><path id="left-hand-shadow" fill="#5D3321" d="M944,720.8c-23-34.7-50.7-76.8-54.9-83.2c0.6-22.6,8.1-88.8,16.8-137.6l-5-33.9  c0,0-26.1,133-20.6,177.5c0,0,60.1,95.1,62.3,102.9L944,720.8z"/><path id="left-buckle" fill="#BC908E" d="M929.1,772.1c0,2.9-2.4,5.3-5.3,5.3c-2.9,0-5.3-2.4-5.3-5.3c0-2.9,2.4-5.3,5.3-5.3  C926.8,766.8,929.1,769.2,929.1,772.1z"/><animateTransform id="left-handRotateAnim1" attributeName="transform" type="rotate" calcMode="spline" keySplines="0.2 0.4 0.2 0.1; 0.3 0.6 0.9 1; 0 1 1 0; 0.2 0.4 0.2 0.1; 0.3 0.6 0.9 1; 0 1 1 0" begin="0s" repeatCount="indefinite" from="0 908 405" to="0 908 405" dur="6.6s" keyTimes="0; 0.15; 0.30; 0.5; 0.65; 0.80; 1" values="0 908 405; -2 908 405; 0 908 405; 0 908 405; -2 908 405; 0 908 405; 0 908 405"/></g><g id="right-hand_1_"><path id="right-arm" fill="#8A4524" d="M1158.9,639c-0.4-26.9-12.6-129.1-24.3-174.1c0,0,24.5-86.1,27.4-86.7  c3.8,4.2,7,10.6,7,10.6c27.3,59.9,48,205.2,47.7,250c0,0,0.1,11.8-2.2,18c-1.7,4.5-8.4,14-8.4,14L1158.9,639z"/><rect id="right-shirt-sleeve" x="1074.3" y="768.3" transform="matrix(-0.754 -0.6569 0.6569 -0.754 1416.7252 2083.9619)" fill="#F5BBBD" width="48.6" height="16.8"/><path id="right-hand" fill="#8A4524" d="M1207.9,668.2c-18.3,28-75,108.1-89.3,127l-43.6-30.9c14.3-21.1,79.4-120.1,84.1-127.1  L1207.9,668.2z"/><path id="right-hand-shadow" fill="#5D3321" d="M1108.5,788l10.2,7.2c14.3-18.9,71-99,89.3-127l0,0c2.1-3.2,5.4-8.4,6.6-11.4  c2.3-6.2,2.2-18,2.2-18c0.3-44.7-20.4-190.1-47.7-250c0,0-0.7-1.5-1.9-3.5l-3.9,22.2c0,0,42.5,165.7,37.3,238.8L1108.5,788z"/><path id="right-buckle" fill="#BC908E" d="M1129.4,772.1c0,2.9-2.4,5.3-5.3,5.3s-5.3-2.4-5.3-5.3c0-2.9,2.4-5.3,5.3-5.3  S1129.4,769.2,1129.4,772.1z"/><animateTransform id="right-handRotateAnim1" attributeName="transform" type="rotate" calcMode="spline" keySplines="0.2 0.4 0.2 0.1; 0.3 0.6 0.9 1; 0 1 1 0; 0.2 0.4 0.2 0.1; 0.3 0.6 0.9 1; 0 1 1 0" begin="0s" repeatCount="indefinite" from="0 1140 405" to="0 1140 405" dur="6.6s" keyTimes="0; 0.15; 0.30; 0.5; 0.65; 0.80; 1" values="0 1140 405; 2 1140 405; 0 1140 405; 0 1140 405; 2 1140 405; 0 1140 405; 0 1140 405"/></g><g id="jacket_1_"><g id="sleeve"><path id="left-sleeve" fill="#8A4524" d="M973.7,331.5c0,0-74.7,22.7-92.4,53.3c-17.7,30.6,22,100.4,22,100.4l61.2-25.1  L973.7,331.5z"/><path id="right-sleeve" fill="#8A4524" d="M1074.3,331.5c0,0,74.7,22.7,92.4,53.3c17.7,30.6-22,100.4-22,100.4l-61.2-25.1  L1074.3,331.5z"/></g><g id="jacket"><path id="left-jacket" fill="#8A4524" d="M997.2,415.4l-9.7-89.1l-19,9c0,0-17.9,46.6-38.1,65.3c-6,21-31.6,56.5-31.6,56.5  l19.6,108.6l-0.5,114.1c7.6,23.2,16.1,27.6,19.2,52.4c5.4,39.8,21.6,83,60.1,90.2L997.2,415.4z"/><path id="right-jacket" fill="#8A4524" d="M1050.8,415.4l9.7-89.1l19,9c0,0,17.9,46.6,38.1,65.3c6,21,31.6,56.5,31.6,56.5  l-19.6,108.6l0.5,114.1c-7.6,23.2-16.1,27.6-19.2,52.4c-5.4,39.8-21.6,83-60.1,90.2L1050.8,415.4z"/></g><g id="jacket-coller"><polygon id="left-collar" fill="#5D3321" points="997.2,383.2 993.2,339.4 991.2,319.7 972.4,331.8 962,386.4 980.9,390   967.3,402.6 997.2,510 "/><polygon id="right-collar" fill="#5D3321" points="1050.8,383.2 1054.8,339.4 1056.9,319.7 1075.6,331.8 1086,386.4 1067.1,390   1080.8,402.6 1050.8,510 "/></g><g id="button"><path fill="#5D3321" d="M985.8,594.8c0,4.1-3.3,7.5-7.5,7.5c-4.1,0-7.5-3.3-7.5-7.5c0-4.1,3.3-7.5,7.5-7.5  C982.4,587.3,985.8,590.6,985.8,594.8z"/><path fill="#5D3321" d="M985.8,685.1c0,4.1-3.3,7.5-7.5,7.5c-4.1,0-7.5-3.3-7.5-7.5c0-4.1,3.3-7.5,7.5-7.5  C982.4,677.6,985.8,681,985.8,685.1z"/></g><g id="knot"><ellipse fill="#5D3321" cx="1068.4" cy="595.2" rx="8.6" ry="1.7"/><ellipse fill="#5D3321" cx="1068.4" cy="685.6" rx="8.6" ry="1.7"/></g><g id="jacket-line"><path fill="#5D3321" d="M1057.7,820.5V464.8h-1.6V821C1056.6,820.9,1057.1,820.7,1057.7,820.5z"/><path fill="#5D3321" d="M990.3,820.5c0.5,0.2,1.1,0.3,1.6,0.5V464.8h-1.6V820.5z"/></g><path id="jacket-shadow" fill="#5D3321" d="M1117.9,566.2v141c3.7-7.8,8-14.9,12.2-27.5l-0.5-114.1l13.7-75.7l1.3-8.8  L1117.9,566.2z"/></g><animateTransform id="upper-bodyTrasnlateAnim1" attributeName="transform" type="translate" calcMode="spline" keySplines="0.2 0.4 0.2 0.1; 0.3 0.6 0.9 1; 0 1 1 0" begin="0s" repeatCount="indefinite" from="0 0" to="0 0" dur="3.3s" keyTimes="0; 0.30; 0.60; 1" values="0 0; 0 16; 0 0; 0 0"/></g><g id="head"><path id="right-ear" fill="#F5CABD" d="M1145.3,192.7c0,24.1-19.5,43.6-43.6,43.6c-24.1,0-43.6-19.5-43.6-43.6s19.5-43.6,43.6-43.6  C1125.8,149.1,1145.3,168.6,1145.3,192.7z"/><g id="left-ear"><path fill="#FCE7F0" d="M990,192.7c0,24.1-19.5,43.6-43.6,43.6c-24.1,0-43.6-19.5-43.6-43.6s19.5-43.6,43.6-43.6  C970.4,149.1,990,168.6,990,192.7z"/></g><linearGradient id="face_1_" gradientUnits="userSpaceOnUse" x1="922.8608" y1="203.3452" x2="1125.1562" y2="203.3452"><stop offset="0" style="stop-color:#FCE7F0"/><stop offset="0.835" style="stop-color:#F7E3D9"/></linearGradient><path id="face" fill="url(#face_1_)" d="M922.9,114.4l9.4,111.6c3.2,55.9,44.2,98.5,91.8,98.5c47.6,0,88.6-42.6,91.8-98.5  l9.4-111.6L968.8,82.1L922.9,114.4z"/><path id="hair-shadow" fill="#F5CABD" d="M990.4,122.2c0,0,104.7-10.8,123.9,41.3c0,0,5.5-18,5.5-19.9c0-2-16.4-32.8-18.4-33.4  c-2-0.7-53.7-7.2-53.7-7.2l-33.4,9.2L990.4,122.2z"/><path id="face-shadow" fill="#F5CABD" d="M1108.9,167.3L1104,226c-3,53.6-40.8,94.9-85.9,98.3c2,0.1,3.9,0.2,5.9,0.2  c47.6,0,88.6-42.6,91.8-98.5l4.3-50.6L1108.9,167.3z"/><path id="mouth" fill="#E7B8AE" d="M1033.5,278c-14,2.3-27.5,0.3-39.2-5l-2.6,0.4c11.5,8.4,27.1,13.5,42.9,10.9  c15.8-2.6,28.7-12.5,36.9-24.2l-2.6,0.4C1059.6,269.3,1047.4,275.7,1033.5,278z"/><g id="nose"><polygon fill="#F5CABD" points="1022.6,257.6 1048.1,243.3 997,243.3"/><polygon fill="#F5CABD" points="1027.4,246.4 1027.4,197.2 1048.2,243.2"/></g><g id="smile-line"><path id="right-smileline" fill="#F5CABD" d="M1070.5,261.6c4,4,6.5,8.7,7.4,13.4c1.2-5.6-0.3-11.7-4.7-16.1  c-4.4-4.4-10.5-5.9-16.1-4.7C1061.8,255.2,1066.5,257.7,1070.5,261.6z"/><path id="left-smileline" fill="#F5CABD" d="M978.2,264.6c-3.4,3.4-5.6,7.5-6.4,11.5c-1.1-4.8,0.3-10.1,4-13.9  c3.8-3.8,9-5.1,13.9-4C985.7,259.1,981.6,261.2,978.2,264.6z"/></g><g id="hair"><path fill="#231F20" d="M952,106c0,0,13.8,19.3,35.2,17.9c21.5-1.4,78.8-12.6,100.9-2c11.3,5.4,25.4,18.1,26.8,31.5  c0,0-4.8-9.9-14-13.3c0,0,7.7,12.6,10.3,24.9c0,0-2.4-2.3-6.9-4.6c0,0,6.1,27.9,5.5,47.9c0.9-3.7,6.6-20.2,6.6-26.2  c0,0,3.4,5.4,3.4,11.7c0,0,13.3-21.1,6.1-47.5c0,0,5,5.3,8.5,12.9c0,0,7.6-45.9-32.1-78.8c0,0,10.2,1.7,17.6,13.9  c0,0-5.1-30.5-36.9-33.2c0,0,14.9-0.4,20,1.4c0,0-20.6-17.7-46.3-8.8c0,0,11.2-7.2,20.9-7.7c0,0-29.1-11.6-62.7-2.6l6.6-4.9  c0,0-68.6,0.3-80.1,50.1C941.2,88.6,946.3,100.3,952,106z"/><path fill="#231F20" d="M946.8,83.5c0,0-30.3,8-35.2,59.2c0,0,2-1.1,7.4-7.4c0,0-9.4,26,2,61.8c0,0,5.7-15.4,6-20.9  c0,0,0.9,10.1,4.6,17.3c0,0,3.5,7.2,8,17.2c0,0-0.3-31.5,6.5-44.6c0,0-5.2,4.5-7.4,11c0,0,2.8-17.3,12.5-29.4  c0,0-9.7,5.3-12.8,10.5c0,0,1.8-12.3,20.1-26.3c0,0-12.4,4.2-16.4,7.1c0,0,10.4-23.3,33.8-29L946.8,83.5z"/><path fill="#6D6E70" d="M947.2,83.5c0,0,22.1-28.6,56.3-27.8c0,0-17.5,3.9-25.3,23.8c0,0,21.4-6.6,71.1,9.7c0,0-59.4-11.2-84,22.7  c0,0,3.9-16,21-25.3c0,0-9.3-3.5-20.3,3.9c0,0,0.8-11.3,4.7-16.7C970.7,73.6,962.9,73.5,947.2,83.5z"/></g><g id="eyes_1_"><g id="eyes"><g><path fill="#FFFFFF" d="M1001.8,184.8c0,9.6-8,17.4-18,17.4c-9.9,0-18-7.8-18-17.4c0-9.6,8.1-17.4,18-17.4  C993.8,167.3,1001.8,175.1,1001.8,184.8z"/><path fill="#FFFFFF" d="M1082.2,184.8c0,9.6-8.1,17.4-18,17.4c-9.9,0-18-7.8-18-17.4c0-9.6,8.1-17.4,18-17.4  C1074.1,167.3,1082.2,175.1,1082.2,184.8z"/></g><g><path d="M987.5,168.4c-3.2,0-6.1,2.6-7.9,6.6l11.1,3.9l-12.9,4.6c0,0.3-0.1,0.6-0.1,0.8c0,8.8,4.4,15.9,9.7,15.9  c5.4,0,9.7-7.1,9.7-15.9C997.2,175.6,992.9,168.4,987.5,168.4z"/><path d="M1060.5,168.4c-3.2,0-6.1,2.6-7.9,6.6l11.1,3.9l-12.9,4.6c0,0.3-0.1,0.6-0.1,0.8c0,8.8,4.4,15.9,9.7,15.9  c5.4,0,9.7-7.1,9.7-15.9C1070.3,175.6,1065.9,168.4,1060.5,168.4z"/></g></g><linearGradient id="SVGID_1_" gradientUnits="userSpaceOnUse" x1="1060.6216" y1="181.8014" x2="1060.6216" y2="209.464"><stop offset="0" style="stop-color:#FFFFFF"/><stop offset="1" style="stop-color:#231F20"/></linearGradient><path opacity="0.5" fill="url(#SVGID_1_)" d="M1052.1,186.6c0.4,7.2,4,12.8,8.5,12.8c4.5,0,8.1-5.6,8.5-12.8H1052.1z"/><linearGradient id="SVGID_2_" gradientUnits="userSpaceOnUse" x1="987.5146" y1="181.8014" x2="987.5146" y2="209.464"><stop offset="0" style="stop-color:#FFFFFF"/><stop offset="1" style="stop-color:#231F20"/></linearGradient><path opacity="0.5" fill="url(#SVGID_2_)" d="M979,186.6c0.4,7.2,4,12.8,8.5,12.8c4.5,0,8.1-5.6,8.5-12.8H979z"/></g><animateTransform id="headTrasnlateAnim1" attributeName="transform" type="translate" calcMode="spline" keySplines="0.2 0.4 0.2 0.1; 0.3 0.6 0.9 1; 0 1 1 0" begin="0s" repeatCount="indefinite" from="0 0" to="0 0" dur="3.3s" keyTimes="0; 0.30; 0.60; 1" values="0 0; 0 15; 0 0; 0 0"/></g></svg>
