<?xml version="1.0" encoding="utf-8"?><svg version="1.1" id="teengirl" xmlns="http://www.w3.org/2000/svg" xmlns:xlink="http://www.w3.org/1999/xlink" x="0px" y="0px" viewBox="0 0 2048 1536" enable-background="new 0 0 2048 1536" xml:space="preserve"><g><g id="legs"><g id="left-leg"><g id="left-shoe_1_"><path id="left-shank" fill="#F7E3D9" d="M956.7,1212.3c11.3,65.9,27,146.3,27,146.3l31.5-32.5v-113.8H956.7z"/><path id="left-shoe" fill="#4D1112" d="M1020.7,1435c1.5-5.1,1.6-8.8,1.6-8.8l-8.6-59.1l6.1-86.1c-33.8-19.6-60.8-2.8-60.8-2.8 l3.6,91.6c0,0-10.8,33.6-13,52.7c-0.5,4,0,8.3,1.2,12.5H1020.7z"/></g><path fill="#FCBB6D" d="M958.9,1000c-5,51.5-15.9,99.4-13.3,137c1,14.2,5.5,43.4,11.1,76.1h58.3V724.9c0,0-74.3-34.8-78.5-16.2 C905,849.2,963.9,948.5,958.9,1000z"/><path fill="#FCBB6D" d="M1015.1,1212.9c0,4.8-13,8.7-29.2,8.7c-16.1,0-29.1-3.9-29.1-8.7s13-8.7,29.1-8.7 C1002.1,1204.2,1015.1,1208.1,1015.1,1212.9z"/></g><g id="right-leg"><g id="right-shoe_1_"><path id="right-shank" fill="#F7E3D9" d="M1032.8,1212.3V1326l31.5,32.5c0,0,15.7-80.4,27-146.3H1032.8z"/><path id="right-shoe" fill="#4D1112" d="M1027.2,1435c-1.5-5.1-1.6-8.8-1.6-8.8l8.6-59.1l-6.1-86.1c33.8-19.6,60.8-2.8,60.8-2.8 l-3.6,91.6c0,0,10.8,33.6,13,52.7c0.5,4,0,8.3-1.2,12.5H1027.2z"/></g><path fill="#FCBB6D" d="M1091.2,1213c5.6-32.7,10.1-61.9,11.1-76.1c2.6-37.6-8.3-85.5-13.3-137c-5-51.5,53.9-150.8,22.3-291.3 c-4.2-18.6-78.5,16.2-78.5,16.2V1213H1091.2z"/><path fill="#FCBB6D" d="M1091.1,1212.9c0,4.8-13,8.7-29.2,8.7c-16.1,0-29.1-3.9-29.1-8.7s13-8.7,29.1-8.7 C1078.1,1204.2,1091.1,1208.1,1091.1,1212.9z"/></g></g><g id="head"><rect id="back-hair" x="926.2" y="233.7" fill="#4D1112" width="195.8" height="223.7"/><path id="face" fill="#F7E3D9" d="M926,174l9.1,103.2c3.1,52.9,42.8,93.2,89,93.2c46.1,0,85.9-40.3,88.9-93.2L1122,174H926z"/><rect id="neck" x="996.6" y="353.4" fill="#F7E3D9" width="54.8" height="58.4"/><path id="mouth" fill="#9A3C0A" d="M1023.7,331.3c-8.8,0-16.9-2.6-23.4-7.1h-1.7c6.2,6.3,15.2,11,25.1,11c9.9,0,18.8-4.7,25-11 h-1.7C1040.5,328.7,1032.4,331.3,1023.7,331.3z"/><g id="nose"><polygon fill="#F5CABD" points="1022.2,309.1 1033.7,298.5 1010.7,298.5"/><polygon fill="#F5CABD" points="1026.2,301.2 1026.2,276.2 1033.6,298.5"/></g><g id="eyes"><g id="left-eye"><path fill="#231F20" d="M996.8,260.8c0,6.2-5,11.2-11.2,11.2c-6.2,0-11.2-5-11.2-11.2c0-6.2,5-11.2,11.2-11.2 C991.8,249.6,996.8,254.6,996.8,260.8z"/><polygon fill="#231F20" points="982.4,251.5 970.5,247.1 979.7,256.9"/></g><g id="right-eye"><path fill="#231F20" d="M1051.2,260.8c0,6.2,5,11.2,11.2,11.2c6.2,0,11.2-5,11.2-11.2c0-6.2-5-11.2-11.2-11.2 C1056.2,249.6,1051.2,254.6,1051.2,260.8z"/><polygon fill="#231F20" points="1065.6,251.5 1077.5,247.1 1068.3,256.9"/></g></g><path id="hair" fill="#9A3C0A" d="M1146.8,221c0-66.3-55-120.1-122.8-120.1c-67.8,0-122.8,53.7-122.8,120.1c0,0.2,0,0.3,0,0.5l0,0 v258.6h39.9V230.8l116.2-44.5l49.5,39v254.7h39.9V221.5h0C1146.8,221.3,1146.8,221.1,1146.8,221z"/><path id="hair-line" fill="#781316" d="M1085.3,117c-3.2-1.8-6.5-3.5-9.9-5c5,39.3-18.2,74.4-18.2,74.4 C1082.7,159.2,1085.5,129.9,1085.3,117z"/><animateTransform id="headTrasnlateAnim1" attributeName="transform" type="translate" calcMode="spline" keySplines="0.2 0.4 0.2 0.1; 0.3 0.6 0.9 1; 0 1 1 0" begin="0s" repeatCount="indefinite" from="0 0" to="0 0" dur="3.3s" keyTimes="0; 0.30; 0.60; 1" values="0 0; 0 25; 0 0; 0 0"/></g><g id="body"><g id="left-hand_1_"><path id="left-hand" fill="#F7E3D9" d="M851.7,746.3c0,0,3.1,67.9,16.4,84.7c12.2,15.5,33.9,38.8,50,28.9c6.4-4-5.8-22-16.4-32 c-10-9.3-11.5-20.2-12.1-31c-0.5-8,2-3.2,6.9,11.3c5,14.7,25.2,14.9,20.5-8.3c-5-24.6-1.6-29.9-18.1-40.6 c-9.5-6.1-10.7-10.1-10.4-18.2L851.7,746.3z"/><g id="left-arm"><polygon id="left-upper-arm" fill="#F7E3D9" points="893.4,439.8 878.6,632.2 899,653.8 913.8,617.1 941.6,472.9"/><path id="left-forearm" fill="#F7E3D9" d="M886.2,578.2c0,0-18.3,58.9-22.9,80.4c-4.6,21.5-11.5,87.7-11.5,87.7l24.6,27.7 c6.5-20.4,11-16.8,11.8-32.9c0.7-14.5,17.8-58.6,19.6-70.5c1.8-11.9,11.7-91.6,11.7-91.6L886.2,578.2z"/><path id="left-shoulder" fill="#F7E3D9" d="M970.8,444.7c0,23.2-17.4,42-38.8,42c-21.4,0-38.8-18.8-38.8-42 c0-23.2,17.4-42,38.8-42C953.4,402.7,970.8,421.5,970.8,444.7z"/></g><animateTransform id="left-handRotateAnim1" attributeName="transform" type="rotate" calcMode="spline" keySplines="0.2 0.4 0.2 0.1; 0.3 0.6 0.9 1; 0 1 1 0; 0.2 0.4 0.2 0.1; 0.3 0.6 0.9 1; 0 1 1 0" begin="0s" repeatCount="indefinite" from="0 925 400" to="0 925 400" dur="6.6s" keyTimes="0; 0.15; 0.30; 0.5; 0.65; 0.80; 1" values="0 925 400; -7 925 400; -3.5 925 400; -3.5 925 400; -7 925 400; 0 925 400; 0 925 400"/></g><g id="right-hand_1_"><path id="right-hand_2_" fill="#F7E3D9" d="M1196.3,746.3c0,0-3.1,67.9-16.4,84.7c-12.2,15.5-33.9,38.8-50,28.9 c-6.4-4,5.8-22,16.4-32c10-9.3,11.5-20.2,12.1-31c0.5-8-2-3.2-6.9,11.3c-5,14.7-25.2,14.9-20.5-8.3c5-24.6,1.6-29.9,18.1-40.6 c9.5-6.1,10.7-10.1,10.4-18.2L1196.3,746.3z"/><g id="right-arm"><polygon id="right-upper-arm" fill="#F7E3D9" points="1154.6,439.8 1169.4,632.2 1149,653.8 1134.2,617.1 1106.4,472.9"/><path id="right-forearm" fill="#F7E3D9" d="M1161.8,578.2c0,0,18.2,58.9,22.9,80.4c4.7,21.5,11.5,87.7,11.5,87.7l-24.6,27.7 c-6.5-20.4-11-16.8-11.8-32.9c-0.7-14.5-17.8-58.6-19.6-70.5c-1.8-11.9-11.7-91.6-11.7-91.6L1161.8,578.2z"/><path id="right-shoulder" fill="#F7E3D9" d="M1077.2,444.7c0,23.2,17.4,42,38.8,42c21.4,0,38.8-18.8,38.8-42 c0-23.2-17.4-42-38.8-42C1094.6,402.7,1077.2,421.5,1077.2,444.7z"/></g><animateTransform id="right-handRotateAnim1" attributeName="transform" type="rotate" calcMode="spline" keySplines="0.2 0.4 0.2 0.1; 0.3 0.6 0.9 1; 0 1 1 0; 0.2 0.4 0.2 0.1; 0.3 0.6 0.9 1; 0 1 1 0" begin="0s" repeatCount="indefinite" from="0 1123 400" to="0 1123 400" dur="6.6s" keyTimes="0; 0.15; 0.30; 0.5; 0.65; 0.80; 1" values="0 1123 400; 7 1123 400; 3.5 1123 400; 3.5 1123 400; 7 1123 400; 0 1123 400; 0 1123 400"/></g><polygon id="dress" fill="#4D1112" points="1055.7,914 1089.3,910.1 1088.6,906.1 1132,896.8 1129.9,889.4 1163.6,876 1159.9,869.2 1185.9,858.3 1130,709.3 918.1,709.3 862.3,858.3 888.2,869.2 884.6,876 918.2,889.4 916.1,896.8 959.5,906.1 958.8,910.1 992.5,914"/><g id="vest"><path fill="#CE451D" d="M922.2,423l30.5,149.5c0,0,6.9,57.6-4.4,79.7c-16,23-31,59.6-31,59.6s19.5,23.3,94,23.3h25.5 c74.6,0,94-23.3,94-23.3s-15-36.6-31-59.6c-11.3-22.2-4.4-79.7-4.4-79.7l30.5-149.5"/><path fill="#CE451D" d="M1129.8,405.4c-9.8-3.9-22.4-7.3-36.9-9.9c-8.5,23.5-36,40.8-68.9,40.8c-33,0-60.4-17.3-68.9-40.8 c-14.5,2.6-27.1,5.9-36.9,9.9l9.3,44.2c23.6,7.4,58,12.1,96.5,12.1c38.5,0,72.9-4.7,96.5-12.1L1129.8,405.4z"/></g><path id="shoulder" fill="#F7E3D9" d="M1024,389.9c-25.3,0-49,2-68.9,5.6c8.5,23.5,36,86.1,68.9,86.1c33,0,60.4-62.6,68.9-86.1 C1073,392,1049.3,389.9,1024,389.9z"/><animateTransform id="bodyTrasnlateAnim1" attributeName="transform" type="translate" calcMode="spline" keySplines="0.2 0.4 0.2 0.1; 0.3 0.6 0.9 1; 0 1 1 0" begin="0s" repeatCount="indefinite" from="0 0" to="0 0" dur="3.3s" keyTimes="0; 0.30; 0.60; 1" values="0 0; 0 25; 0 0; 0 0"/></g></g></svg>