<?xml version="1.0" encoding="utf-8"?><svg version="1.1" id="teenboy" xmlns="http://www.w3.org/2000/svg" xmlns:xlink="http://www.w3.org/1999/xlink" x="0px" y="0px" viewBox="0 0 2048 1536" enable-background="new 0 0 2048 1536" xml:space="preserve"><g><g id="lower-body"><g><g id="left-leg"><path id="left-shank" fill="#F7E3D9" d="M927.1,1167c0,0,2,172,2,206.9l46,5.4c0,0,2-77.9,9.8-106.1 c7.8-28.2,5.9-106.1,5.9-106.1H927.1z"/><g id="left-shoe"><path d="M917.9,1358.1h65.7v33.2l3.7,44.3H857.2c0,0-13.8-46,56.8-58.1L917.9,1358.1z"/><path fill="#6D6E70" d="M911.3,1378.6c0,0,53.4-12.1,74.1,43.9C985.5,1422.6,963.9,1382.9,911.3,1378.6z"/><polygon points="918.4,1371.6 910.1,1343.9 945.3,1343.9 953.9,1367.5"/></g><g id="right-leg"><path id="right-shank" fill="#F7E3D9" d="M1120.9,1167c0,0-2,172-2,206.9l-46,5.4c0,0-2-77.9-9.8-106.1 c-7.8-28.2-5.9-106.1-5.9-106.1H1120.9z"/><g id="right-shoe"><path d="M1130.1,1358.1h-65.7v33.2l-3.7,44.3h130.2c0,0,13.8-46-56.8-58.1L1130.1,1358.1z"/><path fill="#6D6E70" d="M1136.7,1378.6c0,0-53.4-12.1-74.1,43.9C1062.6,1422.6,1084.1,1382.9,1136.7,1378.6z"/><polygon points="1129.6,1371.6 1137.9,1343.9 1102.7,1343.9 1094.1,1367.5"/></g></g><g id="pants"><g id="left-pant"><polygon fill="#9A3C0A" points="925.6,874.6 913.2,1073.1 1006.7,1125.1 1019.1,893.9"/><polygon fill="#9A3C0A" points="913.9,1244.5 895.4,1209.3 925.3,863.5 1008.8,877.6 1012.9,1170.1 1000.7,1264.8 913.2,1264.8"/><path fill="#9A3C0A" d="M1000.6,1264.8c0,4.5-19.6,8.1-43.7,8.1c-24.1,0-43.7-3.6-43.7-8.1c0-4.5,19.6-8.1,43.7-8.1 C981,1256.7,1000.6,1260.3,1000.6,1264.8z"/><path id="left-pant-bag" fill="#9A3C0A" d="M925.1,954.8l-28,10c0,0-21,91.4,16.3,107.7L925.1,954.8z"/></g><g id="right-pant"><polygon fill="#9A3C0A" points="1122.4,874.6 1134.8,1073.1 1041.3,1125.1 1028.9,893.9"/><polygon fill="#9A3C0A" points="1134.1,1244.5 1152.6,1209.3 1122.8,863.5 1039.2,877.6 1035.1,1170.1 1047.4,1264.8 1134.8,1264.8"/><path fill="#9A3C0A" d="M1134.8,1264.8c0,4.5-19.6,8.1-43.7,8.1c-24.1,0-43.7-3.6-43.7-8.1c0-4.5,19.6-8.1,43.7-8.1 C1115.2,1256.7,1134.8,1260.3,1134.8,1264.8z"/><path id="right-pant-bag" fill="#9A3C0A" d="M1122.9,954.8l28,10c0,0,21,91.4-16.3,107.7L1122.9,954.8z"/><rect id="hip" x="924.3" y="795.4" fill="#9A3C0A" width="199.3" height="116.3"/><path id="belt" fill="#CE7C2C" d="M1123.6,816.7c-18.4,11.4-53.1,25.1-94.2,36.4c-44,12.1-83.7,18.1-105.1,16.8v11 c19.9,1.9,61.5-5.4,107.7-19.9c40.1-12.5,73.9-27.3,91.5-39.3V816.7z"/></g><animateTransform id="pantsTrasnlateAnim1" attributeName="transform" type="translate" calcMode="spline" keySplines="0.2 0.4 0.2 0.1; 0.3 0.6 0.9 1; 0 1 1 0" begin="0s" repeatCount="indefinite" from="0 0" to="0 0" dur="3.3s" keyTimes="0; 0.30; 0.60; 1" values="0 0; 0 15; 0 0; 0 0"/></g></g></g></g><g id="upper-body"><rect id="neck" x="993.7" y="375.8" fill="#F7E3D9" width="60.7" height="71.3"/><g></g><g id="vest_x2B_shoulder"><rect x="924.1" y="603.5" fill="#4D1112" width="199.8" height="194.9"/><polygon fill="#4D1112" points="1123.9,804.3 924.1,830.7 924.1,617.4 1123.9,617.4"/><path fill="#4D1112" d="M1123.9,804.5c1.6,12.2-41.8,28-96.9,35.4c-55.2,7.4-101.2,3.5-102.8-8.7c-1.6-12.2,41.8-28,96.9-35.4 C1076.2,788.4,1122.2,792.3,1123.9,804.5z"/><polygon fill="#4D1112" points="1117.2,660.6 930.8,660.6 878.4,457.8 1169.6,457.8"/><path id="shoulder" fill="#F7E3D9" d="M1024,411.6c-29,0-56.1,2.3-78.8,6.2c10.3,25.8,41.7,44.6,78.8,44.6 c37.1,0,68.5-18.8,78.8-44.6C1080.1,413.9,1053,411.6,1024,411.6z"/><path fill="#4D1112" d="M1102.8,417.8L1102.8,417.8c-10.3,25.8-41.7,44.6-78.8,44.6c-37.1,0-68.5-18.8-78.8-44.6l0,0 c-40.2,6.9-66.8,19-66.8,32.7c0,21.5,65.2,38.9,145.6,38.9c80.4,0,145.6-17.4,145.6-38.9C1169.6,436.8,1143,424.8,1102.8,417.8z" /></g><g id="left-hand"><path fill="#F7E3D9" d="M862.1,519.1l-23.3,163.8l23.9,21.3c0,0,19.1-22.5,22.8-21.9c3.7,0.7,25.5-151.4,25.5-151.4L862.1,519.1 z"/><path fill="#F7E3D9" d="M880.2,793.5l9.9-133.9L866.2,643c0,0-24.6,32.4-27.3,39.1c-1.5,3.8,6.9,115.4,6.9,115.4L880.2,793.5z" /><path id="left-hand_1_" fill="#F7E3D9" d="M845.3,788c0,0,3.1,66,15.9,82.3c11.9,15.1,32.9,37.7,48.6,28.1 c6.3-3.8-5.6-21.4-16-31.1c-9.7-9.1-11.1-19.7-11.7-30.1c-0.5-7.8,1.9-3.1,6.7,11c4.8,14.3,24.5,14.5,19.9-8 c-4.8-23.9-1.5-29.1-17.6-39.5c-9.2-5.9-10.4-9.8-10.1-17.7L845.3,788z"/><animateTransform id="leftHandRotateAnim1" attributeName="transform" type="rotate" calcMode="spline" keySplines="0.2 0.4 0.2 0.1; 0.3 0.6 0.9 1; 0 1 1 0; 0.2 0.4 0.2 0.1; 0.3 0.6 0.9 1; 0 1 1 0" begin="0s" repeatCount="indefinite" from="3.5 848 425" to="3.5 848 425" dur="6.6s" keyTimes="0; 0.15; 0.30; 0.5; 0.65; 0.80; 1" values="3.5 848 425; -3.5 848 425; 0 848 425; 0 848 425; -3.5 848 425; 3.5 848 425; 3.5 848 425"/></g><g id="rightHand"><path fill="#F7E3D9" d="M1185.9,519.1l23.3,163.8l-23.9,21.3c0,0-19.1-22.5-22.8-21.9c-3.7,0.7-25.5-151.4-25.5-151.4 L1185.9,519.1z"/><path fill="#F7E3D9" d="M1167.8,793.5l-9.9-133.9l23.8-16.6c0,0,24.6,32.4,27.3,39.1c1.5,3.8-6.9,115.4-6.9,115.4L1167.8,793.5z"/><path id="rightHand_1_" fill="#F7E3D9" d="M1202.7,788c0,0-3.1,66-15.9,82.3c-11.9,15.1-32.9,37.7-48.6,28.1 c-6.3-3.8,5.6-21.4,16-31.1c9.7-9.1,11.1-19.7,11.7-30.1c0.5-7.8-1.9-3.1-6.7,11c-4.8,14.3-24.5,14.5-19.9-8 c4.8-23.9,1.5-29.1,17.6-39.5c9.2-5.9,10.4-9.8,10.1-17.7L1202.7,788z"/><animateTransform id="rightHandRotateAnim1" attributeName="transform" type="rotate" calcMode="spline" keySplines="0.2 0.4 0.2 0.1; 0.3 0.6 0.9 1; 0 1 1 0; 0.2 0.4 0.2 0.1; 0.3 0.6 0.9 1; 0 1 1 0" begin="0s" repeatCount="indefinite" from="-3.5 1200 420" to="-3.5 1200 420" dur="6.6s" keyTimes="0; 0.15; 0.30; 0.5; 0.65; 0.80; 1" values="-3.5 1200 420; 3.5 1200 420; 0 1200 420; 0 1200 420; 3.5 1200 420; -3.5 1200 420; -3.5 1200 420"/></g><g id="sleeves"><polygon id="leftSleeve" fill="#4D1112" points="878.8,447.5 828.4,581.9 905.3,616.1 934.8,537"><animateTransform id="leftSleeveRotateAnim1" attributeName="transform" type="rotate" calcMode="spline" keySplines="0.2 0.4 0.2 0.1; 0.3 0.6 0.9 1; 0 1 1 0; 0.2 0.4 0.2 0.1; 0.3 0.6 0.9 1; 0 1 1 0" begin="0s" repeatCount="indefinite" from="0 830 420" to="0 830 420" dur="6.6s" keyTimes="0; 0.15; 0.30; 0.5; 0.65; 0.80; 1" values="0 830 420; -6 830 420; -3 830 420; -3 830 420; -6 830 420; 0 830 420; 0 830 420"/></polygon><polygon id="rightSleeve" fill="#4D1112" points="1169.2,447.5 1219.6,581.9 1142.7,616.1 1113.2,537"><animateTransform id="rightSleeveRotateAnim1" attributeName="transform" type="rotate" calcMode="spline" keySplines="0.2 0.4 0.2 0.1; 0.3 0.6 0.9 1; 0 1 1 0; 0.2 0.4 0.2 0.1; 0.3 0.6 0.9 1; 0 1 1 0" begin="0s" repeatCount="indefinite" from="0 1218 425" to="0 1218 425" dur="6.6s" keyTimes="0; 0.15; 0.30; 0.5; 0.65; 0.80; 1" values="0 1218 425; 6 1218 425; 3 1218 425; 3 1218 425; 6 1218 425; 0 1218 425; 0 1218 425"/></polygon></g><animateTransform id="upper-bodyTrasnlateAnim1" attributeName="transform" type="translate" calcMode="spline" keySplines="0.2 0.4 0.2 0.1; 0.3 0.6 0.9 1; 0 1 1 0" begin="0s" repeatCount="indefinite" from="0 0" to="0 0" dur="3.3s" keyTimes="0; 0.30; 0.60; 1" values="0 0; 0 25; 0 0; 0 0"/></g><g id="head"><path fill="#231F20" d="M954,131.1c0,0-74.8,45.6-39,128.1l103.8-72l-51-54.3L954,131.1z"/><g><path id="face" fill="#F7E3D9" d="M925.2,185.5l9.2,117.1c3.1,55.6,43.1,97.9,89.6,97.9c46.5,0,86.5-42.3,89.6-97.9l9.2-117.1 H925.2z"/><g id="ears"><path id="left-ear" fill="#F7E3D9" d="M991.1,276.5c0,23.3-18.9,42.1-42.1,42.1c-23.3,0-42.1-18.9-42.1-42.1 c0-23.3,18.9-42.1,42.1-42.1C972.2,234.3,991.1,253.2,991.1,276.5z"/><path id="right-ear" fill="#F7E3D9" d="M1141,276.5c0,23.3-18.9,42.1-42.1,42.1c-23.3,0-42.1-18.9-42.1-42.1 c0-23.3,18.9-42.1,42.1-42.1C1122.2,234.3,1141,253.2,1141,276.5z"/></g><path id="mouth" fill="#E8BEB1" d="M1031.6,358.5c-14.7,2.5-29,0.3-41.2-5.3l-2.8,0.5c12.1,8.8,28.5,14.2,45.2,11.4 c16.7-2.8,30.3-13.2,38.9-25.5l-2.8,0.5C1059.2,349.4,1046.3,356,1031.6,358.5z"/><g id="nose"><polygon fill="#F5CABD" points="1022.4,340.4 1036.6,327.4 1008.2,327.4"/><polygon fill="#F5CABD" points="1027.4,330.7 1027.4,278.9 1036.6,327.4"/></g><g id="eyes"><path id="left-eye" fill="#231F20" d="M998.5,273.7c0,5.1-4.1,9.2-9.2,9.2c-5.1,0-9.2-4.1-9.2-9.2c0-5.1,4.1-9.2,9.2-9.2 C994.4,264.6,998.5,268.7,998.5,273.7z"/><path id="right-eye" fill="#231F20" d="M1067.8,273.7c0,5.1-4.1,9.2-9.2,9.2c-5.1,0-9.2-4.1-9.2-9.2c0-5.1,4.1-9.2,9.2-9.2 C1063.7,264.6,1067.8,268.7,1067.8,273.7z"/></g></g><g id="hair"><path fill="#231F20" d="M977.6,167.6c0,0-33.7-18.8-27.1-33.7c5.1-11.5,21.3-21.6,48.6-28.7c30.5-7.9,152.9,10.7,136.7,141.8 l-78.9-30.6L977.6,167.6z"/><path fill="#231F20" d="M963.5,154.6c0,0,31.6,66.6,120.6,97c0,0-1.8-58.1-35.4-104.8L963.5,154.6z"/><path fill="#231F20" d="M1046.7,185.3c0,0,34.4,58.6,72.4,74.9c0,0,7.5-63.9-36.4-102.8L1046.7,185.3z"/><path fill="#231F20" d="M967.1,178.4c0,0-14.2,38-11.1,76.2c0,0-36.7-36.5-26.9-77.7l30.9-28.1L967.1,178.4z"/><path fill="#231F20" d="M910,206c3.5,24.3,10.1,58.2,31.4,81.5c0,0-15.7-64.8,7.6-116.4C949,171.1,906.4,181.7,910,206z"/><path fill="#231F20" d="M938.1,162.3c0,0,48.8,58.7,110.6,88c0,0-33-21.9-76.4-96.8L938.1,162.3z"/><path fill="#231F20" d="M957.2,131.2c0,0,31.4-48.1,116.8-23.9c0,0-49.9,22.3-78.4,23.9L957.2,131.2z"/><path fill="#231F20" d="M969.7,133.3c0,0-51.8-8.4-65.8,57.3c0,0,38-17.6,50.5-34L969.7,133.3z"/><path fill="#231F20" d="M1045.4,117c0,0,60.9-16.3,93.6,58.9c0,0-50.3-15.8-69.5-33.5L1045.4,117z"/></g><animateTransform id="headTrasnlateAnim1" attributeName="transform" type="translate" calcMode="spline" keySplines="0.2 0.4 0.2 0.1; 0.3 0.6 0.9 1; 0 1 1 0" begin="0s" repeatCount="indefinite" from="0 0" to="0 0" dur="3.3s" keyTimes="0; 0.30; 0.60; 1" values="0 0; 0 25; 0 0; 0 0"/></g></g></svg>