<?xml version="1.0" encoding="iso-8859-1"?><svg version="1.1" id="_x31_8-30_Exec" xmlns="http://www.w3.org/2000/svg" xmlns:xlink="http://www.w3.org/1999/xlink" x="0px" y="0px" viewBox="0 0 2048 1536" style="enable-background:new 0 0 2048 1536;" xml:space="preserve"><linearGradient id="SVGID_1_" gradientUnits="userSpaceOnUse" x1="970.6729" y1="1402.3441" x2="1025.4551" y2="1402.3441"><stop offset="0" style="stop-color:#FCE7F0"/><stop offset="0.835" style="stop-color:#F7E3D9"/></linearGradient><path style="fill:url(#SVGID_1_);" d="M1020.641,1356.885c0,0-51.469-69.824-40.501-0.928c0.84,11.164,1.65,23.951,1.281,27.465 c-0.694,6.588-10.748,54.436-10.748,54.436l12.134,36.748l28.434,4.508l14.215-47.498L1020.641,1356.885z"/><path style="fill:#F5CABD;" d="M1020.974,1364.311V722.699c0,0-56.574-26.924-76.076-23.771 c22.812,2.601,62.646,45.245,62.646,45.245l5.692,620.138l4.813,74.73l-13.862,46.328l7.387,1.17l14.215-47.498L1020.974,1364.311z" /><path style="fill:#5F1E00;" d="M995.641,1475.137c-15.534-8.447-21.508-31.576-23.094-39.098 c-3.172,11.279-8.949,23.369-10.553,38.635c-0.457,4.303,3.237,22.199,6.009,25.33h52.258c8.328-4.057,11.101-19.779,11.101-19.779 l-6.898-58.182C1022.693,1437.443,1019.985,1463.078,995.641,1475.137z"/><linearGradient id="SVGID_2_" gradientUnits="userSpaceOnUse" x1="1041.7207" y1="1403.926" x2="1096.5049" y2="1403.926"><stop offset="0" style="stop-color:#FCE7F0"/><stop offset="0.835" style="stop-color:#F7E3D9"/></linearGradient><path style="fill:url(#SVGID_2_);" d="M1046.534,1364.311l-4.813,74.73l14.215,47.498l28.434-4.51l12.136-36.748 c0,0-10.057-47.846-10.75-54.436c-0.573-5.424,1.678-32.938,2.488-42.48C1099.22,1279.283,1046.534,1364.311,1046.534,1364.311z"/><path style="fill:#F5CABD;" d="M1130.108,704.731c0.029-6.241-8.627-7.02-18.389-5.289c2.664,0.887,4.463,2.559,5.02,5.289 c31.572,155.858-32.076,252.472-27.128,309.62c4.957,57.144-3.523,109.23-6.154,150.9c-0.664,10.502,10.364,114.031-0.612,183.113 c-0.812,9.543-3.061,37.057-2.487,42.48c0.694,6.59,3.11,54.436,3.11,54.436l-12.137,36.748l-15.672,2.486l0.609,2.023l28.434-4.51 l12.134-36.748c0,0-10.054-47.846-10.748-54.436c-0.575-5.424,1.676-32.938,2.488-42.48c10.977-69.082,8.075-172.611,8.739-183.113 c2.631-41.67,4.231-96.779-0.725-153.922C1091.643,954.182,1129.325,860.434,1130.108,704.731z"/><path style="fill:#5F1E00;" d="M1071.537,1475.137c15.534-8.447,21.507-31.576,23.092-39.098 c3.171,11.279,8.949,23.369,10.555,38.635c0.455,4.303-3.239,22.199-6.011,25.33h-52.258c-8.327-4.057-11.101-19.779-11.101-19.779 l6.898-58.182C1044.484,1437.443,1047.19,1463.078,1071.537,1475.137z"/><g id="pants"><rect x="997.644" y="644.462" style="fill:#8C3E23;" width="71.709" height="77.786"/><path style="fill:#8C3E23;" d="M942.291,644.379c0,0-6.865,11.29-4.027,86.456c6.552,173.654,28.392,277.966,28.392,277.966 l-26.857,390.631h85.287V654.835L942.291,644.379z"/><path style="fill:#8C3E23;" d="M1124.705,644.379c0,0,6.866,11.29,4.027,86.456c-6.552,173.654-28.392,277.966-28.392,277.966 l26.857,390.631h-85.287V654.835L1124.705,644.379z"/><path style="fill:#8C3E23;" d="M1106.474,717.982c0,12.638-32.674,22.879-72.975,22.879c-40.305,0-72.974-10.241-72.974-22.879 c0-12.639,32.669-22.884,72.974-22.884C1073.8,695.098,1106.474,705.343,1106.474,717.982z"/><path style="fill:#6C2D12;" d="M1127.198,1399.432l-26.857-390.631c0,0,21.84-104.312,28.392-277.966 c0.926-24.47,0.815-42.137,0.257-54.881l-64.1,28.699c0.608,1.823,15.192,9.116,51.048,6.077c0,0-12.963,182.715-30.585,301.825 l19.446,372.725l-33.362,14.152H1127.198z"/><path style="fill:#6C2D12;" d="M977.315,1399.432h47.77V768.913l-0.333-27.949c0,0-30.816-1.989-39.761-3.978l30.812,12.923 l-5.293,636.088L977.315,1399.432z"/><animateTransform id="pantsTrasnlateAnim" attributeName="transform" type="translate" calcMode="spline" keySplines="0.2 0.4 0.2 0.1; 0.3 0.6 0.9 1; 0 1 1 0" begin="0s" repeatCount="indefinite" from="0 0" to="0 0" dur="3.9s" keyTimes="0; 0.30; 0.60; 1" values="0 0; 0 12; 0 0; 0 0"/></g><g id="upper-body"><rect x="972.505" y="334.573" style="fill:#F5BBBD;" width="121.986" height="318.029"/><linearGradient id="SVGID_3_" gradientUnits="userSpaceOnUse" x1="1006.1563" y1="307.27" x2="1060.8447" y2="307.27"><stop offset="0" style="stop-color:#FCE7F0"/><stop offset="0.835" style="stop-color:#F7E3D9"/></linearGradient><rect x="1006.156" y="278.096" style="fill:url(#SVGID_3_);" width="54.688" height="58.349"/><ellipse style="fill:#F5BBBD;" cx="1033.501" cy="645.06" rx="86.861" ry="22.882"/><path style="fill:#F1A1AF;" d="M1094.491,628.773v-294.2h-60.992v333.368c47.975,0,86.863-10.245,86.863-22.882 C1120.362,638.687,1110.458,632.923,1094.491,628.773z"/><linearGradient id="SVGID_4_" gradientUnits="userSpaceOnUse" x1="1020.2422" y1="351.5964" x2="1046.7578" y2="351.5964"><stop offset="0" style="stop-color:#FCE7F0"/><stop offset="0.835" style="stop-color:#F7E3D9"/></linearGradient><polygon style="fill:url(#SVGID_4_);" points="1020.242,325.064 1033.499,378.129 1046.758,325.064 "/><path style="fill:#F5CABD;" d="M1091.942,322.911l-1.035-4.555c-9.429-1.315-19.488-2.333-30.062-2.973v-24.875l-16.198,7.222 c0,0,12.286-1.536,11.365,21.803C1056.012,319.533,1079.654,320.454,1091.942,322.911z"/><path style="fill:#8C3E23;" d="M1068.36,498.796c0,2.319-1.881,4.2-4.201,4.2c-2.312,0-4.198-1.88-4.198-4.2 c0-2.322,1.886-4.199,4.198-4.199C1066.479,494.597,1068.36,496.474,1068.36,498.796z"/><path style="fill:#8C3E23;" d="M1068.36,556.867c0,2.319-1.881,4.199-4.201,4.199c-2.312,0-4.198-1.879-4.198-4.199 c0-2.319,1.886-4.199,4.198-4.199C1066.479,552.668,1068.36,554.548,1068.36,556.867z"/><path style="fill:#D77E58;" d="M995.379,334.061v-17.873c-4.909,0.425-9.676,0.938-14.319,1.517 c-0.071-0.037-0.113-0.054-0.113-0.054c-29.191,3.012-40.885,6.716-44.158,7.953c4.258,37.193,14.706,124.209,16.916,133.24 l11.519,61.25c2.444,22.58-1.405,45.331-9.896,77.47c-10.559,40-28.694,92.952-28.694,92.952s18.207,16.057,86.701,17.752V466.156 C1006.973,369.161,1000.776,342.992,995.379,334.061z"/><path style="fill:#D77E58;" d="M1129.904,325.495c-3.648-1.335-15.491-4.916-43.863-7.844c0,0-0.044,0.017-0.113,0.054 c-4.645-0.579-9.411-1.091-14.321-1.517v17.873c-5.397,8.931-11.594,35.1-17.955,132.095v242.112 c68.494-1.695,86.703-17.752,86.703-17.752s-18.137-52.952-28.701-92.952c-8.483-32.139-12.333-54.89-9.889-77.47l11.518-61.25 c0.026,0.155,0.053,0.314,0.079,0.47C1120.369,427.574,1133.631,340.445,1129.904,325.495z"/><path style="fill:#8C3E23;" d="M1013.345,465.481l-6.775-140.004l-0.504-18.255l-19.099,9.486c0,0-7.255,78.398-4.103,97.346 c3.147,18.949,30.48,54.298,30.48,54.298V465.481z"/><polyline style="fill:none;stroke:#FFFFFF;stroke-width:0.5616;stroke-miterlimit:10;" points="1009.466,337.31 1033.499,413.507 1057.536,337.31 "/><polygon style="fill:#BE1E2D;" points="1033.499,411.023 1026.975,434.899 1033.499,458.775 1040.021,434.899 "/><polygon style="fill:#D76238;" points="1006.171,302.518 1027.84,329.294 993.394,357.206 995.284,312.089 "/><polygon style="fill:#D76238;" points="1027.843,329.29 1033.488,378.152 1017.921,332.677 "/><path style="fill:#8C3E23;" d="M1053.656,465.481l6.775-140.004l0.504-18.255l19.099,9.486c0,0,7.25,78.398,4.103,97.346 c-3.151,18.949-30.48,54.298-30.48,54.298V465.481z"/><polygon style="fill:#D76238;" points="1060.831,302.518 1039.158,329.294 1073.606,357.206 1071.717,312.089 "/><polygon style="fill:#D76238;" points="1039.153,329.29 1033.508,378.152 1049.075,332.677 "/><path style="fill:#BF704E;" d="M1111.653,597.564c-8.483-32.139-12.333-54.89-9.889-77.47l11.518-61.25l0.595-25.302 c0,0-17.903,69.285-19.462,81.741c-1.558,12.452-6.229,42.815,3.109,77.843c8.404,31.505,23.72,85.021,26.726,105.109 c11.897-4.026,16.104-7.718,16.104-7.718S1122.218,637.564,1111.653,597.564z"/><path style="fill:#BF704E;" d="M1013.334,708.268V511.114l-11.436,196.716C1005.548,708.019,1009.347,708.171,1013.334,708.268z"/><g id="right-arm"><path style="fill:#F7E3D9;" d="M1190.441,700.248c0,0-3.062,66.37-15.989,82.758c-11.96,15.164-33.092,37.926-48.85,28.258 c-6.301-3.863,5.654-21.469,16.058-31.221c9.727-9.109,11.194-19.768,11.812-30.239c0.461-7.825-1.945-3.148-6.732,11.017 c-4.842,14.338-24.594,14.58-20.016-8.064c4.848-23.99,1.519-29.255,17.709-39.657c9.276-5.958,10.458-9.88,10.18-17.789 L1190.441,700.248z"/><path style="fill:#F7E3D9;" d="M1176.692,587.592c4.539,21.004,13.713,112.693,13.713,112.693l-24.048,27.024 c-6.334-19.931-10.901-15.921-11.698-31.601c-0.717-14.187-11.442-87.033-13.186-98.669 C1139.737,585.403,1172.154,566.588,1176.692,587.592z"/><path style="fill:#F5CABD;" d="M1190.39,700.242c-0.043-0.394-1.648-16.441-3.836-36.509l-6.585,8.104 c0,0,1.823,37.07,0.608,51.654c-1.041,12.486-5.541,47.95-10.94,54.694c-14.583,18.231-29.169,27.953-40.716,32.207 c0,0-1.006,0.494-2.535,1.307c15.668,8.451,36.297-13.783,48.057-28.693c12.929-16.388,15.99-82.758,15.99-82.758L1190.39,700.242 z"/><path style="fill:#D77E58;" d="M1173.56,560.461c-3.039-9.841-6.898-21.025-10.63-31.845 c-5.46-41.039-12.397-162.433-14.229-176.46c-2.573-19.691-15.131-25.354-18.358-26.499c-0.129-0.049-6.656-2.002-6.816-2.06 c-8.026,6.839-14.475,97.838-10.165,135.716c4.731,28.256,10.174,60.01,14.89,84.689c4.596,58.112,18.347,97.06,23.436,134.282 c18.402,3.193,36.371-6.555,36.371-6.555C1182.622,638.534,1180.979,584.479,1173.56,560.461z"/><path style="fill:#BF704E;" d="M1182.005,674.411c3.752-1.444,6.053-2.681,6.053-2.681c-5.436-33.196-7.078-87.25-14.498-111.269 c-3.039-9.841-6.898-21.025-10.63-31.845c-5.46-41.039-12.397-162.433-14.229-176.46c-2.573-19.691-15.131-25.355-18.358-26.499 c-3.077-1.182-14.69-4.952-44.301-8.007c0,0-0.044,0.017-0.113,0.054c-2.921-0.362-5.907-0.69-8.932-0.996l0.289,3.178 c0,0,48.266,6.23,56.831,16.349c8.561,10.119,7.781,41.259,9.338,52.155c1.557,10.901,9.343,139.344,9.343,139.344 S1173.222,572.428,1182.005,674.411z"/><path style="fill:none;stroke:#FBB040;stroke-width:2.6739;stroke-linecap:round;stroke-linejoin:round;stroke-miterlimit:10;" d=" M1151.942,691.316c0,0,17.938,12.8,39.449,4.369"/><animateTransform id="rightArmRotateAnim" attributeName="transform" type="rotate" calcMode="spline" keySplines="0.2 0.4 0.2 0.1; 0.3 0.6 0.9 1; 0 1 1 0; 0.2 0.4 0.2 0.1; 0.3 0.6 0.9 1; 0 1 1 0" begin="0s" repeatCount="indefinite" from="-1 1123 350" to="-1 1123 350" dur="7.8s" keyTimes="0; 0.15; 0.30; 0.5; 0.65; 0.80; 1" values="-1 1123 350; 1 1123 350; 0 1123 350; 0 1123 350; 1 1123 350; -1 1123 350; -1 1123 350"/></g><g id="left-arm"><path style="fill:#F7E3D9;" d="M876.559,700.248c0,0,3.062,66.37,15.99,82.758c11.96,15.164,33.091,37.926,48.85,28.258 c6.299-3.863-5.655-21.469-16.057-31.221c-9.729-9.109-11.195-19.768-11.812-30.239c-0.46-7.825,1.946-3.148,6.731,11.017 c4.844,14.338,24.593,14.58,20.017-8.064c-4.847-23.99-1.518-29.255-17.708-39.657c-9.276-5.958-10.459-9.88-10.18-17.789 L876.559,700.248z"/><path style="fill:#F7E3D9;" d="M890.304,587.592c-4.538,21.004-13.707,112.693-13.707,112.693l24.047,27.024 c6.334-19.931,10.9-15.921,11.699-31.601c0.716-14.187,11.441-87.033,13.184-98.669 C927.265,585.403,894.842,566.588,890.304,587.592z"/><path style="fill:#F5CABD;" d="M922.776,721.939c4.863,4.053,9.726,33.22,12.155,46.996c0.086,0.47,0.204,0.893,0.351,1.284 c4.227-1.714,7.111-7.257,5.048-17.463c-4.847-23.99-1.521-29.255-17.71-39.657c-9.275-5.958-10.454-9.88-10.179-17.789 l-0.019,0.001c0.374-6.431,2.526-23.261,4.994-41.307l-0.309-0.128l-7.292,2.431c0,0-6.486,43.753-3.243,49.425 C909.816,711.404,917.916,717.887,922.776,721.939z"/><path style="fill:#D77E58;" d="M941.169,324.206c-0.047,0.018-4.479,1.435-4.523,1.452c-3.228,1.144-15.786,6.808-18.359,26.499 c-1.833,14.027-8.768,135.421-14.229,176.46c-3.732,10.82-7.591,22.003-10.63,31.845c-7.42,24.019-9.064,78.073-14.5,111.269 c0,0,17.97,9.747,36.371,6.555c5.091-37.222,18.84-76.169,23.436-134.282c4.742-24.816,10.222-56.786,14.97-85.159l0,0 C956.322,453.416,955.823,371.554,941.169,324.206z"/><path style="fill:#BF704E;" d="M953.704,458.844l-3.67-25.834c0,0-17.017,97.232-18.232,105.74c0,0-11.869,82.5-23.88,140.161 c2.42-0.014,4.894-0.194,7.376-0.626c5.091-37.222,18.84-76.17,23.436-134.282C943.477,519.187,948.956,487.217,953.704,458.844z" /><path style="fill:#C7CDD2;" d="M872.841,692.865c0.794-2.331,3.323-3.578,5.654-2.782c2.327,0.793,3.57,3.318,2.777,5.649 c-0.791,2.332-3.323,3.575-5.648,2.782C873.293,697.717,872.048,695.189,872.841,692.865z"/><path style="fill:#C7CDD2;" d="M880.504,692.136c0.784-2.324,3.319-3.575,5.64-2.783c2.333,0.797,3.576,3.324,2.788,5.652 c-0.799,2.331-3.323,3.575-5.65,2.777C880.944,696.991,879.702,694.462,880.504,692.136z"/><path style="fill:#C7CDD2;" d="M887.739,690.279c0.798-2.331,3.324-3.582,5.655-2.784c2.326,0.795,3.574,3.326,2.773,5.654 c-0.783,2.329-3.315,3.571-5.646,2.778C888.19,695.131,886.947,692.608,887.739,690.279z"/><path style="fill:#C7CDD2;" d="M895.051,687.884c0.788-2.324,3.319-3.572,5.65-2.775c2.331,0.793,3.57,3.319,2.783,5.65 c-0.799,2.331-3.325,3.573-5.656,2.783C895.497,692.744,894.258,690.216,895.051,687.884z"/><path style="fill:#C7CDD2;" d="M902.228,686.566c0.793-2.324,3.33-3.575,5.656-2.78c2.325,0.796,3.573,3.321,2.782,5.65 c-0.799,2.333-3.325,3.577-5.656,2.779C902.681,691.421,901.438,688.896,902.228,686.566z"/><path style="fill:#C7CDD2;" d="M909.071,683.583c0.792-2.326,3.323-3.577,5.643-2.787c2.337,0.8,3.576,3.326,2.783,5.657 c-0.788,2.332-3.318,3.577-5.646,2.78C909.521,688.438,908.278,685.912,909.071,683.583z"/><path style="fill:#C49A6C;" d="M927.218,760.353l-32.451,4.641c-2.089,0.297-3.779,2.882-3.779,5.77v27.787 c0,2.889,1.69,4.988,3.779,4.693l1.419-0.205v-26.373c0-1.9,1.243-3.617,2.777-3.836l23.849-3.412 c1.538-0.221,2.779,1.142,2.779,3.043v26.371l1.627-0.232c2.088-0.299,3.783-2.881,3.783-5.77v-27.787 C931.001,762.152,929.306,760.053,927.218,760.353z"/><path style="fill:#A97C50;" d="M928.579,860.865c2.413,51.731-17.426,56.854-39.392,53.783 c-20.044-2.803-34.192-11.48-32.432-55.279c1.587-39.578,15.849-70.791,33.11-73.205 C908.534,783.555,926.41,814.922,928.579,860.865z"/><polygon style="fill:#A97C50;" points="916.946,919.646 889.885,914.75 889.885,786.162 929.775,780.582 "/><path style="fill:#C49A6C;" d="M974.825,860.893c2.608,51.549-19.389,59.428-45.943,59.428c-26.549,0-46.806-7.879-44.204-59.428 c2.332-46.213,22.419-80.305,45.074-80.305C952.408,780.588,972.491,814.68,974.825,860.893z"/><polygon style="fill:#C49A6C;" points="860.745,830.106 869.865,850.705 900.264,820.309 869.865,856.787 "/><path style="fill:#C49A6C;" d="M872.376,839.197c0,2.09-0.655,3.779-1.463,3.779c-0.806,0-1.458-1.69-1.458-3.779 c0-2.084,0.652-3.773,1.458-3.773C871.721,835.424,872.376,837.113,872.376,839.197z"/><path style="fill:#F7E3D9;" d="M894.553,785.506l31.828-4.449c-0.348-0.336-0.697-0.691-1.039-1.014 c-9.729-9.109-11.195-19.768-11.812-30.239c-0.46-7.825,1.946-3.148,6.731,11.017c4.844,14.338,24.593,14.58,20.017-8.064 c-4.847-23.99-1.518-29.255-17.708-39.657c-9.276-5.958-10.459-9.88-10.18-17.789l-35.831,4.938c0,0,3.062,66.37,15.99,82.758 C893.19,783.82,893.862,784.656,894.553,785.506z"/><animateTransform id="leftArmRotateAnim" attributeName="transform" type="rotate" calcMode="spline" keySplines="0.2 0.4 0.2 0.1; 0.3 0.6 0.9 1; 0 1 1 0; 0.2 0.4 0.2 0.1; 0.3 0.6 0.9 1; 0 1 1 0" begin="0s" repeatCount="indefinite" from="1 925 350" to="1 925 350" dur="7.8s" keyTimes="0; 0.15; 0.30; 0.5; 0.65; 0.80; 1" values="1 925 350; -1 925 350; 0 925 350; 0 925 350; -1 925 350; 1 925 350; 1 925 350"/></g><path style="fill:#541900;" d="M969.39,204.926c0,0-4.343,56.68,5.966,84.343c0,0-45.275-0.848-42.641-81.659L969.39,204.926z"/><path style="fill:#541900;" d="M1094.505,204.926c0,0,4.344,56.68-5.967,84.343c0,0,45.278-0.848,42.644-81.659L1094.505,204.926z" /><path style="fill:#993E21;" d="M1141.991,153.198c-1.157,62.814-50.415,112.769-110.041,112.769 c-59.623,0-108.888-49.955-110.051-112.769c-1.185-64.165,48.083-117.202,110.051-117.202 C1093.921,35.997,1143.183,89.033,1141.991,153.198z"/><linearGradient id="SVGID_5_" gradientUnits="userSpaceOnUse" x1="943.9223" y1="213.5579" x2="1119.0831" y2="213.5579"><stop offset="0" style="stop-color:#FBE6EF"/><stop offset="0.835" style="stop-color:#F7E2D8"/></linearGradient><path style="fill:url(#SVGID_5_);" d="M943.25,125.477l6.01,78.199c2.844,55.609,39.783,97.964,82.69,97.964 c42.903,0,79.842-42.354,82.689-97.964l6.007-78.199H943.25z"/><path style="fill:#F5CABD;" d="M1110.288,105.271l-8.438,98.405c-2.704,52.823-36.179,93.657-76.295,97.617 c2.115,0.21,4.244,0.347,6.395,0.347c42.903,0,79.842-42.354,82.689-97.964l8.44-98.405H1110.288z"/><path style="fill:#C5168C;" d="M1031.95,261.435c-9.019,0-17.349-2.696-24.094-7.255h-1.694c6.359,6.481,15.6,11.324,25.83,11.324 c10.232,0,19.386-4.842,25.742-11.324h-1.694C1049.294,258.739,1040.966,261.435,1031.95,261.435z"/><path style="fill:#C5168C;" d="M1008.796,255.202c0,0,4.277,3.675,17.03,3.495l8.246,3.674l-11.855-0.55 C1022.217,261.821,1011.706,258.512,1008.796,255.202z"/><path style="fill:#C5168C;" d="M1055.101,255.202c0,0-4.279,3.675-17.025,3.495l-8.252,3.674l11.855-0.55 C1041.679,261.821,1052.193,258.512,1055.101,255.202z"/><path style="fill:#FFFFFF;" d="M1008.402,186.898c0,10.677-9.908,19.328-22.139,19.328c-12.227,0-22.14-8.65-22.14-19.328 c0-10.673,9.913-19.328,22.14-19.328C998.494,167.569,1008.402,176.225,1008.402,186.898z"/><path style="fill:#FFFFFF;" d="M1100.588,186.898c0,10.677-9.909,19.328-22.14,19.328c-12.225,0-22.139-8.65-22.139-19.328 c0-10.673,9.914-19.328,22.139-19.328C1090.679,167.569,1100.588,176.225,1100.588,186.898z"/><polygon style="fill:#F5CABD;" points="1030.397,240.37 1044.926,229.531 1015.869,229.531 "/><polygon style="fill:#F5CABD;" points="1034.594,232.294 1034.594,195.652 1044.964,229.512 "/><path d="M988.394,170.522c-5.981,0-11.241,2.579-14.509,6.505l20.521,3.854l-23.871,4.487c-0.02,0.28-0.097,0.547-0.097,0.836 c0,8.655,8.039,15.677,17.956,15.677c9.919,0,17.956-7.022,17.956-15.677C1006.351,177.544,998.313,170.522,988.394,170.522z"/><path d="M1075.571,170.522c-5.977,0-11.238,2.579-14.504,6.505l20.516,3.854l-23.868,4.487c-0.017,0.28-0.099,0.547-0.099,0.836 c0,8.655,8.039,15.677,17.955,15.677c9.924,0,17.967-7.022,17.967-15.677C1093.538,177.544,1085.495,170.522,1075.571,170.522z"/><path d="M969.03,168.766c0,0,3.47,6.187,14.309,5.697l-2.227,2.426C981.112,176.889,973.886,178.95,969.03,168.766z"/><path d="M1094.938,168.766c0,0-3.471,6.187-14.3,5.697l2.218,2.426C1082.855,176.889,1090.077,178.95,1094.938,168.766z"/><linearGradient id="SVGID_6_" gradientUnits="userSpaceOnUse" x1="1075.7109" y1="179.2106" x2="1075.7109" y2="219.9704"><stop offset="0" style="stop-color:#FFFFFF"/><stop offset="1" style="stop-color:#231F20"/></linearGradient><path style="opacity:0.5;fill:url(#SVGID_6_);" d="M1059.919,187.619c0.486,6.979,7.359,12.524,15.789,12.524 c8.431,0,15.305-5.545,15.795-12.524c0,0-8.124-1.477-15.756-1.477C1068.116,186.142,1059.919,187.619,1059.919,187.619z"/><linearGradient id="SVGID_7_" gradientUnits="userSpaceOnUse" x1="988.5127" y1="179.2106" x2="988.5127" y2="219.9704"><stop offset="0" style="stop-color:#FFFFFF"/><stop offset="1" style="stop-color:#231F20"/></linearGradient><path style="opacity:0.5;fill:url(#SVGID_7_);" d="M972.721,187.619c0.486,6.979,7.359,12.524,15.789,12.524 c8.431,0,15.306-5.545,15.795-12.524c0,0-8.124-1.477-15.755-1.477C980.917,186.142,972.721,187.619,972.721,187.619z"/><path style="fill:#F5CABD;" d="M1106.038,165.841v60.424c16.407-0.337,29.61-13.721,29.61-30.215 C1135.648,179.561,1122.445,166.178,1106.038,165.841z"/><linearGradient id="SVGID_8_" gradientUnits="userSpaceOnUse" x1="941.5079" y1="196.0529" x2="1121.4688" y2="196.0529"><stop offset="0" style="stop-color:#FBE6EF"/><stop offset="0.835" style="stop-color:#F7E2D8"/></linearGradient><path style="fill:url(#SVGID_8_);" d="M957.858,226.265v-60.424c-16.407,0.337-29.61,13.721-29.61,30.215 C928.248,212.544,941.451,225.928,957.858,226.265z"/><path style="fill:#993E21;" d="M977.269,106.011c0,0-75.267,163.045-9.421,189.309c0,0-111.985,13.948-38.39-186.366 L977.269,106.011z"/><path style="fill:#993E21;" d="M1086.628,106.011c0,0,75.271,163.045,9.424,189.309c0,0,111.984,13.948,38.387-186.366 L1086.628,106.011z"/><path style="fill:#993E21;" d="M950.612,89.456c0,0,10.699,85.028,119.273,77.736c0,0-25.928-21.877-28.36-87.509L950.612,89.456z" /><path style="fill:#993E21;" d="M1017.714,99.487c0,0,8.991,52.11,82.084,65.229c0,0-4.374-38.732-32.486-68.721L1017.714,99.487z" /><path style="fill:#993E21;" d="M1072.709,121.726c1.999,0.997,38.209,24.494,39.719,66.624l19.195-55.975l-10.084-33.319 l-42.172,5.027L1072.709,121.726z"/><path style="fill:#993E21;" d="M968.31,105.076c0,0-4.373,33.109,22.49,58.723c0,0-44.287,6.552-55.604-23.738l9.997-30.613 L968.31,105.076z"/><path style="fill:#993E21;" d="M958.169,142.131c0,0-13.602,65.492,20.152,106.802c0,0-49.514,1.426-46.8-81.902L958.169,142.131z" /><path style="fill:#993E21;" d="M1105.726,142.131c0,0,13.603,65.492-20.15,106.802c0,0,49.514,1.426,46.798-81.902 L1105.726,142.131z"/><path style="fill:#4E2508;" d="M990.309,182.124c-18.674,0-34.839,3.098-34.839,11.943c0,8.844,16.165,20.087,34.839,20.087 c18.678,0,33.812-7.171,33.812-16.016C1024.121,189.294,1008.986,182.124,990.309,182.124z M991.59,211.438 c-15.509,0-28.938-9.333-28.938-16.681c0-7.347,13.429-9.92,28.938-9.92c15.512,0,28.084,5.957,28.084,13.301 C1019.674,205.484,1007.102,211.438,991.59,211.438z"/><path style="fill:#4E2508;" d="M1076.688,182.124c18.672,0,34.839,3.098,34.839,11.943c0,8.844-16.167,20.087-34.839,20.087 c-18.678,0-33.817-7.171-33.817-16.016C1042.87,189.294,1058.01,182.124,1076.688,182.124z M1075.406,211.438 c15.511,0,28.933-9.333,28.933-16.681c0-7.347-13.422-9.92-28.933-9.92c-15.507,0-28.084,5.957-28.084,13.301 C1047.322,205.484,1059.899,211.438,1075.406,211.438z"/><path style="fill:#4E2508;" d="M1021.586,200.011c3.537-1.017,7.591-1.6,11.913-1.6c4.323,0,8.373,0.584,11.911,1.6v-4.359 c-3.538-1.011-7.597-1.585-11.911-1.585c-4.316,0-8.376,0.574-11.913,1.585V200.011z"/><animateTransform id="upperBodyTrasnlateAnim" attributeName="transform" type="translate" calcMode="spline" keySplines="0.2 0.4 0.2 0.1; 0.3 0.6 0.9 1; 0 1 1 0" begin="0s" repeatCount="indefinite" from="0 0" to="0 0" dur="3.9s" keyTimes="0; 0.30; 0.60; 1" values="0 0; 0 15; 0 0; 0 0"/></g></svg> 