<?xml version="1.0" encoding="iso-8859-1"?><svg version="1.1" id="_x31_8-30_Intermediate" xmlns="http://www.w3.org/2000/svg" xmlns:xlink="http://www.w3.org/1999/xlink" x="0px" y="0px" viewBox="0 0 2048 1536" style="enable-background:new 0 0 2048 1536;" xml:space="preserve"><linearGradient id="SVGID_1_" gradientUnits="userSpaceOnUse" x1="928.0837" y1="1089.9362" x2="1016.9614" y2="1089.9362"><stop offset="0" style="stop-color:#FCE7F0"/><stop offset="0.835" style="stop-color:#F7E3D9"/></linearGradient><path style="fill:url(#SVGID_1_);" d="M1012.132,1358.971V722.538c0,0-82.822-39.19-83.538-18.031 c-5.278,155.78,32.19,253.367,27.225,310.718c-4.973,57.348-15.947,110.729-13.307,152.547 c0.691,10.933,17.966,121.128,28.972,190.269c0.844,11.205,1.659,24.037,1.287,27.562c-0.696,6.611-10.786,54.627-10.786,54.627 l12.177,36.881l28.535,4.524l14.264-47.667L1012.132,1358.971z"/><path style="fill:#F5CABD;" d="M1012.132,1366.422V722.538c0,0-56.775-27.019-76.348-23.855 c22.893,2.61,62.867,45.405,62.867,45.405l5.714,622.334l4.831,74.996l-13.913,46.492l7.414,1.175l14.264-47.667L1012.132,1366.422z "/><linearGradient id="SVGID_2_" gradientUnits="userSpaceOnUse" x1="953.2368" y1="1463.4795" x2="1022.8892" y2="1463.4795"><stop offset="0.0291" style="stop-color:#B43D59"/><stop offset="0.4896" style="stop-color:#B23C58"/><stop offset="0.8172" style="stop-color:#8E2D45"/></linearGradient><path style="fill:url(#SVGID_2_);" d="M987.042,1477.643c-15.59-8.479-21.584-31.688-23.174-39.237 c-3.183,11.319-8.981,23.453-10.592,38.772c-0.458,4.319,3.25,22.276,6.032,25.419h52.442c8.358-4.072,11.14-19.85,11.14-19.85 l-6.922-58.385C1014.189,1439.815,1011.473,1465.541,987.042,1477.643z"/><linearGradient id="SVGID_3_" gradientUnits="userSpaceOnUse" x1="1033.2871" y1="1093.6626" x2="1122.3622" y2="1093.6626"><stop offset="0" style="stop-color:#FCE7F0"/><stop offset="0.835" style="stop-color:#F7E3D9"/></linearGradient><path style="fill:url(#SVGID_3_);" d="M1121.654,704.507c-0.85-21.154-83.537,18.031-83.537,18.031v643.884l-4.83,74.996 l14.264,47.667l28.535-4.524l12.178-36.879c0,0-10.092-48.018-10.787-54.627c-0.576-5.443,1.682-33.056,2.496-42.634 c11.018-69.326,27.096-172.11,27.764-182.649c2.641-41.817-8.332-95.199-13.309-152.547 C1089.465,957.874,1128,862.662,1121.654,704.507z"/><path style="fill:#F5CABD;" d="M1121.654,704.507c0.027-6.263-8.658-7.044-18.455-5.308c2.674,0.891,4.48,2.568,5.037,5.308 c31.684,156.412-32.189,253.367-27.225,310.718c4.975,57.348,15.947,110.729,13.309,152.547 c-0.668,10.539-9.082,113.323-20.098,182.649c-0.814,9.578-3.074,37.19-2.496,42.634c0.695,6.609,3.119,54.627,3.119,54.627 l-12.178,36.879l-15.729,2.494l0.611,2.03l28.535-4.524l12.178-36.879c0,0-10.092-48.018-10.787-54.627 c-0.576-5.443,1.682-33.056,2.496-42.634c11.018-69.326,27.096-172.11,27.764-182.649c2.641-41.817-8.332-95.199-13.309-152.547 C1089.465,957.874,1120.865,860.762,1121.654,704.507z"/><linearGradient id="SVGID_4_" gradientUnits="userSpaceOnUse" x1="1027.3594" y1="1463.4795" x2="1097.0115" y2="1463.4795"><stop offset="0.0291" style="stop-color:#B43D59"/><stop offset="0.4896" style="stop-color:#B23C58"/><stop offset="0.8172" style="stop-color:#8E2D45"/></linearGradient><path style="fill:url(#SVGID_4_);" d="M1063.207,1477.643c15.59-8.479,21.584-31.688,23.174-39.237 c3.184,11.319,8.982,23.453,10.592,38.772c0.459,4.319-3.25,22.276-6.031,25.419h-52.443c-8.355-4.072-11.139-19.85-11.139-19.85 l6.922-58.385C1036.059,1439.815,1038.775,1465.541,1063.207,1477.643z"/><g id="upper-body"><path style="fill:#F9A74B;" d="M1111.762,955.243c0,0,20.932-148.604,20.859-190.953c-0.133-83.114-20.291-114.289-20.291-114.289 H938.143c0,0-20.163,31.175-20.302,114.289c-0.061,42.35,20.865,190.953,20.865,190.953H1111.762z"/><path style="fill:#F9A74B;" d="M1111.875,954.148c0.912,11.296-37.877,20.63-86.656,20.63c-48.778,0-87.561-9.334-86.656-20.63 c0.891-11.061,39.679-19.868,86.656-19.868C1072.197,934.28,1110.984,943.087,1111.875,954.148z"/><path style="fill:#F69148;" d="M1112.33,650.001h-33.369l-23.062,28.828c0,0,24.033,8.48,50.889,4.24 c0,0,8.793,68.575,7.064,103.185c-2.824,56.541-12.723,125.802-23.498,181.635c13.439-3.581,21.551-8.273,21.514-13.388 c1.564-11.185,20.824-149.584,20.754-190.211C1132.488,681.176,1112.33,650.001,1112.33,650.001z"/><rect x="964.025" y="333.038" style="fill:#FFDE74;" width="122.419" height="319.157"/><path style="fill:#FFDE74;" d="M1112.404,644.625c0,12.683-39.025,22.962-87.17,22.962c-48.141,0-87.167-10.279-87.167-22.962 c0-12.684,39.025-22.963,87.167-22.963C1073.379,621.662,1112.404,631.941,1112.404,644.625z"/><path style="fill:#FAC06D;" d="M1086.443,628.28V333.038h-61.209v334.549c48.145,0,87.17-10.279,87.17-22.962 C1112.404,638.229,1102.467,632.444,1086.443,628.28z"/><linearGradient id="SVGID_5_" gradientUnits="userSpaceOnUse" x1="956.1812" y1="343.9903" x2="1094.2871" y2="343.9903"><stop offset="0" style="stop-color:#FCE7F0"/><stop offset="0.835" style="stop-color:#F7E3D9"/></linearGradient><path style="fill:url(#SVGID_5_);" d="M1025.219,312.958c-25.393,0-49.069,1.701-69.038,4.626 c8.519,19.477,36.039,57.438,69.053,57.438c33.014,0,60.533-37.956,69.053-57.433 C1074.309,314.659,1050.625,312.958,1025.219,312.958z"/><linearGradient id="SVGID_6_" gradientUnits="userSpaceOnUse" x1="997.7944" y1="301.0996" x2="1052.6777" y2="301.0996"><stop offset="0" style="stop-color:#FCE7F0"/><stop offset="0.835" style="stop-color:#F7E3D9"/></linearGradient><rect x="997.794" y="276.36" style="fill:url(#SVGID_6_);" width="54.883" height="49.479"/><path style="fill:#F5CABD;" d="M1083.885,321.335l-1.039-4.572c-9.463-1.319-19.559-2.342-30.168-2.982v-24.964l-16.258,7.246 c0,0,12.332-1.541,11.408,21.882C1047.828,317.944,1071.555,318.869,1083.885,321.335z"/><path style="fill:none;stroke:#C7CDD2;stroke-linecap:round;stroke-miterlimit:10;" d="M1064.621,314.561 c0,17.091-17.637,30.945-39.387,30.945c-21.75,0-39.389-13.854-39.389-30.945"/><path style="fill:#C7CDD2;" d="M1027.973,352.659c0.025-1.759-1.113-7.718-2.6-7.689c-1.488,0.029-2.754,6.037-2.773,7.795 c-0.019,1.758,1.166,3.159,2.658,3.13C1026.74,355.865,1027.959,354.417,1027.973,352.659z"/><path style="fill:#FFFFFF;" d="M1021.931,352.406c0.392-1.82,2.187-2.98,4.008-2.59c1.82,0.394,2.977,2.188,2.586,4.007 c-0.389,1.823-2.182,2.98-4.005,2.587C1022.7,356.02,1021.541,354.226,1021.931,352.406z"/><path style="fill:#8C3E23;" d="M992.835,306.874c-6.999,3.611-18.291,6.546-25.966,8.579c-7.096,1.879-35.973,7.549-38.803,8.638 c-0.222,0.079-0.493,0.181-0.797,0.306c-0.307,33.104,8.644,92.784,17.522,135.703c0.131-0.782,0.264-1.571,0.394-2.349 l11.558,61.465c2.454,22.657,1.03,45.492-7.484,77.744c-9.42,35.677-21.121,61.103-21.436,62.691 c-0.089,0.422-0.147,0.844-0.147,1.27c0,10.713,37.831,19.7,75.774,22.239V373.396 C1003.45,373.396,996.332,305.067,992.835,306.874z"/><polygon style="fill:#5F1E00;" points="997.656,300.87 1003.422,331.039 977.565,355.753 986.733,310.474 "/><polygon style="fill:#5F1E00;" points="1003.427,331.03 1003.427,376.77 995.994,333.424 "/><path style="fill:#8C3E23;" d="M1122.4,324.091c-2.83-1.089-31.707-6.759-38.801-8.638c-7.678-2.033-18.969-4.968-25.967-8.579 c-3.498-1.807-10.615,66.523-10.615,66.523V683.16c37.945-2.539,75.773-11.526,75.773-22.239c0-0.426-0.057-0.848-0.146-1.27 c-0.314-1.589-12.016-27.015-21.436-62.691c-8.516-32.252-9.939-55.087-7.486-77.744l11.447-60.872 c16.543-47.251,23.105-90.555,17.385-134.197C1122.504,324.129,1122.448,324.108,1122.4,324.091z"/><polygon style="fill:#5F1E00;" points="1052.811,300.87 1047.045,331.039 1072.902,355.753 1063.736,310.474 "/><polygon style="fill:#5F1E00;" points="1047.041,331.03 1047.041,376.77 1054.475,333.424 "/><g id="left-arm"><path style="fill:#F7E3D9;" d="M881.533,586.952c-4.556,21.079-13.756,113.093-13.756,113.093l24.132,27.12 c6.355-20.002,10.939-15.977,11.741-31.713c0.719-14.236,11.481-87.341,13.229-99.018 C918.623,584.756,886.087,565.875,881.533,586.952z"/><path style="fill:#F7E3D9;" d="M867.739,700.007c0,0,3.072,66.606,16.047,83.053c12.002,15.219,33.208,38.06,49.021,28.358 c6.323-3.878-5.675-21.545-16.114-31.331c-9.761-9.143-11.234-19.84-11.853-30.348c-0.463-7.853,1.953-3.159,6.755,11.056 c4.861,14.39,24.681,14.633,20.088-8.092c-4.865-24.076-1.524-29.359-17.772-39.798c-9.31-5.98-10.497-9.915-10.215-17.853 L867.739,700.007z"/><path style="fill:#F5CABD;" d="M914.146,721.775c4.878,4.067,9.759,33.338,12.198,47.163c0.086,0.472,0.204,0.895,0.353,1.288 c4.24-1.72,7.137-7.282,5.064-17.523c-4.865-24.076-1.526-29.359-17.771-39.798c-9.31-5.98-10.492-9.915-10.215-17.853 l-0.02,0.003c0.375-6.454,2.506-23.21,4.984-41.32l0.533-4.879l-6.57-3.54c0,0-8.07,54.503-4.817,60.197 C901.14,711.204,909.268,717.71,914.146,721.775z"/><path style="fill:#8C3E23;" d="M909.643,350.684c-1.839,14.077-8.801,135.902-14.28,177.086 c-3.746,10.858-7.62,22.079-10.667,31.957c-7.448,24.104-6.399,49.765-11.855,83.078c0,0,19.396,10.003,37.863,6.799 c5.108-37.353,14.846-48.074,19.458-106.391c4.631-24.227,9.957-55.236,14.63-83.113c1.448-45.501,0.598-91.89-17.522-135.703 C923.14,326.086,912.047,332.279,909.643,350.684z"/><path style="fill:#710E13;" d="M908.74,623.804l6.779,0.515c5.063-20.992,11.245-38.124,14.643-81.106 c4.761-24.907,10.259-56.991,15.023-85.462l-2.483-22.102l-19.36,104.267C923.342,539.916,916.889,606.144,908.74,623.804z"/><path style="fill:#5F1E00;" d="M868.893,642.052l-2.184-34.891c0,0,17.472,6.314,30.206,8.819 c12.732,2.504,24.233,2.182,24.233,2.182l-9.482,32.989C911.667,651.151,890.89,655.325,868.893,642.052z"/><path style="fill:#C7CDD2;" d="M864.482,692.598c0.796-2.339,3.336-3.59,5.675-2.792c2.334,0.797,3.583,3.331,2.787,5.671 c-0.796,2.339-3.336,3.587-5.669,2.792C864.935,697.468,863.686,694.931,864.482,692.598z"/><path style="fill:#C7CDD2;" d="M872.172,691.866c0.786-2.332,3.33-3.587,5.661-2.791c2.339,0.8,3.588,3.335,2.797,5.672 c-0.801,2.339-3.336,3.588-5.669,2.787C872.615,696.739,871.367,694.201,872.172,691.866z"/><path style="fill:#C7CDD2;" d="M879.434,690.004c0.799-2.339,3.335-3.595,5.675-2.794c2.334,0.798,3.586,3.337,2.781,5.675 c-0.786,2.337-3.325,3.583-5.664,2.786C879.886,694.873,878.637,692.341,879.434,690.004z"/><path style="fill:#C7CDD2;" d="M886.771,687.6c0.791-2.332,3.331-3.585,5.669-2.784c2.339,0.796,3.583,3.331,2.792,5.67 c-0.8,2.34-3.335,3.585-5.675,2.792C887.218,692.477,885.975,689.94,886.771,687.6z"/><path style="fill:#C7CDD2;" d="M893.975,686.278c0.794-2.332,3.339-3.588,5.675-2.79c2.334,0.798,3.586,3.333,2.792,5.67 c-0.801,2.342-3.335,3.591-5.675,2.79C894.427,691.15,893.178,688.615,893.975,686.278z"/><path style="fill:#C7CDD2;" d="M900.84,683.283c0.796-2.334,3.336-3.589,5.665-2.797c2.345,0.804,3.588,3.338,2.792,5.678 c-0.789,2.339-3.33,3.59-5.664,2.789C901.292,688.155,900.044,685.621,900.84,683.283z"/><circle style="fill:#8C3E23;" cx="874.557" cy="620.087" r="3.169"/><animateTransform id="leftArmRotateAnim" attributeName="transform" type="rotate" calcMode="spline" keySplines="0.2 0.4 0.2 0.1; 0.3 0.6 0.9 1; 0 1 1 0; 0.2 0.4 0.2 0.1; 0.3 0.6 0.9 1; 0 1 1 0" begin="0s" repeatCount="indefinite" from="1 925 350" to="1 925 350" dur="7.8s" keyTimes="0; 0.15; 0.30; 0.5; 0.65; 0.80; 1" values="1 925 350; -1 925 350; 0 925 350; 0 925 350; -1 925 350; 1 925 350; 1 925 350"/></g><g id="right-arm"><path style="fill:#F7E3D9;" d="M1182.734,700.007c0,0-3.074,66.606-16.047,83.053c-12.002,15.219-33.209,38.06-49.021,28.358 c-6.324-3.878,5.674-21.545,16.111-31.331c9.764-9.143,11.236-19.84,11.855-30.348c0.463-7.853-1.953-3.159-6.756,11.056 c-4.859,14.39-24.68,14.633-20.088-8.092c4.865-24.076,1.525-29.359,17.771-39.798c9.311-5.98,10.496-9.915,10.215-17.853 L1182.734,700.007z"/><path style="fill:#F7E3D9;" d="M1168.938,586.952c4.553,21.079,13.758,113.093,13.758,113.093l-24.131,27.12 c-6.357-20.002-10.939-15.977-11.74-31.713c-0.721-14.236-11.482-87.341-13.232-99.018 C1131.85,584.756,1164.381,565.875,1168.938,586.952z"/><path style="fill:#F5CABD;" d="M1182.705,700.003c-0.037-0.396-1.652-16.5-6.322-58.647l-5.211,2.401 c0,0,4.297,49.083,3.076,63.72c-1.043,12.53-6.949,63.976-12.363,70.744c-14.637,18.296-29.273,28.053-40.861,32.322 c0,0-1.016,0.495-2.543,1.31c15.723,8.482,36.418-13.831,48.221-28.794c12.975-16.447,16.047-83.053,16.047-83.053 L1182.705,700.003z"/><path style="fill:#8C3E23;" d="M1165.771,559.727c-3.049-9.878-6.922-21.1-10.668-31.957 c-5.479-41.184-12.439-163.009-14.277-177.086c-2.546-19.472-14.812-25.275-18.271-26.536 c-26.351,47.854-20.932,89.863-17.385,134.197l0.111-0.593c4.766,28.471,10.264,60.555,15.023,85.462 c4.613,58.316,14.35,69.037,19.459,106.391c18.467,3.204,37.861-6.799,37.861-6.799 C1172.17,609.491,1173.219,583.83,1165.771,559.727z"/><path style="fill:#710E13;" d="M1155.104,527.769c-5.479-41.184-12.439-163.009-14.277-177.086 c-2.584-19.761-15.186-25.447-18.426-26.593c-2.83-1.089-31.707-6.759-38.801-8.638c-7.182-1.902-17.48-4.601-24.516-7.897 l0.59,7.666c0,0,42.789,13.657,55.535,18.209c12.746,4.551,13.658,10.926,17.297,25.491 c3.641,14.564,12.746,169.335,12.746,169.335s20.939,54.623,21.85,95.59c0.236,10.672,3.205,16.934,7.498,20.344 c1.908-0.814,3.025-1.386,3.025-1.386c-5.455-33.313-4.406-58.975-11.854-83.078 C1162.723,549.849,1158.85,538.627,1155.104,527.769z"/><path style="fill:#5F1E00;" d="M1181.576,642.052l2.182-34.891c0,0-17.471,6.314-30.203,8.819 c-12.734,2.504-24.23,2.182-24.23,2.182l9.477,32.989C1138.801,651.151,1159.582,655.325,1181.576,642.052z"/><path style="fill:#8C3E23;" d="M1172.748,620.087c0,1.749,1.414,3.169,3.168,3.169c1.748,0,3.164-1.42,3.164-3.169 c0-1.751-1.416-3.168-3.164-3.168C1174.162,616.919,1172.748,618.336,1172.748,620.087z"/><animateTransform id="rightArmRotateAnim" attributeName="transform" type="rotate" calcMode="spline" keySplines="0.2 0.4 0.2 0.1; 0.3 0.6 0.9 1; 0 1 1 0; 0.2 0.4 0.2 0.1; 0.3 0.6 0.9 1; 0 1 1 0" begin="0s" repeatCount="indefinite" from="-1 1123 350" to="-1 1123 350" dur="7.8s" keyTimes="0; 0.15; 0.30; 0.5; 0.65; 0.80; 1" values="-1 1123 350; 1 1123 350; 0 1123 350; 0 1123 350; 1 1123 350; -1 1123 350; -1 1123 350"/></g><path style="fill:#710E13;" d="M1101.209,596.96c-8.516-32.252-9.939-55.087-7.486-77.744l11.559-61.465l3.553-23.267 c0,0-14.473,49.796-21.789,83.017c-8.279,37.605,0.836,77.196,5.436,95.776c5.465,22.075,10.188,41.434,15.117,59.163 c9.359-3.386,15.193-7.319,15.193-11.52c0-0.426-0.057-0.848-0.146-1.269C1122.33,658.062,1110.629,632.637,1101.209,596.96z"/><path style="fill:#710E13;" d="M1003.45,683.16V459.1l-7.923,223.434C998.16,682.771,1000.804,682.983,1003.45,683.16z"/><path style="fill:#541900;" d="M960.111,202.932c0,0-4.359,56.881,5.983,84.642c0,0-45.435-0.851-42.79-81.947L960.111,202.932z"/><path style="fill:#541900;" d="M1085.67,202.932c0,0,4.354,56.881-5.99,84.642c0,0,45.439-0.851,42.795-81.947L1085.67,202.932z"/><path style="fill:#993E21;" d="M1133.324,151.02c-1.162,63.037-50.594,113.169-110.432,113.169 c-59.837,0-109.273-50.132-110.441-113.169c-1.19-64.393,48.251-117.617,110.441-117.617 C1085.084,33.403,1134.516,86.628,1133.324,151.02z"/><linearGradient id="SVGID_7_" gradientUnits="userSpaceOnUse" x1="934.5512" y1="211.5932" x2="1110.3353" y2="211.5932"><stop offset="0" style="stop-color:#FBE6EF"/><stop offset="0.835" style="stop-color:#F7E2D8"/></linearGradient><path style="fill:url(#SVGID_7_);" d="M933.876,123.2l6.033,78.477c2.853,55.807,39.921,98.309,82.983,98.309 c43.051,0,80.124-42.503,82.985-98.309l6.027-78.477H933.876z"/><path style="fill:#F5CABD;" d="M1101.506,102.923l-8.467,98.754c-2.715,53.01-36.305,93.989-76.565,97.962 c2.12,0.21,4.26,0.348,6.418,0.348c43.051,0,80.124-42.503,82.985-98.309l8.465-98.754H1101.506z"/><path style="fill:#C5168C;" d="M1022.892,259.641c-9.052,0-17.409-2.705-24.181-7.28h-1.7c6.385,6.504,15.656,11.364,25.924,11.364 c10.268,0,19.454-4.86,25.832-11.364h-1.701C1040.297,256.935,1031.939,259.641,1022.892,259.641z"/><path style="fill:#C5168C;" d="M999.656,253.385c0,0,4.292,3.688,17.09,3.508l8.276,3.688l-11.897-0.554 C1013.125,260.026,1002.577,256.706,999.656,253.385z"/><path style="fill:#C5168C;" d="M1046.125,253.385c0,0-4.293,3.688-17.088,3.508l-8.281,3.688l11.898-0.554 C1032.654,260.026,1043.209,256.706,1046.125,253.385z"/><path style="fill:#FFFFFF;" d="M999.261,184.838c0,10.716-9.945,19.397-22.217,19.397c-12.27,0-22.217-8.682-22.217-19.397 c0-10.71,9.947-19.396,22.217-19.396C989.316,165.442,999.261,174.128,999.261,184.838z"/><path style="fill:#FFFFFF;" d="M1091.771,184.838c0,10.716-9.943,19.397-22.217,19.397c-12.268,0-22.217-8.682-22.217-19.397 c0-10.71,9.949-19.396,22.217-19.396C1081.828,165.442,1091.771,174.128,1091.771,184.838z"/><polygon style="fill:#F5CABD;" points="1021.333,238.501 1035.914,227.624 1006.753,227.624 "/><polygon style="fill:#F5CABD;" points="1025.545,230.396 1025.545,193.624 1035.951,227.605 "/><path d="M979.182,168.406c-6.002,0-11.281,2.586-14.559,6.526l20.591,3.869l-23.957,4.503c-0.019,0.28-0.095,0.547-0.095,0.838 c0,8.686,8.067,15.733,18.018,15.733c9.954,0,18.02-7.048,18.02-15.733C997.202,175.453,989.135,168.406,979.182,168.406z"/><path d="M1066.668,168.406c-5.998,0-11.277,2.586-14.555,6.526l20.586,3.869l-23.951,4.503c-0.018,0.28-0.098,0.547-0.098,0.838 c0,8.686,8.064,15.733,18.018,15.733c9.957,0,18.029-7.048,18.029-15.733C1084.697,175.453,1076.625,168.406,1066.668,168.406z"/><path d="M959.748,166.643c0,0,3.482,6.209,14.36,5.718l-2.234,2.435C971.874,174.795,964.623,176.862,959.748,166.643z"/><path d="M1086.102,166.643c0,0-3.482,6.209-14.35,5.718l2.227,2.435C1073.979,174.795,1081.225,176.862,1086.102,166.643z"/><linearGradient id="SVGID_8_" gradientUnits="userSpaceOnUse" x1="1066.8057" y1="177.125" x2="1066.8057" y2="218.0295"><stop offset="0" style="stop-color:#FFFFFF"/><stop offset="1" style="stop-color:#231F20"/></linearGradient><path style="opacity:0.5;fill:url(#SVGID_8_);" d="M1050.959,185.562c0.486,7.004,7.385,12.569,15.844,12.569 c8.461,0,15.359-5.565,15.85-12.569c0,0-8.15-1.481-15.809-1.481C1059.184,184.081,1050.959,185.562,1050.959,185.562z"/><linearGradient id="SVGID_9_" gradientUnits="userSpaceOnUse" x1="979.2988" y1="177.125" x2="979.2988" y2="218.0295"><stop offset="0" style="stop-color:#FFFFFF"/><stop offset="1" style="stop-color:#231F20"/></linearGradient><path style="opacity:0.5;fill:url(#SVGID_9_);" d="M963.45,185.562c0.491,7.004,7.385,12.569,15.848,12.569 c8.461,0,15.36-5.565,15.851-12.569c0,0-8.152-1.481-15.812-1.481C971.678,184.081,963.45,185.562,963.45,185.562z"/><path style="fill:#F5CABD;" d="M1097.242,163.708v60.638c16.465-0.339,29.717-13.77,29.717-30.321 C1126.959,177.477,1113.707,164.046,1097.242,163.708z"/><linearGradient id="SVGID_10_" gradientUnits="userSpaceOnUse" x1="932.1286" y1="194.0269" x2="1112.7272" y2="194.0269"><stop offset="0" style="stop-color:#FBE6EF"/><stop offset="0.835" style="stop-color:#F7E2D8"/></linearGradient><path style="fill:url(#SVGID_10_);" d="M948.537,224.346v-60.638c-16.467,0.338-29.715,13.77-29.715,30.321 C918.822,210.576,932.07,224.007,948.537,224.346z"/><path style="fill:#993E21;" d="M968.015,103.665c0,0-75.533,163.623-9.452,189.98c0,0-112.381,13.997-38.527-187.026 L968.015,103.665z"/><path style="fill:#993E21;" d="M1077.766,103.665c0,0,75.535,163.623,9.451,189.98c0,0,112.385,13.997,38.525-187.026 L1077.766,103.665z"/><path style="fill:#993E21;" d="M941.267,87.052c0,0,10.734,85.329,119.694,78.012c0,0-26.02-21.955-28.459-87.819L941.267,87.052z" /><path style="fill:#993E21;" d="M1008.604,97.119c0,0,9.024,52.295,82.376,65.459c0,0-4.393-38.868-32.604-68.963L1008.604,97.119z" /><path style="fill:#993E21;" d="M1063.797,119.436c2.004,1.002,38.342,24.581,39.857,66.86l19.264-56.173l-10.121-33.438 l-42.32,5.046L1063.797,119.436z"/><path style="fill:#993E21;" d="M959.024,102.728c0,0-4.388,33.228,22.569,58.932c0,0-44.442,6.575-55.797-23.822l10.029-30.723 L959.024,102.728z"/><path style="fill:#993E21;" d="M948.847,139.914c0,0-13.65,65.724,20.225,107.18c0,0-49.689,1.432-46.964-82.192L948.847,139.914z" /><path style="fill:#993E21;" d="M1096.928,139.914c0,0,13.65,65.724-20.219,107.18c0,0,49.686,1.432,46.961-82.192L1096.928,139.914 z"/><animateTransform id="upperBodyTrasnlateAnim" attributeName="transform" type="translate" calcMode="spline" keySplines="0.2 0.4 0.2 0.1; 0.3 0.6 0.9 1; 0 1 1 0" begin="0s" repeatCount="indefinite" from="0 0" to="0 0" dur="3.9s" keyTimes="0; 0.30; 0.60; 1" values="0 0; 0 15; 0 0; 0 0"/></g></svg> 