<?xml version="1.0" encoding="iso-8859-1"?><svg version="1.1" id="_x31_8-30_Unemployed" xmlns="http://www.w3.org/2000/svg" xmlns:xlink="http://www.w3.org/1999/xlink" x="0px" y="0px" viewBox="0 0 2048 1536" style="enable-background:new 0 0 2048 1536;" xml:space="preserve"><linearGradient id="SVGID_1_" gradientUnits="userSpaceOnUse" x1="942.8218" y1="1409.4362" x2="1002.3901" y2="1409.4362"><stop offset="0" style="stop-color:#FBE6EF"/><stop offset="0.835" style="stop-color:#F7E2D8"/></linearGradient><path style="fill:url(#SVGID_1_);" d="M997.535,1363.586c0,0-51.913-70.424-40.85-0.934c0.846,11.263,1.665,24.157,1.292,27.701 c-0.698,6.641-10.905,54.217-10.905,54.217l-4.25,24.855l16.554,12.894l28.677,4.545l12.977-14.993l1.36-32.91L997.535,1363.586z"/><path style="fill:#FFFFFF;" d="M943.375,1429.408h65.702v33.649l2.86,44.876H903.53c0,0-2.999-44.489,36.848-58.893 L943.375,1429.408z"/><path style="fill:#D1D3D4;" d="M947.617,1450.275c0,0,45.275-12.225,62.843,44.557 C1010.46,1494.832,992.217,1454.647,947.617,1450.275z"/><path style="fill:#E6E7E8;" d="M959.159,1456.544c0,0,26.981,10.179,36.553,44.971h-6.741 C988.971,1501.515,983.964,1472.956,959.159,1456.544z"/><path style="fill:#E6E7E8;" d="M954.373,1456.544c0,0,19.801,10.179,30.029,44.971h-6.745 C977.658,1501.515,973.303,1475.911,954.373,1456.544z"/><path style="fill:#E6E7E8;" d="M949.37,1457.2c0,0,15.448,10.506,23.717,44.314h-6.743 C966.343,1501.515,964.599,1473.94,949.37,1457.2z"/><linearGradient id="SVGID_2_" gradientUnits="userSpaceOnUse" x1="8537.2168" y1="1409.4362" x2="8596.7852" y2="1409.4362" gradientTransform="matrix(-1 0 0 1 9644 0)"><stop offset="0" style="stop-color:#FBE6EF"/><stop offset="0.835" style="stop-color:#F7E2D8"/></linearGradient><path style="fill:url(#SVGID_2_);" d="M1052.07,1363.586c0,0,51.91-70.424,40.848-0.934c-0.846,11.263-1.662,24.157-1.289,27.701 c0.697,6.641,10.904,54.217,10.904,54.217l4.25,24.855l-16.555,12.894l-28.678,4.545l-12.975-14.993l-1.361-32.91L1052.07,1363.586z "/><path style="fill:#FFFFFF;" d="M1106.23,1429.408h-65.703v33.649l-2.861,44.876h108.41c0,0,2.998-44.489-36.85-58.893 L1106.23,1429.408z"/><path style="fill:#D1D3D4;" d="M1101.988,1450.275c0,0-45.275-12.225-62.844,44.557 C1039.145,1494.832,1057.387,1454.647,1101.988,1450.275z"/><path style="fill:#E6E7E8;" d="M1090.443,1456.544c0,0-26.982,10.179-36.553,44.971h6.742 C1060.633,1501.515,1065.641,1472.956,1090.443,1456.544z"/><path style="fill:#E6E7E8;" d="M1095.23,1456.544c0,0-19.801,10.179-30.029,44.971h6.746 C1071.947,1501.515,1076.303,1475.911,1095.23,1456.544z"/><path style="fill:#E6E7E8;" d="M1100.234,1457.2c0,0-15.447,10.506-23.717,44.314h6.744 C1083.262,1501.515,1085.004,1473.94,1100.234,1457.2z"/><g id="pants"><rect x="967.243" y="631.016" style="fill:#2E5E96;" width="113.492" height="82.026"/><path style="fill:#2E5E96;" d="M931.999,644.964c0,0-6.923,11.382-4.065,87.192c6.614,175.147,23.73,280.36,23.73,280.36 l-22.177,393.982h86.019v-750.99L931.999,644.964z"/><path style="fill:#2E5E96;" d="M1115.977,644.964c0,0,6.924,11.382,4.066,87.192c-6.613,175.147-23.732,280.36-23.732,280.36 l22.18,393.982h-86.018v-750.99L1115.977,644.964z"/><path style="fill:#2D3A6F;" d="M1118.514,1406.499l-22.18-393.982c0,0,17.119-105.213,23.732-280.36 c1.469-38.91,0.357-60.823-1.074-72.961l-67.451,20.945c0.613,1.838,20.799,9.485,56.961,6.421c0,0-4.951,240.103-27.281,329.737 l14.703,375.927l-33.646,14.273H1118.514z"/><path style="fill:#2D3A6F;" d="M967.345,1406.499h48.182V770.566l-0.335-28.19c0,0-31.08-2.006-40.104-4.012l31.077,13.034 l-5.339,641.552L967.345,1406.499z"/><path style="fill:#2E5E96;" d="M1097.59,719.195c0,12.746-32.949,23.08-73.604,23.08c-40.645,0-73.599-10.334-73.599-23.08 c0-12.742,32.954-23.076,73.599-23.076C1064.641,696.12,1097.59,706.453,1097.59,719.195z"/><path style="fill:#2D3A6F;" d="M933.256,666.965c0,0-1.014,22.68,0.678,40.623c0,0,41.3,5.421,41.3-33.175L933.256,666.965z"/><path style="fill:#2D3A6F;" d="M1114.746,666.965c0,0,1.016,22.68-0.678,40.623c0,0-41.301,5.421-41.301-33.175L1114.746,666.965z" /><path style="fill:none;stroke:#2D3A6F;stroke-miterlimit:10;" d="M933.735,705.945c0,0,12.41,226.034,24.055,305.101 l-22.065,394.722"/><animateTransform id="pantsTrasnlateAnim" attributeName="transform" type="translate" calcMode="spline" keySplines="0.2 0.4 0.2 0.1; 0.3 0.6 0.9 1; 0 1 1 0" begin="0s" repeatCount="indefinite" from="0 0" to="0 0" dur="3.9s" keyTimes="0; 0.30; 0.60; 1" values="0 0; 0 12; 0 0; 0 0"/></g><g id="upper-body"><g id="left-arm"><linearGradient id="SVGID_3_" gradientUnits="userSpaceOnUse" x1="861.2764" y1="755.9736" x2="1182.8241" y2="755.9736"><stop offset="0" style="stop-color:#FBE6EF"/><stop offset="0.835" style="stop-color:#F7E2D8"/></linearGradient><path style="fill:url(#SVGID_3_);" d="M865.689,701.313c0,0,3.088,66.935,16.127,83.464c12.06,15.295,33.376,38.251,49.27,28.501 c6.353-3.898-5.707-21.653-16.198-31.488c-9.81-9.189-11.288-19.939-11.912-30.498c-0.464-7.891,1.965-3.174,6.791,11.11 c4.884,14.461,24.805,14.705,20.189-8.131c-4.891-24.196-1.532-29.506-17.861-39.995c-9.357-6.01-10.549-9.965-10.267-17.943 L865.689,701.313z"/><linearGradient id="SVGID_4_" gradientUnits="userSpaceOnUse" x1="861.275" y1="653.3679" x2="1182.8296" y2="653.3679"><stop offset="0" style="stop-color:#FBE6EF"/><stop offset="0.835" style="stop-color:#F7E2D8"/></linearGradient><path style="fill:url(#SVGID_4_);" d="M877.1,587.688c-4.577,21.184-11.374,113.663-11.374,113.663l24.255,27.254 c6.388-20.099,10.994-16.058,11.799-31.869c0.72-14.308,11.541-87.782,13.296-99.519 C916.83,585.479,881.678,566.503,877.1,587.688z"/><linearGradient id="SVGID_5_" gradientUnits="userSpaceOnUse" x1="861.2756" y1="437.3459" x2="1182.8224" y2="437.3459"><stop offset="0" style="stop-color:#FBE6EF"/><stop offset="0.835" style="stop-color:#F7E2D8"/></linearGradient><path style="fill:url(#SVGID_5_);" d="M926.876,551.437c8.921-45.277,21.256-122.033,26.107-151.13l-25.944-77.051 c0,0-16.309,4.142-19.292,26.975c-1.95,14.921-9.625,150.31-15.243,184.02L926.876,551.437z"/><linearGradient id="SVGID_6_" gradientUnits="userSpaceOnUse" x1="861.2779" y1="596.5851" x2="1182.8008" y2="596.5851"><stop offset="0" style="stop-color:#FBE6EF"/><stop offset="0.835" style="stop-color:#F7E2D8"/></linearGradient><path style="fill:url(#SVGID_6_);" d="M929.512,524.37l-31.057-10.94c-5.031,14.91-11.295,32.363-15.781,46.894 c-7.485,24.225-10.809,74.161-14.623,112.225c0,0,17.045,9.758,35.607,6.541C909.336,637.559,926.785,593.975,929.512,524.37z"/><path style="fill:#F5CABD;" d="M944.808,400.306c-4.592,27.562-15.903,97.867-24.665,143.691 c-4.821,58.448-19.532,97.613-24.66,135.092l-0.014,0.005c-0.971,7.71-1.638,13.877-1.835,17.238h0.02 c-0.283,7.978,0.91,11.933,10.266,17.943c16.329,10.489,12.972,15.799,17.861,39.995c1.95,9.629-0.476,15.146-4.291,17.229 c7.174,3.284,15.645-1.495,12.465-17.229c-4.891-24.196-1.532-29.506-17.861-39.995c-9.357-6.01-10.549-9.965-10.267-17.943 h-0.024c0.197-3.362,0.872-9.529,1.825-17.238l0.029-0.005c5.123-37.479,19.833-76.644,24.66-135.092 c8.763-45.825,20.068-116.129,24.665-143.691H944.808z"/><animateTransform id="leftArmRotateAnim" attributeName="transform" type="rotate" calcMode="spline" keySplines="0.2 0.4 0.2 0.1; 0.3 0.6 0.9 1; 0 1 1 0; 0.2 0.4 0.2 0.1; 0.3 0.6 0.9 1; 0 1 1 0" begin="0s" repeatCount="indefinite" from="1 925 350" to="1 925 350" dur="7.8s" keyTimes="0; 0.15; 0.30; 0.5; 0.65; 0.80; 1" values="1 925 350; -1 925 350; 0 925 350; 0 925 350; -1 925 350; 1 925 350; 1 925 350"/></g><g id="right-arm"><linearGradient id="SVGID_7_" gradientUnits="userSpaceOnUse" x1="861.2748" y1="437.3459" x2="1182.8191" y2="437.3459"><stop offset="0" style="stop-color:#FBE6EF"/><stop offset="0.835" style="stop-color:#F7E2D8"/></linearGradient><path style="fill:url(#SVGID_7_);" d="M1121.125,551.437c-8.922-45.277-21.256-122.033-26.107-151.13l25.943-77.051 c0,0,16.311,4.142,19.293,26.975c1.945,14.921,9.625,150.31,15.242,184.02L1121.125,551.437z"/><linearGradient id="SVGID_8_" gradientUnits="userSpaceOnUse" x1="861.2655" y1="596.5851" x2="1182.8192" y2="596.5851"><stop offset="0" style="stop-color:#FBE6EF"/><stop offset="0.835" style="stop-color:#F7E2D8"/></linearGradient><path style="fill:url(#SVGID_8_);" d="M1118.484,524.37l31.059-10.94c5.033,14.91,11.297,32.363,15.783,46.894 c7.484,24.225,10.812,74.161,14.625,112.225c0,0-17.043,9.758-35.604,6.541C1138.67,637.559,1121.215,593.975,1118.484,524.37z"/><linearGradient id="SVGID_9_" gradientUnits="userSpaceOnUse" x1="861.2696" y1="653.3679" x2="1182.819" y2="653.3679"><stop offset="0" style="stop-color:#FBE6EF"/><stop offset="0.835" style="stop-color:#F7E2D8"/></linearGradient><path style="fill:url(#SVGID_9_);" d="M1170.9,587.688c4.576,21.184,11.373,113.663,11.373,113.663l-24.254,27.254 c-6.391-20.099-10.998-16.058-11.799-31.869c-0.725-14.308-11.539-87.782-13.297-99.519 C1131.168,585.479,1166.322,566.503,1170.9,587.688z"/><linearGradient id="SVGID_10_" gradientUnits="userSpaceOnUse" x1="861.2762" y1="755.9736" x2="1182.8182" y2="755.9736"><stop offset="0" style="stop-color:#FBE6EF"/><stop offset="0.835" style="stop-color:#F7E2D8"/></linearGradient><path style="fill:url(#SVGID_10_);" d="M1182.311,701.313c0,0-3.088,66.935-16.127,83.464 c-12.061,15.295-33.377,38.251-49.268,28.501c-6.355-3.898,5.701-21.653,16.195-31.488c9.811-9.189,11.289-19.939,11.91-30.498 c0.467-7.891-1.963-3.174-6.791,11.11c-4.881,14.461-24.801,14.705-20.188-8.131c4.891-24.196,1.533-29.506,17.863-39.995 c9.355-6.01,10.549-9.965,10.268-17.943L1182.311,701.313z"/><path style="fill:#F5CABD;" d="M1182.268,701.303c-0.068-0.914-6.41-87.034-10.945-111.492 c-1.682-11.604-3.629-21.832-5.996-29.487c-3.066-9.926-6.957-21.206-10.721-32.119c-5.508-41.391-12.504-163.827-14.352-177.975 c-2.982-22.833-19.293-26.975-19.293-26.975l-1.283,3.811c4.783,3.661,10.492,10.554,12.139,23.164 c1.85,14.147,8.844,136.583,14.357,177.975c3.764,10.913,7.65,22.193,10.715,32.119c2.367,7.654,4.312,17.882,6,29.487 c4.535,24.458,10.875,110.578,10.947,111.492l0.039,0.01c0,0-3.09,66.935-16.129,83.464 c-9.051,11.478-23.305,27.261-36.574,30.315c15.27,3.989,33.998-16.348,45.012-30.315c13.039-16.529,16.127-83.464,16.127-83.464 L1182.268,701.303z"/><animateTransform id="rightArmRotateAnim" attributeName="transform" type="rotate" calcMode="spline" keySplines="0.2 0.4 0.2 0.1; 0.3 0.6 0.9 1; 0 1 1 0; 0.2 0.4 0.2 0.1; 0.3 0.6 0.9 1; 0 1 1 0" begin="0s" repeatCount="indefinite" from="-1 1123 350" to="-1 1123 350" dur="7.8s" keyTimes="0; 0.15; 0.30; 0.5; 0.65; 0.80; 1" values="-1 1123 350; 1 1123 350; 0 1123 350; 0 1123 350; 1 1123 350; -1 1123 350; -1 1123 350"/></g><linearGradient id="SVGID_11_" gradientUnits="userSpaceOnUse" x1="861.283" y1="304.9585" x2="1182.8105" y2="304.9585"><stop offset="0" style="stop-color:#FBE6EF"/><stop offset="0.835" style="stop-color:#F7E2D8"/></linearGradient><rect x="996.415" y="275.534" style="fill:url(#SVGID_11_);" width="55.156" height="58.85"/><path style="fill:#F6F5EE;" d="M1101.066,597.748c-13.428-26.117-9.07-67.81-6.145-89.363l16.713-88.289l11.012-96.214 c0,0-25.363-5.062-29.262-5.917c-2.771,7.65-7.572,17.641-13.887,27.656H968.499c-6.312-10.015-11.111-20.006-13.889-27.656 c-3.892,0.855-29.257,5.917-29.257,5.917l11.014,96.214l18.549,98.005c2.562,22.79,4.255,57.059-7.356,79.646 c-16.184,23.185-31.396,60.062-31.396,60.062s19.713,25.924,95.246,25.924h25.812c75.531,0,95.24-25.924,95.24-25.924 S1117.256,620.934,1101.066,597.748z"/><path style="fill:#D0D2D3;" d="M1101.066,597.748c-13.428-26.117-9.07-67.81-6.145-89.363l16.713-88.289l11.012-96.214 c0,0-4.783-0.956-10.514-2.105l-10.307,95.25l-16.711,93.409c-2.926,22.802-7.283,66.914,6.143,94.543 c13.893,21.045,27.051,52.735,30.506,61.316c7.793-4.688,10.699-8.485,10.699-8.485S1117.256,620.934,1101.066,597.748z"/><linearGradient id="SVGID_12_" gradientUnits="userSpaceOnUse" x1="861.2754" y1="349.9426" x2="1182.8196" y2="349.9426"><stop offset="0" style="stop-color:#FBE6EF"/><stop offset="0.835" style="stop-color:#F7E2D8"/></linearGradient><path style="fill:url(#SVGID_12_);" d="M1023.981,312.316c-25.524,0-49.319,2.064-69.385,5.609 c8.563,23.616,36.221,69.643,69.4,69.643c33.178,0,60.836-46.024,69.399-69.638C1073.316,314.38,1049.514,312.316,1023.981,312.316 z"/><path style="fill:#F5CABD;" d="M1095.041,322.59l-4.088-5.253c-9.514-1.327-28.717-3.551-39.383-4.195v-25.089l-16.336,7.283 c0,0,12.393-1.549,11.463,21.991C1046.697,317.327,1082.65,320.114,1095.041,322.59z"/><path style="fill:#FFDD74;" d="M1093.385,317.966c0.004-0.012,0.016-0.026,0.02-0.04 C1092.666,317.796,1092.744,317.825,1093.385,317.966z"/><path style="fill:#FFDD74;" d="M954.596,317.926c0.005,0.014,0.008,0.028,0.015,0.04 C955.253,317.825,955.334,317.796,954.596,317.926z"/><path style="fill:#541900;" d="M960.892,198.447c0,0-4.382,57.167,6.013,85.066c0,0-45.662-0.855-43.004-82.358L960.892,198.447z" /><path style="fill:#541900;" d="M1087.08,198.447c0,0,4.377,57.167-6.018,85.066c0,0,45.666-0.855,43.008-82.358L1087.08,198.447z" /><path style="fill:#993E21;" d="M1134.975,146.274c-1.168,63.354-50.848,113.738-110.987,113.738 c-60.138,0-109.823-50.384-110.995-113.738c-1.198-64.716,48.493-118.207,110.995-118.207 C1086.492,28.066,1136.172,81.558,1134.975,146.274z"/><linearGradient id="SVGID_13_" gradientUnits="userSpaceOnUse" x1="935.204" y1="207.1521" x2="1111.8685" y2="207.1521"><stop offset="0" style="stop-color:#FBE6EF"/><stop offset="0.835" style="stop-color:#F7E2D8"/></linearGradient><path style="fill:url(#SVGID_13_);" d="M934.526,118.314l6.062,78.871c2.868,56.087,40.123,98.805,83.4,98.805 c43.268,0,80.528-42.718,83.401-98.805l6.057-78.871H934.526z"/><path style="fill:#F5CABD;" d="M1102.998,97.935l-8.51,99.25c-2.729,53.276-36.486,94.461-76.95,98.455 c2.131,0.211,4.281,0.349,6.449,0.349c43.268,0,80.528-42.718,83.401-98.805l8.51-99.25H1102.998z"/><path style="fill:#FFFFFF;" d="M1000.238,180.262c0,10.769-9.993,19.494-22.329,19.494c-12.329,0-22.329-8.725-22.329-19.494 c0-10.764,10-19.494,22.329-19.494C990.245,160.769,1000.238,169.498,1000.238,180.262z"/><path style="fill:#FFFFFF;" d="M1093.215,180.262c0,10.769-9.994,19.494-22.33,19.494c-12.328,0-22.326-8.725-22.326-19.494 c0-10.764,9.998-19.494,22.326-19.494C1083.221,160.769,1093.215,169.498,1093.215,180.262z"/><polygon style="fill:#F5CABD;" points="1022.423,234.195 1037.076,223.263 1007.769,223.263 "/><polygon style="fill:#F5CABD;" points="1026.654,226.049 1026.654,189.092 1037.113,223.244 "/><path d="M980.06,163.748c-6.035,0-11.34,2.6-14.634,6.559l20.695,3.888l-24.076,4.525c-0.02,0.283-0.096,0.551-0.096,0.843 c0,8.729,8.106,15.812,18.11,15.812c10.003,0,18.108-7.083,18.108-15.812C998.168,170.83,990.063,163.748,980.06,163.748z"/><path d="M1067.984,163.748c-6.029,0-11.334,2.6-14.629,6.559l20.691,3.888l-24.072,4.525c-0.018,0.283-0.102,0.551-0.102,0.843 c0,8.729,8.107,15.812,18.111,15.812c10.008,0,18.121-7.083,18.121-15.812C1086.105,170.83,1077.992,163.748,1067.984,163.748z"/><path d="M960.527,161.976c0,0,3.5,6.239,14.433,5.746l-2.247,2.447C972.713,170.169,965.426,172.247,960.527,161.976z"/><path d="M1087.518,161.976c0,0-3.502,6.239-14.424,5.746l2.236,2.447C1075.33,170.169,1082.613,172.247,1087.518,161.976z"/><linearGradient id="SVGID_14_" gradientUnits="userSpaceOnUse" x1="1068.123" y1="172.5105" x2="1068.123" y2="213.62"><stop offset="0" style="stop-color:#FFFFFF"/><stop offset="1" style="stop-color:#231F20"/></linearGradient><path style="opacity:0.5;fill:url(#SVGID_14_);" d="M1052.197,180.991c0.488,7.039,7.422,12.632,15.922,12.632 c8.504,0,15.438-5.593,15.93-12.632c0,0-8.193-1.489-15.889-1.489C1060.463,179.501,1052.197,180.991,1052.197,180.991z"/><linearGradient id="SVGID_15_" gradientUnits="userSpaceOnUse" x1="980.176" y1="172.5105" x2="980.176" y2="213.62"><stop offset="0" style="stop-color:#FFFFFF"/><stop offset="1" style="stop-color:#231F20"/></linearGradient><path style="opacity:0.5;fill:url(#SVGID_15_);" d="M964.247,180.991c0.493,7.039,7.423,12.632,15.927,12.632 s15.438-5.593,15.931-12.632c0,0-8.193-1.489-15.892-1.489C972.518,179.501,964.247,180.991,964.247,180.991z"/><path style="fill:#F5CABD;" d="M1098.711,159.026v60.942c16.551-0.34,29.867-13.838,29.867-30.473 C1128.578,172.865,1115.262,159.366,1098.711,159.026z"/><linearGradient id="SVGID_16_" gradientUnits="userSpaceOnUse" x1="932.7687" y1="189.4971" x2="1114.282" y2="189.4971"><stop offset="0" style="stop-color:#FBE6EF"/><stop offset="0.835" style="stop-color:#F7E2D8"/></linearGradient><path style="fill:url(#SVGID_16_);" d="M949.26,219.968v-60.942c-16.549,0.34-29.866,13.839-29.866,30.473 C919.394,206.13,932.711,219.628,949.26,219.968z"/><path style="fill:#993E21;" d="M968.834,98.682c0,0-75.91,164.445-9.5,190.935c0,0-112.944,14.069-38.718-187.966L968.834,98.682z" /><path style="fill:#993E21;" d="M1079.137,98.682c0,0,75.916,164.445,9.502,190.935c0,0,112.949,14.069,38.717-187.966 L1079.137,98.682z"/><path style="fill:#993E21;" d="M941.952,81.984c0,0,10.789,85.759,120.296,78.404c0,0-26.15-22.066-28.602-88.261L941.952,81.984z" /><path style="fill:#993E21;" d="M1009.628,92.103c0,0,9.069,52.558,82.792,65.788c0,0-4.414-39.064-32.768-69.31L1009.628,92.103z" /><path style="fill:#993E21;" d="M1065.098,114.532c2.016,1.006,38.537,24.704,40.059,67.196l19.361-56.455l-10.172-33.605 l-42.535,5.07L1065.098,114.532z"/><path style="fill:#993E21;" d="M959.798,97.738c0,0-4.409,33.395,22.684,59.228c0,0-44.666,6.609-56.077-23.942l10.079-30.876 L959.798,97.738z"/><path style="fill:#993E21;" d="M949.572,135.112c0,0-13.719,66.055,20.325,107.719c0,0-49.938,1.439-47.199-82.606L949.572,135.112 z"/><path style="fill:#993E21;" d="M1098.396,135.112c0,0,13.719,66.055-20.322,107.719c0,0,49.938,1.439,47.199-82.606 L1098.396,135.112z"/><path style="fill:#A01D26;" d="M1000.746,261.436c5.209,1.98,13.815,3.278,23.566,3.278c9.756,0,18.362-1.298,23.573-3.278 H1000.746z"/><polygon style="fill:#A01D26;" points="1000.746,261.436 1019.778,259.15 1026.713,262.581 "/><polygon style="fill:#A01D26;" points="1047.885,261.436 1028.846,259.15 1021.925,262.581 "/><animateTransform id="upperBodyTrasnlateAnim" attributeName="transform" type="translate" calcMode="spline" keySplines="0.2 0.4 0.2 0.1; 0.3 0.6 0.9 1; 0 1 1 0" begin="0s" repeatCount="indefinite" from="0 0" to="0 0" dur="3.9s" keyTimes="0; 0.30; 0.60; 1" values="0 0; 0 15; 0 0; 0 0"/></g></svg> 