<?xml version="1.0" encoding="iso-8859-1"?><svg version="1.1" id="_x31_8-30_Super" xmlns="http://www.w3.org/2000/svg" xmlns:xlink="http://www.w3.org/1999/xlink" x="0px" y="0px" viewBox="0 0 2048 1536" style="enable-background:new 0 0 2048 1536;" xml:space="preserve"><linearGradient id="SVGID_1_" gradientUnits="userSpaceOnUse" x1="941.708" y1="1087.8552" x2="1030.0117" y2="1087.8552"><stop offset="0" style="stop-color:#FCE7F0"/><stop offset="0.835" style="stop-color:#F7E3D9"/></linearGradient><path style="fill:url(#SVGID_1_);" d="M1025.212,1355.152V722.831c0,0-82.287-38.936-82.996-17.914 c-5.245,154.774,31.982,251.729,27.049,308.71c-4.942,56.977-15.845,110.014-13.221,151.56 c0.687,10.861,17.85,120.346,28.785,189.041c0.838,11.131,1.647,23.879,1.278,27.383c-0.692,6.568-10.717,54.275-10.717,54.275 l12.098,36.641l28.351,4.494l14.173-47.359L1025.212,1355.152z"/><path style="fill:#F5CABD;" d="M1025.212,1362.555V722.831c0,0-56.406-26.845-75.853-23.702c22.746,2.595,62.46,45.113,62.46,45.113 l5.677,618.312l4.8,74.512l-13.822,46.191l7.365,1.168l14.173-47.359L1025.212,1362.555z"/><path style="fill:#9A3C0A;" d="M1000.284,1473.059c-15.488-8.424-21.444-31.486-23.025-38.986 c-3.161,11.248-8.923,23.301-10.523,38.523c-0.454,4.291,3.229,22.131,5.994,25.254h52.103c8.304-4.045,11.068-19.721,11.068-19.721 l-6.878-58.01C1027.258,1435.475,1024.56,1461.033,1000.284,1473.059z"/><linearGradient id="SVGID_2_" gradientUnits="userSpaceOnUse" x1="1046.2305" y1="1091.5582" x2="1134.7297" y2="1091.5582"><stop offset="0" style="stop-color:#FCE7F0"/><stop offset="0.835" style="stop-color:#F7E3D9"/></linearGradient><path style="fill:url(#SVGID_2_);" d="M1134.026,704.917c-0.844-21.018-82.996,17.914-82.996,17.914v639.723l-4.8,74.512 l14.171,47.359l28.351-4.496l12.1-36.641c0,0-10.026-47.707-10.717-54.273c-0.572-5.41,1.672-32.844,2.48-42.357 c10.944-68.879,26.921-171,27.583-181.471c2.623-41.547-8.278-94.584-13.221-151.56 C1102.045,956.646,1140.331,862.051,1134.026,704.917z"/><path style="fill:#F5CABD;" d="M1134.026,704.917c0.027-6.222-8.603-6.998-18.334-5.273c2.654,0.885,4.45,2.551,5.004,5.273 c31.479,155.401-31.981,251.729-27.049,308.71c4.941,56.977,15.843,110.014,13.222,151.56 c-0.664,10.471-9.022,112.592-19.967,181.471c-0.811,9.514-3.054,36.947-2.48,42.357c0.69,6.566,3.101,54.273,3.101,54.273 l-12.101,36.641l-15.626,2.479l0.605,2.018l28.351-4.496l12.1-36.641c0,0-10.026-47.707-10.717-54.273 c-0.572-5.41,1.672-32.844,2.48-42.357c10.944-68.879,26.921-171,27.583-181.471c2.623-41.547-8.278-94.584-13.221-151.56 C1102.045,956.646,1133.245,860.162,1134.026,704.917z"/><path style="fill:#9A3C0A;" d="M1075.956,1473.059c15.49-8.424,21.444-31.486,23.025-38.986 c3.163,11.248,8.923,23.301,10.523,38.523c0.455,4.291-3.229,22.131-5.993,25.254h-52.103c-8.304-4.045-11.068-19.721-11.068-19.721 l6.878-58.01C1048.984,1435.475,1051.683,1461.033,1075.956,1473.059z"/><g id="upper-body"><g id="right-arm"><path style="fill:#F7E3D9;" d="M1180.802,588.123c4.525,20.942,13.671,112.362,13.671,112.362l-23.978,26.944 c-6.313-19.872-10.866-15.874-11.663-31.508c-0.714-14.144-11.408-86.775-13.145-98.378 C1143.955,585.94,1176.276,567.181,1180.802,588.123z"/><path style="fill:#F7E3D9;" d="M1194.511,700.446c0,0-3.053,66.175-15.942,82.515c-11.926,15.121-32.994,37.815-48.706,28.176 c-6.281-3.852,5.638-21.406,16.011-31.129c9.698-9.084,11.16-19.711,11.776-30.151c0.46-7.801-1.939-3.139-6.712,10.985 c-4.829,14.295-24.521,14.537-19.958-8.041c4.833-23.92,1.515-29.169,17.656-39.541c9.25-5.941,10.429-9.851,10.149-17.737 L1194.511,700.446z"/><path style="fill:#F5CABD;" d="M1194.458,700.441c-0.038-0.393-1.642-16.393-3.819-36.402l-4.583,7.474c0,0,1.212,21.814,0,36.356 c-1.035,12.45-6.904,63.563-12.283,70.288c-14.542,18.176-29.084,27.871-40.598,32.111c0,0-1.008,0.494-2.526,1.303 c15.621,8.426,36.185-13.742,47.909-28.609c12.89-16.34,15.944-82.515,15.944-82.515L1194.458,700.441z"/><path style="fill:#F9A74B;" d="M1177.669,561.071c-3.03-9.812-6.878-20.963-10.6-31.749 c-5.444-40.918-12.359-161.957-14.186-175.942c-2.568-19.633-15.087-25.283-18.306-26.421c-0.23-0.088,0.33,0.116,0,0 c-22.616,40.858-22.672,86.025-16.84,133.806c4.695,28.035,10.083,59.446,14.756,83.899 c4.583,57.941,18.292,96.772,23.365,133.884c18.348,3.184,36.266-6.535,36.266-6.535 C1186.705,638.915,1185.067,585.02,1177.669,561.071z"/><path style="fill:#F58847;" d="M1177.669,561.071c-3.03-9.812-6.878-20.963-10.6-31.749 c-5.444-40.919-12.359-161.957-14.186-175.942c-2.568-19.633-15.087-25.283-18.306-26.421c-2.812-1.082-12.812-4.325-37.16-7.203 c-0.052,1.313-0.171,2.608-0.298,3.901c14.866,2.697,35.867,7.507,41.232,13.848c8.537,10.09,7.762,41.138,9.314,52.002 c1.553,10.869,9.315,138.935,9.315,138.935S1177.346,573,1186.1,674.681c0.241-0.09,0.474-0.182,0.702-0.275 c0.419-0.165,0.818-0.327,1.196-0.483c0.269-0.114,0.543-0.227,0.789-0.336c0.199-0.085,0.386-0.169,0.567-0.249 c0.312-0.14,0.617-0.274,0.879-0.396c0.051-0.023,0.106-0.049,0.154-0.071c1.117-0.523,1.737-0.859,1.737-0.859 C1186.705,638.915,1185.067,585.02,1177.669,561.071z"/><animateTransform id="rightArmRotateAnim" attributeName="transform" type="rotate" calcMode="spline" keySplines="0.2 0.4 0.2 0.1; 0.3 0.6 0.9 1; 0 1 1 0; 0.2 0.4 0.2 0.1; 0.3 0.6 0.9 1; 0 1 1 0" begin="0s" repeatCount="indefinite" from="-1 1123 350" to="-1 1123 350" dur="7.8s" keyTimes="0; 0.15; 0.30; 0.5; 0.65; 0.80; 1" values="-1 1123 350; 1 1123 350; 0 1123 350; 0 1123 350; 1 1123 350; -1 1123 350; -1 1123 350"/></g><g id="left-arm"><path style="fill:#F7E3D9;" d="M881.551,700.446c0,0,3.053,66.175,15.943,82.515c11.923,15.121,32.994,37.815,48.706,28.176 c6.28-3.852-5.638-21.406-16.011-31.129c-9.699-9.084-11.162-19.711-11.777-30.151c-0.459-7.801,1.94-3.139,6.712,10.985 c4.83,14.295,24.522,14.537,19.958-8.041c-4.833-23.92-1.516-29.169-17.657-39.541c-9.25-5.941-10.427-9.851-10.149-17.737 L881.551,700.446z"/><path style="fill:#F7E3D9;" d="M895.255,588.123c-4.525,20.942-13.667,112.362-13.667,112.362l23.977,26.944 c6.316-19.872,10.869-15.874,11.664-31.508c0.716-14.144,11.409-86.775,13.146-98.378 C932.107,585.94,899.78,567.181,895.255,588.123z"/><path style="fill:#F5CABD;" d="M927.636,722.074c4.847,4.041,9.695,33.123,12.118,46.857c0.086,0.469,0.205,0.889,0.351,1.282 c4.213-1.71,7.091-7.237,5.032-17.412c-4.833-23.92-1.514-29.169-17.656-39.541c-9.25-5.941-10.425-9.851-10.149-17.737 l-0.019,0.003c0.373-6.413,2.519-23.193,4.979-41.186l-0.308-0.128l-7.271,2.423c0,0-6.465,43.624-3.232,49.281 C914.713,711.571,922.789,718.035,927.636,722.074z"/><path style="fill:#C7CDD2;" d="M877.941,693.085c0.791-2.324,3.313-3.566,5.638-2.773c2.319,0.791,3.56,3.309,2.77,5.633 c-0.792,2.325-3.315,3.565-5.634,2.775C878.392,697.923,877.15,695.403,877.941,693.085z"/><path style="fill:#C7CDD2;" d="M885.581,692.358c0.783-2.317,3.31-3.565,5.624-2.773c2.325,0.795,3.565,3.313,2.779,5.635 c-0.795,2.325-3.314,3.565-5.633,2.769C886.021,697.199,884.781,694.678,885.581,692.358z"/><path style="fill:#C7CDD2;" d="M892.796,690.508c0.794-2.325,3.313-3.572,5.638-2.777c2.319,0.793,3.564,3.317,2.765,5.638 c-0.781,2.322-3.305,3.56-5.629,2.77C893.245,695.346,892.004,692.829,892.796,690.508z"/><path style="fill:#C7CDD2;" d="M900.086,688.12c0.786-2.317,3.308-3.562,5.632-2.767c2.325,0.791,3.56,3.309,2.774,5.633 c-0.795,2.325-3.314,3.562-5.638,2.775C900.531,692.964,899.294,690.443,900.086,688.12z"/><path style="fill:#C7CDD2;" d="M907.243,686.806c0.791-2.317,3.318-3.565,5.638-2.771c2.319,0.793,3.565,3.311,2.773,5.633 c-0.794,2.327-3.313,3.566-5.638,2.771C907.692,691.646,906.452,689.128,907.243,686.806z"/><path style="fill:#C7CDD2;" d="M914.063,683.831c0.791-2.319,3.315-3.567,5.629-2.779c2.328,0.797,3.565,3.316,2.773,5.641 c-0.786,2.324-3.308,3.566-5.627,2.771C914.514,688.671,913.274,686.153,914.063,683.831z"/><path style="fill:#F9A74B;" d="M941.805,326.829c-0.124,0.046-0.241,0.09-0.345,0.13c-3.219,1.138-15.738,6.788-18.304,26.421 c-1.827,13.985-8.744,135.024-14.188,175.942c-3.722,10.786-7.569,21.937-10.6,31.749c-7.398,23.949-9.037,77.844-14.456,110.942 c0,0,17.918,9.719,36.266,6.535c5.074-37.112,18.782-75.943,23.365-133.884c4.803-25.396,15.676-89.314,14.926-84.909 C965.843,426.576,953.791,341.339,941.805,326.829z"/><path style="fill:#F58847;" d="M958.471,459.753l-3.657-25.759c0,0-16.966,96.947-18.176,105.43c0,0-11.84,82.257-23.816,139.749 c2.419-0.014,4.883-0.194,7.358-0.625c5.076-37.112,18.784-75.945,23.365-133.886 C948.275,519.919,953.738,488.043,958.471,459.753z"/><g><defs><path id="SVGID_3_" d="M940.151,793.906c-2.185-43.356-0.958-75.68,1.172-98.56c-5.472-2.632-7.423-4.604-7.423-4.604 s7.189-20.989,15.141-46.495h-95.552v181.169h89.289C941.498,812.834,940.557,801.932,940.151,793.906z"/></defs><clipPath id="SVGID_4_"><use xlink:href="#SVGID_3_" style="overflow:visible;"/></clipPath><path style="clip-path:url(#SVGID_4_);fill:#939598;" d="M963.583,678.144c1.319,0.48,2.345,4.196,2.139,8.369l-5.453,90.804 c-0.194,4.375-1.669,8.25-3.165,8.668l-67.043,18.188c-2.878,0.773-8.036-4.047-7.537-10.131l9.623-125.583 c0.432-5.73,6.106-10.438,8.757-9.633L963.583,678.144z"/><path style="clip-path:url(#SVGID_4_);fill:#231F20;" d="M963.583,678.144c1.319,0.48,2.345,4.196,2.139,8.369l-5.453,90.804 c-0.194,4.375-1.669,8.25-3.165,8.668l-67.043,18.188c-2.878,0.773-4.891-3.59-4.356-9.721l9.58-126.64 c0.417-5.775,2.969-9.791,5.621-8.987L963.583,678.144z"/><path style="clip-path:url(#SVGID_4_);fill:#D76238;" d="M959.273,683.514c1.402,0.336,2.206,3.685,2.029,7.441l-4.935,81.6 c-0.25,3.91-1.553,7.352-2.962,7.676l-59.049,13.976c-2.44,0.568-4.092-3.252-3.698-8.529l8.202-109.43 c0.367-5.008,2.533-8.561,4.784-7.941L959.273,683.514z"/><path style="clip-path:url(#SVGID_4_);fill:#FFFFFF;" d="M960.955,727.694c0.697,0.023,1.149,1.699,1,3.739 c-0.11,2.04-0.784,3.692-1.476,3.697c-0.714,0-1.207-1.673-1.028-3.744C959.549,729.317,960.186,727.675,960.955,727.694z"/><polygon style="clip-path:url(#SVGID_4_);fill:#ED1C24;" points="905.657,762.263 904.698,775.084 898.886,776.062 899.88,762.919 "/><polygon style="clip-path:url(#SVGID_4_);fill:#D1D3D4;" points="907.468,736.822 906.565,749.502 900.812,749.861 901.75,736.877 "/><polygon style="clip-path:url(#SVGID_4_);fill:#6D6E71;" points="909.299,711.667 908.376,724.214 902.732,723.968 903.598,711.144 "/><polygon style="clip-path:url(#SVGID_4_);fill:#92278F;" points="911.082,686.813 910.209,699.196 904.627,698.363 905.519,685.69 "/><polygon style="clip-path:url(#SVGID_4_);fill:#FFF200;" points="916.353,761.029 915.481,773.279 910.207,774.168 911.051,761.635 "/><polygon style="clip-path:url(#SVGID_4_);fill:#6D6E71;" points="918.047,736.721 917.202,748.839 911.939,749.166 912.837,736.775 "/><polygon style="clip-path:url(#SVGID_4_);fill:#6D6E71;" points="919.727,712.681 918.898,724.667 913.721,724.439 914.56,712.186 "/><polygon style="clip-path:url(#SVGID_4_);fill:#ED1C24;" points="921.399,688.896 920.573,700.752 915.473,699.987 916.325,687.869 "/><polygon style="clip-path:url(#SVGID_4_);fill:#D1D3D4;" points="926.143,759.902 925.346,771.629 920.477,772.441 921.32,760.463 "/><polygon style="clip-path:url(#SVGID_4_);fill:#7F3F98;" points="927.723,736.626 926.949,748.233 922.125,748.537 922.929,736.681 "/><polygon style="clip-path:url(#SVGID_4_);fill:#F7941E;" points="929.248,713.606 928.507,725.09 923.724,724.886 924.553,713.151 "/><polygon style="clip-path:url(#SVGID_4_);fill:#FFF200;" points="930.82,690.813 930.041,702.184 925.372,701.474 926.164,689.876 "/><polygon style="clip-path:url(#SVGID_4_);fill:#F7941E;" points="935.127,758.865 934.402,770.113 929.971,770.865 930.706,759.377 "/><polygon style="clip-path:url(#SVGID_4_);fill:#D1D3D4;" points="936.651,736.545 935.895,747.684 931.456,747.958 932.21,736.588 "/><polygon style="clip-path:url(#SVGID_4_);fill:#D1D3D4;" points="955.332,756.555 954.767,766.713 951.087,767.317 951.7,756.967 "/><polygon style="clip-path:url(#SVGID_4_);fill:#1C75BC;" points="956.604,736.361 955.991,746.432 952.376,746.662 952.975,736.401 "/><polygon style="clip-path:url(#SVGID_4_);fill:#2E3192;" points="957.806,716.366 957.219,726.337 953.644,726.188 954.215,716.025 "/><polygon style="clip-path:url(#SVGID_4_);fill:#ED1C24;" points="959.037,696.541 958.44,706.425 954.873,705.904 955.481,695.84 "/><animateTransform id="leftArmRotateAnim" attributeName="transform" type="rotate" calcMode="spline" keySplines="0.2 0.4 0.2 0.1; 0.3 0.6 0.9 1; 0 1 1 0; 0.2 0.4 0.2 0.1; 0.3 0.6 0.9 1; 0 1 1 0" begin="0s" repeatCount="indefinite" from="1 925 350" to="1 925 350" dur="7.8s" keyTimes="0; 0.15; 0.30; 0.5; 0.65; 0.80; 1" values="1 925 350; -1 925 350; 0 925 350; 0 925 350; -1 925 350; 1 925 350; 1 925 350"/></g></g><path style="fill:#D77E58;" d="M1111.956,992.844c0,0,26.382-150.885,28.801-198.938c5.146-101.995-13.434-143.143-13.434-143.143 H948.739c0,0-13.728,41.148-8.588,143.143c2.428,48.053,23.947,198.938,23.947,198.938H1111.956z"/><path style="fill:#D77E58;" d="M1112.1,991.82c0.312,10.479-32.853,19.039-74.083,19.039c-41.231,0-74.395-8.561-74.082-19.039 c0.31-10.385,33.476-18.748,74.082-18.748C1078.622,973.072,1111.787,981.435,1112.1,991.82z"/><path style="fill:#B27356;" d="M1133.912,673.521c-26.575-7.754-64.026-17.998-63.202-13.887 c1.273,6.357-1.682,46.479-1.682,46.479s42.907,5.33,58.163,4.056c0,0,9.636,80.427-33.595,294.032l0.104,0.219 c11.282-3.283,18.183-7.564,18.375-12.254c1.872-10.764,26.355-152.049,28.682-198.26 C1143.765,734.292,1138.667,695.495,1133.912,673.521z"/><rect x="977.215" y="335.849" style="fill:#9A3C0A;" width="121.627" height="317.094"/><path style="fill:#9A3C0A;" d="M1124.637,645.422c0,12.6-38.773,22.814-86.608,22.814c-47.829,0-86.603-10.214-86.603-22.814 c0-12.602,38.773-22.814,86.603-22.814C1085.863,622.607,1124.637,632.82,1124.637,645.422z"/><path style="fill:#5F1E00;" d="M1098.842,629.182V335.849h-60.813v332.387c60.763,0,86.608-10.214,86.608-22.814 C1124.637,639.067,1114.762,633.32,1098.842,629.182z"/><linearGradient id="SVGID_5_" gradientUnits="userSpaceOnUse" x1="1010.7666" y1="304.1162" x2="1065.2939" y2="304.1162"><stop offset="0" style="stop-color:#FCE7F0"/><stop offset="0.835" style="stop-color:#F7E3D9"/></linearGradient><rect x="1010.767" y="279.537" style="fill:url(#SVGID_5_);" width="54.527" height="49.159"/><path style="fill:#FAC06D;" d="M1106.635,321.449c-11.622-2.057-24.503-3.608-38.253-4.539 c-9.733-0.661-30.354,12.049-30.354,12.049v61.332C1070.829,390.29,1098.171,344.793,1106.635,321.449z"/><linearGradient id="SVGID_6_" gradientUnits="userSpaceOnUse" x1="969.4219" y1="353.0942" x2="1106.6348" y2="353.0942"><stop offset="0" style="stop-color:#FCE7F0"/><stop offset="0.835" style="stop-color:#F7E3D9"/></linearGradient><path style="fill:url(#SVGID_6_);" d="M1038.015,315.898c-25.23,0-48.753,2.041-68.593,5.546 c8.464,23.346,35.807,68.846,68.606,68.846c32.801,0,60.143-45.497,68.606-68.842 C1086.785,317.939,1063.254,315.898,1038.015,315.898z"/><path style="fill:#F9A74B;" d="M978.62,319.756c-23.449,2.771-33.587,5.88-36.814,7.073c-1.761,17.387,3.935,104.3,16.664,132.926 c0.309-1.841-0.304,1.814,0,0l11.483,61.068c2.438,22.51,1.021,45.197-7.437,77.242c-10.532,39.881-28.615,92.676-28.615,92.676 s15.729,16.011,84.023,17.704v-331.58C995.751,368.343,979.685,346.135,978.62,319.756z"/><path style="fill:#F5CABD;" d="M1096.3,324.22l-1.031-4.542c-9.4-1.311-19.433-2.327-29.975-2.964v-24.802l-16.15,7.2 c0,0,12.25-1.532,11.332,21.739C1060.476,320.852,1084.05,321.771,1096.3,324.22z"/><path style="fill:#F9A74B;" d="M1097.418,319.756c-1.065,26.379-17.132,48.586-39.304,57.109v331.58 c68.293-1.692,84.022-17.704,84.022-17.704s-18.082-52.795-28.615-92.676c-8.459-32.045-9.875-54.732-7.437-77.242l11.483-61.068 c0.056,0.334,0.113,0.675,0.169,1.01c13.162-51.8,16.352-100.623,15.997-134.115 C1130.029,325.348,1119.776,322.399,1097.418,319.756z"/><path style="fill:none;stroke:#C7CDD2;stroke-linecap:round;stroke-miterlimit:10;" d="M1077.161,317.491 c0,16.98-17.522,30.746-39.133,30.746c-21.61,0-39.133-13.766-39.133-30.746"/><path style="fill:#C7CDD2;" d="M1040.749,355.342c0.025-1.748-1.106-7.666-2.583-7.639c-1.478,0.029-2.736,5.998-2.756,7.745 c-0.019,1.747,1.16,3.139,2.641,3.11C1039.523,358.528,1040.735,357.089,1040.749,355.342z"/><path style="fill:#FFFFFF;" d="M1034.748,355.091c0.388-1.809,2.173-2.961,3.98-2.573c1.808,0.39,2.959,2.173,2.571,3.981 c-0.388,1.811-2.169,2.961-3.982,2.571C1035.51,358.682,1034.358,356.899,1034.748,355.091z"/><path style="fill:#F58847;" d="M1115.96,598.066c-8.463-32.045-12.301-54.729-9.863-77.242l11.483-61.07l0.593-25.228 c0,0-17.854,69.082-19.406,81.501c-1.553,12.416-6.211,42.689,3.105,77.613c8.376,31.413,23.65,84.771,26.642,104.8 c11.868-4.014,16.06-7.694,16.06-7.694S1126.489,637.947,1115.96,598.066z"/><path style="fill:#F58847;" d="M1017.928,708.443V511.869l-11.405,196.137C1010.166,708.195,1013.952,708.347,1017.928,708.443z"/><path style="fill:#541900;" d="M973.034,206.582c0,0-4.332,56.514,5.945,84.095c0,0-45.14-0.845-42.513-81.417L973.034,206.582z"/><path style="fill:#541900;" d="M1097.781,206.582c0,0,4.326,56.514-5.95,84.095c0,0,45.146-0.845,42.518-81.417L1097.781,206.582z" /><path style="fill:#993E21;" d="M1145.129,155.006c-1.154,62.63-50.268,112.438-109.719,112.438 c-59.451,0-108.567-49.808-109.727-112.438C924.499,91.03,973.621,38.15,1035.41,38.15 C1097.2,38.15,1146.313,91.03,1145.129,155.006z"/><linearGradient id="SVGID_7_" gradientUnits="userSpaceOnUse" x1="947.6405" y1="215.1887" x2="1122.2859" y2="215.1887"><stop offset="0" style="stop-color:#FBE6EF"/><stop offset="0.835" style="stop-color:#F7E2D8"/></linearGradient><path style="fill:url(#SVGID_7_);" d="M946.97,127.366l5.993,77.969c2.836,55.446,39.664,97.676,82.447,97.676 c42.774,0,79.608-42.23,82.448-97.676l5.986-77.969H946.97z"/><path style="fill:#F5CABD;" d="M1113.517,107.219l-8.412,98.116c-2.698,52.667-36.069,93.382-76.07,97.33 c2.107,0.208,4.231,0.346,6.376,0.346c42.774,0,79.608-42.23,82.448-97.676l8.411-98.116H1113.517z"/><path style="fill:#C5168C;" d="M1035.41,262.926c-8.994,0-17.296-2.689-24.023-7.233h-1.689c6.344,6.461,15.556,11.29,25.755,11.29 c10.202,0,19.329-4.829,25.668-11.29h-1.691C1052.703,260.237,1044.399,262.926,1035.41,262.926z"/><path style="fill:#C5168C;" d="M1012.324,256.71c0,0,4.266,3.664,16.98,3.484l8.223,3.664l-11.821-0.549 C1025.706,263.309,1015.226,260.009,1012.324,256.71z"/><path style="fill:#C5168C;" d="M1058.493,256.71c0,0-4.266,3.664-16.977,3.484l-8.227,3.664l11.82-0.549 C1045.11,263.309,1055.595,260.009,1058.493,256.71z"/><path style="fill:#FFFFFF;" d="M1011.932,188.606c0,10.646-9.88,19.271-22.073,19.271c-12.189,0-22.075-8.624-22.075-19.271 c0-10.642,9.886-19.271,22.075-19.271C1002.051,169.335,1011.932,177.965,1011.932,188.606z"/><path style="fill:#FFFFFF;" d="M1103.846,188.606c0,10.646-9.879,19.271-22.073,19.271c-12.189,0-22.072-8.624-22.072-19.271 c0-10.642,9.883-19.271,22.072-19.271C1093.967,169.335,1103.846,177.965,1103.846,188.606z"/><polygon style="fill:#F5CABD;" points="1033.863,241.922 1048.349,231.115 1019.377,231.115 "/><polygon style="fill:#F5CABD;" points="1038.048,233.87 1038.048,197.335 1048.386,231.096 "/><path d="M991.984,172.28c-5.965,0-11.21,2.57-14.467,6.485l20.459,3.844l-23.8,4.473c-0.019,0.279-0.096,0.545-0.096,0.833 c0,8.63,8.015,15.631,17.904,15.631c9.889,0,17.901-7.001,17.901-15.631C1009.886,179.281,1001.873,172.28,991.984,172.28z"/><path d="M1078.905,172.28c-5.961,0-11.206,2.57-14.464,6.485l20.456,3.844l-23.797,4.473c-0.02,0.279-0.1,0.545-0.1,0.833 c0,8.63,8.015,15.631,17.904,15.631c9.892,0,17.91-7.001,17.91-15.631C1096.815,179.281,1088.797,172.28,1078.905,172.28z"/><path d="M972.674,170.528c0,0,3.461,6.168,14.268,5.681l-2.22,2.419C984.722,178.628,977.518,180.682,972.674,170.528z"/><path d="M1098.213,170.528c0,0-3.46,6.168-14.259,5.681l2.211,2.419C1086.165,178.628,1093.366,180.682,1098.213,170.528z"/><linearGradient id="SVGID_8_" gradientUnits="userSpaceOnUse" x1="1079.042" y1="180.9433" x2="1079.042" y2="221.5809"><stop offset="0" style="stop-color:#FFFFFF"/><stop offset="1" style="stop-color:#231F20"/></linearGradient><path style="opacity:0.5;fill:url(#SVGID_8_);" d="M1063.298,189.326c0.481,6.958,7.337,12.487,15.738,12.487 c8.407,0,15.261-5.528,15.75-12.487c0,0-8.101-1.472-15.707-1.472C1071.468,187.854,1063.298,189.326,1063.298,189.326z"/><linearGradient id="SVGID_9_" gradientUnits="userSpaceOnUse" x1="992.0996" y1="180.9433" x2="992.0996" y2="221.5809"><stop offset="0" style="stop-color:#FFFFFF"/><stop offset="1" style="stop-color:#231F20"/></linearGradient><path style="opacity:0.5;fill:url(#SVGID_9_);" d="M976.352,189.326c0.487,6.958,7.337,12.487,15.745,12.487 c8.406,0,15.262-5.528,15.749-12.487c0,0-8.099-1.472-15.712-1.472C984.528,187.854,976.352,189.326,976.352,189.326z"/><path style="fill:#F5CABD;" d="M1109.28,167.612v60.247c16.36-0.336,29.524-13.681,29.524-30.126 C1138.805,181.293,1125.641,167.948,1109.28,167.612z"/><linearGradient id="SVGID_10_" gradientUnits="userSpaceOnUse" x1="945.2336" y1="197.7356" x2="1124.6659" y2="197.7356"><stop offset="0" style="stop-color:#FBE6EF"/><stop offset="0.835" style="stop-color:#F7E2D8"/></linearGradient><path style="fill:url(#SVGID_10_);" d="M961.536,227.859v-60.247c-16.359,0.336-29.523,13.681-29.523,30.125 C932.013,214.178,945.177,227.523,961.536,227.859z"/><path style="fill:#993E21;" d="M980.888,107.958c0,0-75.044,162.565-9.393,188.752c0,0-111.653,13.907-38.275-185.817 L980.888,107.958z"/><path style="fill:#993E21;" d="M1089.929,107.958c0,0,75.048,162.565,9.392,188.752c0,0,111.659,13.907,38.277-185.817 L1089.929,107.958z"/><path style="fill:#993E21;" d="M954.312,91.451c0,0,10.665,84.778,118.921,77.508c0,0-25.853-21.813-28.274-87.252L954.312,91.451z "/><path style="fill:#993E21;" d="M1021.214,101.454c0,0,8.966,51.958,81.846,65.037c0,0-4.365-38.617-32.392-68.518L1021.214,101.454 z"/><path style="fill:#993E21;" d="M1076.049,123.626c1.993,0.995,38.098,24.422,39.604,66.429l19.139-55.811l-10.055-33.221 l-42.05,5.013L1076.049,123.626z"/><path style="fill:#993E21;" d="M971.955,107.025c0,0-4.359,33.013,22.424,58.551c0,0-44.156,6.533-55.437-23.669l9.966-30.523 L971.955,107.025z"/><path style="fill:#993E21;" d="M961.844,143.972c0,0-13.562,65.299,20.094,106.487c0,0-49.368,1.423-46.659-81.661L961.844,143.972 z"/><path style="fill:#993E21;" d="M1108.968,143.972c0,0,13.562,65.299-20.09,106.487c0,0,49.367,1.423,46.66-81.661L1108.968,143.972 z"/><animateTransform id="upperBodyTrasnlateAnim" attributeName="transform" type="translate" calcMode="spline" keySplines="0.2 0.4 0.2 0.1; 0.3 0.6 0.9 1; 0 1 1 0" begin="0s" repeatCount="indefinite" from="0 0" to="0 0" dur="3.9s" keyTimes="0; 0.30; 0.60; 1" values="0 0; 0 15; 0 0; 0 0"/></g></svg> 