<?xml version="1.0" encoding="iso-8859-1"?><svg version="1.1" id="_x31_8-30_Careerstarter" xmlns="http://www.w3.org/2000/svg" xmlns:xlink="http://www.w3.org/1999/xlink" x="0px" y="0px" viewBox="0 0 2048 1536" style="enable-background:new 0 0 2048 1536;" xml:space="preserve"><linearGradient id="SVGID_1_" gradientUnits="userSpaceOnUse" x1="923.377" y1="1089.9012" x2="1016.5537" y2="1089.9012"><stop offset="0" style="stop-color:#FCE7F0"/><stop offset="0.835" style="stop-color:#F7E3D9"/></linearGradient><path style="fill:url(#SVGID_1_);" d="M1011.131,1356.982V722.692c0,0-74.193-38.65-78.386-17.971 c-31.579,155.885,27.212,252.514,22.266,309.672c-4.959,57.154-15.895,110.355-13.264,152.033 c0.689,10.895,17.906,120.721,28.876,189.627c0.84,11.17,1.652,23.957,1.281,27.471c-0.693,6.59-10.749,54.443-10.749,54.443 l-1.734,38.703l57.133,4.498l-0.606-49.443L1011.131,1356.982z"/><linearGradient id="SVGID_2_" gradientUnits="userSpaceOnUse" x1="2713.3091" y1="1089.9012" x2="2806.4824" y2="1089.9012" gradientTransform="matrix(-1 0 0 1 3838.0273 0)"><stop offset="0" style="stop-color:#FCE7F0"/><stop offset="0.835" style="stop-color:#F7E3D9"/></linearGradient><path style="fill:url(#SVGID_2_);" d="M1036.963,1356.982V722.692c0,0,74.195-38.65,78.388-17.971 c31.577,155.885-27.212,252.514-22.265,309.672c4.957,57.154,15.894,110.355,13.262,152.033 c-0.688,10.895-17.906,120.721-28.875,189.627c-0.84,11.17-1.651,23.957-1.282,27.471c0.692,6.59,10.751,54.443,10.751,54.443 l1.738,38.703l-57.135,4.498l0.604-49.443L1036.963,1356.982z"/><path style="fill:#F5CABD;" d="M1011.077,1364.408V722.692c0,0-51.716-26.929-71.223-23.775c22.817,2.602,57.79,45.252,57.79,45.252 l5.692,620.24c0,0,3.553,67.107,2.477,80.031c-1.075,12.926-11.527,41.047-11.527,41.047l18.581,1.203l3.025-47.537 L1011.077,1364.408z"/><path style="fill:#F5CABD;" d="M1115.363,704.721c-1.239-6.119-8.629-7.021-18.392-5.29c2.663,0.888,4.464,2.56,5.019,5.29 c31.579,155.885-27.212,252.514-22.266,309.672c4.959,57.154,15.895,110.355,13.265,152.033 c-0.665,10.504-9.051,112.943-20.029,182.035c-0.812,9.545-3.064,37.064-2.488,42.49c0.692,6.588,8.494,45.824,6.435,59.951 c-2.062,14.127-15.463,31.248-15.463,31.248l-15.673,2.484l0.606,2.023l45.051-2.244l-3.534-41.68c0,0-10.675-48.229-11.367-54.816 c-0.576-5.424,1.353-29.912,2.164-39.457c10.979-69.092,27.005-171.531,27.67-182.035c2.63-41.678-8.306-94.879-13.263-152.033 C1088.148,957.234,1146.939,860.606,1115.363,704.721z"/><path style="fill:#8C3E23;" d="M986.127,1475.256c-26.259,0-26.721-16.58-24.906-39.107c-3.172,11.281-7.141,23.375-8.748,38.643 c-0.455,4.305,3.239,22.201,6.013,25.334h52.266c8.329-4.059,11.102-19.783,11.102-19.783l-6.899-58.189 C1013.184,1437.555,1020.6,1475.256,986.127,1475.256z"/><path style="fill:#8C3E23;" d="M1061.969,1475.256c26.259,0,26.719-16.58,24.91-39.107c3.172,11.281,7.138,23.375,8.742,38.643 c0.457,4.305-3.237,22.201-6.011,25.334h-52.268c-8.328-4.059-11.102-19.783-11.102-19.783l6.9-58.189 C1034.912,1437.555,1027.494,1475.256,1061.969,1475.256z"/><g id="upper-body"><g id="left-arm"><path style="fill:#F7E3D9;" d="M867.011,700.236c0,0,3.064,66.382,15.994,82.772c11.96,15.168,33.096,37.932,48.857,28.264 c6.301-3.865-5.656-21.473-16.059-31.225c-9.731-9.113-11.198-19.773-11.815-30.247c-0.46-7.826,1.948-3.148,6.733,11.019 c4.844,14.341,24.597,14.583,20.019-8.065c-4.847-23.994-1.519-29.26-17.71-39.664c-9.28-5.959-10.461-9.882-10.181-17.793 L867.011,700.236z"/><path style="fill:#F7E3D9;" d="M878.327,587.562c-4.539,21.008-11.278,112.712-11.278,112.712l24.051,27.028 c6.335-19.934,10.903-15.924,11.701-31.606c0.716-14.188,11.442-87.046,13.185-98.685 C917.724,585.373,882.866,566.555,878.327,587.562z"/><path style="fill:#F7E3D9;" d="M927.688,551.613c8.845-44.898,21.077-121.014,25.888-149.868l-25.727-76.408 c0,0-16.174,4.108-19.131,26.75c-1.934,14.796-9.545,149.054-15.114,182.483L927.688,551.613z"/><path style="fill:#F7E3D9;" d="M930.304,524.773l-30.8-10.848c-4.99,14.784-11.201,32.092-15.651,46.502 c-7.421,24.022-10.716,73.539-14.501,111.288c0,0,16.906,9.678,35.31,6.487C910.294,637.018,927.597,593.797,930.304,524.773z"/><path style="fill:#F5CABD;" d="M945.472,401.745c-4.555,27.33-15.768,97.047-24.458,142.492 c-4.784,57.958-19.371,96.795-24.455,133.964c-0.01,0.001-0.018,0.001-0.026,0.001c-0.948,7.648-1.615,13.764-1.809,17.1 l0.021-0.005c-0.28,7.911,0.903,11.833,10.181,17.793c16.192,10.404,12.863,15.67,17.712,39.664 c1.93,9.552-0.473,15.019-4.256,17.086c7.113,3.256,15.515-1.48,12.358-17.086c-4.847-23.994-1.519-29.26-17.71-39.664 c-9.28-5.959-10.461-9.882-10.181-17.793l-0.021,0.005c0.194-3.336,0.861-9.452,1.808-17.1c0.011,0,0.018,0,0.026-0.001 c5.083-37.169,19.67-76.006,24.455-133.964c8.69-45.445,19.903-115.162,24.46-142.492H945.472z"/><animateTransform id="leftArmRotateAnim" attributeName="transform" type="rotate" calcMode="spline" keySplines="0.2 0.4 0.2 0.1; 0.3 0.6 0.9 1; 0 1 1 0; 0.2 0.4 0.2 0.1; 0.3 0.6 0.9 1; 0 1 1 0" begin="0s" repeatCount="indefinite" from="1 925 350" to="1 925 350" dur="7.8s" keyTimes="0; 0.15; 0.30; 0.5; 0.65; 0.80; 1" values="1 925 350; -1 925 350; 0 925 350; 0 925 350; -1 925 350; 1 925 350; 1 925 350"/></g><g id="right-arm"><path style="fill:#F7E3D9;" d="M1120.313,551.613c-8.846-44.898-21.079-121.014-25.89-149.868l25.729-76.408 c0,0,16.173,4.108,19.132,26.75c1.932,14.796,9.544,149.054,15.114,182.483L1120.313,551.613z"/><path style="fill:#F7E3D9;" d="M1117.697,524.773l30.799-10.848c4.99,14.784,11.2,32.092,15.65,46.502 c7.422,24.022,10.722,73.539,14.501,111.288c0,0-16.898,9.678-35.304,6.487C1137.713,637.018,1120.402,593.797,1117.697,524.773z" /><path style="fill:#F7E3D9;" d="M1169.674,587.562c4.54,21.008,11.277,112.712,11.277,112.712l-24.051,27.028 c-6.335-19.934-10.902-15.924-11.7-31.606c-0.718-14.188-11.444-87.046-13.187-98.685 C1130.275,585.373,1165.134,566.555,1169.674,587.562z"/><path style="fill:#F7E3D9;" d="M1180.989,700.236c0,0-3.062,66.382-15.992,82.772c-11.962,15.168-33.098,37.932-48.856,28.264 c-6.302-3.865,5.655-21.473,16.059-31.225c9.729-9.113,11.197-19.773,11.812-30.247c0.463-7.826-1.945-3.148-6.732,11.019 c-4.843,14.341-24.597,14.583-20.02-8.065c4.85-23.994,1.52-29.26,17.713-39.664c9.277-5.959,10.461-9.882,10.181-17.793 L1180.989,700.236z"/><path style="fill:#F5CABD;" d="M1180.949,700.231c-0.068-0.912-6.359-86.313-10.855-110.563 c-1.669-11.508-3.603-21.649-5.947-29.242c-3.039-9.843-6.898-21.028-10.629-31.848c-5.463-41.045-12.401-162.461-14.233-176.491 c-2.959-22.643-19.132-26.75-19.132-26.75l-1.273,3.782c4.744,3.628,10.406,10.461,12.041,22.968 c1.832,14.03,8.771,135.446,14.233,176.491c3.73,10.82,7.589,22.005,10.629,31.848c2.345,7.593,4.278,17.733,5.948,29.242 c4.495,24.25,10.785,109.651,10.854,110.563l0.041,0.004c0,0-3.062,66.382-15.992,82.772 c-8.976,11.381-23.111,27.033-36.271,30.061c15.144,3.957,33.712-16.211,44.635-30.061c12.93-16.39,15.992-82.772,15.992-82.772 L1180.949,700.231z"/><animateTransform id="rightArmRotateAnim" attributeName="transform" type="rotate" calcMode="spline" keySplines="0.2 0.4 0.2 0.1; 0.3 0.6 0.9 1; 0 1 1 0; 0.2 0.4 0.2 0.1; 0.3 0.6 0.9 1; 0 1 1 0" begin="0s" repeatCount="indefinite" from="-1 1123 350" to="-1 1123 350" dur="7.8s" keyTimes="0; 0.15; 0.30; 0.5; 0.65; 0.80; 1" values="-1 1123 350; 1 1123 350; 0 1123 350; 0 1123 350; 1 1123 350; -1 1123 350; -1 1123 350"/></g><path style="fill:#F9A74B;" d="M1110.228,954.613c0,0,25.923-132.953,29.032-175.699c6.656-91.388-15.128-128.515-15.128-128.515 H923.864c0,0-21.786,37.128-15.133,128.515c3.12,42.746,29.021,175.699,29.021,175.699H1110.228z"/><path style="fill:#F9A74B;" d="M1110.341,953.521c0.908,11.258-37.75,20.56-86.364,20.56c-48.609,0-87.268-9.303-86.365-20.56 c0.887-11.023,39.546-19.801,86.365-19.801C1070.797,933.721,1109.454,942.498,1110.341,953.521z"/><path style="fill:#F68F48;" d="M1067.605,650.399c-19.723,16.268-36.313,29.932-36.313,29.932s57.539,8.912,85.091,2.431 c0,0,17.832,45.383,8.107,100.493c-7.794,44.16-21.072,145.061-31.165,182.68c10.53-3.315,16.81-7.402,17-11.818 c1.697-8.74,25.934-133.955,28.935-175.201c6.656-91.388-15.128-128.515-15.128-128.515H1067.605z"/><linearGradient id="SVGID_3_" gradientUnits="userSpaceOnUse" x1="996.6436" y1="307.1936" x2="1051.3418" y2="307.1936"><stop offset="0" style="stop-color:#FCE7F0"/><stop offset="0.835" style="stop-color:#F7E3D9"/></linearGradient><rect x="996.644" y="278.014" style="fill:url(#SVGID_3_);" width="54.698" height="58.359"/><path style="fill:#FFDE74;" d="M1100.423,597.537c-13.313-25.894-8.991-67.241-6.09-88.616l16.567-87.55l10.924-95.411 c0,0-25.153-5.022-29.018-5.867c-2.75,7.588-7.508,17.493-13.771,27.424H968.968c-6.263-9.932-11.021-19.836-13.775-27.424 c-3.864,0.845-29.015,5.867-29.015,5.867l10.921,95.411l18.398,97.187c2.541,22.601,4.221,56.582-7.297,78.979 c-16.05,22.994-31.136,59.561-31.136,59.561s19.55,25.706,94.451,25.706h25.595c74.903,0,94.448-25.706,94.448-25.706 S1116.477,620.531,1100.423,597.537z"/><path style="fill:#FCCB70;" d="M959.244,340.193h5.365c-4.131-7.36-7.344-14.387-9.416-20.1c-0.917,0.2-3.04,0.639-5.734,1.188 C952.065,327.19,955.364,333.685,959.244,340.193z"/><path style="fill:#FCCB70;" d="M1100.423,597.537c-13.313-25.894-8.991-67.241-6.09-88.616l16.567-87.55l10.924-95.411 c0,0-4.744-0.948-10.426-2.087l-10.222,94.457l-16.569,92.623c-2.901,22.617-7.223,66.36,6.09,93.754 c13.774,20.874,26.823,52.296,30.255,60.805c7.726-4.646,10.606-8.413,10.606-8.413S1116.477,620.531,1100.423,597.537z"/><linearGradient id="SVGID_4_" gradientUnits="userSpaceOnUse" x1="955.1748" y1="351.8018" x2="1092.8145" y2="351.8018"><stop offset="0" style="stop-color:#FCE7F0"/><stop offset="0.835" style="stop-color:#F7E3D9"/></linearGradient><path style="fill:url(#SVGID_4_);" d="M1023.981,314.49c-25.309,0-48.904,2.046-68.806,5.563 c8.491,23.419,35.918,69.061,68.819,69.061c32.903,0,60.331-45.64,68.82-69.057C1072.904,316.536,1049.3,314.49,1023.981,314.49z" /><path style="fill:#F5CABD;" d="M1094.448,324.679l-4.053-5.208c-9.43-1.316-28.479-3.523-39.054-4.162v-24.88l-16.202,7.223 c0,0,12.289-1.536,11.369,21.807C1046.509,319.458,1082.159,322.22,1094.448,324.679z"/><path style="fill:#FFDE74;" d="M1092.807,320.093c0.006-0.015,0.013-0.029,0.018-0.04 C1092.094,319.921,1092.172,319.953,1092.807,320.093z"/><path style="fill:#FFDE74;" d="M955.175,320.053c0.005,0.011,0.013,0.025,0.018,0.04 C955.83,319.953,955.906,319.921,955.175,320.053z"/><path style="fill:#541900;" d="M963.671,204.833c0,0-4.345,56.689,5.963,84.357c0,0-45.28-0.848-42.645-81.671L963.671,204.833z"/><path style="fill:#541900;" d="M1088.807,204.833c0,0,4.34,56.689-5.969,84.357c0,0,45.287-0.848,42.652-81.671L1088.807,204.833z" /><path style="fill:#993E21;" d="M1136.303,153.096c-1.16,62.825-50.425,112.788-110.062,112.788 c-59.636,0-108.906-49.963-110.069-112.788c-1.187-64.175,48.089-117.221,110.069-117.221 C1088.223,35.875,1137.488,88.921,1136.303,153.096z"/><linearGradient id="SVGID_5_" gradientUnits="userSpaceOnUse" x1="938.1978" y1="213.4658" x2="1113.3884" y2="213.4658"><stop offset="0" style="stop-color:#FBE6EF"/><stop offset="0.835" style="stop-color:#F7E2D8"/></linearGradient><path style="fill:url(#SVGID_5_);" d="M937.525,125.37l6.013,78.212c2.844,55.618,39.787,97.979,82.703,97.979 c42.907,0,79.854-42.361,82.703-97.979l6.008-78.212H937.525z"/><path style="fill:#F5CABD;" d="M1104.591,105.161l-8.438,98.421c-2.707,52.832-36.182,93.673-76.307,97.633 c2.112,0.209,4.245,0.346,6.396,0.346c42.907,0,79.854-42.361,82.703-97.979l8.44-98.421H1104.591z"/><path style="fill:#C5168C;" d="M1026.241,261.352c-9.022,0-17.35-2.698-24.098-7.256h-1.695 c6.362,6.481,15.604,11.325,25.835,11.325c10.233,0,19.389-4.844,25.748-11.325h-1.695 C1043.588,258.654,1035.259,261.352,1026.241,261.352z"/><path style="fill:#C5168C;" d="M1003.083,255.117c0,0,4.279,3.675,17.034,3.494l8.247,3.676l-11.857-0.55 C1016.507,261.737,1005.993,258.427,1003.083,255.117z"/><path style="fill:#C5168C;" d="M1049.396,255.117c0,0-4.28,3.675-17.029,3.494l-8.253,3.676l11.857-0.55 C1035.971,261.737,1046.489,258.427,1049.396,255.117z"/><path style="fill:#FFFFFF;" d="M1002.69,186.801c0,10.679-9.911,19.331-22.143,19.331c-12.227,0-22.142-8.651-22.142-19.331 c0-10.674,9.915-19.331,22.142-19.331C992.778,167.47,1002.69,176.126,1002.69,186.801z"/><path style="fill:#FFFFFF;" d="M1094.89,186.801c0,10.679-9.909,19.331-22.142,19.331c-12.229,0-22.143-8.651-22.143-19.331 c0-10.674,9.914-19.331,22.143-19.331C1084.98,167.47,1094.89,176.126,1094.89,186.801z"/><polygon style="fill:#F5CABD;" points="1024.689,240.283 1039.219,229.442 1010.158,229.442 "/><polygon style="fill:#F5CABD;" points="1028.887,232.206 1028.887,195.557 1039.257,229.423 "/><path d="M982.68,170.423c-5.984,0-11.245,2.579-14.512,6.505l20.522,3.856l-23.875,4.487c-0.019,0.28-0.095,0.546-0.095,0.835 c0,8.657,8.039,15.68,17.959,15.68c9.918,0,17.957-7.023,17.957-15.68C1000.637,177.447,992.598,170.423,982.68,170.423z"/><path d="M1069.869,170.423c-5.977,0-11.239,2.579-14.506,6.505l20.52,3.856l-23.871,4.487c-0.019,0.28-0.1,0.546-0.1,0.835 c0,8.657,8.039,15.68,17.957,15.68c9.926,0,17.97-7.023,17.97-15.68C1087.839,177.447,1079.795,170.423,1069.869,170.423z"/><path d="M963.31,168.667c0,0,3.47,6.188,14.312,5.699l-2.228,2.426C975.395,176.791,968.168,178.852,963.31,168.667z"/><path d="M1089.239,168.667c0,0-3.47,6.188-14.302,5.699l2.217,2.426C1077.154,176.791,1084.376,178.852,1089.239,168.667z"/><linearGradient id="SVGID_6_" gradientUnits="userSpaceOnUse" x1="1070.0078" y1="179.1127" x2="1070.0078" y2="219.8795"><stop offset="0" style="stop-color:#FFFFFF"/><stop offset="1" style="stop-color:#231F20"/></linearGradient><path style="opacity:0.5;fill:url(#SVGID_6_);" d="M1054.215,187.523c0.483,6.98,7.36,12.526,15.788,12.526 c8.435,0,15.31-5.546,15.798-12.526c0,0-8.123-1.477-15.754-1.477C1062.41,186.045,1054.215,187.523,1054.215,187.523z"/><linearGradient id="SVGID_7_" gradientUnits="userSpaceOnUse" x1="982.7954" y1="179.1127" x2="982.7954" y2="219.8795"><stop offset="0" style="stop-color:#FFFFFF"/><stop offset="1" style="stop-color:#231F20"/></linearGradient><path style="opacity:0.5;fill:url(#SVGID_7_);" d="M966.999,187.523c0.49,6.98,7.36,12.526,15.794,12.526 c8.433,0,15.308-5.546,15.798-12.526c0,0-8.125-1.477-15.762-1.477C975.201,186.045,966.999,187.523,966.999,187.523z"/><path style="fill:#F5CABD;" d="M1100.342,165.742v60.434c16.41-0.338,29.615-13.724,29.615-30.22 C1129.957,179.464,1116.752,166.079,1100.342,165.742z"/><linearGradient id="SVGID_8_" gradientUnits="userSpaceOnUse" x1="935.7831" y1="195.9588" x2="1115.7825" y2="195.9588"><stop offset="0" style="stop-color:#FBE6EF"/><stop offset="0.835" style="stop-color:#F7E2D8"/></linearGradient><path style="fill:url(#SVGID_8_);" d="M952.137,226.176v-60.434c-16.411,0.337-29.617,13.723-29.617,30.219 C922.52,212.452,935.727,225.838,952.137,226.176z"/><path style="fill:#993E21;" d="M971.549,105.901c0,0-75.278,163.072-9.421,189.34c0,0-112.001,13.951-38.396-186.396 L971.549,105.901z"/><path style="fill:#993E21;" d="M1080.929,105.901c0,0,75.284,163.072,9.422,189.34c0,0,112.007,13.951,38.396-186.396 L1080.929,105.901z"/><path style="fill:#993E21;" d="M944.891,89.343c0,0,10.699,85.043,119.292,77.749c0,0-25.932-21.88-28.364-87.524L944.891,89.343z" /><path style="fill:#993E21;" d="M1012.001,99.377c0,0,8.994,52.119,82.101,65.239c0,0-4.378-38.738-32.493-68.732L1012.001,99.377z" /><path style="fill:#993E21;" d="M1067.007,121.619c2,0.997,38.216,24.497,39.726,66.635l19.198-55.984l-10.086-33.325l-42.18,5.028 L1067.007,121.619z"/><path style="fill:#993E21;" d="M962.587,104.966c0,0-4.373,33.116,22.495,58.733c0,0-44.295,6.553-55.61-23.743l9.995-30.618 L962.587,104.966z"/><path style="fill:#993E21;" d="M952.445,142.028c0,0-13.603,65.503,20.157,106.819c0,0-49.522,1.426-46.804-81.917L952.445,142.028 z"/><path style="fill:#993E21;" d="M1100.027,142.028c0,0,13.605,65.503-20.152,106.819c0,0,49.522,1.426,46.807-81.917 L1100.027,142.028z"/><animateTransform id="upperBodyTrasnlateAnim" attributeName="transform" type="translate" calcMode="spline" keySplines="0.2 0.4 0.2 0.1; 0.3 0.6 0.9 1; 0 1 1 0" begin="0s" repeatCount="indefinite" from="0 0" to="0 0" dur="3.9s" keyTimes="0; 0.30; 0.60; 1" values="0 0; 0 15; 0 0; 0 0"/></g></svg> 