<?xml version="1.0" encoding="iso-8859-1"?><svg version="1.1" id="_x33_1-50_Student" xmlns="http://www.w3.org/2000/svg" xmlns:xlink="http://www.w3.org/1999/xlink" x="0px" y="0px" viewBox="0 0 2048 1536" style="enable-background:new 0 0 2048 1536;" xml:space="preserve"><g><path style="fill:#F6F5EE;" d="M965.345,1351.46c0.902,11.977,1.773,25.688,1.376,29.455c-0.743,7.064-11.985,58.374-11.985,58.374 l-6.792,45.32l65.047-1.045l0.951-50.969l-5.162-80.139L965.345,1351.46z"/></g><g><path style="fill:#F6F5EE;" d="M948.169,1263.136c11.816,70.929,28.296,157.534,28.296,157.534l32.956-35.035v-122.499H948.169z"/></g><polygon style="fill:#DBDCDD;" points="1009.421,1362.416 1009.421,1263.136 997.691,1263.136 997.691,1361.739 1002.211,1436.051 1001.373,1483.749 1012.991,1483.564 1013.942,1432.596 "/><path style="fill:#F7E3D9;" d="M1009.421,751.487c0,0-77.831-37.498-82.229-17.434c-33.124,151.237,28.551,244.989,23.359,300.441 c-5.204,55.453-16.681,107.068-13.91,147.505c1.038,15.238,5.788,46.71,11.664,81.937h0.051c0.303,5.084,13.83,9.175,30.496,9.175 c16.676,0,30.205-4.091,30.512-9.175h0.058V751.487z"/><path style="fill:#F5CABD;" d="M932.644,728.871c22.692,3.809,59.543,23.206,59.543,23.206l7.532,518.497 c5.801-1.668,9.487-4.017,9.644-6.638h0.058V751.487C1009.421,751.487,951.213,723.454,932.644,728.871z"/><g><path style="fill:#4D1112;" d="M981.968,1479.267c-28.155,0-28.648-17.774-26.703-41.928c-3.402,12.097-7.658,25.061-9.38,41.434 c-0.489,4.612,3.474,23.805,6.446,27.161h56.039c8.93-4.353,11.904-21.209,11.904-21.209l-7.397-62.393 C1010.977,1438.848,1018.931,1479.267,981.968,1479.267z"/><path style="fill:#4D1112;" d="M982.63,1454.526c13.502,0,25.651,4.875,34.097,12.65c-6.504-12.251-19.328-20.594-34.097-20.594 c-14.77,0-27.591,8.343-34.099,20.59C956.978,1459.401,969.126,1454.526,982.63,1454.526z"/></g><g><path style="fill:#F6F5EE;" d="M1082.955,1351.46c-0.902,11.977-1.774,25.688-1.376,29.455c0.744,7.064,11.99,58.374,11.99,58.374 l6.793,45.32l-65.047-1.045l-0.958-50.969l5.163-80.139L1082.955,1351.46z"/></g><g><path style="fill:#F6F5EE;" d="M1100.132,1263.136c-11.815,70.929-28.299,157.534-28.299,157.534l-32.955-35.035v-122.499H1100.132 z"/></g><path style="fill:#DBDCDD;" d="M1100.132,1263.136h-11.649c-5.504,34.977-11.821,72.625-16.969,102.717 c-0.39,7.164-0.595,13.197-0.36,15.558c0.742,7.568,11.99,62.497,11.99,62.497l5.671,40.518l11.548,0.185l-6.793-45.32 c0,0-11.246-51.31-11.99-58.374c-0.235-2.207-0.027-7.845,0.362-14.534C1087.475,1336.171,1094.356,1297.793,1100.132,1263.136z"/><path style="fill:#F7E3D9;" d="M1121.108,734.054c-4.4-20.064-82.23,17.434-82.23,17.434v512.449h0.061 c0.305,5.084,13.832,9.175,30.508,9.175c16.668,0,30.193-4.091,30.5-9.175h0.047c5.876-35.227,10.626-66.698,11.666-81.937 c2.769-40.437-8.707-92.052-13.908-147.505C1092.556,979.043,1154.233,885.291,1121.108,734.054z"/><path style="fill:#F5CABD;" d="M1121.108,734.054c-1.324-6.036-9.322-6.841-19.827-5.044c2.614,0.887,4.362,2.5,4.925,5.044 c33.123,151.237-24.066,254.525-18.875,309.978c5.205,55.453,12.195,97.532,9.426,137.969c-0.842,12.34-3.789,54.646-7.999,89 c6.695-1.681,11.019-4.213,11.188-7.063h0.047c5.876-35.227,10.626-66.698,11.666-81.937c2.769-40.437-8.707-92.052-13.908-147.505 C1092.556,979.043,1154.233,885.291,1121.108,734.054z"/><g><path style="fill:#4D1112;" d="M1066.316,1479.267c28.155,0,28.647-17.772,26.702-41.926c3.403,12.095,7.659,25.061,9.379,41.434 c0.49,4.61-3.473,23.804-6.445,27.159h-56.039c-8.93-4.349-11.905-21.209-11.905-21.209l7.397-62.39 C1037.307,1438.848,1029.354,1479.267,1066.316,1479.267z"/><path style="fill:#4D1112;" d="M1065.654,1454.526c-13.503,0-25.651,4.877-34.099,12.65c6.506-12.249,19.329-20.592,34.099-20.592 c14.771,0,27.592,8.343,34.099,20.592C1091.306,1459.403,1079.158,1454.526,1065.654,1454.526z"/></g><polygon style="fill:#FFFFFF;" points="940.933,918.284 935.634,1063.677 946.227,1063.677 "/><g id="upper-body"><g id="left-arm"><linearGradient id="SVGID_1_" gradientUnits="userSpaceOnUse" x1="843.4258" y1="619.6078" x2="937.6025" y2="619.6078"><stop offset="0" style="stop-color:#FCE7F0"/><stop offset="0.835" style="stop-color:#F7E3D9"/></linearGradient><path style="fill:url(#SVGID_1_);" d="M895.739,820.737c-10.433-9.771-12.006-21.202-12.664-32.433 c-0.498-8.39,2.082-3.374,7.215,11.818c5.193,15.374,26.374,15.634,21.465-8.65c-5.197-25.728-1.628-31.373-18.992-42.528 c-9.947-6.39-11.208-10.595-10.916-19.077l-0.193,0.029c0.001-0.053,0.007-0.093,0.01-0.144 c0.769-15.211,18.629-61.369,20.492-73.851c1.4-9.386,7.628-58.968,10.624-82.964l24.822-155.741l-50.495-34.681l-12.869,193.976 c-6.034,20.002-15.463,51.967-18.677,66.843c-4.836,22.356-11.985,90.815-12.091,91.821l-0.045,0.007 c0,0,3.288,71.175,17.146,88.75c12.825,16.263,35.492,40.669,52.385,30.305C919.713,850.073,906.896,831.193,895.739,820.737z"/><path style="fill:#F5CABD;" d="M922.457,423.629l-16.972,154.258c-2.997,23.995-11.51,76.669-12.91,86.057 c-1.862,12.481-15.351,54.517-16.117,69.73c-0.002,0.05-0.007,0.09-0.012,0.141l0.196-0.023 c-0.296,8.479,0.965,12.685,10.915,19.075c17.358,11.156,12.011,14.433,17.208,40.158c1.425,7.037-3.985,13.765-5.919,16.91 c7.55,3.188,16.242-1.974,12.909-18.462c-5.197-25.728-1.628-31.373-18.992-42.528c-9.947-6.39-11.208-10.595-10.916-19.077 l-0.193,0.029c0.001-0.053,0.007-0.093,0.01-0.144c0.769-15.211,18.629-61.369,20.492-73.851 c1.4-9.386,7.628-58.968,10.624-82.964l24.822-155.741L922.457,423.629z"/><animateTransform id="leftArmRotateAnim" attributeName="transform" type="rotate" calcMode="spline" keySplines="0.2 0.4 0.2 0.1; 0.3 0.6 0.9 1; 0 1 1 0; 0.2 0.4 0.2 0.1; 0.3 0.6 0.9 1; 0 1 1 0" begin="0s" repeatCount="indefinite" from="1 925 350" to="1 925 350" dur="7.8s" keyTimes="0; 0.15; 0.30; 0.5; 0.65; 0.80; 1" values="1 925 350; -1 925 350; 0 925 350; 0 925 350; -1 925 350; 1 925 350; 1 925 350"/></g><g id="right-arm"><linearGradient id="SVGID_2_" gradientUnits="userSpaceOnUse" x1="1133.1655" y1="793.2839" x2="1204.5742" y2="793.2839"><stop offset="0" style="stop-color:#FCE7F0"/><stop offset="0.835" style="stop-color:#F7E3D9"/></linearGradient><path style="fill:url(#SVGID_2_);" d="M1204.574,735.163c0,0-3.287,71.175-17.146,88.75 c-12.826,16.263-35.491,40.669-52.385,30.305c-6.756-4.144,6.058-23.023,17.218-33.479c10.434-9.771,12.006-21.202,12.662-32.433 c0.5-8.39-2.082-3.374-7.215,11.818c-5.191,15.374-26.372,15.634-21.463-8.65c5.197-25.728,1.629-31.373,18.992-42.528 c9.947-6.39,11.208-10.595,10.915-19.077L1204.574,735.163z"/><g><linearGradient id="SVGID_3_" gradientUnits="userSpaceOnUse" x1="1110.3955" y1="510.3601" x2="1176.3604" y2="510.3601"><stop offset="0" style="stop-color:#FCE7F0"/><stop offset="0.835" style="stop-color:#F7E3D9"/></linearGradient><polygon style="fill:url(#SVGID_3_);" points="1160.89,382.516 1176.36,615.607 1154.981,638.205 1139.504,599.825 1110.396,417.196 "/><linearGradient id="SVGID_4_" gradientUnits="userSpaceOnUse" x1="1133.5928" y1="661.6272" x2="1204.5342" y2="661.6272"><stop offset="0" style="stop-color:#FCE7F0"/><stop offset="0.835" style="stop-color:#F7E3D9"/></linearGradient><path style="fill:url(#SVGID_4_);" d="M1168.453,559.072c0,0,19.116,61.735,23.981,84.263c4.876,22.523,12.1,91.869,12.1,91.869 l-25.787,28.979c-6.799-21.374-11.559-17.613-12.414-34.43c-0.77-15.211-18.629-61.369-20.493-73.851 c-1.863-12.478-12.247-96-12.247-96L1168.453,559.072z"/><path style="fill:#F5CABD;" d="M1187.428,823.912c13.859-17.574,17.146-88.75,17.146-88.75l-0.046-0.007 c-0.104-1.006-7.257-69.464-12.094-91.821c-3.211-14.876-12.64-46.841-18.673-66.843l-8.962-135.077l-33.152,33.699h26.72 l9.122,105.572c0,0,12.382,37.146,18.246,69.079c5.867,31.931,11.081,79.505,11.081,87.976c0,8.474-5.868,65.168-18.899,83.417 c-4.057,5.674-27.78,28.922-40.13,34.405C1154.323,861.989,1175.283,839.31,1187.428,823.912z"/><animateTransform id="rightArmRotateAnim" attributeName="transform" type="rotate" calcMode="spline" keySplines="0.2 0.4 0.2 0.1; 0.3 0.6 0.9 1; 0 1 1 0; 0.2 0.4 0.2 0.1; 0.3 0.6 0.9 1; 0 1 1 0" begin="0s" repeatCount="indefinite" from="-1 1123 350" to="-1 1123 350" dur="7.8s" keyTimes="0; 0.15; 0.30; 0.5; 0.65; 0.80; 1" values="-1 1123 350; 1 1123 350; 0 1123 350; 0 1123 350; 1 1123 350; -1 1123 350; -1 1123 350"/></g></g><path style="fill:#F7E3D9;" d="M1079.793,387.613c0,24.294,18.206,43.989,40.679,43.989c22.459,0,40.67-19.696,40.67-43.989 c0-24.299-18.211-43.996-40.67-43.996C1097.999,343.617,1079.793,363.314,1079.793,387.613z"/><rect x="979.495" y="70.733" style="fill:#F7E3D9;" width="135.326" height="58.349"/><rect x="921.49" y="169.165" style="fill:#4D1112;" width="205.061" height="234.316"/><linearGradient id="SVGID_5_" gradientUnits="userSpaceOnUse" x1="927.0264" y1="322.5811" x2="1109.7017" y2="322.5811"><stop offset="0" style="stop-color:#FCE7F0"/><stop offset="0.835" style="stop-color:#F7E3D9"/></linearGradient><rect x="995.316" y="291.971" style="fill:url(#SVGID_5_);" width="57.372" height="61.221"/><linearGradient id="SVGID_6_" gradientUnits="userSpaceOnUse" x1="926.997" y1="209.5542" x2="1109.6798" y2="209.5542"><stop offset="0" style="stop-color:#FCE7F0"/><stop offset="0.835" style="stop-color:#F7E3D9"/></linearGradient><path style="fill:url(#SVGID_6_);" d="M921.312,106.655l9.51,108.157c3.205,55.431,44.833,97.642,93.176,97.642 c48.349,0,89.974-42.21,93.175-97.642l9.512-108.157H921.312z"/><path style="fill:#A11D25;" d="M1023.604,271.402c-9.185,0-17.673-2.748-24.54-7.391h-1.733 c6.483,6.603,15.894,11.537,26.322,11.537c10.421,0,19.741-4.934,26.217-11.537h-1.726 C1041.272,268.654,1032.79,271.402,1023.604,271.402z"/><polygon style="fill:#F5CABD;" points="1022.027,248.138 1034.078,237.094 1009.979,237.094 "/><polygon style="fill:#F5CABD;" points="1026.217,239.911 1026.224,213.732 1034.063,237.078 "/><path style="fill:#F5CABD;" d="M1116.19,106.655l-9.511,108.157c-3.084,53.426-41.872,94.557-87.962,97.462 c1.729,0.107,3.465,0.179,5.212,0.179c48.349,0,89.974-42.21,93.175-97.642l9.514-108.157H1116.19z"/><path style="fill:#A11D25;" d="M1152.562,155.84c0-69.469-57.594-125.773-128.633-125.773 c-71.038,0-128.631,56.304-128.631,125.773c0,0.169,0,0.337,0,0.509l0,0v270.934h41.84V166.158l121.682-46.6l51.902,40.878v266.847 h41.84V156.349h-0.012C1152.562,156.177,1152.562,156.009,1152.562,155.84z"/><path style="fill:#84121A;" d="M1152.562,155.84c0-63.455-48.062-115.9-110.521-124.509 c54.736,14.449,95.028,63.314,95.028,121.409c0,0.173,0,0.339-0.01,0.509h0.01v270.937h-26.347v3.096h41.84V156.349h-0.012 C1152.562,156.177,1152.562,156.009,1152.562,155.84z"/><path style="fill:#781316;" d="M1088.159,46.884c-3.346-1.89-6.788-3.641-10.323-5.238c5.267,41.131-19.016,77.912-19.016,77.912 C1085.48,91.156,1088.376,60.454,1088.159,46.884z"/><path style="fill:#F7E3D9;" d="M968.207,387.613c0,24.294-18.206,43.989-40.678,43.989c-22.459,0-40.67-19.696-40.67-43.989 c0-24.299,18.211-43.996,40.67-43.996C950.001,343.617,968.207,363.314,968.207,387.613z"/><path style="fill:#D1661E;" d="M917.321,364.881l31.937,156.626c0,0,7.229,73.51-4.64,96.726 c20.857,24.952,147.867,21.824,158.761,0c-11.865-23.216-4.632-96.726-4.632-96.726l31.932-156.626H917.321z"/><polygon style="fill:#D1661E;" points="889.149,373.115 862.802,461.992 931.6,482.159 944.648,418.102 "/><path style="fill:#D1661E;" d="M968.207,387.613c0,24.294-18.206,43.989-40.678,43.989c-22.459,0-40.67-19.696-40.67-43.989 c0-24.299,18.211-43.996,40.67-43.996C950.001,343.617,968.207,363.314,968.207,387.613z"/><polygon style="fill:#D1661E;" points="1158.854,373.115 1185.203,461.992 1116.396,482.159 1103.355,418.102 "/><path style="fill:#D1661E;" d="M1079.793,387.613c0,24.294,18.206,43.989,40.679,43.989c22.459,0,40.67-19.696,40.67-43.989 c0-24.299-18.211-43.996-40.67-43.996C1097.999,343.617,1079.793,363.314,1079.793,387.613z"/><path style="fill:#B1461A;" d="M1159.466,375.175c-0.145-0.524-0.302-1.038-0.459-1.551l-0.152-0.509l-0.016,0.015 c-5.543-17.173-20.606-29.513-38.367-29.513c-3.347,0-6.58,0.487-9.695,1.309c19.053,3.79,30.447,6.897,37.865,30.502 c8.276,26.334,15.985,70.085,19.899,91.448l16.662-4.885L1159.466,375.175z"/><path style="fill:#F5CABD;" d="M1093.813,342.133c0.864-2.206,1.638-4.253,2.293-6.057c-13.145-2.325-27.821-4.034-43.512-4.982 v-26.179c-6.425,2.597-14.672,5.789-17.372,6.15c0,0,8.032,0.925,8.955,6.177c0.924,5.249,0,18.528,0,18.528 S1072.532,337.481,1093.813,342.133z"/><polygon style="fill:#B1461A;" points="931.6,482.159 937.134,455 938.748,439.922 922.579,479.514 "/><g><g><path style="fill:#FFFFFF;" d="M998.644,191.565c0,10.743-9.974,19.455-22.284,19.455c-12.307,0-22.285-8.712-22.285-19.455 c0-10.748,9.977-19.46,22.285-19.46C988.67,172.105,998.644,180.816,998.644,191.565z"/></g><g><path style="fill:#FFFFFF;" d="M1091.438,191.565c0,10.743-9.974,19.455-22.284,19.455c-12.307,0-22.284-8.712-22.284-19.455 c0-10.748,9.978-19.46,22.284-19.46C1081.464,172.105,1091.438,180.816,1091.438,191.565z"/></g></g><g><path d="M978.506,175.082c-6.023,0-11.318,2.595-14.606,6.547l20.656,3.881l-24.03,4.512c-0.019,0.282-0.095,0.554-0.095,0.841 c0,8.712,8.09,15.779,18.074,15.779c9.982,0,18.073-7.067,18.073-15.779C996.579,182.145,988.489,175.082,978.506,175.082z"/><path d="M1066.257,175.082c-6.018,0-11.312,2.595-14.601,6.547l20.651,3.881l-24.024,4.512c-0.019,0.282-0.101,0.554-0.101,0.841 c0,8.712,8.09,15.779,18.074,15.779c9.988,0,18.083-7.067,18.083-15.779C1084.34,182.145,1076.245,175.082,1066.257,175.082z"/></g><g><path d="M959.012,173.309c0,0,3.494,6.228,14.404,5.74l-2.241,2.438C971.175,181.486,963.9,183.565,959.012,173.309z"/><path d="M1085.75,173.309c0,0-3.494,6.228-14.394,5.74l2.23,2.438C1073.587,181.486,1080.856,183.565,1085.75,173.309z"/></g><linearGradient id="SVGID_7_" gradientUnits="userSpaceOnUse" x1="1066.395" y1="183.8224" x2="1066.395" y2="224.8524"><stop offset="0" style="stop-color:#FFFFFF"/><stop offset="1" style="stop-color:#231F20"/></linearGradient><path style="opacity:0.5;fill:url(#SVGID_7_);" d="M1050.5,192.286c0.488,7.03,7.408,12.607,15.891,12.607 c8.488,0,15.406-5.577,15.899-12.607c0,0-8.177-1.486-15.856-1.486C1058.749,190.8,1050.5,192.286,1050.5,192.286z"/><linearGradient id="SVGID_8_" gradientUnits="userSpaceOnUse" x1="978.623" y1="183.8224" x2="978.623" y2="224.8524"><stop offset="0" style="stop-color:#FFFFFF"/><stop offset="1" style="stop-color:#231F20"/></linearGradient><path style="opacity:0.5;fill:url(#SVGID_8_);" d="M962.726,192.286c0.491,7.03,7.406,12.607,15.894,12.607 s15.408-5.577,15.901-12.607c0,0-8.178-1.486-15.862-1.486C970.978,190.8,962.726,192.286,962.726,192.286z"/><path style="fill:#D1661E;" d="M1028.338,341.124c-2.649,1.703-3.82,4.574-4.337,7.05c-0.512-2.477-1.683-5.348-4.334-7.05 c-7.418-4.763-24.459-18.142-24.459-18.142v9.162c0,0,12.053,12.73,28.426,20.366c0.007,0.221,0.017,0.348,0.017,0.348 c0.118-0.054,0.233-0.115,0.351-0.169c0.122,0.054,0.235,0.115,0.354,0.169c0,0,0.011-0.127,0.019-0.348 c16.368-7.636,28.421-20.366,28.421-20.366v-9.162C1052.794,322.981,1035.758,336.361,1028.338,341.124z"/><path style="fill:#D1661E;" d="M1134.754,346.413c-10.296-4.124-23.422-7.646-38.634-10.336c-0.033,0.095-0.083,0.187-0.118,0.283 c0.032-0.09,0.071-0.194,0.104-0.283c-14.17-2.504-30.117-4.298-47.197-5.192c-8.104-0.426-16.281,19.061-24.829,19.061 c-8.581,0-17.149-19.485-25.284-19.056c-17.042,0.896-32.951,2.685-47.087,5.183c0,0.001,0,0.002,0,0.002 c-15.205,2.688-28.324,6.211-38.615,10.33l9.729,46.299c17.107,5.383,88.098,40.762,101.088,40.762 c12.989,0,84-35.382,101.112-40.771L1134.754,346.413z"/><path style="fill:#D1661E;" d="M1113.067,645.35c0,0-13.627-37.865-16.246-57.069H951.181 c-2.617,19.204-16.244,57.069-16.244,57.069s-19.281,63.395-19.281,100.772c0,127.276,15.904,304.223,15.904,304.223 s26.022,20.262,83.58,23.905h17.725c57.559-3.644,83.579-23.905,83.579-23.905s15.904-176.946,15.904-304.223 C1132.347,708.745,1113.067,645.35,1113.067,645.35z"/><polygon style="fill:#BE1E2D;" points="1052.794,331.094 1052.794,355.038 969.864,397.35 936.297,459.405 971.777,399.086 1054.952,356.835 1054.952,331.244 "/><path style="fill:#B1461A;" d="M1097.63,593.105c-2.932-30.448,1.117-71.598,1.117-71.598l12.436-61.008l1.803-24.309 l-18.963,80.745c0,0-9.787,68.511-7.34,78.91c2.446,10.399,37.482,105.787,36.09,133.353 c-1.392,27.564-20.186,313.194-20.186,313.194s-38.539,29.974-94.204,31.197c0,0-0.046,0.045-0.118,0.123 c2.246,0.202,4.525,0.389,6.874,0.537h17.725c57.559-3.644,83.579-23.905,83.579-23.905s15.904-176.946,15.904-304.223 c0-37.377-19.279-100.772-19.279-100.772S1101.491,613.18,1097.63,593.105z"/><path style="fill:#B1461A;" d="M1138.173,352.641l1.504-3.738c-1.588-0.921-3.229-1.753-4.934-2.444l0.011-0.046 c-10.296-4.124-23.422-7.646-38.634-10.336c-0.033,0.095-0.083,0.187-0.118,0.283c0.032-0.09,0.071-0.194,0.104-0.283 c-13.085-2.313-27.701-4.01-43.312-4.962v-8.132c0,0-3.68,2.886-8.349,6.448v6.436c0,0,62.329,2.77,89.108,16.468 C1133.865,352.641,1138.173,352.641,1138.173,352.641z"/><path style="fill:none;stroke:#D48D1E;stroke-miterlimit:10;" d="M1051.981,415.431c-0.186,1.835-0.281,3.712-0.281,5.624 c0,20.659,11.126,37.405,24.852,37.405c13.725,0,24.85-16.746,24.85-37.405c0-1.911-0.096-3.789-0.277-5.624H1051.981z"/><polygon style="fill:#D58D1E;" points="1076.552,419.389 1081.279,428.969 1091.853,430.506 1084.201,437.964 1086.007,448.494 1076.552,443.522 1067.094,448.494 1068.899,437.964 1061.248,430.506 1071.825,428.969 "/><animateTransform id="upperBodyTrasnlateAnim" attributeName="transform" type="translate" calcMode="spline" keySplines="0.2 0.4 0.2 0.1; 0.3 0.6 0.9 1; 0 1 1 0" begin="0s" repeatCount="indefinite" from="0 0" to="0 0" dur="3.9s" keyTimes="0; 0.30; 0.60; 1" values="0 0; 0 15; 0 0; 0 0"/></g></svg> 