<?xml version="1.0" encoding="iso-8859-1"?><svg version="1.1" id="_x31_8-30_Self" xmlns="http://www.w3.org/2000/svg" xmlns:xlink="http://www.w3.org/1999/xlink" x="0px" y="0px" viewBox="0 0 2048 1536" style="enable-background:new 0 0 2048 1536;" xml:space="preserve"><linearGradient id="SVGID_1_" gradientUnits="userSpaceOnUse" x1="965.8975" y1="1407.9301" x2="1021.1641" y2="1407.9301"><stop offset="0" style="stop-color:#FCE7F0"/><stop offset="0.835" style="stop-color:#F7E3D9"/></linearGradient><path style="fill:url(#SVGID_1_);" d="M1016.307,1362.071c0,0-51.922-70.439-40.859-0.938c0.848,11.267,1.667,24.164,1.294,27.709 c-0.7,6.644-10.844,54.913-10.844,54.913l12.241,37.073l28.685,4.546l14.341-47.915L1016.307,1362.071z"/><path style="fill:#CE451D;" d="M991.084,1481.365c-15.67-8.523-21.694-31.855-23.295-39.444c-3.2,11.38-9.028,23.576-10.647,38.977 c-0.459,4.342,3.268,22.394,6.064,25.553h52.719c8.4-4.093,11.197-19.954,11.197-19.954l-6.96-58.691 C1018.376,1443.339,1015.646,1469.199,991.084,1481.365z"/><linearGradient id="SVGID_2_" gradientUnits="userSpaceOnUse" x1="1037.5713" y1="1409.527" x2="1092.8379" y2="1409.527"><stop offset="0" style="stop-color:#FCE7F0"/><stop offset="0.835" style="stop-color:#F7E3D9"/></linearGradient><path style="fill:url(#SVGID_2_);" d="M1042.429,1369.561l-4.857,75.391l14.342,47.917l28.684-4.549l12.241-37.072 c0,0-10.144-48.268-10.844-54.914c-0.579-5.473,1.691-33.23,2.509-42.857C1095.578,1283.787,1042.429,1369.561,1042.429,1369.561z" /><path style="fill:#CE451D;" d="M1067.649,1481.365c15.672-8.523,21.698-31.855,23.297-39.444c3.2,11.38,9.028,23.576,10.647,38.977 c0.459,4.342-3.267,22.394-6.064,25.553h-52.719c-8.4-4.093-11.196-19.954-11.196-19.954l6.959-58.691 C1040.359,1443.339,1043.089,1469.199,1067.649,1481.365z"/><g id="pants"><rect x="972.521" y="629.34" style="fill:#F9A74B;" width="113.517" height="82.045"/><path style="fill:#F9A74B;" d="M937.269,643.29c0,0-6.925,11.387-4.064,87.214c6.612,175.186,28.646,280.418,28.646,280.418 l-27.094,394.071h86.037V653.839L937.269,643.29z"/><path style="fill:#F9A74B;" d="M1121.286,643.29c0,0,6.927,11.387,4.067,87.214c-6.613,175.186-28.646,280.418-28.646,280.418 l27.094,394.071h-86.037V653.839L1121.286,643.29z"/><path style="fill:#F68F48;" d="M1123.826,1404.993l-27.095-394.071c0,0,22.031-105.232,28.646-280.418 c1.466-38.922,0.354-60.838-1.073-72.977l-67.47,20.949c0.613,1.84,20.806,9.485,56.976,6.42c0,0-9.86,240.156-32.199,329.812 l19.618,376.008l-33.652,14.277H1123.826z"/><path style="fill:#F68F48;" d="M972.622,1404.993h48.197V768.921l-0.342-28.196c0,0-31.083-2.007-40.111-4.014l31.089,13.038 l-5.345,641.692L972.622,1404.993z"/><path style="fill:#F9A74B;" d="M1102.896,717.539c0,12.749-32.955,23.085-73.62,23.085c-40.651,0-73.614-10.336-73.614-23.085 c0-12.747,32.963-23.081,73.614-23.081C1069.94,694.458,1102.896,704.792,1102.896,717.539z"/><animateTransform id="pantsTrasnlateAnim" attributeName="transform" type="translate" calcMode="spline" keySplines="0.2 0.4 0.2 0.1; 0.3 0.6 0.9 1; 0 1 1 0" begin="0s" repeatCount="indefinite" from="0 0" to="0 0" dur="3.9s" keyTimes="0; 0.30; 0.60; 1" values="0 0; 0 12; 0 0; 0 0"/></g><g id="upper-body"><path style="fill:#F5CABD;" d="M889.595,439.102c0,0,6.132-106.239,44.141-117.553c0,0-31.265,15.714-31.265,118.183 L889.595,439.102z"/><rect x="967.747" y="330.756" style="fill:#FFDE74;" width="123.061" height="320.832"/><path style="fill:#FFDE74;" d="M1116.905,643.977c0,12.749-39.231,23.083-87.63,23.083c-48.393,0-87.622-10.333-87.622-23.083 c0-12.75,39.229-23.083,87.622-23.083C1077.674,620.894,1116.905,631.227,1116.905,643.977z"/><linearGradient id="SVGID_3_" gradientUnits="userSpaceOnUse" x1="952.9502" y1="355.9302" x2="1105.6064" y2="355.9302"><stop offset="0" style="stop-color:#FCE7F0"/><stop offset="0.835" style="stop-color:#F7E3D9"/></linearGradient><path style="fill:url(#SVGID_3_);" d="M1029.262,310.571c-28.071,0-54.24,2.486-76.312,6.762 c9.417,28.469,39.836,83.956,76.325,83.956c36.493,0,66.911-55.482,76.331-83.948 C1083.522,313.057,1057.344,310.571,1029.262,310.571z"/><linearGradient id="SVGID_4_" gradientUnits="userSpaceOnUse" x1="1001.6934" y1="298.6494" x2="1056.8652" y2="298.6494"><stop offset="0" style="stop-color:#FCE7F0"/><stop offset="0.835" style="stop-color:#F7E3D9"/></linearGradient><rect x="1001.693" y="273.78" style="fill:url(#SVGID_4_);" width="55.172" height="49.738"/><path style="fill:#F5CABD;" d="M1092.948,320.083l2.007-4.46c-13.823-2.226-27.425-3.581-38.09-4.226v-25.095l-16.343,7.286 c0,0,12.396-1.549,11.466,21.996C1051.988,315.583,1080.553,317.606,1092.948,320.083z"/><path style="fill:none;stroke:#C7CDD2;stroke-linecap:round;stroke-miterlimit:10;" d="M1068.872,312.182 c0,17.18-17.732,31.108-39.597,31.108c-21.862,0-39.594-13.929-39.594-31.108"/><path style="fill:#C7CDD2;" d="M1032.03,350.479c0.025-1.768-1.121-7.757-2.614-7.728c-1.496,0.029-2.769,6.068-2.788,7.836 c-0.02,1.767,1.174,3.175,2.672,3.146C1030.791,353.703,1032.017,352.246,1032.03,350.479z"/><path style="fill:#FFFFFF;" d="M1025.957,350.226c0.394-1.83,2.199-2.996,4.027-2.603c1.83,0.395,2.996,2.199,2.602,4.028 c-0.393,1.832-2.192,2.996-4.028,2.601C1026.729,353.859,1025.565,352.055,1025.957,350.226z"/><path style="fill:#CE7C2C;" d="M1119.335,319.641c-6.966-1.739-17.238-4.028-25.735-5.426c-18.204,63.824-64.3,82.136-64.3,82.136 l-0.024,0.096l-0.018-0.096c0,0-46.095-18.311-64.299-82.136c-13.133,2.16-30.514,6.452-33.36,7.546 c-0.378,0.134-0.886,0.332-1.486,0.603c1.777,22.087-9.932,20.414,18.444,135.264c0.084-0.5,0.169-1.007,0.252-1.505l11.618,61.788 c2.467,22.776-1.417,45.729-9.976,78.152c-9.469,35.864-21.232,61.423-21.548,63.02c-0.091,0.424-0.148,0.848-0.148,1.276 c0,10.77,40.48,19.803,100.503,22.355l0.018-0.23l0.024,0.23c60.023-2.552,100.503-11.585,100.503-22.355 c0-0.429-0.057-0.853-0.148-1.276c-0.315-1.597-12.078-27.156-21.547-63.02c-8.559-32.423-12.442-55.377-9.977-78.152 l11.618-61.788c0.102,0.612,0.207,1.234,0.31,1.848C1119.746,419.865,1125.351,327.91,1119.335,319.641z"/><g id="right-arm"><path style="fill:#F7E3D9;" d="M1187.626,699.65c0,0-3.089,66.956-16.131,83.489c-12.063,15.298-33.383,38.259-49.277,28.506 c-6.355-3.897,5.703-21.657,16.197-31.496c9.813-9.189,11.293-19.942,11.916-30.505c0.465-7.893-1.963-3.176-6.791,11.114 c-4.886,14.465-24.811,14.709-20.193-8.135c4.891-24.201,1.533-29.513,17.866-40.007c9.358-6.011,10.55-9.967,10.269-17.946 L1187.626,699.65z"/><path style="fill:#F7E3D9;" d="M1173.756,586.003c4.58,21.188,13.832,113.686,13.832,113.686l-24.259,27.262 c-6.388-20.107-10.996-16.062-11.801-31.879c-0.723-14.311-11.543-87.799-13.3-99.538 C1136.476,583.795,1169.177,564.813,1173.756,586.003z"/><path style="fill:#F5CABD;" d="M1187.588,699.646c-0.036-0.397-1.662-16.586-6.354-58.954l-5.235,2.414 c0,0,4.315,49.341,3.089,64.055c-1.049,12.596-6.981,64.31-12.429,71.114c-14.713,18.393-29.427,28.2-41.073,32.492 c0,0-1.021,0.498-2.56,1.316c15.806,8.525,36.612-13.904,48.476-28.944c13.041-16.533,16.131-83.489,16.131-83.489 L1187.588,699.646z"/><path style="fill:#CE7C2C;" d="M1170.557,558.634c-3.064-9.929-6.959-21.211-10.723-32.124 c-5.508-41.4-12.506-163.865-14.355-178.015c-2.596-19.865-15.264-25.581-18.521-26.733c-1.004-0.386-3.823-1.172-7.623-2.12 c-8.853,3.18-20.507,95.357-9.276,138.33c4.719,28.156,10.11,59.559,14.792,84.062c4.636,58.623,14.422,69.399,19.557,106.949 c18.562,3.221,38.067-6.835,38.067-6.835C1176.989,608.66,1178.043,582.863,1170.557,558.634z"/><path style="fill:#CC662A;" d="M1170.557,558.634c-3.064-9.929-6.959-21.211-10.723-32.124 c-5.508-41.4-12.506-163.865-14.355-178.015c-2.596-19.865-15.264-25.582-18.521-26.733c-0.105-0.041-0.271-0.094-0.415-0.143 c-3.719-1.121-22.488-4.888-32.996-7.225c-0.718,2.5-1.49,4.906-2.285,7.268c11.17,3.633,22.789,7.459,28.471,9.49 c12.81,4.574,13.726,10.983,17.385,25.624c3.659,14.642,12.812,170.224,12.812,170.224s21.05,54.909,21.964,96.091 c0.096,4.337,1.294,13.1,2.97,22.228c0.097-0.033,0.204-0.072,0.307-0.106c0.168-0.061,0.32-0.12,0.483-0.178 c0.546-0.2,1.074-0.399,1.562-0.591c0.1-0.041,0.204-0.079,0.301-0.118c3.1-1.226,4.958-2.179,4.958-2.179 C1176.989,608.66,1178.043,582.863,1170.557,558.634z"/><animateTransform id="rightArmRotateAnim" attributeName="transform" type="rotate" calcMode="spline" keySplines="0.2 0.4 0.2 0.1; 0.3 0.6 0.9 1; 0 1 1 0; 0.2 0.4 0.2 0.1; 0.3 0.6 0.9 1; 0 1 1 0" begin="0s" repeatCount="indefinite" from="-1 1123 350" to="-1 1123 350" dur="7.8s" keyTimes="0; 0.15; 0.30; 0.5; 0.65; 0.80; 1" values="-1 1123 350; 1 1123 350; 0 1123 350; 0 1123 350; 1 1123 350; -1 1123 350; -1 1123 350"/></g><path style="fill:#CC662A;" d="M1129.822,660.359c0-0.429-0.058-0.853-0.148-1.276c-0.315-1.597-12.078-27.156-21.548-63.02 c-8.558-32.423-12.442-55.376-9.977-78.152l11.595-61.643l0.005-0.144l3.573-23.39c0,0-14.549,50.058-21.901,83.453 c-8.325,37.803,0.838,77.602,5.46,96.278c4.539,18.329,11.792,41.774,16.968,59.426 C1123.639,668.5,1129.822,664.563,1129.822,660.359z"/><path style="fill:#F5CABD;" d="M991.976,439.102c0,0-6.13-106.239-44.141-117.553c0,0,31.267,15.714,31.267,118.183 L991.976,439.102z"/><polygon style="fill:#F5CABD;" points="997.599,612.846 889.576,612.846 860.368,437.458 1026.81,437.458 "/><g id="left-arm"><path style="fill:#F7E3D9;" d="M870.979,699.65c0,0,3.089,66.956,16.131,83.489c12.063,15.298,33.382,38.259,49.278,28.506 c6.355-3.897-5.704-21.657-16.197-31.496c-9.814-9.189-11.294-19.942-11.917-30.505c-0.465-7.893,1.965-3.176,6.791,11.114 c4.886,14.465,24.811,14.709,20.194-8.135c-4.892-24.201-1.533-29.513-17.865-40.007c-9.358-6.011-10.551-9.967-10.269-17.946 L870.979,699.65z"/><path style="fill:#F7E3D9;" d="M884.844,586.003c-4.577,21.188-13.826,113.686-13.826,113.686l24.259,27.262 c6.389-20.107,10.996-16.062,11.802-31.879c0.723-14.311,11.542-87.799,13.301-99.538 C922.13,583.795,889.424,564.813,884.844,586.003z"/><path style="fill:#F5CABD;" d="M917.624,721.534c4.903,4.087,9.809,33.512,12.261,47.408c0.086,0.475,0.207,0.9,0.355,1.296 c4.263-1.729,7.173-7.321,5.091-17.616c-4.892-24.201-1.532-29.513-17.864-40.007c-9.359-6.011-10.548-9.967-10.27-17.946 l-0.02,0.002c0.378-6.487,2.521-23.332,5.011-41.537l0.536-4.904l-6.604-3.559c0,0-8.114,54.789-4.843,60.512 C904.549,710.905,912.719,717.445,917.624,721.534z"/><path style="fill:#C7CDD2;" d="M868.326,692.203c0.799-2.352,3.352-3.609,5.704-2.807c2.347,0.8,3.602,3.349,2.802,5.7 c-0.801,2.352-3.352,3.607-5.7,2.807C868.78,697.098,867.526,694.547,868.326,692.203z"/><path style="fill:#C7CDD2;" d="M876.056,691.467c0.79-2.344,3.348-3.607,5.69-2.806c2.352,0.805,3.605,3.353,2.81,5.702 c-0.804,2.351-3.352,3.606-5.698,2.801C876.501,696.365,875.247,693.815,876.056,691.467z"/><path style="fill:#C7CDD2;" d="M883.355,689.594c0.804-2.351,3.352-3.614,5.704-2.809c2.347,0.802,3.605,3.355,2.797,5.705 c-0.79,2.35-3.344,3.602-5.695,2.802C883.81,694.489,882.555,691.944,883.355,689.594z"/><path style="fill:#C7CDD2;" d="M890.73,687.179c0.795-2.345,3.348-3.604,5.699-2.799c2.352,0.799,3.602,3.347,2.808,5.699 c-0.806,2.351-3.354,3.604-5.706,2.806C891.182,692.08,889.931,689.529,890.73,687.179z"/><path style="fill:#C7CDD2;" d="M897.974,685.85c0.798-2.344,3.357-3.607,5.703-2.805c2.347,0.803,3.605,3.351,2.808,5.701 c-0.806,2.353-3.354,3.608-5.705,2.804C898.429,690.747,897.173,688.199,897.974,685.85z"/><path style="fill:#C7CDD2;" d="M904.875,682.839c0.798-2.347,3.352-3.608,5.693-2.812c2.357,0.807,3.607,3.356,2.808,5.708 c-0.796,2.351-3.349,3.608-5.695,2.804C905.328,687.736,904.074,685.188,904.875,682.839z"/><path style="fill:#CE7C2C;" d="M913.079,348.495c-1.849,14.15-8.847,136.615-14.355,178.015 c-3.766,10.913-7.658,22.195-10.724,32.124c-7.486,24.229-6.432,50.026-11.917,83.514c0,0,19.504,10.056,38.067,6.835 c5.135-37.55,14.919-48.326,19.557-106.949c4.701-24.602,10.118-56.161,14.848-84.405c8.278-56.193-2.224-96.503-18.444-135.264 C925.536,324.433,915.374,330.934,913.079,348.495z"/><path style="fill:#CC662A;" d="M948.636,457.264c0.062-0.378,0.115-0.764,0.177-1.141l-2.494-22.218l-19.46,104.814 c0,0-13.014,79.788-21.707,110.855c2.976,0.079,6.007-0.069,9.02-0.591c5.135-37.55,14.919-48.326,19.556-106.949 C938.448,517.324,943.894,485.598,948.636,457.264z"/><path style="fill:#CE7C2C;" d="M913.079,348.495c-1.849,14.15-8.847,136.615-14.355,178.015 c-3.766,10.913-7.658,22.195-10.724,32.124c-7.486,24.229-6.432,50.026-11.917,83.514c0,0,19.504,10.056,38.067,6.835 c5.135-37.55,14.919-48.326,19.557-106.949c4.784-25.038,10.311-57.289,15.101-85.91l6.384-46.908L913.079,348.495z"/><animateTransform id="leftArmRotateAnim" attributeName="transform" type="rotate" calcMode="spline" keySplines="0.2 0.4 0.2 0.1; 0.3 0.6 0.9 1; 0 1 1 0; 0.2 0.4 0.2 0.1; 0.3 0.6 0.9 1; 0 1 1 0" begin="0s" repeatCount="indefinite" from="1 925 350" to="1 925 350" dur="7.8s" keyTimes="0; 0.15; 0.30; 0.5; 0.65; 0.80; 1" values="1 925 350; -1 925 350; 0 925 350; 0 925 350; -1 925 350; 1 925 350; 1 925 350"/></g><polygon style="fill:#DBA5A4;" points="1002.486,459.007 980.626,600.455 930.478,600.455 972.267,595.953 "/><path style="fill:#541900;" d="M962.771,199.967c0,0-4.382,57.179,6.016,85.086c0,0-45.673-0.855-43.015-82.377L962.771,199.967z" /><path style="fill:#541900;" d="M1088.99,199.967c0,0,4.377,57.179-6.021,85.086c0,0,45.678-0.855,43.02-82.377L1088.99,199.967z"/><path style="fill:#993E21;" d="M1136.895,147.783c-1.168,63.367-50.86,113.762-111.011,113.762 c-60.151,0-109.849-50.395-111.021-113.762c-1.198-64.73,48.503-118.233,111.021-118.233 C1088.399,29.55,1138.092,83.053,1136.895,147.783z"/><linearGradient id="SVGID_5_" gradientUnits="userSpaceOnUse" x1="937.0797" y1="208.6743" x2="1113.7832" y2="208.6743"><stop offset="0" style="stop-color:#FBE6EF"/><stop offset="0.835" style="stop-color:#F7E2D8"/></linearGradient><path style="fill:url(#SVGID_5_);" d="M936.401,119.817l6.062,78.888c2.87,56.1,40.132,98.826,83.42,98.826 c43.277,0,80.544-42.727,83.417-98.826l6.06-78.888H936.401z"/><path style="fill:#F5CABD;" d="M1104.909,99.433l-8.509,99.272c-2.73,53.288-36.497,94.482-76.968,98.477 c2.131,0.211,4.281,0.35,6.451,0.35c43.277,0,80.544-42.727,83.417-98.826l8.512-99.272H1104.909z"/><path style="fill:#C5168C;" d="M1025.884,256.974c-9.1,0-17.501-2.719-24.308-7.317h-1.709c6.418,6.537,15.737,11.422,26.06,11.422 c10.32,0,19.556-4.885,25.969-11.422h-1.71C1043.379,254.254,1034.978,256.974,1025.884,256.974z"/><path style="fill:#C5168C;" d="M1002.524,250.686c0,0,4.316,3.707,17.181,3.524l8.319,3.708l-11.961-0.556 C1016.063,257.361,1005.46,254.024,1002.524,250.686z"/><path style="fill:#C5168C;" d="M1049.237,250.686c0,0-4.315,3.707-17.176,3.524l-8.323,3.708l11.96-0.556 C1035.698,257.361,1046.306,254.024,1049.237,250.686z"/><path style="fill:#FFFFFF;" d="M1002.128,181.779c0,10.771-9.996,19.498-22.334,19.498c-12.332,0-22.334-8.726-22.334-19.498 c0-10.767,10.002-19.497,22.334-19.497C992.132,162.281,1002.128,171.012,1002.128,181.779z"/><path style="fill:#FFFFFF;" d="M1095.125,181.779c0,10.771-9.996,19.498-22.334,19.498c-12.333,0-22.332-8.726-22.332-19.498 c0-10.767,9.999-19.497,22.332-19.497C1085.129,162.281,1095.125,171.012,1095.125,181.779z"/><polygon style="fill:#F5CABD;" points="1024.316,235.723 1038.973,224.789 1009.661,224.789 "/><polygon style="fill:#F5CABD;" points="1028.551,227.576 1028.551,190.611 1039.011,224.77 "/><path d="M981.944,165.26c-6.035,0-11.341,2.6-14.637,6.561l20.699,3.889l-24.081,4.527c-0.018,0.282-0.095,0.55-0.095,0.842 c0,8.732,8.108,15.815,18.113,15.815c10.005,0,18.113-7.083,18.113-15.815C1000.058,172.344,991.949,165.26,981.944,165.26z"/><path d="M1069.889,165.26c-6.028,0-11.336,2.6-14.632,6.561l20.695,3.889l-24.076,4.527c-0.02,0.282-0.1,0.55-0.1,0.842 c0,8.732,8.108,15.815,18.112,15.815c10.011,0,18.124-7.083,18.124-15.815C1088.013,172.344,1079.899,165.26,1069.889,165.26z"/><path d="M962.407,163.488c0,0,3.503,6.241,14.436,5.748l-2.245,2.448C974.598,171.683,967.308,173.762,962.407,163.488z"/><path d="M1089.427,163.488c0,0-3.503,6.241-14.428,5.748l2.236,2.448C1077.235,171.683,1084.521,173.762,1089.427,163.488z"/><linearGradient id="SVGID_6_" gradientUnits="userSpaceOnUse" x1="1070.0273" y1="174.0249" x2="1070.0273" y2="215.1443"><stop offset="0" style="stop-color:#FFFFFF"/><stop offset="1" style="stop-color:#231F20"/></linearGradient><path style="opacity:0.5;fill:url(#SVGID_6_);" d="M1054.098,182.507c0.489,7.041,7.424,12.635,15.927,12.635 c8.506,0,15.439-5.595,15.933-12.635c0,0-8.194-1.489-15.892-1.489C1062.364,181.018,1054.098,182.507,1054.098,182.507z"/><linearGradient id="SVGID_7_" gradientUnits="userSpaceOnUse" x1="982.0615" y1="174.0249" x2="982.0615" y2="215.1443"><stop offset="0" style="stop-color:#FFFFFF"/><stop offset="1" style="stop-color:#231F20"/></linearGradient><path style="opacity:0.5;fill:url(#SVGID_7_);" d="M966.129,182.507c0.493,7.041,7.426,12.635,15.931,12.635 c8.506,0,15.441-5.595,15.935-12.635c0,0-8.195-1.489-15.897-1.489C974.401,181.018,966.129,182.507,966.129,182.507z"/><path style="fill:#F5CABD;" d="M1100.624,160.538v60.955c16.551-0.34,29.871-13.841,29.871-30.48 C1130.495,174.379,1117.175,160.878,1100.624,160.538z"/><linearGradient id="SVGID_8_" gradientUnits="userSpaceOnUse" x1="934.6432" y1="191.0157" x2="1116.1887" y2="191.0157"><stop offset="0" style="stop-color:#FBE6EF"/><stop offset="0.835" style="stop-color:#F7E2D8"/></linearGradient><path style="fill:url(#SVGID_8_);" d="M951.138,221.493v-60.955c-16.553,0.34-29.871,13.841-29.871,30.479 C921.267,207.652,934.585,221.153,951.138,221.493z"/><path style="fill:#993E21;" d="M970.717,100.18c0,0-75.928,164.481-9.502,190.977c0,0-112.969,14.072-38.727-188.006 L970.717,100.18z"/><path style="fill:#993E21;" d="M1081.043,100.18c0,0,75.933,164.481,9.502,190.977c0,0,112.976,14.072,38.729-188.006 L1081.043,100.18z"/><path style="fill:#993E21;" d="M943.83,83.479c0,0,10.789,85.777,120.322,78.421c0,0-26.157-22.07-28.608-88.28L943.83,83.479z"/><path style="fill:#993E21;" d="M1011.519,93.6c0,0,9.072,52.569,82.811,65.803c0,0-4.415-39.072-32.775-69.326L1011.519,93.6z"/><path style="fill:#993E21;" d="M1067.002,116.033c2.015,1.006,38.545,24.71,40.067,67.211l19.364-56.468l-10.173-33.613 l-42.545,5.073L1067.002,116.033z"/><path style="fill:#993E21;" d="M961.681,99.237c0,0-4.412,33.402,22.688,59.241c0,0-44.677,6.609-56.089-23.947l10.081-30.882 L961.681,99.237z"/><path style="fill:#993E21;" d="M951.45,136.618c0,0-13.722,66.069,20.332,107.743c0,0-49.95,1.439-47.211-82.624L951.45,136.618z" /><path style="fill:#993E21;" d="M1100.307,136.618c0,0,13.723,66.069-20.327,107.743c0,0,49.952,1.439,47.211-82.624 L1100.307,136.618z"/><animateTransform id="upperBodyTrasnlateAnim" attributeName="transform" type="translate" calcMode="spline" keySplines="0.2 0.4 0.2 0.1; 0.3 0.6 0.9 1; 0 1 1 0" begin="0s" repeatCount="indefinite" from="0 0" to="0 0" dur="3.9s" keyTimes="0; 0.30; 0.60; 1" values="0 0; 0 15; 0 0; 0 0"/></g></svg> 