<?xml version="1.0" encoding="iso-8859-1"?><svg version="1.1" id="_x31_8-30_Professional" xmlns="http://www.w3.org/2000/svg" xmlns:xlink="http://www.w3.org/1999/xlink" x="0px" y="0px" viewBox="0 0 2048 1536" style="enable-background:new 0 0 2048 1536;" xml:space="preserve"><linearGradient id="SVGID_1_" gradientUnits="userSpaceOnUse" x1="926.4656" y1="1085.9087" x2="1018.1626" y2="1085.9087"><stop offset="0" style="stop-color:#FCE7F0"/><stop offset="0.835" style="stop-color:#F7E3D9"/></linearGradient><path style="fill:url(#SVGID_1_);" d="M1013.394,1351.432V723.118c0,0-73.496-38.285-77.649-17.801 c-31.279,154.416,26.957,250.134,22.056,306.753c-4.91,56.615-15.744,109.316-13.138,150.6 c0.683,10.795,17.738,119.584,28.603,187.842c0.832,11.064,1.637,23.73,1.271,27.211c-0.686,6.525-10.649,53.932-10.649,53.932 l12.023,36.408l28.17,4.467l14.082-47.059L1013.394,1351.432z"/><path style="fill:#F5CABD;" d="M1013.394,1358.787V723.118c0,0-51.229-26.674-70.551-23.551 c22.601,2.578,57.246,44.827,57.246,44.827l5.638,614.393l4.771,74.039l-13.735,45.898l7.319,1.16l14.082-47.059L1013.394,1358.787z "/><linearGradient id="SVGID_2_" gradientUnits="userSpaceOnUse" x1="955.2505" y1="1454.6064" x2="1024.0151" y2="1454.6064"><stop offset="0.0291" style="stop-color:#B43D59"/><stop offset="0.4896" style="stop-color:#B23C58"/><stop offset="0.8172" style="stop-color:#8E2D45"/></linearGradient><path style="fill:url(#SVGID_2_);" d="M988.624,1468.59c-15.392-8.371-21.31-31.285-22.88-38.738 c-3.143,11.176-8.866,23.154-10.456,38.281c-0.451,4.262,3.209,21.99,5.956,25.092h51.773c8.25-4.02,10.998-19.596,10.998-19.596 l-6.835-57.641C1015.426,1431.244,1012.744,1456.641,988.624,1468.59z"/><linearGradient id="SVGID_3_" gradientUnits="userSpaceOnUse" x1="1034.2773" y1="1089.5864" x2="1125.9753" y2="1089.5864"><stop offset="0" style="stop-color:#FCE7F0"/><stop offset="0.835" style="stop-color:#F7E3D9"/></linearGradient><path style="fill:url(#SVGID_3_);" d="M1116.696,705.317c-4.154-20.484-77.649,17.801-77.649,17.801v635.669l-4.77,74.039 l14.083,47.059l28.171-4.465l12.022-36.41c0,0-9.962-47.404-10.649-53.93c-0.568-5.373,1.66-32.633,2.467-42.088 c10.873-68.443,26.748-169.916,27.408-180.322c2.604-41.283-8.228-93.984-13.138-150.6 C1089.739,955.451,1147.976,859.732,1116.696,705.317z"/><path style="fill:#F5CABD;" d="M1116.696,705.317c-1.229-6.061-8.547-6.954-18.218-5.24c2.64,0.88,4.421,2.536,4.972,5.24 c31.28,154.416-26.956,250.134-22.056,306.753c4.911,56.615,15.744,109.316,13.139,150.6 c-0.659,10.406-8.965,111.879-19.843,180.322c-0.803,9.455-3.032,36.715-2.464,42.088c0.687,6.525,3.082,53.93,3.082,53.93 l-12.022,36.41l-15.527,2.463l0.602,2.002l28.171-4.465l12.022-36.41c0,0-9.962-47.404-10.649-53.93 c-0.568-5.373,1.66-32.633,2.467-42.088c10.873-68.443,26.748-169.916,27.408-180.322c2.604-41.283-8.228-93.984-13.138-150.6 C1089.739,955.451,1147.976,859.732,1116.696,705.317z"/><linearGradient id="SVGID_4_" gradientUnits="userSpaceOnUse" x1="1028.4258" y1="1454.6064" x2="1097.1913" y2="1454.6064"><stop offset="0.0291" style="stop-color:#B43D59"/><stop offset="0.4896" style="stop-color:#B23C58"/><stop offset="0.8172" style="stop-color:#8E2D45"/></linearGradient><path style="fill:url(#SVGID_4_);" d="M1063.818,1468.59c15.39-8.371,21.307-31.285,22.877-38.738 c3.144,11.176,8.868,23.154,10.458,38.281c0.451,4.262-3.208,21.99-5.955,25.092h-51.774c-8.251-4.02-10.998-19.596-10.998-19.596 l6.835-57.641C1037.016,1431.244,1039.697,1456.641,1063.818,1468.59z"/><g id="upper-body"><rect x="965.704" y="371.343" style="fill:#F56D6F;" width="120.857" height="120.858"/><path style="fill:#F9A74B;" d="M1100.124,993.893c7.155-57.605,27.749-138.6,32.531-186.596 c10.856-108.904-8.457-155.79-8.457-155.79h-196.13c0,0-19.318,46.886-8.462,155.79c4.79,47.996,25.377,128.99,32.532,186.596 H1100.124z"/><path style="fill:#F9A74B;" d="M1100.297,993.01c0,9.008-33.211,16.31-74.18,16.31c-40.967,0-74.177-7.303-74.177-16.31 c0-9.004,33.21-16.309,74.177-16.309C1067.086,976.701,1100.297,984.006,1100.297,993.01z"/><path style="fill:#F68D47;" d="M1100.297,993.01c0-0.076-0.021-0.154-0.026-0.233c7.278-57.535,27.632-137.791,32.385-185.48 c10.856-108.904-8.457-155.79-8.457-155.79h-28.381l-48.006,27.629c0,0,22.177,14.351,72.406,5.873c0,0,8.479,60.012-1.958,128.507 c-6.183,40.561-38.441,143.918-37.443,190.508C1092.91,1001.121,1100.297,997.256,1100.297,993.01z"/><linearGradient id="SVGID_5_" gradientUnits="userSpaceOnUse" x1="999.0435" y1="311.5356" x2="1053.2256" y2="311.5356"><stop offset="0" style="stop-color:#FCE7F0"/><stop offset="0.835" style="stop-color:#F7E3D9"/></linearGradient><rect x="999.043" y="282.631" style="fill:url(#SVGID_5_);" width="54.182" height="57.809"/><linearGradient id="SVGID_6_" gradientUnits="userSpaceOnUse" x1="957.9653" y1="355.7242" x2="1094.3066" y2="355.7242"><stop offset="0" style="stop-color:#FCE7F0"/><stop offset="0.835" style="stop-color:#F7E3D9"/></linearGradient><path style="fill:url(#SVGID_6_);" d="M1026.121,318.763c-25.07,0-48.442,2.026-68.156,5.51 c8.41,23.199,35.578,68.412,68.171,68.412c32.592,0,59.759-45.211,68.17-68.407C1074.583,320.79,1051.201,318.763,1026.121,318.763 z"/><path style="fill:#F5CABD;" d="M1084.035,327.032l-1.027-4.513c-9.342-1.303-19.308-2.312-29.782-2.945v-24.645l-16.051,7.154 c0,0,12.174-1.521,11.263,21.602C1048.438,323.685,1071.86,324.598,1084.035,327.032z"/><path style="fill:none;stroke:#C7CDD2;stroke-linecap:round;stroke-miterlimit:10;" d="M1065.021,320.345 c0,16.873-17.411,30.551-38.884,30.551c-21.474,0-38.885-13.679-38.885-30.551"/><path style="fill:#C7CDD2;" d="M1028.841,357.957c0.023-1.736-1.101-7.618-2.569-7.589c-1.467,0.028-2.718,5.959-2.736,7.695 c-0.019,1.735,1.151,3.118,2.624,3.09C1027.623,361.122,1028.827,359.692,1028.841,357.957z"/><path style="fill:#FFFFFF;" d="M1022.877,357.707c0.386-1.797,2.157-2.942,3.956-2.557c1.797,0.389,2.939,2.159,2.555,3.957 c-0.387,1.799-2.154,2.942-3.956,2.554C1023.633,361.275,1022.491,359.504,1022.877,357.707z"/><path style="fill:#CC642A;" d="M946.992,461.942c0.005-0.032,0.022-0.133,0.039-0.235l0,0 C947.007,461.852,946.996,461.919,946.992,461.942z"/><path style="fill:#CC642A;" d="M946.992,461.942C946.99,461.954,946.99,461.954,946.992,461.942L946.992,461.942z"/><path style="fill:#CC642A;" d="M1140.712,336.533c-0.016-0.137-0.033-0.287-0.048-0.406c-4.353-1.853-10.293-3.957-17.618-6.017 c-0.451-0.187-0.849-0.338-1.124-0.428c-3.29-1.237-14.787-4.839-43.051-7.792c-0.214-0.021-0.418-0.05-0.634-0.071l-0.005,0.003 c-0.003,0-0.008-0.003-0.016-0.003c0,0-0.039,0.017-0.107,0.055c-4.595-0.574-9.312-1.083-14.17-1.5v18.005 c-10.335,17.428-24.145,52.539-33.905,122.315l-3.84,9.598l-3.583-9.727c-9.809-70.102-23.829-105.177-34.288-122.487v-17.708 c-4.866,0.42-9.589,0.929-14.188,1.503c-0.072-0.038-0.112-0.055-0.112-0.055c-28.274,2.918-49.552,9.043-61.153,13.779 c9.4,37.68,9.646,77.299,34.162,126.108c0.073-0.435,0.036-0.216,0,0l11.413,60.682c2.42,22.372,3.773,55.047-7.389,76.753 c-15.899,22.778-30.843,59.001-30.843,59.001s19.275,25.321,92.985,25.456l12.932-28.166l12.938,28.173h0.058 c74.196,0,93.558-25.463,93.558-25.463s-14.939-36.223-30.843-59.001c-12.946-25.186-9.054-65.135-6.189-86.617l9.569-50.88 c0.083,0.493-0.083-0.496,0,0C1116.914,430.822,1130.481,404.8,1130,338C1130,335.585,1135.83,337.7,1140.712,336.533z"/><path style="fill:#B74A2D;" d="M1140.713,336.533c-0.016-0.137-11.002-4.306-11.018-4.425c-4.353-1.853,0.676,0.063-6.649-1.997 c-0.451-0.187-0.849-0.338-1.124-0.428c-3.29-1.237-14.787-4.839-43.051-7.792c-0.214-0.021-0.418-0.05-0.634-0.071l-0.005,0.003 c-0.003,0-0.008-0.003-0.016-0.003c0,0-0.039,0.017-0.107,0.055c-4.33-0.541-8.78-1.019-13.346-1.421l1.393,10.438 c0,0,40.861,5.36,62.394,13.542C1129.03,342.294,1135.83,337.7,1140.713,336.533z"/><g id="right-arm"><path style="fill:#F7E3D9;" d="M1181.637,700.875c0,0-3.039,65.756-15.843,81.993c-11.849,15.023-32.79,37.574-48.397,27.996 c-6.242-3.828,5.598-21.269,15.907-30.93c9.641-9.028,11.094-19.587,11.7-29.962c0.461-7.751-1.924-3.118-6.666,10.916 c-4.798,14.205-24.365,14.445-19.83-7.989c4.802-23.769,1.504-28.985,17.544-39.291c9.191-5.903,10.356-9.788,10.086-17.624 L1181.637,700.875z"/><path style="fill:#F7E3D9;" d="M1167.5,589.071c4.503,20.81,14.098,111.841,14.098,111.841l-23.823,26.774 c-6.278-19.746-10.804-15.774-11.59-31.309c-0.715-14.054-11.341-86.226-13.063-97.755 C1131.401,587.093,1163.005,568.263,1167.5,589.071z"/><path style="fill:#F5CABD;" d="M1165.794,782.867c12.804-16.237,15.843-81.993,15.843-81.993l-0.044-0.007 c-0.027-0.402-0.566-7.861-2.358-28.889c-3.536,3.673-7.021-3.201-7.021-3.201s1.388,31.388,1.85,35.081 c0.461,3.692-3.696,71.083-26.311,88.622c-8.276,6.418-10.11,11.965-9.062,16.447 C1148.912,802.906,1158.893,791.615,1165.794,782.867z"/><path style="fill:#CC642A;" d="M1164.947,562.382c-3.012-9.748-6.83-20.83-10.527-31.545c-0.074-0.564-0.149-1.147-0.227-1.74 c-5.319-42.382-11.628-176.882-13.481-192.564C1135.83,337.7,1130,335.585,1130,338c-20.925,44.909-24.85,82.866-24.778,123.646 c4.647,27.755,10.222,60.263,14.842,84.439c4.553,57.571,18.176,96.156,23.213,133.031c18.233,3.163,36.034-6.494,36.034-6.494 C1173.932,639.732,1172.299,586.179,1164.947,562.382z"/><path style="fill:#B74A2D;" d="M1176.463,650.85c-3.411-31.317-5.632-69.422-11.516-88.468c-3.012-9.748-6.83-20.83-10.527-31.545 c-0.074-0.564-0.149-1.147-0.227-1.74c-5.319-42.382-11.628-176.883-13.481-192.564c-4.848,1.159-11.587,5.697-12.152,7.855 l3.488,1.464l12.732,184.964c0,0,17.781,36.182,27.445,144.868c0.333-0.119,6.7-2.825,7.008-2.942 C1178.474,667.864,1177.558,661.618,1176.463,650.85z"/><animateTransform id="rightArmRotateAnim" attributeName="transform" type="rotate" calcMode="spline" keySplines="0.2 0.4 0.2 0.1; 0.3 0.6 0.9 1; 0 1 1 0; 0.2 0.4 0.2 0.1; 0.3 0.6 0.9 1; 0 1 1 0" begin="0s" repeatCount="indefinite" from="-1 1123 350" to="-1 1123 350" dur="7.8s" keyTimes="0; 0.15; 0.30; 0.5; 0.65; 0.80; 1" values="-1 1123 350; 1 1123 350; 0 1123 350; 0 1123 350; 1 1123 350; -1 1123 350; -1 1123 350"/></g><polygon style="fill:#8C3E23;" points="1026.131,468.283 999.409,329.574 998.911,311.489 979.988,320.887 974.377,370.859 995.562,374.18 980.275,383.202 1026.131,471.125 "/><polygon style="fill:#8C3E23;" points="1026.131,468.283 1052.857,329.574 1053.353,311.489 1072.275,320.887 1077.886,370.859 1056.706,374.18 1071.993,383.202 1026.131,471.125 1025.746,469.198 "/><polygon style="fill:#8C3E23;" points="1022.333,663.703 1026.131,655.434 1029.942,663.736 1027.794,466.295 1026.194,470.293 1024.49,465.665 "/><path style="fill:#8C3E23;" d="M1020.37,501.288c0,2.298-1.865,4.161-4.162,4.161c-2.293,0-4.158-1.862-4.158-4.161 c0-2.3,1.865-4.16,4.158-4.16C1018.504,497.128,1020.37,498.988,1020.37,501.288z"/><path style="fill:#8C3E23;" d="M1020.37,558.822c0,2.297-1.865,4.16-4.162,4.16c-2.293,0-4.158-1.862-4.158-4.16 c0-2.299,1.865-4.161,4.158-4.161C1018.504,554.661,1020.37,556.523,1020.37,558.822z"/><g id="left-arm"><path style="fill:#F7E3D9;" d="M870.631,700.875c0,0,3.033,65.756,15.841,81.993c11.85,15.023,32.786,37.574,48.397,27.996 c6.242-3.828-5.602-21.269-15.907-30.93c-9.638-9.028-11.092-19.587-11.703-29.962c-0.457-7.751,1.928-3.118,6.669,10.916 c4.799,14.205,24.366,14.445,19.831-7.989c-4.802-23.769-1.504-28.985-17.544-39.291c-9.192-5.903-10.363-9.788-10.085-17.624 L870.631,700.875z"/><path style="fill:#F7E3D9;" d="M881.84,589.262c-4.497,20.81-11.171,111.65-11.171,111.65l23.824,26.774 c6.275-19.746,10.8-15.774,11.59-31.309c0.711-14.054,11.337-86.226,13.063-97.755 C920.868,587.093,886.337,568.453,881.84,589.262z"/><path style="fill:#F5CABD;" d="M916.44,722.366c4.817,4.014,9.633,32.912,12.041,46.56c0.086,0.465,0.204,0.883,0.348,1.274 c4.187-1.699,7.048-7.191,5.001-17.301c-4.802-23.769-1.506-28.985-17.545-39.291c-9.192-5.903-10.358-9.788-10.084-17.624 l-0.019,0.003c0.371-6.372,2.503-23.046,4.948-40.925l-0.307-0.127l-7.223,2.409c0,0-6.427,43.347-3.215,48.967 C903.601,711.928,911.623,718.351,916.44,722.366z"/><path style="fill:#CC642A;" d="M911.598,336.127c-1.814,13.899-8.342,154.047-13.753,194.705 c-3.698,10.72-7.52,21.799-10.53,31.55c-7.351,23.797-8.979,77.35-14.365,110.239c0,0,17.803,9.657,36.035,6.494 c5.042-36.878,18.665-75.464,23.218-133.038c4.554-23.834,9.794-54.32,14.393-81.771c-6.299-43.598-12.833-87.74-33.726-128.708 C912.433,335.776,912.006,335.953,911.598,336.127z"/><path style="fill:#C7CDD2;" d="M866.6,693.56c0.786-2.31,3.292-3.544,5.602-2.756c2.304,0.785,3.537,3.288,2.753,5.597 c-0.786,2.31-3.293,3.542-5.599,2.757C867.048,698.367,865.813,695.862,866.6,693.56z"/><path style="fill:#C7CDD2;" d="M874.191,692.837c0.777-2.302,3.289-3.542,5.588-2.756c2.31,0.791,3.542,3.293,2.761,5.6 c-0.79,2.31-3.293,3.542-5.598,2.752C874.63,697.647,873.396,695.144,874.191,692.837z"/><path style="fill:#C7CDD2;" d="M881.36,691c0.79-2.31,3.293-3.549,5.603-2.76c2.305,0.788,3.542,3.296,2.747,5.602 c-0.775,2.308-3.283,3.538-5.594,2.752C881.806,695.806,880.574,693.306,881.36,691z"/><path style="fill:#C7CDD2;" d="M888.605,688.625c0.78-2.303,3.287-3.539,5.597-2.75c2.31,0.786,3.536,3.289,2.755,5.598 c-0.789,2.31-3.292,3.54-5.602,2.757C889.045,693.44,887.818,690.935,888.605,688.625z"/><path style="fill:#C7CDD2;" d="M895.716,687.32c0.786-2.302,3.296-3.541,5.602-2.754c2.304,0.788,3.542,3.291,2.756,5.598 c-0.79,2.311-3.293,3.544-5.602,2.754C896.163,692.13,894.931,689.628,895.716,687.32z"/><path style="fill:#C7CDD2;" d="M902.493,684.364c0.787-2.304,3.293-3.543,5.594-2.761c2.315,0.793,3.542,3.295,2.756,5.605 c-0.781,2.309-3.287,3.544-5.591,2.754C902.941,689.174,901.709,686.672,902.493,684.364z"/><path style="fill:#B74A2D;" d="M945.407,456.114l-6.488-22.337c0,0-8.283,92.493-13.114,109.749 c-4.639,16.564-17.245,97.372-22.664,136.168c1.931-0.071,3.883-0.237,5.845-0.579c5.042-36.878,18.665-75.464,23.218-133.038 c4.554-23.834,9.794-54.32,14.393-81.771C946.201,461.577,945.806,458.846,945.407,456.114z"/><animateTransform id="leftArmRotateAnim" attributeName="transform" type="rotate" calcMode="spline" keySplines="0.2 0.4 0.2 0.1; 0.3 0.6 0.9 1; 0 1 1 0; 0.2 0.4 0.2 0.1; 0.3 0.6 0.9 1; 0 1 1 0" begin="0s" repeatCount="indefinite" from="1 925 350" to="1 925 350" dur="7.8s" keyTimes="0; 0.15; 0.30; 0.5; 0.65; 0.80; 1" values="1 925 350; -1 925 350; 0 925 350; 0 925 350; -1 925 350; 1 925 350; 1 925 350"/></g><path style="fill:#B74A2D;" d="M1090.775,598.747c0,0,26.918,49.009,28.849,69.189c9.582-5.246,13.061-9.792,13.061-9.792 s-14.939-36.223-30.843-59.001c-12.946-25.186-9.054-65.135-6.189-86.617l9.569-50.88l1.914-8.493 c0.534-3.161,1.074-6.316,1.621-9.463c-5.354,14.956-24.884,71.724-24.884,103.979 C1083.872,569.759,1085.943,588.394,1090.775,598.747z"/><path style="fill:#B74A2D;" d="M1110.102,439.987c0,0-0.495,1.328-1.345,3.703c-0.547,3.147-1.086,6.302-1.621,9.463 L1110.102,439.987z"/><path style="fill:#B74A2D;" d="M947.031,461.706l-1.625-5.593c0.4,2.732,0.795,5.463,1.189,8.192 C947.031,461.083,947.031,461.706,947.031,461.706z"/><path style="fill:#541900;" d="M963.765,210.139c0,0-4.305,56.156,5.912,83.562c0,0-44.86-0.839-42.249-80.902L963.765,210.139z"/><path style="fill:#541900;" d="M1087.721,210.139c0,0,4.304,56.156-5.912,83.562c0,0,44.859-0.839,42.248-80.902L1087.721,210.139z "/><path style="fill:#993E21;" d="M1134.769,158.891c-1.149,62.232-49.95,111.725-109.022,111.725 c-59.071,0-107.88-49.494-109.033-111.725c-1.171-63.571,47.639-116.116,109.033-116.116 C1087.144,42.775,1135.949,95.32,1134.769,158.891z"/><linearGradient id="SVGID_7_" gradientUnits="userSpaceOnUse" x1="938.5323" y1="218.6917" x2="1112.0721" y2="218.6917"><stop offset="0" style="stop-color:#FBE6EF"/><stop offset="0.835" style="stop-color:#F7E2D8"/></linearGradient><path style="fill:url(#SVGID_7_);" d="M937.866,131.426l5.955,77.474c2.818,55.094,39.417,97.057,81.925,97.057 c42.507,0,79.103-41.962,81.925-97.057l5.95-77.474H937.866z"/><path style="fill:#F5CABD;" d="M1103.36,111.406l-8.362,97.494c-2.678,52.333-35.844,92.791-75.589,96.713 c2.1,0.207,4.207,0.343,6.337,0.343c42.507,0,79.103-41.962,81.925-97.057l8.362-97.494H1103.36z"/><path style="fill:#C5168C;" d="M1025.746,266.126c-8.937,0-17.187-2.671-23.872-7.187h-1.678 c6.302,6.42,15.455,11.217,25.591,11.217c10.137,0,19.204-4.797,25.504-11.217h-1.68 C1042.93,263.455,1034.677,266.126,1025.746,266.126z"/><path style="fill:#C5168C;" d="M1002.807,259.95c0,0,4.237,3.64,16.871,3.461l8.169,3.641l-11.746-0.545 C1016.102,266.507,1005.69,263.229,1002.807,259.95z"/><path style="fill:#C5168C;" d="M1048.681,259.95c0,0-4.239,3.64-16.867,3.461l-8.175,3.641l11.745-0.545 C1035.383,266.507,1045.801,263.229,1048.681,259.95z"/><path style="fill:#FFFFFF;" d="M1002.416,192.277c0,10.579-9.816,19.15-21.935,19.15c-12.111,0-21.934-8.571-21.934-19.15 c0-10.574,9.822-19.149,21.934-19.149C992.599,173.128,1002.416,181.704,1002.416,192.277z"/><path style="fill:#FFFFFF;" d="M1093.746,192.277c0,10.579-9.816,19.15-21.932,19.15c-12.113,0-21.934-8.571-21.934-19.15 c0-10.574,9.82-19.149,21.934-19.149C1083.93,173.128,1093.746,181.704,1093.746,192.277z"/><polygon style="fill:#F5CABD;" points="1024.208,245.255 1038.6,234.517 1009.813,234.517 "/><polygon style="fill:#F5CABD;" points="1028.365,237.254 1028.365,200.952 1038.639,234.499 "/><path d="M982.594,176.054c-5.927,0-11.14,2.554-14.376,6.444l20.33,3.819l-23.65,4.446c-0.018,0.277-0.095,0.54-0.095,0.828 c0,8.574,7.966,15.531,17.791,15.531s17.79-6.957,17.79-15.531C1000.384,183.011,992.419,176.054,982.594,176.054z"/><path d="M1068.963,176.054c-5.923,0-11.135,2.554-14.37,6.444l20.324,3.819l-23.645,4.446c-0.019,0.277-0.1,0.54-0.1,0.828 c0,8.574,7.965,15.531,17.79,15.531c9.832,0,17.799-6.957,17.799-15.531C1086.762,183.011,1078.795,176.054,1068.963,176.054z"/><path d="M963.408,174.314c0,0,3.44,6.129,14.177,5.645l-2.207,2.404C975.377,182.363,968.218,184.404,963.408,174.314z"/><path d="M1088.148,174.314c0,0-3.438,6.129-14.166,5.645l2.195,2.404C1076.178,182.363,1083.334,184.404,1088.148,174.314z"/><linearGradient id="SVGID_8_" gradientUnits="userSpaceOnUse" x1="1069.1016" y1="184.6619" x2="1069.1016" y2="225.045"><stop offset="0" style="stop-color:#FFFFFF"/><stop offset="1" style="stop-color:#231F20"/></linearGradient><path style="opacity:0.5;fill:url(#SVGID_8_);" d="M1053.455,192.992c0.484,6.914,7.291,12.409,15.644,12.409 c8.354,0,15.167-5.495,15.649-12.409c0,0-8.047-1.463-15.611-1.463C1061.578,191.529,1053.455,192.992,1053.455,192.992z"/><linearGradient id="SVGID_9_" gradientUnits="userSpaceOnUse" x1="982.7119" y1="184.6619" x2="982.7119" y2="225.045"><stop offset="0" style="stop-color:#FFFFFF"/><stop offset="1" style="stop-color:#231F20"/></linearGradient><path style="opacity:0.5;fill:url(#SVGID_9_);" d="M967.067,192.992c0.48,6.914,7.291,12.409,15.641,12.409 c8.353,0,15.164-5.495,15.649-12.409c0,0-8.049-1.463-15.608-1.463C975.186,191.529,967.067,192.992,967.067,192.992z"/><path style="fill:#F5CABD;" d="M1099.146,171.417v59.864c16.256-0.334,29.336-13.594,29.336-29.935 C1128.482,185.01,1115.402,171.751,1099.146,171.417z"/><linearGradient id="SVGID_10_" gradientUnits="userSpaceOnUse" x1="936.1398" y1="201.3486" x2="1114.4392" y2="201.3486"><stop offset="0" style="stop-color:#FBE6EF"/><stop offset="0.835" style="stop-color:#F7E2D8"/></linearGradient><path style="fill:url(#SVGID_10_);" d="M952.339,231.281v-59.864c-16.256,0.334-29.337,13.593-29.337,29.934 C923.002,217.687,936.083,230.947,952.339,231.281z"/><path style="fill:#993E21;" d="M971.574,112.14c0,0-74.572,161.535-9.337,187.556c0,0-110.947,13.82-38.029-184.64L971.574,112.14z "/><path style="fill:#993E21;" d="M1079.919,112.14c0,0,74.571,161.535,9.336,187.556c0,0,110.946,13.82,38.029-184.64 L1079.919,112.14z"/><path style="fill:#993E21;" d="M945.161,95.739c0,0,10.604,84.241,118.172,77.016c0,0-25.692-21.675-28.1-86.699L945.161,95.739z" /><path style="fill:#993E21;" d="M1011.644,105.678c0,0,8.903,51.628,81.322,64.625c0,0-4.332-38.374-32.188-68.084L1011.644,105.678 z"/><path style="fill:#993E21;" d="M1066.127,127.71c1.98,0.987,37.854,24.267,39.351,66.007l19.017-55.457l-9.989-33.011 l-41.778,4.981L1066.127,127.71z"/><path style="fill:#993E21;" d="M962.696,111.214c0,0-4.331,32.803,22.282,58.18c0,0-43.875,6.491-55.09-23.518l9.905-30.33 L962.696,111.214z"/><path style="fill:#993E21;" d="M952.649,147.926c0,0-13.476,64.885,19.964,105.812c0,0-49.056,1.414-46.365-81.143L952.649,147.926 z"/><path style="fill:#993E21;" d="M1098.842,147.926c0,0,13.476,64.885-19.967,105.812c0,0,49.054,1.414,46.362-81.143 L1098.842,147.926z"/><path style="fill:#EF4136;" d="M981.417,184.495c-18.5,0-34.515,3.07-34.515,11.832c0,8.764,16.015,19.902,34.515,19.902 c18.505,0,33.5-7.105,33.5-15.868C1014.917,191.6,999.922,184.495,981.417,184.495z M982.688,213.539 c-15.367,0-28.669-9.248-28.669-16.526c0-7.28,13.302-9.83,28.669-9.83s27.822,5.901,27.822,13.178 C1010.51,207.64,998.055,213.539,982.688,213.539z"/><path style="fill:#EF4136;" d="M1066.998,184.495c18.499,0,34.514,3.07,34.514,11.832c0,8.764-16.015,19.902-34.514,19.902 c-18.506,0-33.507-7.105-33.507-15.868C1033.491,191.6,1048.492,184.495,1066.998,184.495z M1065.727,213.539 c15.367,0,28.665-9.248,28.665-16.526c0-7.28-13.298-9.83-28.665-9.83c-15.362,0-27.822,5.901-27.822,13.178 C1037.904,207.64,1050.364,213.539,1065.727,213.539z"/><path style="fill:#EF4136;" d="M1012.407,202.216c3.504-1.006,7.521-1.585,11.802-1.585c4.284,0,8.296,0.579,11.8,1.585v-4.318 c-3.504-1.002-7.527-1.571-11.8-1.571c-4.276,0-8.298,0.569-11.802,1.571V202.216z"/><animateTransform id="upperBodyTrasnlateAnim" attributeName="transform" type="translate" calcMode="spline" keySplines="0.2 0.4 0.2 0.1; 0.3 0.6 0.9 1; 0 1 1 0" begin="0s" repeatCount="indefinite" from="0 0" to="0 0" dur="3.9s" keyTimes="0; 0.30; 0.60; 1" values="0 0; 0 15; 0 0; 0 0"/></g></svg> 