<?xml version="1.0" encoding="iso-8859-1"?><svg version="1.1" id="_x31_8-30_Retired" xmlns="http://www.w3.org/2000/svg" xmlns:xlink="http://www.w3.org/1999/xlink" x="0px" y="0px" viewBox="0 0 2048 1536" style="enable-background:new 0 0 2048 1536;" xml:space="preserve"><linearGradient id="SVGID_1_" gradientUnits="userSpaceOnUse" x1="925.1631" y1="1089.6566" x2="1017.9434" y2="1089.6566"><stop offset="0" style="stop-color:#FCE7F0"/><stop offset="0.835" style="stop-color:#F7E3D9"/></linearGradient><path style="fill:url(#SVGID_1_);" d="M1013.116,1358.31v-635.72c0,0-74.361-38.737-78.564-18.011 c-31.648,156.236,27.274,253.083,22.315,310.369c-4.968,57.284-15.929,110.604-13.291,152.376 c0.689,10.92,17.946,120.993,28.939,190.055c0.842,11.194,1.656,24.01,1.284,27.533c-0.693,6.604-10.773,54.566-10.773,54.566 l12.165,36.838l28.503,4.52l14.249-47.613L1013.116,1358.31z"/><path style="fill:#F5CABD;" d="M1013.116,1365.752V722.589c0,0-51.832-26.989-71.382-23.829 c22.867,2.608,57.918,45.354,57.918,45.354l5.707,621.637l4.826,74.912l-13.897,46.44l7.406,1.173l14.249-47.613L1013.116,1365.752z "/><path style="fill:#90420F;" d="M988.054,1476.849c-15.571-8.47-21.559-31.653-23.148-39.194 c-3.179,11.309-8.97,23.427-10.579,38.729c-0.456,4.314,3.247,22.252,6.025,25.391h52.384c8.348-4.066,11.128-19.826,11.128-19.826 l-6.915-58.322C1015.173,1439.063,1012.459,1464.76,988.054,1476.849z"/><linearGradient id="SVGID_2_" gradientUnits="userSpaceOnUse" x1="1034.2471" y1="1093.3778" x2="1127.0262" y2="1093.3778"><stop offset="0" style="stop-color:#FCE7F0"/><stop offset="0.835" style="stop-color:#F7E3D9"/></linearGradient><path style="fill:url(#SVGID_2_);" d="M1117.638,704.578c-4.203-20.726-78.564,18.011-78.564,18.011v643.163l-4.826,74.912 l14.248,47.613l28.503-4.52l12.166-36.838c0,0-10.081-47.963-10.774-54.566c-0.577-5.437,1.679-33.019,2.493-42.584 c11.002-69.249,27.064-171.918,27.73-182.446c2.637-41.771-8.323-95.092-13.291-152.376 C1090.363,957.661,1149.286,860.815,1117.638,704.578z"/><path style="fill:#F5CABD;" d="M1117.638,704.578c-1.243-6.132-8.648-7.036-18.433-5.302c2.67,0.891,4.474,2.565,5.031,5.302 c31.648,156.236-27.276,253.083-22.317,310.369c4.97,57.284,15.931,110.604,13.293,152.376 c-0.665,10.528-9.071,113.197-20.074,182.446c-0.813,9.565-3.069,37.147-2.494,42.584c0.695,6.604,3.118,54.566,3.118,54.566 l-12.165,36.838l-15.709,2.492l0.607,2.027l28.503-4.52l12.166-36.838c0,0-10.081-47.963-10.774-54.566 c-0.577-5.437,1.679-33.019,2.493-42.584c11.002-69.249,27.064-171.918,27.73-182.446c2.637-41.771-8.323-95.092-13.291-152.376 C1090.363,957.661,1149.286,860.815,1117.638,704.578z"/><path style="fill:#90420F;" d="M1064.136,1476.849c15.571-8.47,21.558-31.653,23.148-39.194c3.179,11.309,8.97,23.427,10.579,38.729 c0.456,4.314-3.247,22.252-6.025,25.391h-52.384c-8.348-4.066-11.128-19.826-11.128-19.826l6.915-58.322 C1037.017,1439.063,1039.73,1464.76,1064.136,1476.849z"/><g id="upper-body"><g id="left-arm"><path style="fill:#8C3E23;" d="M930,327c-0.21-0.841-0.475-1.681-0.774-2.513c-0.104,0.036-0.199,0.07-0.28,0.101 c-3.236,1.146-15.825,6.824-18.404,26.563c-1.837,14.061-8.79,135.747-14.263,176.886c-3.742,10.846-7.61,22.057-10.656,31.922 c-7.439,24.077-6.393,49.709-11.841,82.985c0,0,19.374,9.992,37.822,6.792c5.101-37.312,14.829-48.022,19.435-106.274 c4.67-24.435,10.051-55.781,14.75-83.841c-1.357-24.332-6.071-47.087-10.789-71.62C930,367,935,348,930,327z"/><path style="fill:#F7E3D9;" d="M868.685,700.083c0,0,3.07,66.531,16.029,82.96c11.988,15.2,33.171,38.017,48.968,28.326 c6.315-3.874-5.669-21.521-16.096-31.296c-9.753-9.133-11.223-19.817-11.841-30.314c-0.462-7.843,1.952-3.155,6.748,11.044 c4.854,14.373,24.652,14.616,20.064-8.084c-4.859-24.048-1.521-29.326-17.752-39.753c-9.299-5.973-10.483-9.904-10.203-17.832 L868.685,700.083z"/><path style="fill:#F7E3D9;" d="M882.464,587.156c-4.551,21.054-13.741,112.966-13.741,112.966l24.106,27.089 c6.347-19.979,10.926-15.96,11.726-31.677c0.719-14.22,11.471-87.243,13.216-98.908 C919.514,584.962,887.012,566.101,882.464,587.156z"/><path style="fill:#8C3E23;" d="M929.226,324.487c-0.104,0.036-0.199,0.07-0.28,0.101c-3.236,1.146-15.825,6.824-18.404,26.563 c-1.837,14.061-8.79,135.747-14.263,176.886c-3.742,10.846-7.61,22.057-10.656,31.922c-7.439,24.077-6.393,49.709-11.841,82.985 c0,0,19.374,9.992,37.822,6.792c5.101-37.312,14.829-48.022,19.435-106.274c4.67-24.435,10.051-55.781,14.75-83.841 C956.953,425.942,929.525,325.319,929.226,324.487z"/><path style="fill:#730F14;" d="M944.284,442.421c-0.239-2.05-0.493-4.095-0.768-6.135l-19.289,103.885 c0,0-12.929,79.282-21.568,110.153c2.955,0.079,5.968-0.069,8.963-0.588c5.102-37.312,14.825-48.019,19.432-106.272 c4.669-24.422,10.044-55.74,14.739-83.78c-0.262-4.72-0.652-9.381-1.143-14.006L944.284,442.421z"/><path style="fill:#C7CDD2;" d="M864.912,692.683c0.793-2.336,3.33-3.586,5.667-2.789c2.333,0.795,3.579,3.327,2.783,5.664 c-0.793,2.337-3.33,3.584-5.661,2.789C865.362,697.546,864.117,695.013,864.912,692.683z"/><path style="fill:#C7CDD2;" d="M872.592,691.952c0.786-2.329,3.327-3.583,5.655-2.789c2.336,0.799,3.584,3.332,2.792,5.666 c-0.799,2.336-3.33,3.583-5.663,2.784C873.034,696.819,871.788,694.284,872.592,691.952z"/><path style="fill:#C7CDD2;" d="M879.846,690.091c0.799-2.336,3.331-3.59,5.669-2.791c2.331,0.797,3.582,3.333,2.778,5.668 c-0.784,2.334-3.322,3.579-5.658,2.785C880.297,694.955,879.051,692.426,879.846,690.091z"/><path style="fill:#C7CDD2;" d="M887.175,687.69c0.79-2.329,3.327-3.581,5.663-2.781c2.337,0.794,3.579,3.326,2.789,5.663 c-0.8,2.336-3.332,3.58-5.669,2.788C887.622,692.561,886.38,690.027,887.175,687.69z"/><path style="fill:#C7CDD2;" d="M894.371,686.37c0.795-2.329,3.336-3.584,5.668-2.786c2.331,0.797,3.583,3.329,2.789,5.664 c-0.8,2.339-3.332,3.586-5.669,2.786C894.823,691.236,893.575,688.705,894.371,686.37z"/><path style="fill:#C7CDD2;" d="M901.227,683.379c0.795-2.333,3.333-3.586,5.66-2.794c2.34,0.802,3.582,3.334,2.787,5.67 c-0.79,2.337-3.325,3.586-5.658,2.786C901.681,688.245,900.435,685.713,901.227,683.379z"/><animateTransform id="leftArmRotateAnim" attributeName="transform" type="rotate" calcMode="spline" keySplines="0.2 0.4 0.2 0.1; 0.3 0.6 0.9 1; 0 1 1 0; 0.2 0.4 0.2 0.1; 0.3 0.6 0.9 1; 0 1 1 0" begin="0s" repeatCount="indefinite" from="1 925 350" to="1 925 350" dur="7.8s" keyTimes="0; 0.15; 0.30; 0.5; 0.65; 0.80; 1" values="1 925 350; -1 925 350; 0 925 350; 0 925 350; -1 925 350; 1 925 350; 1 925 350"/></g><g id="right-arm"><path style="fill:#F7E3D9;" d="M1183.328,700.083c0,0-3.07,66.531-16.029,82.96c-11.988,15.2-33.171,38.017-48.966,28.326 c-6.315-3.874,5.667-21.521,16.094-31.296c9.753-9.133,11.223-19.817,11.841-30.314c0.462-7.843-1.95-3.155-6.748,11.044 c-4.854,14.373-24.652,14.616-20.064-8.084c4.859-24.048,1.523-29.326,17.752-39.753c9.299-5.973,10.485-9.904,10.203-17.832 L1183.328,700.083z"/><path style="fill:#F7E3D9;" d="M1169.546,587.156c4.549,21.054,13.744,112.966,13.744,112.966l-24.104,27.089 c-6.349-19.979-10.928-15.96-11.728-31.677c-0.718-14.22-11.469-87.243-13.216-98.908 C1132.5,584.962,1164.996,566.101,1169.546,587.156z"/><path style="fill:#8C3E23;" d="M1166.385,559.959c-3.046-9.865-6.915-21.076-10.654-31.922 c-5.473-41.139-12.426-162.825-14.265-176.886c-2.525-19.323-14.634-25.168-18.179-26.481 c-10.361,17.012-26.208,98.792-17.229,133.99c4.738,28.302,10.189,60.089,14.91,84.801c4.608,58.253,14.337,68.962,19.438,106.274 c18.446,3.201,37.82-6.792,37.82-6.792C1172.777,609.668,1173.824,584.036,1166.385,559.959z"/><path style="fill:#730F14;" d="M1166.383,559.959c-3.046-9.865-6.914-21.076-10.656-31.919 c-5.473-41.139-12.426-162.828-14.263-176.889c-2.579-19.739-15.168-25.419-18.404-26.563c-0.104-0.041-0.267-0.094-0.41-0.144 c-3.696-1.113-22.347-4.856-32.79-7.178c-0.713,2.484-1.479,4.875-2.27,7.221c11.102,3.61,22.646,7.413,28.289,9.43 c12.73,4.545,13.642,10.913,17.277,25.461c3.637,14.549,12.73,169.146,12.73,169.146s20.918,54.562,21.826,95.483 c0.096,4.31,1.282,13.016,2.949,22.087c0.097-0.033,0.207-0.072,0.305-0.105c0.166-0.059,0.321-0.119,0.48-0.176 c0.541-0.2,1.067-0.398,1.554-0.588c0.1-0.04,0.202-0.079,0.297-0.116c3.079-1.219,4.926-2.166,4.926-2.166 C1172.775,609.669,1173.822,584.036,1166.383,559.959z"/><animateTransform id="rightArmRotateAnim" attributeName="transform" type="rotate" calcMode="spline" keySplines="0.2 0.4 0.2 0.1; 0.3 0.6 0.9 1; 0 1 1 0; 0.2 0.4 0.2 0.1; 0.3 0.6 0.9 1; 0 1 1 0" begin="0s" repeatCount="indefinite" from="-1 1123 350" to="-1 1123 350" dur="7.8s" keyTimes="0; 0.15; 0.30; 0.5; 0.65; 0.80; 1" values="-1 1123 350; 1 1123 350; 0 1123 350; 0 1123 350; 1 1123 350; -1 1123 350; -1 1123 350"/></g><polygon style="fill:#F9A74B;" points="1055.578,1027.656 1087.055,1023.428 1086.398,1019.192 1126.984,1009.268 1125.023,1001.417 1156.523,987.059 1153.121,979.825 1177.383,968.188 1125.143,657.101 926.87,657.101 874.63,968.188 898.886,979.825 895.483,987.059 926.985,1001.417 925.024,1009.268 965.611,1019.192 964.958,1023.428 996.435,1027.656 "/><path style="fill:#CE7C2C;" d="M1125.143,657.101h-78.779l-27.454,22.897c0,0,67.47,14.793,101.841-2.815l44.364,296.888 l12.269-5.882L1125.143,657.101z"/><polygon style="fill:#CE7C2C;" points="1086.398,1019.192 1082.534,842.867 1094.113,1017.326 "/><polygon style="fill:#CE7C2C;" points="1125.023,1001.417 1106.605,833.302 1132.201,998.176 "/><polygon style="fill:#CE7C2C;" points="1153.121,979.825 1127.247,820.793 1159.376,976.869 "/><polygon style="fill:#F7D4C1;" points="965.625,1019.192 969.489,842.867 957.91,1017.326 "/><polygon style="fill:#F7D4C1;" points="927.005,1001.417 945.412,833.302 919.828,998.176 "/><polygon style="fill:#F7D4C1;" points="898.902,979.825 924.776,820.793 892.643,976.869 "/><rect x="964.863" y="333.525" style="fill:#FFDE74;" width="122.283" height="318.798"/><path style="fill:#FFDE74;" d="M1113.078,644.763c0,12.667-38.982,22.937-87.074,22.937c-48.087,0-87.069-10.271-87.069-22.937 s38.982-22.937,87.069-22.937C1074.096,621.826,1113.078,632.096,1113.078,644.763z"/><linearGradient id="SVGID_3_" gradientUnits="userSpaceOnUse" x1="950.1572" y1="358.5406" x2="1101.8477" y2="358.5406"><stop offset="0" style="stop-color:#FCE7F0"/><stop offset="0.835" style="stop-color:#F7E3D9"/></linearGradient><path style="fill:url(#SVGID_3_);" d="M1025.984,313.468c-27.888,0-53.892,2.472-75.827,6.717 c9.36,28.29,39.587,83.428,75.847,83.428c36.26,0,66.486-55.13,75.844-83.419C1079.906,315.94,1053.894,313.468,1025.984,313.468z" /><linearGradient id="SVGID_4_" gradientUnits="userSpaceOnUse" x1="998.5967" y1="301.6223" x2="1053.418" y2="301.6223"><stop offset="0" style="stop-color:#FCE7F0"/><stop offset="0.835" style="stop-color:#F7E3D9"/></linearGradient><rect x="998.597" y="276.91" style="fill:url(#SVGID_4_);" width="54.821" height="49.424"/><path style="fill:#F5CABD;" d="M1089.272,322.921l1.994-4.431c-13.735-2.217-27.25-3.562-37.849-4.203v-24.935l-16.239,7.239 c0,0,12.316-1.54,11.394,21.856C1048.572,318.448,1076.957,320.457,1089.272,322.921z"/><path style="fill:none;stroke:#C7CDD2;stroke-linecap:round;stroke-miterlimit:10;" d="M1065.348,315.069 c0,17.071-17.617,30.911-39.344,30.911c-21.725,0-39.345-13.84-39.345-30.911"/><path style="fill:#C7CDD2;" d="M1028.74,353.123c0.024-1.755-1.113-7.707-2.599-7.678c-1.483,0.029-2.75,6.029-2.77,7.786 c-0.019,1.756,1.167,3.155,2.656,3.127C1027.509,356.326,1028.727,354.879,1028.74,353.123z"/><circle style="fill:#FFFFFF;" cx="1026" cy="353.579" r="3.369"/><path style="fill:#8C3E23;" d="M1123.286,324.67c-0.076-0.028-0.155-0.058-0.223-0.082c-2.827-1.086-20.095-5.352-33.145-7.496 c-18.093,63.42-63.896,81.61-63.896,81.61l-0.02,0.1l-0.02-0.1c0,0-45.801-18.189-63.896-81.61 c-12.679,2.082-29.332,6.168-32.863,7.395c0.299,0.832,5.405,114.456,16.563,135.133c0.085-0.507,0.171-1.02,0.255-1.524 l11.546,61.399c2.451,22.634,1.029,45.44-7.476,77.658c-9.409,35.637-16.221,61.034-16.535,62.624 c-0.089,0.418-0.146,0.84-0.146,1.265c0,10.699,32.91,19.675,92.551,22.211l0.02-0.224l0.02,0.224 c59.643-2.537,92.551-11.512,92.551-22.211c0-0.425-0.057-0.847-0.146-1.265c-0.314-1.59-7.125-26.987-16.533-62.624 c-8.505-32.217-9.928-55.023-7.478-77.658l11.546-61.399c0.031,0.187,0.063,0.377,0.095,0.564 C1125.47,436.893,1127.707,351.331,1123.286,324.67z"/><path style="fill:#730F14;" d="M943.565,436.021l-0.049,0.264c0.275,2.04,0.529,4.086,0.768,6.135L943.565,436.021z"/><path style="fill:#730F14;" d="M946.045,458.099l-1.395-12.421c0.491,4.625,0.88,9.286,1.143,14.006 c0.025-0.15,0.051-0.302,0.076-0.452C945.932,458.855,945.983,458.473,946.045,458.099z"/><path style="fill:#CE7C2C;" d="M1128.937,656.849"/><path style="fill:#8C3E23;" d="M1093.879,523.107c-2.185,22.432-2.859,53.222,7.848,74.045 c16.088,23.046,26.329,59.697,26.329,59.697s-14.626,25.621-89.206,25.756h-25.928c-74.581-0.135-89.206-25.756-89.206-25.756 s10.242-36.65,26.327-59.697c10.709-20.824,10.032-51.613,7.843-74.045C958.824,523.059,1093.879,523.107,1093.879,523.107z"/><path style="fill:#730F14;" d="M1128.056,656.849c0,0-10.128-36.227-26.055-59.295c-0.035-0.136-0.071-0.267-0.106-0.402 c-8.505-32.217-9.928-55.023-7.478-77.658l11.546-61.399v0.003l3.549-23.241c0,0-14.457,49.741-21.765,82.924 c-8.271,37.563,0.833,77.11,5.428,95.668c4.353,17.578,11.199,39.841,16.3,57.146 C1124.02,663.88,1128.056,656.849,1128.056,656.849z"/><path style="fill:#541900;" d="M965.618,203.564c0,0-4.354,56.817,5.977,84.547c0,0-45.384-0.85-42.741-81.855L965.618,203.564z"/><path style="fill:#541900;" d="M1091.036,203.564c0,0,4.349,56.817-5.981,84.547c0,0,45.389-0.85,42.746-81.855L1091.036,203.564z" /><path style="fill:#993E21;" d="M1138.637,151.711c-1.16,62.966-50.537,113.042-110.307,113.042 c-59.771,0-109.152-50.076-110.318-113.042c-1.189-64.32,48.195-117.485,110.318-117.485 C1090.45,34.226,1139.826,87.391,1138.637,151.711z"/><linearGradient id="SVGID_5_" gradientUnits="userSpaceOnUse" x1="940.087" y1="212.2166" x2="1115.6721" y2="212.2166"><stop offset="0" style="stop-color:#FBE6EF"/><stop offset="0.835" style="stop-color:#F7E2D8"/></linearGradient><path style="fill:url(#SVGID_5_);" d="M939.413,123.922l6.025,78.388c2.851,55.744,39.877,98.201,82.892,98.201 c43.003,0,80.033-42.457,82.889-98.201l6.021-78.388H939.413z"/><path style="fill:#F5CABD;" d="M1106.855,103.667l-8.457,98.643c-2.713,52.951-36.264,93.884-76.48,97.854 c2.118,0.209,4.256,0.348,6.412,0.348c43.003,0,80.033-42.457,82.889-98.201l8.458-98.643H1106.855z"/><path style="fill:#C5168C;" d="M1028.33,260.21c-9.043,0-17.391-2.704-24.154-7.272h-1.698 c6.377,6.496,15.639,11.351,25.895,11.351s19.432-4.854,25.805-11.351h-1.698C1045.715,257.507,1037.367,260.21,1028.33,260.21z"/><path style="fill:#C5168C;" d="M1005.118,253.961c0,0,4.288,3.684,17.071,3.503l8.267,3.684l-11.882-0.552 C1018.574,260.596,1008.036,257.279,1005.118,253.961z"/><path style="fill:#C5168C;" d="M1051.534,253.961c0,0-4.288,3.684-17.065,3.503l-8.271,3.684l11.882-0.552 C1038.08,260.596,1048.623,257.279,1051.534,253.961z"/><path style="fill:#FFFFFF;" d="M1004.724,185.491c0,10.704-9.934,19.375-22.191,19.375c-12.255,0-22.193-8.671-22.193-19.375 c0-10.699,9.938-19.375,22.193-19.375C994.79,166.116,1004.724,174.792,1004.724,185.491z"/><path style="fill:#FFFFFF;" d="M1097.133,185.491c0,10.704-9.933,19.375-22.193,19.375c-12.255,0-22.19-8.671-22.19-19.375 c0-10.699,9.936-19.375,22.19-19.375C1087.2,166.116,1097.133,174.792,1097.133,185.491z"/><polygon style="fill:#F5CABD;" points="1026.772,239.094 1041.336,228.228 1012.209,228.228 "/><polygon style="fill:#F5CABD;" points="1030.98,230.999 1030.98,194.267 1041.375,228.21 "/><path d="M984.669,169.077c-5.997,0-11.271,2.584-14.544,6.52l20.569,3.865l-23.93,4.497c-0.02,0.28-0.096,0.547-0.096,0.838 c0,8.675,8.058,15.714,18,15.714c9.941,0,17.999-7.038,17.999-15.714C1002.668,176.115,994.61,169.077,984.669,169.077z"/><path d="M1072.057,169.077c-5.992,0-11.264,2.584-14.539,6.52l20.564,3.865l-23.925,4.497c-0.02,0.28-0.1,0.547-0.1,0.838 c0,8.675,8.058,15.714,17.999,15.714c9.946,0,18.01-7.038,18.01-15.714C1090.066,176.115,1082.003,169.077,1072.057,169.077z"/><path d="M965.257,167.316c0,0,3.478,6.201,14.343,5.711l-2.231,2.432C977.368,175.459,970.125,177.525,965.257,167.316z"/><path d="M1091.469,167.316c0,0-3.479,6.201-14.334,5.711l2.223,2.432C1079.357,175.459,1086.596,177.525,1091.469,167.316z"/><linearGradient id="SVGID_6_" gradientUnits="userSpaceOnUse" x1="1072.1948" y1="177.7868" x2="1072.1948" y2="218.6444"><stop offset="0" style="stop-color:#FFFFFF"/><stop offset="1" style="stop-color:#231F20"/></linearGradient><path style="opacity:0.5;fill:url(#SVGID_6_);" d="M1056.366,186.215c0.483,6.996,7.376,12.555,15.823,12.555 c8.452,0,15.345-5.559,15.834-12.555c0,0-8.144-1.48-15.79-1.48C1064.579,184.735,1056.366,186.215,1056.366,186.215z"/><linearGradient id="SVGID_7_" gradientUnits="userSpaceOnUse" x1="984.7856" y1="177.7868" x2="984.7856" y2="218.6444"><stop offset="0" style="stop-color:#FFFFFF"/><stop offset="1" style="stop-color:#231F20"/></linearGradient><path style="opacity:0.5;fill:url(#SVGID_7_);" d="M968.954,186.215c0.489,6.996,7.376,12.555,15.829,12.555 c8.452,0,15.343-5.559,15.834-12.555c0,0-8.144-1.48-15.796-1.48C977.173,184.735,968.954,186.215,968.954,186.215z"/><path style="fill:#F5CABD;" d="M1102.596,164.385v60.57c16.448-0.338,29.684-13.754,29.684-30.287 C1132.279,178.138,1119.044,164.723,1102.596,164.385z"/><linearGradient id="SVGID_8_" gradientUnits="userSpaceOnUse" x1="937.6667" y1="194.6697" x2="1118.0604" y2="194.6697"><stop offset="0" style="stop-color:#FBE6EF"/><stop offset="0.835" style="stop-color:#F7E2D8"/></linearGradient><path style="fill:url(#SVGID_8_);" d="M954.057,224.955v-60.57c-16.446,0.338-29.682,13.753-29.682,30.287 C924.375,211.2,937.61,224.616,954.057,224.955z"/><path style="fill:#993E21;" d="M973.514,104.409c0,0-75.447,163.439-9.443,189.768c0,0-112.254,13.982-38.483-186.816 L973.514,104.409z"/><path style="fill:#993E21;" d="M1083.141,104.409c0,0,75.452,163.439,9.441,189.768c0,0,112.261,13.982,38.482-186.816 L1083.141,104.409z"/><path style="fill:#993E21;" d="M946.795,87.814c0,0,10.722,85.234,119.56,77.924c0,0-25.99-21.93-28.426-87.721L946.795,87.814z"/><path style="fill:#993E21;" d="M1014.057,97.87c0,0,9.014,52.237,82.286,65.387c0,0-4.388-38.825-32.567-68.887L1014.057,97.87z"/><path style="fill:#993E21;" d="M1069.188,120.163c2.002,1,38.301,24.553,39.814,66.785l19.241-56.111l-10.109-33.399l-42.274,5.04 L1069.188,120.163z"/><path style="fill:#993E21;" d="M964.533,103.472c0,0-4.385,33.19,22.544,58.867c0,0-44.395,6.567-55.735-23.796l10.019-30.687 L964.533,103.472z"/><path style="fill:#993E21;" d="M954.366,140.617c0,0-13.636,65.651,20.202,107.06c0,0-49.633,1.43-46.91-82.101L954.366,140.617z" /><path style="fill:#993E21;" d="M1102.282,140.617c0,0,13.634,65.651-20.198,107.06c0,0,49.633,1.43,46.912-82.101L1102.282,140.617 z"/><animateTransform id="upperBodyTrasnlateAnim" attributeName="transform" type="translate" calcMode="spline" keySplines="0.2 0.4 0.2 0.1; 0.3 0.6 0.9 1; 0 1 1 0" begin="0s" repeatCount="indefinite" from="0 0" to="0 0" dur="3.9s" keyTimes="0; 0.30; 0.60; 1" values="0 0; 0 15; 0 0; 0 0"/></g></svg> 