<?xml version="1.0" encoding="utf-8"?><svg version="1.1" id="woman" xmlns="http://www.w3.org/2000/svg" xmlns:xlink="http://www.w3.org/1999/xlink" x="0px" y="0px" viewBox="0 0 2048 1536" enable-background="new 0 0 2048 1536" xml:space="preserve"><g id="lower-body"><g id="left-leg_1_"><path id="left-feet" fill="#F7E3D9" d="M908.4,1345.1c0,0-5.8,38.9-8.1,45.4c-2.2,6.5-23.6,54-23.6,54l3.3,36.5l27.1,4.5 l25.4-47.1l15.9-90.8L908.4,1345.1z"/><path id="left-thigh" fill="#F7E3D9" d="M955.4,686.6c0,0-29.9,16.3-28.2,57.3c4.2,102.7,26.2,231.8,39.7,291.3 c1.5,6.8-1.8,11.6-2,14.3c18.2,68.7,38.9,53.5,49.8,23.3c10.9-30.2,8.9-340.9,1.7-368.3L955.4,686.6z"/><path id="left-leg" fill="#F7E3D9" d="M977.7,1009.3c0,0-13.8,44.6-20.5,60.3c-6.7,15.8-28,63.6-34,93.6 c-6,30.1-15.5,215.2-17.8,225.7c3.8,1.9,35.7-4.9,36.8-8.2c1.2-3.3,23.1-125.1,38.6-177.5c15.5-52.4,35.4-140.2,46.2-181.4 L977.7,1009.3z"/><path id="left-legline" fill="#F5CABD" d="M1014,1074.4c0.2-0.5,0.4-1,0.6-1.6c0.6-1.8,1.2-4.6,1.8-8.3c4-16.6,7.7-31.4,10.6-42.7 l-7.1-1.8c1.8-39.1,2.5-93.9,2.3-147l-18,56c0,0-33,56.8-32.5,91.6c15.1,10.1,35.2,18.5,34.9,23c-1.2,18.1-32.6,142.3-39.8,164 c-7.2,21.7-32.6,156.7-35,188.1c-2.2,28.3-20.1,70.3-35,88l10.4,1.7l25.4-47.1l12.1-69.1c6.3-32.1,23.4-122.7,36.2-166 C991.3,1168,1003.7,1116.7,1014,1074.4z"/></g><g id="right-leg_1_"><path id="right-feet" fill="#F7E3D9" d="M1107.4,1344.3c0,0,1.2,39.1,2.7,45.6c1.5,6.6,17.1,54.3,17.1,54.3l-7.7,36.6l-27.7,4.5 l-19.7-47.4l-5-91.3L1107.4,1344.3z"/><path id="right-thigh" fill="#F7E3D9" d="M1094.4,683.3c0,0,29.9,16.3,28.2,57.3c-4.1,101.3-25.6,228.3-39.1,288.9 c-0.4,3.1,1,8.8,3.1,18c-18.2,68.7-39,73.5-49.8,43.3c-10.9-30.2-10.5-362.2-3.2-389.7L1094.4,683.3z"/><path id="right-leg" fill="#F7E3D9" d="M1078.2,1006.9c0,0,8.5,44.8,13.3,60.6c4.8,15.8,20.4,63.9,22.8,94.1 c2.4,30.2-10.2,216.3-9.2,226.8c-4.1,1.9-35.1-4.9-35.9-8.3c-0.8-3.3-8.1-125.7-17.4-178.4c-9.3-52.7-11.5-80.6-17.4-122 L1078.2,1006.9z"/><path id="right-legline" fill="#F5CABD" d="M1112.5,856.9l-17.8,29.1l-66.8,133.5l41.5,13.6c0,0,31.3,110.9,31.3,127.8 c0,16.9-9.6,214.6-2.4,232.7c4.9,12.3,18.3,44.2,26.2,63.3l2.7-12.7c0,0-15.7-47.7-17.1-54.3c-1.5-6.6-2.7-45.6-2.7-45.6l-0.5,0 c3.2-59.8,9.1-161.1,7.4-182.7c-2.4-30.2-18-78.2-22.8-94.1c-1.4-4.7-3.2-12-4.9-19.9c0,0,0-0.1,0-0.1c-2-9.2-3.5-14.9-3.1-18 C1092.1,991,1103.9,925.5,1112.5,856.9z"/></g><g id="dress_1_"><polygon id="dress" fill="#D65336" points="1059.2,1029.5 1092.5,1025.4 1091.8,1021.2 1134.8,1011.3 1132.7,1003.6 1166.1,989.4 1162.5,982.2 1188.1,970.7 1132.8,662.8 922.9,662.8 867.6,970.7 893.3,982.2 889.7,989.4 923.1,1003.6 921,1011.3 963.9,1021.2 963.3,1025.4 996.6,1029.5"/><path id="dress-shadow" fill="#AA3A25" d="M1132.8,662.8h-83.4l-29.1,22.7c0,0,71.4,14.6,107.8-2.8l47,293.8l13-5.8L1132.8,662.8z"/><g id="right-dressline"><polygon fill="#AA3A25" points="1091.8,1021.2 1087.7,846.7 1100,1019.3"/><polygon fill="#AA3A25" points="1132.7,1003.6 1113.2,837.2 1140.3,1000.4"/><polygon fill="#AA3A25" points="1162.5,982.2 1135.1,824.8 1169.1,979.3"/></g><g id="left-dressline"><polygon fill="#E69D7C" points="964,1021.2 968.1,846.7 955.8,1019.3"/><polygon fill="#E69D7C" points="923.1,1003.6 942.6,837.2 915.5,1000.4"/><polygon fill="#E69D7C" points="893.3,982.2 920.7,824.8 886.7,979.3"/></g><animateTransform id="dressTrasnlateAnim1" attributeName="transform" type="translate" calcMode="spline" keySplines="0.2 0.4 0.2 0.1; 0.3 0.6 0.9 1; 0 1 1 0" begin="0s" repeatCount="indefinite" from="0 0" to="0 0" dur="3.3s" keyTimes="0; 0.30; 0.60; 1" values="0 0; 0 20; 0 0; 0 0"/></g><g id="shoes"><path id="left-shoe" fill="#4E2508" d="M894.5,1474.1c-13.4-8.4-13.8-31.3-13.6-38.8c-5.8,11.2-14.4,23.2-19.6,38.3 c-1.5,4.3-2.1,22,0,25.1H913c9.2-4,15.7-19.6,15.7-19.6l6.9-57.7C930.2,1436.7,921.5,1462.1,894.5,1474.1z"/><path id="right-shoe" fill="#4E2508" d="M1105.9,1474c14.4-8.4,17.6-31.5,18.3-39c4.5,11.2,11.6,23.3,15.1,38.5 c1,4.3-0.6,22.1-3,25.3h-51.8c-8.7-4-13.4-19.7-13.4-19.7l-0.1-58C1074.6,1436.4,1080.3,1462,1105.9,1474z"/></g></g><g id="upper-body"><path id="back-hair" fill="#321000" d="M944.1,245.3l5.8,90.5l57.7,9.5l79.4-10.1c0,0,18-15.3,21.2-20.1 c3.2-4.8,7.4-104.8,7.4-104.8l-115.4-2.1L944.1,245.3z"/><g id="left-hand_1_"><path id="left-arm" fill="#CC642A" d="M894.5,553c17.2-42,42.1-112.9,51.8-143.1l-8-78.1c0,0-17,2.7-23.9,23.4 c-4.7,14-36.2,135.8-42.5,154.8L894.5,553z"/><path id="left-hand" fill="#CC642A" d="M893.6,514l-19.7,29.1c2.7,6.6,7.8,16,15.5,28.8c12.9,21.3,51.9,58.2,72.9,84.1 c0,0,19.1-6.9,28.8-22.7C964.4,602.1,943,561.5,893.6,514z"/><path id="left-hand-shadow" fill="#B0412E" d="M958,589.4c-14-19.3-30.2-40.6-52.7-63.8c13.6-35.5,28.7-78.5,37.5-105l-2.5-23.3 l-42.8,132l57.9,68.1C956.4,594.9,957.2,592.2,958,589.4z"/><path id="left-elbow" fill="#CC642A" d="M871.9,509.8c0,0-6.8,17.9,4.5,38.3l17-14.6l-16.1-21.9L871.9,509.8z"/><animateTransform id="left-handRotateAnim1" attributeName="transform" type="rotate" calcMode="spline" keySplines="0.2 0.4 0.2 0.1; 0.3 0.6 0.9 1; 0 1 1 0; 0.2 0.4 0.2 0.1; 0.3 0.6 0.9 1; 0 1 1 0" begin="0s" repeatCount="indefinite" from="3.5 925 350" to="3.5 925 350" dur="6.6s" keyTimes="0; 0.15; 0.30; 0.5; 0.65; 0.80; 1" values="3.5 925 350; -3.5 925 350; 0 925 350; 0 925 350; -3.5 925 350; 3.5 925 350; 3.5 925 350"/></g><g id="right-hand_1_"><path id="right-hand" fill="#CC642A" d="M1162.1,514l19.7,29.1c-2.7,6.6-7.8,16-15.5,28.8c-12.9,21.3-51.9,58.2-73,84.1 c0,0-19.1-6.9-28.8-22.7C1091.3,602.1,1112.7,561.5,1162.1,514z"/><path id="right-arm" fill="#CC642A" d="M1161.3,553c-17.2-42-42.1-112.9-51.8-143.1l8-78.1c0,0,17,2.7,23.9,23.4 c4.7,14,36.2,135.8,42.5,154.8L1161.3,553z"/><path id="right-elbow" fill="#CC642A" d="M1183.9,509.8c0,0,6.8,17.9-4.5,38.3l-17-14.6l16.1-21.9L1183.9,509.8z"/><path id="right-hand-shadow" fill="#B0412E" d="M1184,510L1184,510c-6.3-19-37.8-140.7-42.5-154.8c-1.7-5.1-4-9-6.5-12.2 l-4.2,10.9l42.6,160.4c0,0,5.8,17.8-8.8,42c-4.9,8.1-36.9,46.5-50.9,63.2c1.6,2.8,3.1,5.6,4.6,8.4c18.9-20.3,39.3-41.7,48-56 c7.8-12.8,12.9-22.2,15.5-28.8l-0.1-0.1C1189,526.2,1184.6,512,1184,510z"/><animateTransform id="right-handRotateAnim1" attributeName="transform" type="rotate" calcMode="spline" keySplines="0.2 0.4 0.2 0.1; 0.3 0.6 0.9 1; 0 1 1 0; 0.2 0.4 0.2 0.1; 0.3 0.6 0.9 1; 0 1 1 0" begin="0s" repeatCount="indefinite" from="-3.5 1123 350" to="-3.5 1123 350" dur="6.6s" keyTimes="0; 0.15; 0.30; 0.5; 0.65; 0.80; 1" values="-3.5 1123 350; 3.5 1123 350; 0 1123 350; 0 1123 350; 3.5 1123 350; -3.5 1123 350; -3.5 1123 350"/></g><g id="vest_1_"><path id="vest" fill="#FFDE74" d="M960.4,355.5l-3.2,148.1c1,10.5,12.3,67.5-4.4,99.9c-15.9,22.8-30.9,59.1-30.9,59.1 s19.4,25.5,93.7,25.5h25.4c74.3,0,93.7-25.5,93.7-25.5s-15-36.3-30.9-59.1c-16.7-32.5-5.4-89.4-4.4-99.9l-2.1-148.1H960.4z"/><path id="vest-shadow" fill="#F9A74B" d="M1097,520.6l-7,4.9c0,0-7.1,50.6,1.9,71.9c6.9,16.4,23.1,56.9,30.2,74.7 c9.2-5.1,12.5-9.5,12.5-9.5s-15-36.3-30.9-59.1C1091.5,579.7,1094.2,542.8,1097,520.6z"/></g><g id="neck_x2B_shoulder"><linearGradient id="shoulder_1_" gradientUnits="userSpaceOnUse" x1="959.6226" y1="359.748" x2="1096.1465" y2="359.748"><stop offset="0" style="stop-color:#FCE7F0"/><stop offset="0.835" style="stop-color:#F7E3D9"/></linearGradient><path id="shoulder" fill="url(#shoulder_1_)" d="M1027.9,322.7c-25.1,0-48.5,2-68.2,5.5c8.4,23.2,35.6,68.5,68.3,68.5 s59.8-45.3,68.3-68.5C1076.4,324.8,1053,322.7,1027.9,322.7z"/><g id="neck_1_"><linearGradient id="neck_2_" gradientUnits="userSpaceOnUse" x1="1000.7549" y1="315.5017" x2="1055.0098" y2="315.5017"><stop offset="0" style="stop-color:#FCE7F0"/><stop offset="0.835" style="stop-color:#F7E3D9"/></linearGradient><rect id="neck" x="1000.8" y="286.6" fill="url(#neck_2_)" width="54.3" height="57.9"/><path id="neck-shadow" fill="#F5CABD" d="M1085.9,331l-1-4.5c-9.4-1.3-19.3-2.3-29.8-2.9v-24.7l-16.1,7.2c0,0,12.2-1.5,11.3,21.6 C1050.2,327.7,1073.7,328.6,1085.9,331z"/></g><g id="choker"><path fill="none" stroke="#C7CDD2" stroke-width="2.4115" stroke-linecap="round" stroke-miterlimit="10" d="M1066.8,324.3 c0,16.9-17.4,30.6-38.9,30.6c-21.5,0-38.9-13.7-38.9-30.6"/><g><path fill="#C7CDD2" d="M1030.6,362c0-1.7-1.1-7.6-2.6-7.6c-1.5,0-2.7,6-2.7,7.7c0,1.7,1.2,3.1,2.6,3.1 C1029.4,365.2,1030.6,363.7,1030.6,362z"/><circle fill="#FFFFFF" cx="1027.9" cy="362.4" r="3.3"/></g></g></g><g id="jacket"><g id="left-jacket_1_"><path id="left-jacket" fill="#CC642A" d="M933,333.6c0,0,7.4-4.2,42.7-7.8c0,0-0.7,25.7,23.5,32.2l3.3,168.7l-45.7,0.4 l-15.2-98.3l-10.2-89.1L933,333.6z"/><polygon id="left-jacket-shadow" fill="#B0412E" points="1002.6,526.6 999.2,358 999.2,358 991.3,526.7"/></g><g id="right-jacket_1_"><path id="right-jacket" fill="#CC642A" d="M1122.7,333.6c0,0-7.4-4.2-42.7-7.8c0,0,0.7,25.7-23.5,32.2l-3.3,168.7l45.7,0.4 l15.2-98.3l10.2-89.1L1122.7,333.6z"/><path id="shoulder-shadow" fill="#B0412E" d="M1079.8,330c6.1,0.6,32.2,3.6,44.5,8.4c6.8,2.7,11.3,9.1,14,13.9 c0,0,0.7-0.5,1.6-1.2c-7-15.6-19.9-18.9-22-19.3c-0.9-0.3-2-0.5-3.3-0.9c-6.1-1.4-15.3-3.1-28.9-4.6c-0.1,0-0.3,0-0.4-0.1 c-1.7-0.2-3.4-0.4-5.2-0.6C1080.1,325.8,1080.1,327.5,1079.8,330z"/><polygon id="right-jacket-shadow" fill="#B0412E" points="1112.9,436.1 1114.4,425.5 1116.6,406.8 1086.6,526.9 1098.9,527"/></g></g><animateTransform id="upperbodyTrasnlateAnim1" attributeName="transform" type="translate" calcMode="spline" keySplines="0.2 0.4 0.2 0.1; 0.3 0.6 0.9 1; 0 1 1 0" begin="0s" repeatCount="indefinite" from="0 0" to="0 0" dur="3.3s" keyTimes="0; 0.30; 0.60; 1" values="0 0; 0 25; 0 0; 0 0"/></g><g id="head"><linearGradient id="face_1_" gradientUnits="userSpaceOnUse" x1="937.4766" y1="210.2957" x2="1118.292" y2="210.2957"><stop offset="0" style="stop-color:#FCE7F0"/><stop offset="0.835" style="stop-color:#F7E3D9"/></linearGradient><path id="face" fill="url(#face_1_)" d="M937.5,112.9l8.4,97.5c2.8,55.2,39.5,97.2,82,97.2c42.6,0,79.2-42,82-97.2l8.4-97.5H937.5z"/><path id="face-shadow" fill="#F5CABD" d="M1105.6,112.8l-8.4,97.6c-2.7,52.4-35.9,92.9-75.7,96.8c2.1,0.2,4.2,0.3,6.3,0.3 c42.6,0,79.2-42,82-97.2l8.4-97.6H1105.6z"/><g id="mouth"><path fill="#9A3C0A" d="M1027.9,267.8c-9,0-17.2-2.7-23.9-7.2h-1.7c6.3,6.4,15.5,11.2,25.6,11.2c10.2,0,19.2-4.8,25.5-11.2h-1.7 C1045.1,265.1,1036.8,267.8,1027.9,267.8z"/><path fill="#9A3C0A" d="M1004.9,261.6c0,0,4.2,3.6,16.9,3.5l8.2,3.6l-11.8-0.5C1018.2,268.1,1007.8,264.9,1004.9,261.6z"/><path fill="#9A3C0A" d="M1050.9,261.6c0,0-4.2,3.6-16.9,3.5l-8.2,3.6l11.8-0.5C1037.5,268.1,1048,264.9,1050.9,261.6z"/></g><g id="nose"><polygon fill="#F5CABD" points="1026.3,246.9 1040.8,236.1 1011.9,236.1"/><polygon fill="#F5CABD" points="1030.5,238.9 1030.5,202.5 1040.8,236.1"/></g><g id="eyes"><g id="right-eye"><path fill="#FFFFFF" d="M1096,193.8c0,10.6-9.8,19.2-22,19.2c-12.1,0-22-8.6-22-19.2c0-10.6,9.8-19.2,22-19.2 C1086.1,174.6,1096,183.2,1096,193.8z"/><path d="M1071.2,177.6c-5.9,0-11.1,2.6-14.4,6.5l20.4,3.8l-23.7,4.4c0,0.3-0.1,0.5-0.1,0.8c0,8.6,8,15.6,17.8,15.6 c9.8,0,17.8-7,17.8-15.6C1089,184.5,1081,177.6,1071.2,177.6z"/><path d="M1090.4,175.8c0,0-3.4,6.1-14.2,5.7l2.2,2.4C1078.4,183.9,1085.5,185.9,1090.4,175.8z"/><linearGradient id="SVGID_1_" gradientUnits="userSpaceOnUse" x1="1071.2988" y1="186.1973" x2="1071.2988" y2="226.6331"><stop offset="0" style="stop-color:#FFFFFF"/><stop offset="1" style="stop-color:#231F20"/></linearGradient><path opacity="0.5" fill="url(#SVGID_1_)" d="M1055.6,194.5c0.5,6.9,7.3,12.4,15.7,12.4s15.2-5.5,15.7-12.4c0,0-8.1-1.5-15.6-1.5 C1063.8,193.1,1055.6,194.5,1055.6,194.5z"/></g><g id="left-eye"><path fill="#FFFFFF" d="M1004.5,193.8c0,10.6-9.8,19.2-22,19.2c-12.1,0-22-8.6-22-19.2c0-10.6,9.8-19.2,22-19.2 C994.7,174.6,1004.5,183.2,1004.5,193.8z"/><path d="M984.7,177.6c-5.9,0-11.2,2.6-14.4,6.5l20.4,3.8l-23.7,4.4c0,0.3-0.1,0.5-0.1,0.8c0,8.6,8,15.6,17.8,15.6 c9.8,0,17.8-7,17.8-15.6C1002.5,184.5,994.5,177.6,984.7,177.6z"/><path d="M965.5,175.8c0,0,3.4,6.1,14.2,5.7l-2.2,2.4C977.4,183.9,970.3,185.9,965.5,175.8z"/><linearGradient id="SVGID_2_" gradientUnits="userSpaceOnUse" x1="984.7927" y1="186.1973" x2="984.7927" y2="226.6331"><stop offset="0" style="stop-color:#FFFFFF"/><stop offset="1" style="stop-color:#231F20"/></linearGradient><path opacity="0.5" fill="url(#SVGID_2_)" d="M969.1,194.5c0.5,6.9,7.3,12.4,15.7,12.4c8.4,0,15.2-5.5,15.7-12.4 c0,0-8.1-1.5-15.6-1.5C977.3,193.1,969.1,194.5,969.1,194.5z"/></g></g><g id="hair_1_"><path id="hair" fill="#74301E" d="M1099.9,61.1c-33.2-25.3-67.4-17.8-82.2-12.6c-19,0.8-57.3,7-76.2,43 c-25.7,48.9-74.4,212.7-3.5,266.7c0-1.2-14.7-24.6-8.6-45.3c9.6,41.9,49.7,44.1,49.7,44.1c-27-21-35.4-78.5-29-105.8 c26.4-113.4,56.7-132.8,91.7-136.4c23-2.4,32.3,19.6,32.3,19.6c0-0.1,0-0.2-0.1-0.3l0.1,0.3c26.4,6.1,32.8,37.2,32.8,37.2 l5.9,27.6l-5.9,19.2c10.6,106.8-28.6,119.5-28.6,119.5c26.8-1.4,37.8-20.1,37.8-20.1c2.1,18.5-21.6,34.8-21.6,34.8 c32.9-8.4,42-41.3,42-41.3c3,24.8-14,39.6-14,39.6C1204.1,329.9,1149.4,98.8,1099.9,61.1z"/><path fill="#4C2D24" d="M1141.8,167c20.8,75.7,22,157.3-11.9,181.2c70.7-33,17.9-250.6-30-287.2c-15.3-11.7-30.9-16.4-44.6-17.5 C1074.5,52.9,1112,58.6,1141.8,167z"/></g><path id="ear" fill="#F5CABD" d="M1101.2,172.9v59.9c16.3-0.3,29.4-13.6,29.4-30C1130.6,186.5,1117.5,173.3,1101.2,172.9z"/><g id="ear-ring"><path fill="#C7CDD2" d="M1126.6,227.8c-0.4-2.6-3.4-11.3-5.6-10.9c-2.2,0.4-2.8,9.6-2.4,12.2c0.4,2.6,2.4,4.4,4.7,4.1 C1125.5,232.8,1127,230.4,1126.6,227.8z"/><path fill="#FFFFFF" d="M1117.5,228.7c0.2-2.8,2.6-4.9,5.4-4.7c2.8,0.2,4.9,2.6,4.7,5.4c-0.2,2.8-2.6,4.9-5.4,4.7 C1119.5,233.9,1117.4,231.5,1117.5,228.7z"/></g><g id="bangs"><path fill="#74301E" d="M1025,116.4c0,0,25-1.4,38.4,13.3c0,0-7.7-17-22-18.8L1025,116.4z"/><path fill="#74301E" d="M1109.9,166c0,0-12-15-21.2-15.8c3.5,2.4,17.8,13.1,18.8,35.3c0.3,6.9,0.6,16.3,4.5,22.3 c0,0-0.2-23.3,3.3-34.4L1109.9,166z"/><path fill="#4C2D24" d="M968.6,155.5c0,0,35.7-49.9,77.3-31.9C1045.9,123.6,1017.5,83.5,968.6,155.5z"/></g><animateTransform id="headTrasnlateAnim1" attributeName="transform" type="translate" calcMode="spline" keySplines="0.2 0.4 0.2 0.1; 0.3 0.6 0.9 1; 0 1 1 0" begin="0s" repeatCount="indefinite" from="0 0" to="0 0" dur="3.3s" keyTimes="0; 0.30; 0.60; 1" values="0 0; 0 25; 0 0; 0 0"/></g></svg>