<?xml version="1.0" encoding="iso-8859-1"?><svg version="1.1" id="_x31_8-30_Civil_Servant" xmlns="http://www.w3.org/2000/svg" xmlns:xlink="http://www.w3.org/1999/xlink" x="0px" y="0px" viewBox="0 0 2048 1536" style="enable-background:new 0 0 2048 1536;" xml:space="preserve"><linearGradient id="SVGID_1_" gradientUnits="userSpaceOnUse" x1="925.6994" y1="1088.4281" x2="1018.125" y2="1088.4281"><stop offset="0" style="stop-color:#FCE7F0"/><stop offset="0.835" style="stop-color:#F7E3D9"/></linearGradient><path style="fill:url(#SVGID_1_);" d="M1013.316,1356.056V722.763c0,0-74.077-38.59-78.264-17.943 c-31.528,155.641,27.171,252.118,22.231,309.185c-4.949,57.065-15.868,110.184-13.242,151.795 c0.688,10.879,17.879,120.531,28.831,189.33c0.839,11.151,1.649,23.918,1.279,27.427c-0.692,6.579-10.732,54.358-10.732,54.358 l12.117,36.697l28.395,4.502l14.195-47.432L1013.316,1356.056z"/><path style="fill:#F5CABD;" d="M1013.316,1363.471V722.763c0,0-51.633-26.886-71.11-23.738 c22.781,2.598,57.698,45.182,57.698,45.182l5.685,619.265l4.808,74.626l-13.844,46.263l7.377,1.169l14.195-47.432L1013.316,1363.471 z"/><path style="fill:#CE451D;" d="M988.352,1474.143c-15.513-8.437-21.477-31.531-23.062-39.045 c-3.167,11.266-8.936,23.339-10.539,38.584c-0.454,4.297,3.235,22.166,6.002,25.292h52.185c8.315-4.052,11.085-19.751,11.085-19.751 l-6.89-58.1C1015.365,1436.502,1012.662,1462.101,988.352,1474.143z"/><linearGradient id="SVGID_2_" gradientUnits="userSpaceOnUse" x1="1034.3672" y1="1092.1356" x2="1126.7913" y2="1092.1356"><stop offset="0" style="stop-color:#FCE7F0"/><stop offset="0.835" style="stop-color:#F7E3D9"/></linearGradient><path style="fill:url(#SVGID_2_);" d="M1117.438,704.819c-4.185-20.646-78.264,17.943-78.264,17.943v640.708l-4.808,74.626 l14.193,47.432l28.395-4.502l12.119-36.698c0,0-10.042-47.778-10.734-54.357c-0.573-5.417,1.674-32.893,2.484-42.422 c10.961-68.984,26.963-171.263,27.625-181.75c2.627-41.611-8.291-94.729-13.241-151.795 C1090.27,956.938,1148.966,860.46,1117.438,704.819z"/><path style="fill:#F5CABD;" d="M1117.438,704.819c-1.237-6.108-8.614-7.009-18.361-5.281c2.66,0.887,4.457,2.557,5.011,5.281 c31.527,155.641-27.17,252.118-22.23,309.185c4.95,57.065,15.869,110.184,13.241,151.795c-0.662,10.487-9.036,112.766-19.997,181.75 c-0.811,9.529-3.059,37.005-2.484,42.422c0.693,6.579,3.105,54.357,3.105,54.357l-12.118,36.698l-15.649,2.483l0.605,2.019 l28.395-4.502l12.119-36.698c0,0-10.042-47.778-10.734-54.357c-0.573-5.417,1.674-32.893,2.484-42.422 c10.961-68.984,26.963-171.263,27.625-181.75c2.627-41.611-8.291-94.729-13.241-151.795 C1090.27,956.938,1148.966,860.46,1117.438,704.819z"/><path style="fill:#CE451D;" d="M1064.141,1474.143c15.512-8.437,21.478-31.531,23.06-39.045c3.167,11.266,8.938,23.339,10.54,38.584 c0.455,4.297-3.233,22.166-6.003,25.292h-52.185c-8.315-4.052-11.084-19.751-11.084-19.751l6.889-58.1 C1037.126,1436.502,1039.828,1462.101,1064.141,1474.143z"/><g id="upper-body"><g id="right-arm"><path style="fill:#F7E3D9;" d="M1182.879,700.342c0,0-3.059,66.276-15.967,82.644c-11.943,15.143-33.046,37.871-48.781,28.218 c-6.292-3.859,5.646-21.439,16.035-31.176c9.715-9.099,11.178-19.742,11.795-30.199c0.461-7.812-1.944-3.143-6.723,11.002 c-4.836,14.317-24.559,14.56-19.988-8.053c4.841-23.956,1.517-29.214,17.684-39.602c9.264-5.95,10.444-9.866,10.164-17.765 L1182.879,700.342z"/><path style="fill:#F7E3D9;" d="M1169.15,587.846c4.531,20.974,13.689,112.535,13.689,112.535l-24.013,26.984 c-6.324-19.902-10.885-15.898-11.682-31.556c-0.716-14.166-11.425-86.909-13.165-98.529 C1132.245,585.66,1164.616,566.871,1169.15,587.846z"/><path style="fill:#F5CABD;" d="M1182.837,700.338c-0.038-0.394-1.646-16.419-3.829-36.459l-6.574,8.094 c0,0,1.821,37.017,0.608,51.581c-1.041,12.47-5.538,47.882-10.923,54.616c-14.565,18.206-29.129,27.915-40.66,32.163 c0,0-1.01,0.493-2.531,1.304c15.645,8.439,36.24-13.763,47.984-28.651c12.908-16.367,15.967-82.644,15.967-82.644 L1182.837,700.338z"/><path style="fill:#BB4326;" d="M1166.03,560.752c-3.035-9.828-6.884-20.995-10.611-31.799 c-5.458-40.981-12.384-162.204-14.213-176.212c-2.571-19.663-15.11-25.319-18.333-26.462c-0.133-0.051-3.927-1.271-4.093-1.331 c-10.759,35.559-14.28,114.719-12.938,134.331c4.599,27.438,10.406,61.27,14.943,85.039c4.59,58.03,18.319,96.923,23.402,134.092 c18.376,3.188,36.32-6.545,36.32-6.545C1175.08,638.717,1173.439,584.737,1166.03,560.752z"/><path style="fill:#A43A1F;" d="M1172.109,675.4c5.137-1.776,8.398-3.535,8.398-3.535c-5.428-33.148-7.068-87.128-14.478-111.113 c-3.035-9.828-6.884-20.995-10.611-31.799c-5.458-40.981-12.384-162.204-14.213-176.212c-2.571-19.663-15.11-25.319-18.333-26.462 c-3.068-1.181-14.665-4.945-44.239-7.995c0,0-0.038,0.017-0.108,0.054c-3.424-0.427-6.941-0.804-10.512-1.149l1.826,8.809 c0,0,49.896,4.536,56.247,17.237c6.35,12.701,8.163,82.558,10.885,94.35c2.722,11.796,4.537,88.003,9.075,96.167 C1150.518,541.803,1166.443,593.959,1172.109,675.4z"/><animateTransform id="rightArmRotateAnim" attributeName="transform" type="rotate" calcMode="spline" keySplines="0.2 0.4 0.2 0.1; 0.3 0.6 0.9 1; 0 1 1 0; 0.2 0.4 0.2 0.1; 0.3 0.6 0.9 1; 0 1 1 0" begin="0s" repeatCount="indefinite" from="-1 1123 350" to="-1 1123 350" dur="7.8s" keyTimes="0; 0.15; 0.30; 0.5; 0.65; 0.80; 1" values="-1 1123 350; 1 1123 350; 0 1123 350; 0 1123 350; 1 1123 350; -1 1123 350; -1 1123 350"/></g><g id="left-arm"><path style="fill:#F7E3D9;" d="M869.436,700.342c0,0,3.058,66.276,15.969,82.644c11.941,15.143,33.043,37.871,48.779,28.218 c6.292-3.859-5.646-21.439-16.034-31.176c-9.714-9.099-11.179-19.742-11.796-30.199c-0.459-7.812,1.944-3.143,6.723,11.002 c4.837,14.317,24.559,14.56,19.989-8.053c-4.842-23.956-1.518-29.214-17.685-39.602c-9.264-5.95-10.445-9.866-10.164-17.765 L869.436,700.342z"/><path style="fill:#F7E3D9;" d="M883.162,587.846c-4.532,20.974-13.688,112.535-13.688,112.535l24.013,26.984 c6.325-19.902,10.885-15.898,11.682-31.556c0.715-14.166,11.425-86.909,13.165-98.529 C920.072,585.66,887.694,566.871,883.162,587.846z"/><path style="fill:#F5CABD;" d="M915.61,722.004c4.854,4.047,9.709,33.173,12.136,46.929c0.086,0.469,0.205,0.892,0.352,1.282 c4.218-1.712,7.101-7.247,5.039-17.438c-4.84-23.956-1.516-29.214-17.683-39.602c-9.266-5.95-10.44-9.866-10.167-17.765 l-0.018,0.003c0.374-6.422,2.522-23.229,4.988-41.249l-0.309-0.128l-7.283,2.427c0,0-6.476,43.69-3.237,49.356 C902.666,711.483,910.755,717.957,915.61,722.004z"/><path style="fill:#C7CDD2;" d="M865.36,692.97c0.792-2.328,3.318-3.572,5.647-2.778c2.322,0.792,3.565,3.313,2.773,5.643 c-0.791,2.327-3.318,3.569-5.642,2.777C865.81,697.815,864.568,695.29,865.36,692.97z"/><path style="fill:#C7CDD2;" d="M873.012,692.242c0.783-2.32,3.314-3.57,5.632-2.778c2.327,0.797,3.57,3.318,2.783,5.644 c-0.797,2.328-3.319,3.569-5.641,2.773C873.453,697.09,872.21,694.565,873.012,692.242z"/><path style="fill:#C7CDD2;" d="M880.237,690.389c0.795-2.328,3.319-3.577,5.646-2.78c2.324,0.794,3.57,3.32,2.768,5.646 c-0.783,2.324-3.309,3.564-5.638,2.773C880.688,695.233,879.445,692.714,880.237,690.389z"/><path style="fill:#C7CDD2;" d="M887.538,687.996c0.787-2.32,3.314-3.567,5.641-2.771c2.329,0.791,3.566,3.314,2.78,5.642 c-0.797,2.328-3.319,3.567-5.646,2.778C887.983,692.849,886.746,690.324,887.538,687.996z"/><path style="fill:#C7CDD2;" d="M894.706,686.681c0.792-2.321,3.324-3.569,5.646-2.775c2.324,0.794,3.57,3.316,2.779,5.642 c-0.797,2.33-3.319,3.572-5.646,2.775C895.156,691.528,893.915,689.007,894.706,686.681z"/><path style="fill:#C7CDD2;" d="M901.539,683.701c0.79-2.323,3.317-3.573,5.636-2.783c2.333,0.799,3.57,3.322,2.778,5.649 c-0.787,2.328-3.312,3.572-5.636,2.775C901.989,688.549,900.747,686.026,901.539,683.701z"/><path style="fill:#BB4326;" d="M911.106,352.741c-1.83,14.008-8.757,135.23-14.21,176.212 c-3.726,10.804-7.582,21.971-10.615,31.799c-7.409,23.985-9.05,77.965-14.479,111.113c0,0,17.946,9.733,36.321,6.545 c5.082-37.169,18.813-76.062,23.401-134.092c4.566-23.885,9.811-54.395,14.429-81.938c-1.213-46.267,0-105.047-16.615-136.064 C925.971,327.534,913.65,333.266,911.106,352.741z"/><path style="fill:#A43A1F;" d="M899.287,679.012c2.886,0.067,5.85-0.085,8.836-0.602c5.082-37.169,18.813-76.062,23.401-134.092 c4.737-24.782,10.208-56.707,14.949-85.039l-4.641-25.595c0,0-16.993,93.857-19.42,107.611 C922.413,541.296,906.718,646.451,899.287,679.012z"/><animateTransform id="leftArmRotateAnim" attributeName="transform" type="rotate" calcMode="spline" keySplines="0.2 0.4 0.2 0.1; 0.3 0.6 0.9 1; 0 1 1 0; 0.2 0.4 0.2 0.1; 0.3 0.6 0.9 1; 0 1 1 0" begin="0s" repeatCount="indefinite" from="1 925 350" to="1 925 350" dur="7.8s" keyTimes="0; 0.15; 0.30; 0.5; 0.65; 0.80; 1" values="1 925 350; -1 925 350; 0 925 350; 0 925 350; -1 925 350; 1 925 350; 1 925 350"/></g><rect x="965.248" y="335.183" style="fill:#FFDE74;" width="121.817" height="317.581"/><path style="fill:#B66641;" d="M1100.736,1041.462c0,0,27.967-185.478,32.788-233.854c10.942-109.767-8.524-157.024-8.524-157.024 H927.315c0,0-19.47,47.258-8.53,157.024c4.827,48.377,32.79,233.854,32.79,233.854H1100.736z"/><ellipse style="fill:#B66641;" cx="1026.143" cy="1040.573" rx="74.768" ry="16.44"/><path style="fill:#A05A37;" d="M1104.212,650.583l-44.247,29.074c0,0,25.325,14.402,60.831,7.827c0,0,11.182,64.995-5.812,163.711 c-15.276,88.752-28.826,162.674-29.256,199.305c9.523-2.759,15.182-6.198,15.182-9.927c0-0.05-0.018-0.097-0.018-0.147 c2.221-14.766,28.02-186.532,32.632-232.818c10.942-109.767-8.524-157.024-8.524-157.024H1104.212z"/><linearGradient id="SVGID_3_" gradientUnits="userSpaceOnUse" x1="998.8525" y1="307.9175" x2="1053.4648" y2="307.9175"><stop offset="0" style="stop-color:#FCE7F0"/><stop offset="0.835" style="stop-color:#F7E3D9"/></linearGradient><rect x="998.853" y="278.784" style="fill:url(#SVGID_3_);" width="54.612" height="58.267"/><path style="fill:#FFDE74;" d="M1112.897,645.232c0,12.618-38.834,22.85-86.742,22.85c-47.903,0-86.736-10.231-86.736-22.85 c0-12.618,38.833-22.85,86.736-22.85C1074.063,622.383,1112.897,632.614,1112.897,645.232z"/><path style="fill:#FAC06D;" d="M1087.065,628.969V335.183h-60.91v332.899c47.908,0,86.742-10.231,86.742-22.85 C1112.897,638.868,1103.006,633.112,1087.065,628.969z"/><path style="fill:#F5CABD;" d="M1084.518,323.537l-1.034-4.55c-9.415-1.314-19.462-2.33-30.019-2.968v-24.84l-16.178,7.211 c0,0,12.271-1.534,11.351,21.772C1048.638,320.163,1072.248,321.084,1084.518,323.537z"/><polygon style="fill:#F56D6F;" points="1039.106,337.506 1000.716,390.856 1012.58,408.58 "/><polygon style="fill:#F56D6F;" points="1013.206,337.506 1039.731,408.58 1051.597,390.856 "/><polygon style="fill:#FAA54A;" points="997.635,310.786 1026.709,335.088 1009.623,362.202 987.367,324.672 "/><polygon style="fill:#FAA54A;" points="1054.678,310.786 1025.604,335.088 1042.683,362.202 1064.949,324.672 "/><path style="fill:#8C3E23;" d="M1060.971,499.174c0,2.316-1.879,4.194-4.195,4.194c-2.312,0-4.19-1.878-4.19-4.194 c0-2.318,1.878-4.193,4.19-4.193C1059.092,494.98,1060.971,496.855,1060.971,499.174z"/><path style="fill:#8C3E23;" d="M1060.971,557.164c0,2.315-1.879,4.192-4.195,4.192c-2.312,0-4.19-1.877-4.19-4.192 c0-2.316,1.878-4.193,4.19-4.193C1059.092,552.971,1060.971,554.848,1060.971,557.164z"/><path style="fill:#BB4326;" d="M988.09,334.671v-17.848c-4.902,0.424-9.664,0.937-14.299,1.515 c-0.072-0.037-0.114-0.054-0.114-0.054c-29.57,3.05-41.167,6.814-44.239,7.995c-0.031,0.011-0.068,0.025-0.101,0.037 c2.84,45.286,15.402,89.797,16.615,136.064c0.174-1.035,0.348-2.075,0.52-3.101l11.502,61.163 c2.441,22.548,3.803,55.484-7.448,77.361c-16.025,22.958-31.086,59.469-31.086,59.469s18.181,23.869,86.58,25.563V466.58 C999.668,369.721,993.481,343.589,988.09,334.671z"/><polygon style="fill:#8C3E23;" points="1006.029,465.906 999.265,326.1 998.762,307.869 979.689,317.343 974.033,367.711 995.386,371.059 971.662,377.018 1006.029,468.772 "/><path style="fill:#BB4326;" d="M1122.419,326.11c-3.66-1.338-15.493-4.908-43.785-7.826c0,0-0.038,0.017-0.108,0.054 c-4.637-0.578-9.402-1.091-14.304-1.515v17.848c-5.386,8.918-11.577,35.05-17.931,131.909v216.256 c68.402-1.694,86.58-25.563,86.58-25.563s-15.062-36.511-31.086-59.469c-11.252-21.877-9.887-54.814-7.448-77.361l11.505-61.163 c0.194,1.159-0.196-1.17,0,0C1105.57,440.5,1111.66,361.669,1122.419,326.11z"/><polygon style="fill:#8C3E23;" points="1046.281,465.906 1053.046,326.1 1053.549,307.869 1072.621,317.343 1078.278,367.711 1056.926,371.059 1080.653,377.018 1046.281,468.772 "/><path style="fill:#A43A1F;" d="M1132.871,657.273c0,0-15.062-36.511-31.086-59.469c-11.252-21.877-9.887-54.814-7.448-77.361 l11.505-61.163l2.102-20.782c0,0-16.334,50.805-20.867,76.206c-4.535,25.402-8.869,54.398,2.017,81.616 c10.333,25.827,21.038,39.648,31.563,70.29C1129.596,661.549,1132.871,657.273,1132.871,657.273z"/><path style="fill:#A43A1F;" d="M1006.021,682.836v-154.07l-12.061,153.513C997.796,682.542,1001.81,682.731,1006.021,682.836z"/><path style="fill:#FFFFFF;" d="M1074.377,347.735c0,0-5.161-0.127-6.357,4.961c-0.963,4.094,3.181,6.07,3.181,6.07 s-1.062-1.688-0.05-2.745c1.012-1.062,1.965-1.412,2.388-2.152c0.342-0.602,0.848-2.1-0.085-3.636 C1072.63,348.872,1074.377,347.735,1074.377,347.735z"/><path style="fill:#FFFFFF;" d="M1061.766,353.116c0,0-1.712,4.871,2.754,7.58c3.6,2.182,6.756-1.146,6.756-1.146 s-1.93,0.485-2.625-0.804c-0.696-1.29-0.732-2.308-1.31-2.935c-0.464-0.51-1.733-1.458-3.48-1.047 C1062.312,355.131,1061.766,353.116,1061.766,353.116z"/><path style="fill:#FFFFFF;" d="M1063.018,366.666c0,0,4.101,3.133,8.06-0.278c3.188-2.747,0.995-6.779,0.995-6.779 s-0.133,1.989-1.573,2.25c-1.442,0.263-2.419-0.015-3.196,0.339c-0.63,0.287-1.92,1.197-2.072,2.989 C1065.102,366.77,1063.018,366.666,1063.018,366.666z"/><path style="fill:#FFFFFF;" d="M1076.296,369.7c0,0,4.249-2.936,2.229-7.752c-1.63-3.878-6.143-3.044-6.143-3.044 s1.849,0.742,1.652,2.195c-0.194,1.451-0.762,2.295-0.664,3.144c0.075,0.688,0.545,2.197,2.199,2.892 C1077.041,367.751,1076.296,369.7,1076.296,369.7z"/><path style="fill:#FFFFFF;" d="M1083.309,358.072c0,0-1.477-4.947-6.685-4.516c-4.194,0.351-4.792,4.902-4.792,4.902 s1.278-1.531,2.596-0.896c1.323,0.635,1.949,1.433,2.789,1.603c0.676,0.141,2.257,0.162,3.428-1.201 C1081.682,356.761,1083.309,358.072,1083.309,358.072z"/><path style="fill:#541900;" d="M961.55,205.718c0,0-4.339,56.601,5.958,84.225c0,0-45.215-0.847-42.583-81.544L961.55,205.718z"/><path style="fill:#541900;" d="M1086.488,205.718c0,0,4.34,56.601-5.958,84.225c0,0,45.215-0.847,42.585-81.544L1086.488,205.718z" /><path style="fill:#993E21;" d="M1133.908,154.062c-1.156,62.726-50.344,112.61-109.886,112.61 c-59.539,0-108.735-49.885-109.897-112.61c-1.179-64.074,48.017-117.036,109.897-117.036 C1085.907,37.026,1135.099,89.988,1133.908,154.062z"/><linearGradient id="SVGID_4_" gradientUnits="userSpaceOnUse" x1="936.1177" y1="214.3374" x2="1111.0326" y2="214.3374"><stop offset="0" style="stop-color:#FBE6EF"/><stop offset="0.835" style="stop-color:#F7E2D8"/></linearGradient><path style="fill:url(#SVGID_4_);" d="M935.446,126.38l6.003,78.089c2.839,55.531,39.729,97.826,82.573,97.826 c42.844,0,79.729-42.295,82.573-97.826l5.998-78.089H935.446z"/><path style="fill:#F5CABD;" d="M1102.253,106.201l-8.43,98.268c-2.697,52.748-36.126,93.525-76.188,97.479 c2.115,0.209,4.239,0.347,6.387,0.347c42.844,0,79.729-42.295,82.573-97.826l8.43-98.268H1102.253z"/><path style="fill:#C5168C;" d="M1024.022,262.147c-9.008,0-17.324-2.693-24.061-7.244h-1.692 c6.353,6.472,15.579,11.308,25.795,11.308c10.217,0,19.358-4.836,25.706-11.308h-1.691 C1041.341,259.454,1033.025,262.147,1024.022,262.147z"/><path style="fill:#C5168C;" d="M1000.899,255.922c0,0,4.272,3.67,17.007,3.49l8.234,3.669l-11.838-0.549 C1014.303,262.532,1003.807,259.228,1000.899,255.922z"/><path style="fill:#C5168C;" d="M1047.14,255.922c0,0-4.272,3.67-17.001,3.49l-8.24,3.669l11.838-0.549 C1033.736,262.532,1044.237,259.228,1047.14,255.922z"/><path style="fill:#FFFFFF;" d="M1000.507,187.714c0,10.663-9.894,19.301-22.108,19.301c-12.208,0-22.106-8.638-22.106-19.301 c0-10.657,9.898-19.301,22.106-19.301C990.612,168.413,1000.507,177.057,1000.507,187.714z"/><path style="fill:#FFFFFF;" d="M1092.562,187.714c0,10.663-9.895,19.301-22.107,19.301c-12.208,0-22.106-8.638-22.106-19.301 c0-10.657,9.898-19.301,22.106-19.301C1082.668,168.413,1092.562,177.057,1092.562,187.714z"/><polygon style="fill:#F5CABD;" points="1022.471,241.112 1036.979,230.288 1007.964,230.288 "/><polygon style="fill:#F5CABD;" points="1026.663,233.048 1026.663,196.456 1037.018,230.269 "/><path d="M980.528,171.362c-5.975,0-11.227,2.574-14.488,6.495l20.491,3.85l-23.838,4.48c-0.019,0.279-0.095,0.545-0.095,0.834 c0,8.643,8.027,15.655,17.93,15.655c9.903,0,17.93-7.012,17.93-15.655C998.458,178.374,990.432,171.362,980.528,171.362z"/><path d="M1067.583,171.362c-5.97,0-11.222,2.574-14.485,6.495l20.487,3.85l-23.834,4.48c-0.018,0.279-0.099,0.545-0.099,0.834 c0,8.643,8.027,15.655,17.931,15.655c9.908,0,17.94-7.012,17.94-15.655C1085.523,178.374,1077.491,171.362,1067.583,171.362z"/><path d="M961.189,169.608c0,0,3.466,6.178,14.29,5.689l-2.224,2.423C973.255,177.72,966.04,179.777,961.189,169.608z"/><path d="M1086.922,169.608c0,0-3.467,6.178-14.281,5.689l2.215,2.423C1074.855,177.72,1082.065,179.777,1086.922,169.608z"/><linearGradient id="SVGID_5_" gradientUnits="userSpaceOnUse" x1="1067.7231" y1="180.0382" x2="1067.7231" y2="220.741"><stop offset="0" style="stop-color:#FFFFFF"/><stop offset="1" style="stop-color:#231F20"/></linearGradient><path style="opacity:0.5;fill:url(#SVGID_5_);" d="M1051.952,188.435c0.487,6.969,7.349,12.507,15.768,12.507 c8.421,0,15.285-5.538,15.774-12.507c0,0-8.113-1.475-15.736-1.475C1060.14,186.96,1051.952,188.435,1051.952,188.435z"/><linearGradient id="SVGID_6_" gradientUnits="userSpaceOnUse" x1="980.6467" y1="180.0382" x2="980.6467" y2="220.741"><stop offset="0" style="stop-color:#FFFFFF"/><stop offset="1" style="stop-color:#231F20"/></linearGradient><path style="opacity:0.5;fill:url(#SVGID_6_);" d="M964.878,188.435c0.483,6.969,7.348,12.507,15.764,12.507 c8.419,0,15.286-5.538,15.773-12.507c0,0-8.111-1.475-15.731-1.475C973.06,186.96,964.878,188.435,964.878,188.435z"/><path style="fill:#F5CABD;" d="M1098.005,166.688v60.339c16.386-0.337,29.57-13.701,29.57-30.172 C1127.575,180.389,1114.391,167.024,1098.005,166.688z"/><linearGradient id="SVGID_7_" gradientUnits="userSpaceOnUse" x1="933.7063" y1="196.8569" x2="1113.4236" y2="196.8569"><stop offset="0" style="stop-color:#FBE6EF"/><stop offset="0.835" style="stop-color:#F7E2D8"/></linearGradient><path style="fill:url(#SVGID_7_);" d="M950.035,227.026v-60.339c-16.386,0.337-29.57,13.701-29.57,30.172 C920.464,213.325,933.648,226.689,950.035,227.026z"/><path style="fill:#993E21;" d="M969.419,106.941c0,0-75.164,162.815-9.409,189.043c0,0-111.826,13.929-38.331-186.104 L969.419,106.941z"/><path style="fill:#993E21;" d="M1078.623,106.941c0,0,75.164,162.815,9.412,189.043c0,0,111.826,13.929,38.33-186.104 L1078.623,106.941z"/><path style="fill:#993E21;" d="M942.798,90.409c0,0,10.687,84.91,119.11,77.627c0,0-25.896-21.847-28.322-87.386L942.798,90.409z" /><path style="fill:#993E21;" d="M1009.81,100.427c0,0,8.975,52.037,81.967,65.137c0,0-4.367-38.676-32.442-68.623L1009.81,100.427z" /><path style="fill:#993E21;" d="M1064.725,122.634c1.994,0.995,38.155,24.459,39.662,66.531l19.168-55.896l-10.07-33.272 l-42.109,5.021L1064.725,122.634z"/><path style="fill:#993E21;" d="M960.474,106.008c0,0-4.367,33.062,22.457,58.641c0,0-44.223,6.543-55.526-23.704l9.986-30.57 L960.474,106.008z"/><path style="fill:#993E21;" d="M950.347,143.012c0,0-13.582,65.399,20.12,106.65c0,0-49.443,1.425-46.731-81.787L950.347,143.012z" /><path style="fill:#993E21;" d="M1097.698,143.012c0,0,13.582,65.399-20.126,106.65c0,0,49.443,1.425,46.73-81.787L1097.698,143.012 z"/><animateTransform id="upperBodyTrasnlateAnim" attributeName="transform" type="translate" calcMode="spline" keySplines="0.2 0.4 0.2 0.1; 0.3 0.6 0.9 1; 0 1 1 0" begin="0s" repeatCount="indefinite" from="0 0" to="0 0" dur="3.9s" keyTimes="0; 0.30; 0.60; 1" values="0 0; 0 15; 0 0; 0 0"/></g></svg> 